<svg xmlns="http://www.w3.org/2000/svg" width="329" height="229" fill="none" xmlnsV="https://vecta.io/nano"><style>.B{fill:#f8bc9f}.C{fill:#534c5d}.D{fill:#38484e}.E{fill:#ffd879}.F{fill:#f8ad50}.G{fill:#2dc3f3}.H{fill:#f28f32}.I{fill:#38323d}.J{fill:#14bfdd}.K{fill:#f4a388}</style><path d="M232.54 80.187c.145-.995.533-2.681 1.757-4.27 3.186-4.113 8.942-3.543 9.717-3.458.969.109 6.155.716 8.457 5.193 1.418 2.754 1.817 7.085-.654 9.512-2.46 2.414-6.422 1.614-8.276 1.238-6.312-1.286-9.911-6.479-11.001-8.214z" class="D"/><path d="M226.567 106.416c-1.078 6.515.182 9.451-.824 14.255-.497 2.378-1.684 5.885-4.968 9.84 1.539 1.929 3.768 4.21 6.858 6.187 8.3 5.302 17.023 4.659 20.222 4.246a78.55 78.55 0 0 0 3.489-11.295c2.399-10.543 2.205-19.848 1.43-26.703a47.33 47.33 0 0 0-9.075-2.778c-6.167-1.237-11.51-1.043-15.351-.582-.521 1.443-1.297 3.821-1.793 6.83h.012z" class="E"/><path d="M224.01 204.311l.885 2.815c.86.655 2.12 1.54 3.695 2.511 3.102 1.88 6.785 4.125 8.457 2.912.049-.037.594-.449.666-1.08.158-1.25-1.599-2.366-3.089-3.385-1.539-1.055-3.708-2.62-6.313-4.816l-4.313 1.055.012-.012z" class="C"/><path d="M167.828 149.534a108.13 108.13 0 0 1 17.847.485 109.26 109.26 0 0 1 29.539 7.558c2.908 4.174 6.906 8.675 8.602 14.68 4.956 17.507 4.592 22.19 5.622 31.847-.472.364-1.211.825-2.205 1.068-2.387.582-4.362-.57-4.846-.861-9.16-11.55-13.546-18.405-22.706-29.955-3.61-.534-8.639-1.771-13.933-4.731-11.171-6.261-16.175-16.124-17.92-20.091z" class="J"/><path d="M198.809 143.796c-2.775-.304-5.15.873-5.84 2.693-.146.376-.388 1.213-.037 2.426.873.304 2.121.619 3.659.668 1.939.048 3.49-.376 4.459-.716l.545-4.186-2.786-.885zm18.101 21.886c-2.617 1.007-4.18 3.13-3.962 5.071.048.388.218 1.25 1.078 2.172a12.29 12.29 0 0 0 3.55-1.092 12.41 12.41 0 0 0 3.635-2.681l-1.43-3.967-2.883.497h.012z" class="C"/><path d="M107.902 76.887c-2.266 5.52-3.672 10.749-4.508 15.566-6.978 40.412 22.391 74.686 30.872 83.955l29.575-20.819-14.624-19.472c-2.471-3.628-6.809-11.089-7.73-21.438-.593-6.612.424-12.095 1.418-15.747-2.351-1.468-5.222-3.033-8.59-4.428a58.97 58.97 0 0 0-11.135-3.336c-1.66-2.487-4.059-5.544-7.415-8.577-2.811-2.536-5.549-4.392-7.851-5.726l-.012.024z" class="F"/><g class="H"><path d="M124.816 101.988l-8.53 1.905c-.739-1.626-1.527-3.737-2.036-6.273a28.49 28.49 0 0 1-.399-8.772 7.2 7.2 0 0 1 2.18-3.166c1.079-.886 2.169-1.237 2.799-1.395l8.809 5.35a18.95 18.95 0 0 1 1.866 2.79c2.823 5.193 2.447 10.506 2.023 13.26l-6.688-3.7h-.024z"/><path d="M146.14 150.905l1.042-1.092c-7.803-7.474-13.836-16.694-17.447-26.655-2.435-6.721-3.804-13.794-4.059-21.012l-1.502.06c.266 7.377 1.66 14.595 4.144 21.462 3.683 10.191 9.85 19.606 17.822 27.237z"/></g><g class="F"><path d="M112.106 80.648a81.89 81.89 0 0 1-5.973-7.583 83.92 83.92 0 0 1-8.893-16.391l2.484-16.67 2.823-18.417a5.13 5.13 0 0 0-2.181-.861c-1.03-.146-1.854.061-2.278.194a73.65 73.65 0 0 0-6.615 13.297c-3.901 10.349-4.737 19.678-4.762 26.193a142.21 142.21 0 0 0 7.306 22.796c3.162 7.57 6.64 14.073 9.935 19.46 1.757-2.499 3.865-6.029 5.525-10.567 1.636-4.453 2.326-8.456 2.617-11.465l.012.012zm22.73 14.255a26.4 26.4 0 0 1 5.028 1.614 26.65 26.65 0 0 1 6.7 4.173l22.875 10.07-1.454 12.569c-4.095-.776-8.566-1.832-13.315-3.312-7.379-2.305-13.728-5.071-18.986-7.777l-.848-17.324v-.012z"/><path d="M165.199 109.814c3.95-1.663 8.154-3.64 12.528-6.018A137.71 137.71 0 0 0 196.228 91.7c.497.17 1.842.704 2.86 2.099a5.88 5.88 0 0 1 1.078 2.803 125.21 125.21 0 0 1-7.451 8.613c-2.605 2.754-20.137 21.256-25.868 17.726-1.309-.801-1.745-2.597-2.266-4.659-.969-3.895.121-7.17.642-8.481l-.024.013z"/></g><path d="M122.477 70.735l-1.987 5.265c-1.538 4.538-2.532 8.808-3.162 12.63 3.271 9.172 5.828 13.613 7.657 13.334 1.442-.219 2.424-3.361 2.969-9.427l6.312-11.805-11.789-9.997z" class="B"/><path d="M130.801 87.333l-1.114 1.783a17.87 17.87 0 0 1-2.751-.692c-4.107-1.395-6.809-4.052-8.299-5.836l2.29-9.779 9.886 14.522h-.012z" class="K"/><path d="M141.997 72.531c.642-.922 1.551-2.499 1.72-4.586.364-4.635-3.295-8.056-4.567-9.257-3.09-2.887-6.604-3.907-12.092-5.496-1.939-.558-3.562-.922-4.653-1.14-.387.704-.727 1.48-1.005 2.342-1.624 5.108.29 9.851 1.26 11.841l19.349 6.284-.012.012z" class="D"/><path d="M128.075 59.647c-1.49 1.407-3.296 3.409-4.858 6.102-2.945 5.047-3.599 9.888-3.744 12.642.69 1.48 1.805 3.482 3.61 5.508 1.83 2.075 3.72 3.446 5.125 4.319 1.369-.158 2.92-.437 4.604-.886 2.012-.534 3.732-1.213 5.162-1.868.133-1.419.46-3.579 1.393-6.018 1.309-3.421 2.629-4.283 3.114-6.831.703-3.664-1.054-6.818-1.333-7.303-2.326-4.052-7.5-6.26-13.061-5.666h-.012z" class="B"/><path d="M128.851 59.526l-8.397-.376-.933 8.371 2.666.704 6.664-8.711v.012z" fill="#607782"/><path d="M122.538 68.564c0-.085-.206-1.334-1.296-1.808-.666-.279-1.442-.182-1.975.194-1.03.728-.921 2.329-.751 4.61.06.776.157 1.335.533 1.868.412.607.981.922 1.309 1.08a7.83 7.83 0 0 0 1.756-2.839c.461-1.298.473-2.439.424-3.106z" class="B"/><path d="M140.991 63.699c-.667-.279-1.672-.643-2.92-.959-3.211-.813-5.307-.546-7.73-.582-3.95-.061-8.954-.121-10.554-2.766-.351-.594-1.26-2.475.74-6.515 2.011.194 4.373.619 6.918 1.504 6.87 2.366 11.28 6.709 13.533 9.318h.013z" class="D"/><g class="B"><path d="M196.337 92.052l.642-.958c.679-1.14.751-1.723 1.212-2.584.448-.837.557-.631 1.599-2.026 1.26-1.686 1.575-2.621 1.963-2.548.194.036.436.328.557 1.589l4.107-1.893a5.42 5.42 0 0 1 .776.922c1.26 1.905.945 4.088.775 4.889-.739.813-1.611 1.662-2.629 2.523a28.15 28.15 0 0 1-4.871 3.288l-.726.91a10.72 10.72 0 0 1-1.83-1.698c-.751-.886-1.248-1.747-1.563-2.414h-.012zM98.161 21.249a24.7 24.7 0 0 0 .606-3.603c.242-2.621.024-2.875.339-4.161.121-.522 1.042-4.271 3.962-5.071.218-.061 2.302-.607 3.15.425.957 1.165-.485 3.324-2.484 8.941l-1.406 4.319c-.375.121-1.211.34-2.265.121-.969-.206-1.612-.704-1.915-.958l.012-.012z"/><path d="M100.753 11.749a6.7 6.7 0 0 0 .073-2.269c-.133-.934-.388-1.189-.533-1.31-.267-.218-.751-.4-1.078-.231-.545.303-.17 1.395-.242 2.96-.097 2.366-1.042 2.742-.957 4.489.036.789.291 1.941 1.333 3.3l1.405-6.964v.024z"/></g><path d="M124.501 105.895c1.333 1.201 5.598 4.744 11.959 5.035 1.296.061 5.391.194 9.45-2.099 3.502-1.977 3.889-4.004 7.754-6.806 2.92-2.111 5.768-3.179 7.694-3.749-4.907-2.293-8.396-2.111-10.65-1.565-6.724 1.638-8.409 8.032-15.29 9.754-3.853.959-7.428-.012-9.73-.922l-1.187.34v.012z" class="E"/><path d="M110.664 108.127l7.573 1.201-.327 2.147-7.318-.958.072-2.39z" class="H"/><path d="M120.454 102.959l2.169.461 1.636 2.536 1.514.085.897-2.099 1.635-.049-3.465-1.916-4.362.97-.024.012z" class="E"/><path d="M197.948 183.274c.267.34.727.813 1.418 1.225.836.498 1.623.655 2.096.704 1.769-2.621 2.714-4.999 3.247-6.636.473-1.493 2.363-7.401.303-8.954-.049-.036-.594-.437-1.224-.328-1.381.243-1.999 2.694-2.326 3.943-.63 2.342-1.66 5.63-3.502 10.046h-.012z" class="C"/><path d="M204.975 95.704c1.442 1.929 3.151 3.943 5.198 5.945 7.137 6.963 14.951 10.458 20.44 12.277l2.556-14.328c-2.81-.376-5.888-.971-9.184-1.88-6.784-1.868-12.334-4.501-16.586-6.964a7.12 7.12 0 0 0-1.6 1.99c-.654 1.201-.799 2.329-.848 2.96h.024z" class="E"/><g class="F"><path d="M246.485 140.654c-.412 1.261-1.49 4.052-4.216 6.454-.751.667-3.441 2.984-7.476 3.482-4.519.558-7.863-1.529-11.982-4.076-4.302-2.67-6.785-4.21-7.185-7.001-.449-3.191 2.011-6.66 5.876-9.014 2.884.692 5.973 1.589 9.22 2.754 6.192 2.208 11.45 4.853 15.763 7.389v.012z"/><path d="M225.294 132.5c-8.542-7.534-17.338-10.894-21.445-7.958-2.23 1.601-3.248 5.18-4.629 10.069-1.042 3.676-1.454 6.831-1.623 8.99a5.29 5.29 0 0 0 1.902 1.359 5.3 5.3 0 0 0 2.278.401c1.732-.947 4.083-2.5 6.276-4.987 1.115-1.274 1.963-2.523 2.605-3.627 1.308 1.213 2.677 2.438 4.143 3.676a123.69 123.69 0 0 0 5.974 4.756l4.519-12.679z"/><path d="M233.133 137.014c-5.416 1.407-9.463 3.445-12.128 5.047-3.574 2.147-5.804 3.53-7.027 6.321-.994 2.293-.8 4.476-.364 8.735.376 3.712 1.103 6.721 1.684 8.735.339.23 1.248.776 2.508.788 1.418.025 2.423-.63 2.751-.873 1.139-1.25 3.077-3.749 3.998-7.437.557-2.208.557-4.149.448-5.52 2.121.157 7.524.267 12.989-3.021 3.368-2.038 5.464-4.574 6.603-6.224l-3.029-1.856c-2.872-1.723-5.707-3.276-8.457-4.671l.024-.024z"/></g><path d="M249.756 115.77c8.881.558 17.157-3.239 21.47-10.094 3.368-5.362 3.271-10.907 3.078-13.26a5.53 5.53 0 0 0-2.436-1.832 5.49 5.49 0 0 0-3.126-.218c-.545 1.723-1.817 4.913-4.846 7.619-5.901 5.29-13.473 4.283-14.661 4.113-.169 1.492-.278 3.142-.29 4.902a45.97 45.97 0 0 0 .811 8.771z" class="E"/><path d="M218.437 143.638l7.827-4.076a29.48 29.48 0 0 1-4.568.885 28.66 28.66 0 0 1-6.906-.06l1.611 1.504 2.036 1.747z" class="H"/><path d="M207.266 91.264a11.68 11.68 0 0 0-.775-3.361c-.097-.23-.352-.728-.873-1.723-.581-1.104-.763-1.395-1.03-1.395-.387 0-.678.619-.775.825-.364.776-.206 1.541-.121 1.856-.63-1.419-2.084-2.257-3.502-2.05-1.793.255-2.532 2.002-2.568 2.075-.182.498-.63 1.953.048 3.361.533 1.104 1.478 1.614 2.75 2.281a12.46 12.46 0 0 0 3.781 1.262l1.369.959a5.13 5.13 0 0 0 1.308-1.82c.412-.971.424-1.832.4-2.281l-.012.012zm61.888-.51l-1.054-2.766-.594-1.844c-.594-1.711-.933-2.293-.678-2.548.254-.243.884.024 1.066.109 1.102.473 1.478 1.674 1.563 1.978l.315-1.88c.194-1.347.182-1.905.618-2.548.145-.218.593-.874 1.042-.764.315.073.557.497.606 1.031.121-.279.387-.752.86-.898.969-.291 2.035 1.08 2.193 1.298 1.32 1.759.86 4.149.63 5.362a11.44 11.44 0 0 1-1.418 3.676L274 92.61c-.569 0-1.332-.085-2.205-.364a7.65 7.65 0 0 1-2.653-1.492h.012z" class="B"/><path d="M137.55 58.871c-1.479-.109-2.775-.995-3.393-2.305-.836-1.808.061-3.482.158-3.652.605.655 1.538 1.614 2.762 2.633 3.344 2.803 5.089 3.009 6.216 4.695.848 1.262 1.405 3.445 0 7.486l-5.755-8.857h.012z" class="D"/><path d="M247.019 87.636l-.812 4.174a82.88 82.88 0 0 1-2.508 9.027c-1.757 3.579-4.968 4.755-6.434 3.882-1.151-.68-1.563-2.815-1.066-5.059l-.715-10.288 11.523-1.735h.012z" class="B"/><path d="M235.763 94.94l.339 3.725a15.81 15.81 0 0 0 3.768.145c2.072-.17 3.732-.74 4.859-1.225l2.411-7.182-11.365 4.538h-.012z" class="K"/><path d="M247.721 78.489c1.43 1.868 1.72 3.822 1.878 5.023.715 5.241-1.939 9.414-2.956 10.858-.861.886-2.654 2.463-5.368 3.142-3.041.764-7.694.497-9.681-2.317-.811-1.153-.593-3.955-.145-9.548.291-3.615.569-4.695 1.09-5.811.485-1.031 1.66-3.531 4.241-4.695 3.744-1.711 8.554.231 10.929 3.361l.012-.012z" class="B"/><path d="M247.249 117.59l.436-1.662-6.676-1.602-.655 2.026.812.267.412-1.274 5.053 1.213-.218.813.836.219z" fill="#fab855"/><path d="M249.151 78.767c-1.248.679-3.259 1.614-5.864 2.063-3.756.643-10.965.667-12.286-2.839-1.247-3.312 3.502-7.789 3.805-8.056-.012.461.036 1.177.485 1.771 2.108 2.79 9.668-1.638 12.77 1.165.86.776 1.636 2.354 1.102 5.908l-.012-.012z" class="D"/><path d="M248.472 86.617c1.042-.473 2.242-.376 3.114.255 1.018.74 1.345 2.014 1.187 2.9-.303 1.711-2.617 3.179-5.682 2.936l1.369-6.09h.012z" class="B"/><path d="M122.157 61.721l-.794.801 2.324 2.306.793-.801-2.323-2.306zm114.854 11.927c-.364-.91-.679-2.038-.194-2.487.412-.388 1.151-.061 2.217.085 1.793.243 2.375-.255 4.192-.437.921-.097 4.35-.461 6.131 1.456 1.454 1.577 1.163 4.004 1.018 4.841l-13.364-3.458z" class="D"/><path d="M133.285 82.043l-4.01-2.075-2.775-1.444c-.799 1.88.025 4.076 1.818 4.962 1.744.861 3.913.243 4.967-1.444z" fill="#fff"/><path d="M134.036 177.438c-3.174-2.487-.375-10.967.679-14.182 2.605-7.898 9.232-21.887 28.69-35.73a112.2 112.2 0 0 1 10.772 9.002c15.799 15.02 24.232 32.005 28.872 44.61l-4.313 2.427c-4.847-1.82-10.977-4.647-17.459-9.099a81.2 81.2 0 0 1-16.042-14.535 71.94 71.94 0 0 1-15.642 12.484c-5.379 3.179-12.516 7.413-15.569 5.023h.012z" class="G"/><path d="M144.771 217.535l1.793 1.358.558 3.385c.436 2.075.775 2.791.569 3.967-.254 1.468-1.199 2.852-1.684 2.742-.497-.109-.339-1.662-.678-3.736-.412-2.463-1.309-4.356-2.012-5.581l1.466-2.148-.012.013zm.073-21.801l2.241.036 2.448 2.402c1.575 1.42 2.265 1.796 2.798 2.864.667 1.334.715 3.008.255 3.202-.461.207-1.248-1.14-2.75-2.608-1.781-1.747-3.635-2.742-4.907-3.312l-.085-2.596v.012zM80.072 44.02c-1.902-.17-6.797-.34-11.062 2.79-5.816 4.271-8.081 12.909-5.222 21.341-.557 1.759-1.514 4.477-3.041 7.631-5.44 11.174-13.182 17.592-15.666 19.8-10.432 9.269-25.08 30.634-22.923 46.224 2.205 16.002 22.524 28.947 47.652 34.795 1.018 1.019 13.631 13.248 25.516 9.572 14.284-4.428 19.204-29.287 11.607-42.123-6.3-10.652-18.816-8.941-21.991-19.254-1.708-5.568 1.502-7.473 6.216-22.553 0 0 7.766-24.847 3.283-43.846-.569-2.427-1.575-5.593-4.156-8.529-3.441-3.907-7.863-5.314-10.202-5.86l-.012.012z" class="C"/><path d="M88.31 75.601l-.388 4.307-.642 4.901-.533 2.984-.678 3.3-.921 3.518-1.163 3.725-3.174 7.837c-1.163 2.681-2.617 5.532-2.714 8.723-.073.789.012 1.577.073 2.366l.485 2.317c.497 1.529 1.151 3.045 2.157 4.307 1.902 2.645 4.495 4.574 6.894 6.503 2.423 1.917 4.725 3.858 6.64 6.017 1.963 2.123 3.453 4.501 4.677 6.831l.86 1.759.727 1.771 1.115 3.421c1.199 4.489 1.393 8.432 1.381 11.162 0 1.371-.061 2.451-.097 3.191l-.085 1.128.133.024s.061-.388.194-1.116c.109-.728.279-1.807.4-3.191.133-1.383.182-3.069.109-5.01-.06-1.941-.327-4.125-.86-6.479s-1.321-4.865-2.581-7.315c-1.223-2.475-2.823-4.975-4.907-7.158-2.06-2.208-4.471-4.162-6.967-6.018-2.472-1.856-5.089-3.615-7.039-5.993-1.03-1.153-1.708-2.548-2.254-3.967-.206-.728-.363-1.541-.521-2.257-.061-.764-.17-1.529-.109-2.293.109-3.082 1.587-5.836 2.956-8.42 1.369-2.608 2.726-5.168 3.623-7.764.945-2.572 1.636-5.059 2.084-7.413.267-1.177.424-2.293.606-3.348.194-1.056.303-2.099.4-3.057.182-1.917.303-3.603.315-4.986.061-2.766-.048-4.343-.048-4.343h-.145v.036z" class="I"/><path d="M102.462 143.48l1.405-.085a18.21 18.21 0 0 0-.969-4.914c-1.781-5.144-5.27-7.303-8.348-9.22-2.508-1.565-4.689-2.9-5.707-5.581-1.345-3.482-.061-6.406 1.708-10.458 1.854-4.246 4.168-9.524 4.313-17.555.061-3.324-.267-6.685-.957-9.973l-1.369.291c.678 3.191.981 6.442.933 9.657-.133 7.752-2.387 12.884-4.192 17.009-1.83 4.186-3.283 7.498-1.733 11.526 1.2 3.105 3.671 4.646 6.288 6.272 3.017 1.868 6.143 3.809 7.767 8.48.497 1.444.799 2.973.896 4.538l-.036.012z" class="C"/><path d="M75.649 79.083a110.25 110.25 0 0 0 6.858-9.536c11.898-18.526 16.32-37.403 17.944-51.683a4.25 4.25 0 0 1 1.175.012c.594.097 1.054.303 1.345.461 1.091 6.26 1.066 11.404.909 14.898-.473 10.082-3.066 18.21-5.343 23.682-1.236 3.907-2.775 8.116-4.713 12.52-3.392 7.704-7.221 14.195-10.832 19.508l-7.33-9.876-.012.012z" class="G"/><path d="M102.729 18.943l1.417-1.966c.388-.291.933-.752 1.43-1.444 1.066-1.48 1.2-2.972 1.297-4.246.121-1.517.206-2.681-.546-3.324-.533-.461-1.26-.437-1.829-.425 0 0-1.612.036-3.078 1.128-1.878 1.395-2.653 5.362-1.563 9.997.291.17.921.497 1.769.485a3.13 3.13 0 0 0 1.103-.206z" class="B"/><path d="M70.488 174.891l-.921-.425-2.532-1.286-3.732-2.317c-1.381-.983-2.896-2.148-4.41-3.567s-2.993-3.118-4.447-5.011c-1.417-1.892-2.799-4.015-3.938-6.369-1.175-2.341-2.048-4.938-2.556-7.643-.497-2.706-.642-5.533-.254-8.287s1.26-5.41 2.145-8.019l2.678-7.692c1.672-5.01 3.138-9.718 4.325-13.77l2.823-9.827.993-3.749-.133-.049-1.393 3.627-3.453 9.621a405.72 405.72 0 0 0-4.544 13.71l-2.472 7.764c-.8 2.669-1.539 5.447-1.733 8.311-.109 1.419-.085 2.875.036 4.27.109 1.42.279 2.815.557 4.186.533 2.742 1.284 5.387 2.29 7.874 1.006 2.475 2.205 4.78 3.635 6.794 1.442 2.001 3.053 3.7 4.653 5.132s3.187 2.596 4.689 3.494c1.49.897 2.835 1.589 3.986 2.074 2.29.983 3.671 1.298 3.671 1.298l.049-.133-.012-.012z" class="I"/><path d="M28.833 148.273l1.187-.752c-7.9-12.436-10.383-22.942-7.391-31.192 2.363-6.539 7.548-10.131 13.558-14.292 6.082-4.21 12.988-8.978 19.034-17.943 4.641-6.867 7.803-14.801 9.426-23.585l-1.381-.255c-1.587 8.59-4.677 16.342-9.208 23.051-5.901 8.747-12.685 13.442-18.671 17.58-6.203 4.294-11.571 8.007-14.079 14.959-3.138 8.686-.606 19.593 7.524 32.429z" class="C"/><path d="M68.646 65.992l-.388 1.31-1.163 3.652c-1.054 3.13-2.75 7.534-5.343 12.557-.654 1.274-1.357 2.511-2.169 3.822l-1.187 2.014-1.308 1.978c-.848 1.359-1.902 2.657-2.859 4.052-1.054 1.322-2.12 2.693-3.32 4.004-2.326 2.669-5.016 5.156-7.718 7.728-2.714 2.548-5.452 5.241-7.633 8.408-2.205 3.154-3.707 6.769-4.592 10.458-.848 3.688-1.212 7.425-1.103 11.04.097 3.615.739 7.085 1.708 10.252a34.2 34.2 0 0 0 3.889 8.456c3.126 4.925 6.834 8.08 9.523 10.033 1.357.971 2.484 1.638 3.247 2.087l1.187.667.073-.121-1.127-.752a42.94 42.94 0 0 1-3.041-2.318c-1.26-1.055-2.75-2.39-4.277-4.088-1.514-1.699-3.102-3.749-4.519-6.127-1.43-2.426-2.641-5.193-3.574-8.25s-1.454-6.406-1.624-9.888.121-7.121.86-10.724c.751-3.567 2.06-7.134 4.035-10.313 1.018-1.577 2.12-3.093 3.356-4.501 1.248-1.395 2.569-2.717 3.926-4.003 2.726-2.536 5.464-4.987 7.972-7.522s4.786-5.168 6.627-7.898l1.381-2.014 1.187-2.014c.775-1.31 1.502-2.657 2.12-3.931 1.272-2.56 2.302-4.986 3.078-7.17s1.393-4.113 1.805-5.726c.836-3.227 1.127-5.096 1.127-5.096l-.133-.036-.024-.024z" class="I"/><path d="M58.869 137.73a62.51 62.51 0 0 0 1.975 7.497c6.276 18.963 20.27 30.84 29.636 37.198a417.94 417.94 0 0 1 14.273 3.603c14.539 3.943 28.061 8.432 40.54 13.2.158-.583.315-1.383.303-2.342 0-.728-.109-1.346-.218-1.844a99.43 99.43 0 0 0-16.272-11.416c-11.365-6.382-22.039-9.415-29.89-10.943-2.266-5.69-7.221-15.833-17.484-24.738-6.555-5.678-13.097-8.966-17.859-10.883l-5.016.668h.012z" class="H"/><path d="M60.529 137.087a34.99 34.99 0 0 0 2.302 5.932c1.357 2.754 2.896 4.95 4.228 6.612l6.058 3.203a349.38 349.38 0 0 0 8.396 10.337c19.87 23.561 41.122 42.523 61.816 57.798a4.1 4.1 0 0 0 1.599-1.675c.533-1.043.461-2.001.412-2.353-4.01-7.643-10.492-17.713-20.803-27.261-4.907-4.538-9.754-8.117-14.152-10.919l-3.865-10.931-4.616-12.351c-1.684-4.246-6.664-13.369-24.62-27.673l-16.769 9.281h.012z" class="F"/><path d="M63.352 76.851a40.51 40.51 0 0 1-5.573 7.085 40.6 40.6 0 0 1-5.864 4.938c-.4.825-1.466 3.349-.8 6.491.485 2.257 1.636 3.785 2.266 4.501l-.254 8.881c.194 12.715 2.811 23.634 5.816 32.211 2.532-.291 5.973-.958 9.753-2.633 5.561-2.463 9.245-5.932 11.292-8.189-1.115-1.553-2.423-3.215-3.95-4.938a56.74 56.74 0 0 0-4.422-4.44c1.938-6.673 4.289-13.794 7.136-21.268 2.775-7.267 5.683-13.976 8.602-20.103l-24.002-2.523v-.012z" class="G"/><path d="M67.253 76.559a10.61 10.61 0 0 0-1.309 3.992c-.206 1.868-.073 5.326 1.284 5.945 1.212.558 3.805-.958 9.62-8.759-1.405-.497-3.259-.983-5.477-1.189a23.12 23.12 0 0 0-4.119.012z" class="J"/><path d="M64.43 79.046l-2.702-7.655c-6.688-21.45-5.731-41.662-2.823-57.47-.036-.061-.8-1.262-2.157-1.238a2.44 2.44 0 0 0-1.66.716c-1.006 2.378-2.338 5.872-3.514 10.203-2.617 9.584-3.078 18.198-2.799 24.944-.048 4.792.218 10.264 1.115 16.269 1.381 9.233 3.853 17.034 6.312 23.173l8.215-8.953.012.012z" class="G"/><path d="M78.945 66.696c.291.146 1.369.643 2.46.206 1.672-.667 2.399-3.13 1.66-3.907-.509-.534-1.66-.243-2.278-.036l-1.842 3.737zm-8.894.279l-2.266 10.118c-.436 1.771-1.793 7.631-.145 8.456 2.096 1.055 7.839-6.758 8.433-7.583l2.702-14.268-8.711 3.276h-.012z" class="B"/><path d="M71.869 48.777c-.218 0-1.733.024-2.569-1.08-.993-1.298-.351-3.264.666-4.258 1.284-1.25 3.586-1.347 5.44-.012-1.236-.328-2.52-.024-3.356.837-1.103 1.128-1.224 3.057-.182 4.525v-.012z" class="C"/><path d="M55.355 13.751l.242-2.778c.036-.813.109-2.257-.012-4.089-.133-2.123-.436-3.543-.218-3.603.121-.036.339.376.448.607.291.558.339 1.007.448 1.517.073.376.206.91.424 1.541l.17-1.941c.073-2.014-.218-3.409.133-3.518.145-.049.339.17.473.315.376.4.376.91.376 1.08l.206 4.173a12.35 12.35 0 0 0 .594-2.657c.194-1.796-.036-3.312.315-3.397.145-.036.303.194.376.279.969 1.335.23 5.229.085 5.945.267-.461.642-1.213.909-2.196.376-1.371.376-2.523.642-2.548.182-.012.364.51.4.594.497 1.444-.291 2.681-.824 4.998a14.92 14.92 0 0 0-.339 2.075c.4-.607.848-.995 1.151-1.213.388-.279.981-.704 1.696-.631.121.012.485.049.533.218.073.243-.521.594-.897.861-.376.255-1.006 1.031-2.266 2.56l-1.914 2.414c-.339.073-.921.133-1.624 0a4.28 4.28 0 0 1-1.502-.619l-.024.012z" class="B"/><path d="M68.562 72.58a14.07 14.07 0 0 0 2.411 1.432c2.169 1.019 4.192 1.298 5.561 1.359l1.49-7.158-9.463 4.368z" class="K"/><path d="M74.304 49.08c-3.296.425-5.222 2.912-6.01 3.919-4.955 6.406-3.72 18.599.86 20.297 3.877 1.444 10.529-4.55 12.661-10.919.46-1.359 2.508-7.522-.993-11.125-1.648-1.699-4.204-2.475-6.518-2.172z" class="B"/><path d="M72.063 47.175c.121 1.25.509 3.13 1.866 4.695 2.035 2.341 4.301 1.723 6.773 4.052 2.702 2.548 2.448 5.605 3.296 5.544 1.175-.073 3.247-6.042.8-10.215-2.108-3.591-7.245-5.302-12.746-4.076h.012z" class="C"/><path d="M73.505 48.606s.751.218 1.938.097c.291-.036.618-.085.945-.182.351-.109.642-.194 1.018-.376.691-.315 1.333-.849 1.902-1.286.279-.23.557-.425.848-.57a4.05 4.05 0 0 1 .897-.352c.618-.158 1.236-.182 1.781-.146s1.018.097 1.333.17l.521.097s-.606-.498-1.745-.861a4.9 4.9 0 0 0-2.072-.17c-.388.061-.775.158-1.163.352a6.02 6.02 0 0 0-1.042.655c-.606.51-1.127.958-1.696 1.298l-.848.461-.812.328c-.521.182-.969.316-1.296.376l-.509.109zm-.218.705s.109.194.376.485c.267.279.654.704 1.248 1.056.291.182.63.352 1.018.473a5.35 5.35 0 0 0 1.236.255c.885.073 1.793-.121 2.629-.291 1.648-.4 3.283-.461 4.543-.291l1.527.267.581.133s-.703-.546-1.975-.995c-.642-.218-1.418-.376-2.266-.412-.848-.049-1.769.085-2.617.255-.86.194-1.66.376-2.399.4-.388-.012-.678 0-1.066-.085a5.68 5.68 0 0 1-.945-.255c-.582-.218-1.054-.461-1.369-.667l-.509-.328h-.012z" class="I"/><path d="M72.499 153.101l-6.797-.413 2.048 2.415 4.75-1.99v-.012z" class="F"/><path d="M57.596 96.82c.194-1.99.812-3.555 1.842-4.659.618-.667 1.212-.983 2.12-1.48l1.926-1.116c1.454-.922 2.823-1.99 4.059-3.166l-.727-.764c-1.187 1.14-2.496 2.16-3.901 3.045l-1.866 1.08c-.921.498-1.648.898-2.387 1.686-1.2 1.286-1.914 3.057-2.12 5.278l1.042.097h.012z" class="J"/><path d="M68.804 68.346l2.278-.412 2.617-.51c-.533 1.201-1.672 1.953-2.847 1.917-1.151-.036-1.89-.825-2.048-1.007v.012z" fill="#fff"/><circle opacity=".5" cx="22.5" cy="30.5" r="8.5" fill="#45cbf6"/><circle cx="297.201" cy="132.475" r="17.5" transform="rotate(346.058 297.201 132.475)" class="G"/><g fill="#45cbf6"><circle opacity=".5" cx="315.44" cy="102.188" r="10.5" transform="rotate(346.058 315.44 102.188)"/><circle opacity=".5" cx="295.829" cy="81.297" r="8.5" transform="rotate(346.058 295.829 81.297)"/><circle cx="12.5" cy="58.5" r="12.5"/></g></svg>