<svg width="29" height="35" viewBox="0 0 29 35" fill="none" xmlns="http://www.w3.org/2000/svg">
<path fill-rule="evenodd" clip-rule="evenodd" d="M18.6827 7.12804C17.5485 8.47154 15.7337 9.53121 13.919 9.37983C13.6922 7.56326 14.5806 5.63315 15.6203 4.44102C16.7545 3.05967 18.7394 2.07569 20.3462 2C20.5352 3.89226 19.798 5.74668 18.6827 7.12804ZM20.3271 9.73926C18.7284 9.64715 17.2696 10.2206 16.0913 10.6837C15.333 10.9818 14.6909 11.2341 14.2024 11.2341C13.6542 11.2341 12.9856 10.9683 12.2349 10.6697C11.2512 10.2785 10.1266 9.83133 8.94725 9.85279C6.24406 9.89064 3.72991 11.4234 2.34996 13.8644C-0.485553 18.7464 1.61272 25.9749 4.35372 29.9486C5.69586 31.9166 7.30265 34.0738 9.41983 33.9981C10.3513 33.9629 11.0213 33.6783 11.7147 33.3837C12.513 33.0447 13.3423 32.6924 14.6372 32.6924C15.8872 32.6924 16.6802 33.0355 17.4415 33.3648C18.1653 33.6779 18.8604 33.9787 19.8923 33.9602C22.0851 33.9224 23.4651 31.9923 24.8072 30.0243C26.2556 27.9122 26.8921 25.8508 26.9887 25.538L27 25.5018C26.9977 25.4995 26.9798 25.4913 26.9482 25.4768C26.464 25.2549 22.7633 23.559 22.7278 19.0113C22.6922 15.1942 25.6631 13.2602 26.1308 12.9558C26.1593 12.9373 26.1785 12.9248 26.1872 12.9183C24.2968 10.1177 21.3479 9.81495 20.3271 9.73926Z" stroke="#3869E5" stroke-width="2"/>
</svg>
