<svg width="100" height="100" viewBox="0 0 100 100" fill="none" xmlns="http://www.w3.org/2000/svg">
<g id="Dad_Man partner 1__blue" clip-path="url(#clip0_4680_6035)">
<rect width="100" height="100"/>
<g id="Group 37538">
<g id="Group 37532" filter="url(#filter0_ddii_4680_6035)">
<g id="Group 37360">
<circle id="Ellipse 97" cx="49.5" cy="49.5" r="42.5" fill="white"/>
<g id="Mask Group">
<mask id="mask0_4680_6035" style="mask-type:alpha" maskUnits="userSpaceOnUse" x="7" y="7" width="85" height="85">
<circle id="Ellipse 96" cx="49.5" cy="49.5" r="42" fill="#C4C4C4" stroke="black"/>
</mask>
<g mask="url(#mask0_4680_6035)">
<g id="avatar">
<g id="Group">
<path id="Vector" d="M53.8252 74.8242H44.8789V91.1549H53.8252V74.8242Z" fill="#45CBF6"/>
<path id="Vector_2" d="M45.7349 83.9375H52.8835C54.1642 83.9375 55.3924 84.4428 56.2979 85.3422C57.2035 86.2416 57.7122 87.4614 57.7122 88.7333V99.6146H40.9062V88.7333C40.9062 87.4614 41.415 86.2416 42.3205 85.3422C43.2261 84.4428 44.4543 83.9375 45.7349 83.9375Z" fill="#3869E5"/>
<path id="Vector_3" d="M49.8969 26.8135H48.3867C37.4262 26.8135 28.541 36.16 28.541 47.6895V60.8453C28.541 72.3748 37.4262 78.7893 48.3867 78.7893H49.8969C60.8573 78.7893 69.7426 72.3748 69.7426 60.8453V47.6895C69.7426 36.16 60.8573 26.8135 49.8969 26.8135Z" fill="#45CBF6"/>
<path id="Ellipse 164" d="M61 50.3167C61 53.1094 58.7545 55.3609 56 55.3609C53.2455 55.3609 51 53.1094 51 50.3167C51 47.5239 53.2455 45.2725 56 45.2725C58.7545 45.2725 61 47.5239 61 50.3167Z" stroke="#3869E5" stroke-width="2"/>
<path id="Ellipse 165" d="M46 50.3167C46 53.1094 43.7545 55.3609 41 55.3609C38.2455 55.3609 36 53.1094 36 50.3167C36 47.5239 38.2455 45.2725 41 45.2725C43.7545 45.2725 46 47.5239 46 50.3167Z" stroke="#3869E5" stroke-width="2"/>
<path id="Vector 419" d="M46.5 51.3242H50.5" stroke="#3869E5" stroke-width="2"/>
<path id="Vector_4" d="M41 64.4199C47 67.9457 49 70.9678 57.2678 64.4199H41Z" fill="#3869E5"/>
<path id="Vector 420" d="M51.5 69.457H46L49 72.9828L51.5 69.457Z" fill="#3869E5"/>
<path id="Vector_5" d="M38.5564 109.754H34.2588V95.6222C34.2588 88.8026 38.5529 84.04 44.703 84.04V88.3084C40.4565 88.3084 38.5564 91.9881 38.5564 95.6222V109.754Z" fill="#3869E5"/>
<path id="Vector_6" d="M64.5399 109.754H60.2422V95.6222C60.2422 91.9828 58.3422 88.3084 54.0957 88.3084V84.04C60.2458 84.04 64.5399 88.8026 64.5399 95.6222V109.754Z" fill="#3869E5"/>
<path id="Vector 357" d="M26.5116 35.7387C27.1151 41.1424 28.3633 50.7761 28.4298 51.1118L32.0993 37.335L42.5233 30.6985L40.8555 36.2429L47.0265 33.1347L43.7742 37.335L60.0358 31.1185L66.7906 37.335L69.662 50.6415L70.4164 35.7387L71.2104 21.7938L47.0265 13.3936L52.1135 18.0973L38.3537 14.485L43.7742 18.0973L32.0993 17.5094L42.5233 18.518L24.7607 23.39L26.5116 35.7387Z" fill="#3869E5"/>
</g>
</g>
<path id="Vector_7" d="M43.2053 51.9413C42.9956 51.9413 42.7945 51.8579 42.6463 51.7096C42.498 51.5612 42.4147 51.36 42.4147 51.1502C42.4006 50.7172 42.2187 50.3067 41.9076 50.0054C41.5965 49.7041 41.1804 49.5356 40.7474 49.5356C40.3144 49.5356 39.8984 49.7041 39.5873 50.0054C39.2762 50.3067 39.0943 50.7172 39.0802 51.1502C39.0802 51.36 38.9969 51.5612 38.8486 51.7096C38.7004 51.8579 38.4993 51.9413 38.2896 51.9413C38.0799 51.9413 37.8788 51.8579 37.7305 51.7096C37.5822 51.5612 37.4989 51.36 37.4989 51.1502C37.4888 50.717 37.5654 50.2862 37.7241 49.883C37.8828 49.4798 38.1204 49.1124 38.4231 48.8025C38.7258 48.4925 39.0873 48.2462 39.4864 48.078C39.8856 47.9099 40.3143 47.8232 40.7474 47.8232C41.1805 47.8232 41.6093 47.9099 42.0084 48.078C42.4076 48.2462 42.7691 48.4925 43.0718 48.8025C43.3744 49.1124 43.6121 49.4798 43.7708 49.883C43.9295 50.2862 44.0061 50.717 43.996 51.1502C43.996 51.36 43.9127 51.5612 43.7644 51.7096C43.6161 51.8579 43.415 51.9413 43.2053 51.9413Z" fill="#3869E5"/>
<path id="Vector_8" d="M58.3 51.9413C58.0904 51.9413 57.8893 51.8579 57.741 51.7096C57.5927 51.5612 57.5094 51.36 57.5094 51.1502C57.4953 50.7172 57.3135 50.3067 57.0023 50.0054C56.6912 49.7041 56.2752 49.5356 55.8422 49.5356C55.4092 49.5356 54.9931 49.7041 54.682 50.0054C54.3709 50.3067 54.189 50.7172 54.1749 51.1502C54.1749 51.36 54.0916 51.5612 53.9434 51.7096C53.7951 51.8579 53.594 51.9413 53.3843 51.9413C53.1746 51.9413 52.9735 51.8579 52.8252 51.7096C52.677 51.5612 52.5937 51.36 52.5937 51.1502C52.5835 50.717 52.6601 50.2862 52.8188 49.883C52.9775 49.4798 53.2152 49.1124 53.5178 48.8025C53.8205 48.4925 54.182 48.2462 54.5812 48.078C54.9803 47.9099 55.4091 47.8232 55.8422 47.8232C56.2753 47.8232 56.704 47.9099 57.1032 48.078C57.5023 48.2462 57.8639 48.4925 58.1665 48.8025C58.4692 49.1124 58.7068 49.4798 58.8655 49.883C59.0242 50.2862 59.1008 50.717 59.0907 51.1502C59.0907 51.36 59.0074 51.5612 58.8591 51.7096C58.7108 51.8579 58.5097 51.9413 58.3 51.9413Z" fill="#3869E5"/>
</g>
</g>
</g>
</g>
</g>
</g>
<defs>
<filter id="filter0_ddii_4680_6035" x="-2" y="-2" width="109" height="109" filterUnits="userSpaceOnUse" color-interpolation-filters="sRGB">
<feFlood flood-opacity="0" result="BackgroundImageFix"/>
<feColorMatrix in="SourceAlpha" type="matrix" values="0 0 0 0 0 0 0 0 0 0 0 0 0 0 0 0 0 0 127 0" result="hardAlpha"/>
<feOffset dx="5" dy="5"/>
<feGaussianBlur stdDeviation="5"/>
<feComposite in2="hardAlpha" operator="out"/>
<feColorMatrix type="matrix" values="0 0 0 0 1 0 0 0 0 1 0 0 0 0 1 0 0 0 0.5 0"/>
<feBlend mode="normal" in2="BackgroundImageFix" result="effect1_dropShadow_4680_6035"/>
<feColorMatrix in="SourceAlpha" type="matrix" values="0 0 0 0 0 0 0 0 0 0 0 0 0 0 0 0 0 0 127 0" result="hardAlpha"/>
<feOffset dx="-5" dy="-5"/>
<feGaussianBlur stdDeviation="2"/>
<feComposite in2="hardAlpha" operator="out"/>
<feColorMatrix type="matrix" values="0 0 0 0 0.92549 0 0 0 0 0.937255 0 0 0 0 0.941176 0 0 0 0.25 0"/>
<feBlend mode="normal" in2="effect1_dropShadow_4680_6035" result="effect2_dropShadow_4680_6035"/>
<feBlend mode="normal" in="SourceGraphic" in2="effect2_dropShadow_4680_6035" result="shape"/>
<feColorMatrix in="SourceAlpha" type="matrix" values="0 0 0 0 0 0 0 0 0 0 0 0 0 0 0 0 0 0 127 0" result="hardAlpha"/>
<feOffset dx="-1" dy="-2"/>
<feGaussianBlur stdDeviation="13"/>
<feComposite in2="hardAlpha" operator="arithmetic" k2="-1" k3="1"/>
<feColorMatrix type="matrix" values="0 0 0 0 0.176471 0 0 0 0 0.764706 0 0 0 0 0.952941 0 0 0 0.5 0"/>
<feBlend mode="normal" in2="shape" result="effect3_innerShadow_4680_6035"/>
<feColorMatrix in="SourceAlpha" type="matrix" values="0 0 0 0 0 0 0 0 0 0 0 0 0 0 0 0 0 0 127 0" result="hardAlpha"/>
<feOffset dx="1" dy="-3"/>
<feGaussianBlur stdDeviation="13.5"/>
<feComposite in2="hardAlpha" operator="arithmetic" k2="-1" k3="1"/>
<feColorMatrix type="matrix" values="0 0 0 0 0.176471 0 0 0 0 0.764706 0 0 0 0 0.952941 0 0 0 0.5 0"/>
<feBlend mode="normal" in2="effect3_innerShadow_4680_6035" result="effect4_innerShadow_4680_6035"/>
</filter>
<clipPath id="clip0_4680_6035">
<rect width="100" height="100" fill="white"/>
</clipPath>
</defs>
</svg>
