<svg width="100" height="100" viewBox="0 0 100 100" fill="none" xmlns="http://www.w3.org/2000/svg">
<g id="Dad_Man partner 1__Large" clip-path="url(#clip0_4680_6462)">
<rect width="100" height="100"/>
<g id="Group 37536">
<g id="Group 37531">
<g id="Group 37360">
<g id="Mask Group">
<mask id="mask0_4680_6462" style="mask-type:alpha" maskUnits="userSpaceOnUse" x="0" y="0" width="100" height="100">
<circle id="Ellipse 96" cx="50" cy="50" r="49.5" fill="#C4C4C4" stroke="black"/>
</mask>
<g mask="url(#mask0_4680_6462)">
<g id="avatar">
<g id="Group">
<path id="Vector" d="M55.0896 79.7939H44.5645V99.0065H55.0896V79.7939Z" fill="#45CBF6"/>
<path id="Vector_2" d="M45.5704 90.5146H53.9806C55.4872 90.5146 56.9321 91.1091 57.9975 92.1672C59.0628 93.2253 59.6613 94.6604 59.6613 96.1568V108.958H39.8896V96.1568C39.8896 94.6604 40.4882 93.2253 41.5535 92.1672C42.6189 91.1091 44.0638 90.5146 45.5704 90.5146Z" fill="#3869E5"/>
<path id="Vector_3" d="M49.1245 23H47.3479C34.4532 23 24 33.9959 24 47.56V63.0375C24 76.6016 34.4532 84.148 47.3479 84.148H49.1245C62.0192 84.148 72.4724 76.6016 72.4724 63.0375V47.56C72.4724 33.9959 62.0192 23 49.1245 23Z" fill="#45CBF6"/>
<path id="Ellipse 164" d="M63.7065 50.9604C63.7065 54.3423 60.987 57.0713 57.6477 57.0713C54.3084 57.0713 51.5889 54.3423 51.5889 50.9604C51.5889 47.5786 54.3084 44.8496 57.6477 44.8496C60.987 44.8496 63.7065 47.5786 63.7065 50.9604Z" stroke="#3869E5" stroke-width="2"/>
<path id="Ellipse 165" d="M46.0591 50.9604C46.0591 54.3423 43.3395 57.0713 40.0002 57.0713C36.6609 57.0713 33.9414 54.3423 33.9414 50.9604C33.9414 47.5786 36.6609 44.8496 40.0002 44.8496C43.3395 44.8496 46.0591 47.5786 46.0591 50.9604Z" stroke="#3869E5" stroke-width="2"/>
<path id="Vector 419" d="M46.4717 52.1465H51.1776" stroke="#3869E5" stroke-width="2"/>
<path id="Vector_4" d="M40.001 67.5527C47.0598 71.7007 49.4127 75.2561 59.1396 67.5527H40.001Z" fill="#3869E5"/>
<path id="Vector 420" d="M52.3534 73.4785H45.8828L49.4122 77.6265L52.3534 73.4785Z" fill="#3869E5"/>
<path id="Vector_5" d="M37.1254 120.887H32.0693V104.262C32.0693 96.2387 37.1212 90.6357 44.3566 90.6357V95.6574C39.3607 95.6574 37.1254 99.9864 37.1254 104.262V120.887Z" fill="#3869E5"/>
<path id="Vector_6" d="M67.6945 120.887H62.6384V104.262C62.6384 99.9802 60.4031 95.6574 55.4072 95.6574V90.6357C62.6426 90.6357 67.6945 96.2387 67.6945 104.262V120.887Z" fill="#3869E5"/>
<path id="Vector 357" d="M22.0354 34.0665C22.737 40.3702 24.1881 51.6084 24.2654 52L28.5314 35.9288L40.6499 28.187L38.711 34.6548L45.8851 31.0289L42.1041 35.9288L61.009 28.6769L68.8618 35.9288L72.2 51.4514L73.077 34.0665L74 17.7992L45.8851 8L51.7989 13.4871L35.8025 9.27323L42.1041 13.4871L28.5314 12.8013L40.6499 13.9778L20 19.6612L22.0354 34.0665Z" fill="#3869E5"/>
</g>
</g>
<path id="Vector_7" d="M42.5953 52.8721C42.3486 52.8721 42.112 52.774 41.9376 52.5995C41.7631 52.425 41.6651 52.1883 41.6651 51.9415C41.6485 51.4321 41.4346 50.9491 41.0686 50.5946C40.7025 50.2401 40.2131 50.0419 39.7037 50.0419C39.1943 50.0419 38.7048 50.2401 38.3388 50.5946C37.9727 50.9491 37.7588 51.4321 37.7422 51.9415C37.7422 52.1883 37.6442 52.425 37.4698 52.5995C37.2953 52.774 37.0588 52.8721 36.8121 52.8721C36.5654 52.8721 36.3288 52.774 36.1543 52.5995C35.9799 52.425 35.8819 52.1883 35.8819 51.9415C35.87 51.4318 35.9601 50.9249 36.1468 50.4506C36.3335 49.9762 36.6131 49.544 36.9692 49.1794C37.3252 48.8147 37.7506 48.5249 38.2202 48.3271C38.6898 48.1293 39.1941 48.0273 39.7037 48.0273C40.2132 48.0273 40.7176 48.1293 41.1872 48.3271C41.6568 48.5249 42.0821 48.8147 42.4382 49.1794C42.7943 49.544 43.0739 49.9762 43.2606 50.4506C43.4473 50.9249 43.5374 51.4318 43.5255 51.9415C43.5255 52.1883 43.4275 52.425 43.253 52.5995C43.0786 52.774 42.842 52.8721 42.5953 52.8721Z" fill="#3869E5"/>
<path id="Vector_8" d="M60.3531 52.8721C60.1064 52.8721 59.8698 52.774 59.6954 52.5995C59.521 52.425 59.423 52.1883 59.423 51.9415C59.4064 51.4321 59.1924 50.9491 58.8264 50.5946C58.4604 50.2401 57.9709 50.0419 57.4615 50.0419C56.9521 50.0419 56.4626 50.2401 56.0966 50.5946C55.7306 50.9491 55.5166 51.4321 55.5 51.9415C55.5 52.1883 55.402 52.425 55.2276 52.5995C55.0532 52.774 54.8166 52.8721 54.5699 52.8721C54.3232 52.8721 54.0866 52.774 53.9122 52.5995C53.7377 52.425 53.6397 52.1883 53.6397 51.9415C53.6278 51.4318 53.7179 50.9249 53.9046 50.4506C54.0913 49.9762 54.3709 49.544 54.727 49.1794C55.083 48.8147 55.5084 48.5249 55.978 48.3271C56.4476 48.1293 56.952 48.0273 57.4615 48.0273C57.971 48.0273 58.4754 48.1293 58.945 48.3271C59.4146 48.5249 59.84 48.8147 60.196 49.1794C60.5521 49.544 60.8317 49.9762 61.0184 50.4506C61.2051 50.9249 61.2952 51.4318 61.2833 51.9415C61.2833 52.1883 61.1853 52.425 61.0108 52.5995C60.8364 52.774 60.5998 52.8721 60.3531 52.8721Z" fill="#3869E5"/>
</g>
</g>
</g>
</g>
</g>
</g>
<defs>
<clipPath id="clip0_4680_6462">
<rect width="100" height="100" fill="white"/>
</clipPath>
</defs>
</svg>
