<svg xmlns="http://www.w3.org/2000/svg" version="1.1" xmlns:xlink="http://www.w3.org/1999/xlink" xmlns:svgjs="http://svgjs.com/svgjs" width="512" height="512" x="0" y="0" viewBox="0 0 512 512" style="enable-background:new 0 0 512 512" xml:space="preserve" class=""><g><circle cx="256" cy="256" r="256" style="" fill="#ffd93b" data-original="#ffd93b" class=""></circle><path d="M256 420.544c-74.864 0-140.096-50.704-158.624-123.28-1.456-5.712 1.984-11.52 7.696-12.976 5.68-1.488 11.504 1.984 12.96 7.696 16.128 63.136 72.848 107.232 137.952 107.232s121.84-44.096 137.952-107.232c1.44-5.712 7.248-9.184 12.976-7.696 5.712 1.456 9.152 7.264 7.696 12.976-18.512 72.576-83.744 123.28-158.608 123.28z" style="" fill="#3e4347" data-original="#3e4347" class=""></path><path d="M512 256c0 141.44-114.64 256-256 256-80.48 0-152.32-37.12-199.28-95.28 43.92 35.52 99.84 56.72 160.72 56.72 141.36 0 256-114.56 256-256 0-60.88-21.2-116.8-56.72-160.72C474.8 103.68 512 175.52 512 256z" style="" fill="#f4c534" data-original="#f4c534" class=""></path><ellipse cx="173.328" cy="220.304" rx="39.232" ry="46.624" style="" fill="#3e4347" data-original="#3e4347" class=""></ellipse><path d="M191.024 210.272c-3.056 2.4-8.08 1.216-11.296-2.688s-3.376-9.136-.32-11.536c3.04-2.512 8.08-1.328 11.28 2.576 3.232 4.016 3.264 9.152.336 11.648z" style="" fill="#5a5f63" data-original="#5a5f63"></path><ellipse cx="338.72" cy="220.304" rx="39.232" ry="46.624" style="" fill="#3e4347" data-original="#3e4347" class=""></ellipse><path d="M356.384 210.272c-3.056 2.4-8.08 1.216-11.296-2.688s-3.376-9.136-.32-11.536c3.04-2.512 8.064-1.328 11.28 2.576 3.232 4.016 3.264 9.152.336 11.648z" style="" fill="#5a5f63" data-original="#5a5f63"></path></g></svg>