<svg xmlns="http://www.w3.org/2000/svg" width="68" height="68" fill="none" xmlns:v="https://vecta.io/nano"><path d="M51 56.913h-7.396c-.964 0-1.923.115-2.857.344l-7.815 1.899c-1.696.413-3.462.453-5.175.12l-8.64-1.681c-2.282-.445-4.382-1.538-6.028-3.138l-6.113-5.946a4.26 4.26 0 0 1 0-6.145c1.572-1.529 4.061-1.701 5.839-.404l7.124 5.198c1.02.746 2.262 1.147 3.539 1.147h6.88-4.379c-2.468 0-4.468-1.945-4.468-4.346v-.869c0-1.994 1.395-3.732 3.382-4.214l6.759-1.644a14.24 14.24 0 0 1 3.359-.402c2.734 0 7.682 2.263 7.682 2.263L51 42.57m11.333-1.204V57.8c0 1.587 0 2.38-.309 2.986-.272.533-.705.967-1.238 1.238-.606.309-1.399.309-2.986.309h-2.267c-1.587 0-2.38 0-2.986-.309-.533-.272-.967-.705-1.238-1.238C51 60.18 51 59.386 51 57.8V41.366c0-1.587 0-2.38.309-2.986.272-.533.705-.967 1.238-1.238.606-.309 1.4-.309 2.986-.309H57.8c1.587 0 2.38 0 2.986.309.533.272.967.705 1.238 1.238.309.606.309 1.4.309 2.986zM19.291 10.178c1.691-3.538 5.59-5.413 9.381-3.604s5.407 6.1 3.819 9.867c-.981 2.328-3.792 6.849-5.796 9.963-.74 1.15-1.111 1.726-1.652 2.062-.464.289-1.044.444-1.591.426-.637-.021-1.245-.334-2.461-.96-3.293-1.695-7.987-4.204-10.001-5.73-3.258-2.468-4.065-7.006-1.626-10.455s6.692-3.788 9.926-1.57z" stroke="#fff" stroke-width="2" stroke-linecap="round" stroke-linejoin="round"/></svg>