<svg width="100" height="100" viewBox="0 0 100 100" fill="none" xmlns="http://www.w3.org/2000/svg">
<g id="Son_Large" clip-path="url(#clip0_4680_6694)">
<rect width="100" height="100"/>
<g id="Group 37503">
<g id="Group 356">
<g id="Mask Group">
<mask id="mask0_4680_6694" style="mask-type:alpha" maskUnits="userSpaceOnUse" x="0" y="0" width="100" height="100">
<path id="Ellipse 95" d="M98.7835 49.9999C98.7835 77.3414 76.7786 99.4999 49.6418 99.4999C22.5049 99.4999 0.5 77.3414 0.5 49.9999C0.5 22.6585 22.5049 0.5 49.6418 0.5C76.7786 0.5 98.7835 22.6585 98.7835 49.9999Z" fill="#C4C4C4" stroke="black"/>
</mask>
<g mask="url(#mask0_4680_6694)">
<g id="Layer 2">
<g id="avatar">
<g id="Group">
<path id="Vector" d="M32.1251 17.2617H32.1231C27.2043 17.2617 23.2168 21.2506 23.2168 26.1712V60.7001C23.2168 65.6207 27.2043 69.6096 32.1231 69.6096H32.1251C37.0439 69.6096 41.0314 65.6207 41.0314 60.7001V26.1712C41.0314 21.2506 37.0439 17.2617 32.1251 17.2617Z" fill="#3869E5"/>
<path id="Vector_2" d="M73.6401 21.0276C73.6401 10.533 65.1356 2.02539 54.6448 2.02539C44.1539 2.02539 35.6494 10.533 35.6494 21.0276V56.0389C35.6494 66.5336 44.1539 75.0412 54.6448 75.0412C65.1356 75.0412 73.6401 66.5336 73.6401 56.0389V21.0276Z" fill="#3869E5"/>
<path id="Vector_3" d="M21.9134 68.3148C25.4096 68.3148 28.2438 65.4796 28.2438 61.9821C28.2438 58.4847 25.4096 55.6494 21.9134 55.6494C18.4172 55.6494 15.583 58.4847 15.583 61.9821C15.583 65.4796 18.4172 68.3148 21.9134 68.3148Z" fill="#45CBF6"/>
<path id="Vector_4" d="M74.8304 68.3148C78.3266 68.3148 81.1608 65.4796 81.1608 61.9821C81.1608 58.4847 78.3266 55.6494 74.8304 55.6494C71.3342 55.6494 68.5 58.4847 68.5 61.9821C68.5 65.4796 71.3342 68.3148 74.8304 68.3148Z" fill="#45CBF6"/>
<path id="Vector_5" d="M53.8452 77.5625H43.3955V96.775H53.8452V77.5625Z" fill="#45CBF6"/>
<path id="Vector_6" d="M44.394 88.2832H52.7439C54.2397 88.2832 55.6743 88.8776 56.732 89.9357C57.7897 90.9938 58.3839 92.4289 58.3839 93.9253V106.727H38.7539V93.9253C38.7539 92.4289 39.3481 90.9938 40.4058 89.9357C41.4636 88.8776 42.8981 88.2832 44.394 88.2832V88.2832Z" fill="#3869E5"/>
<path id="Vector_7" d="M48.3731 82.0678C62.3339 82.0678 73.6514 69.3498 73.6514 53.6614C73.6514 37.9729 62.3339 25.2549 48.3731 25.2549C34.4122 25.2549 23.0947 37.9729 23.0947 53.6614C23.0947 69.3498 34.4122 82.0678 48.3731 82.0678Z" fill="#45CBF6"/>
<path id="Vector_8" d="M48.13 65.8409C45.7797 65.8414 43.471 65.2213 41.4369 64.0433C41.0444 63.8203 40.7001 63.5214 40.4239 63.1642C40.1478 62.8069 39.9454 62.3984 39.8284 61.9622C39.7114 61.526 39.6822 61.0709 39.7424 60.6234C39.8027 60.1758 39.9512 59.7447 40.1794 59.355C40.4076 58.9654 40.7109 58.625 41.0717 58.3535C41.4325 58.0821 41.8436 57.8851 42.2812 57.7739C42.7187 57.6627 43.1739 57.6396 43.6205 57.7059C44.067 57.7721 44.496 57.9265 44.8824 58.16C47.0647 59.4381 49.556 59.1227 50.5163 58.4032C50.8744 58.1347 51.282 57.9393 51.7156 57.8283C52.1492 57.7174 52.6004 57.6929 53.0435 57.7563C53.4866 57.8198 53.9128 57.9699 54.2979 58.1982C54.683 58.4264 55.0193 58.7283 55.2878 59.0866C55.5562 59.4449 55.7515 59.8526 55.8625 60.2863C55.9734 60.7201 55.9979 61.1715 55.9344 61.6147C55.871 62.058 55.7209 62.4844 55.4928 62.8696C55.2646 63.2548 54.9628 63.5913 54.6047 63.8598C52.8469 65.175 50.5328 65.8409 48.13 65.8409Z" fill="#3869E5"/>
<path id="Vector_9" d="M43.7283 95.7588H38.7559V123.534H43.7283V95.7588Z" fill="#45CBF6"/>
<path id="Vector_10" d="M53.4133 123.533H58.3857V95.7575H53.4133V123.533Z" fill="#45CBF6"/>
<path id="Vector_11" d="M40.4475 40.0738L36.9134 41.3745C36.5013 41.5252 36.0463 41.5065 35.6478 41.3227C35.2494 41.1388 34.9398 40.8047 34.7868 40.3933V40.3933C34.6361 39.9794 34.6559 39.5226 34.8417 39.1233C35.0276 38.724 35.3644 38.4148 35.778 38.2638L39.31 36.961C39.7224 36.8105 40.1777 36.8294 40.5762 37.0137C40.9747 37.1979 41.284 37.5325 41.4366 37.9443V37.9443C41.5874 38.3579 41.568 38.8145 41.3825 39.2138C41.1971 39.613 40.8608 39.9223 40.4475 40.0738Z" fill="#3869E5"/>
<path id="Vector_12" d="M56.7543 40.0734L60.2863 41.3741C60.6987 41.5248 61.154 41.5062 61.5528 41.3224C61.9516 41.1386 62.2615 40.8044 62.4149 40.3929V40.3929C62.5649 39.9803 62.5457 39.5251 62.3615 39.1266C62.1774 38.7281 61.8433 38.4186 61.432 38.2655L57.9 36.9627C57.4871 36.8107 57.0307 36.8286 56.631 37.0125C56.2312 37.1964 55.9206 37.5314 55.7672 37.9439V37.9439C55.6169 38.3573 55.6363 38.8134 55.8213 39.2125C56.0063 39.6115 56.3417 39.9211 56.7543 40.0734V40.0734Z" fill="#3869E5"/>
<path id="Vector_13" d="M44.4852 52.3412C44.3864 52.3415 44.2885 52.3222 44.1971 52.2845C44.1057 52.2468 44.0227 52.1913 43.9528 52.1214C43.8829 52.0515 43.8275 51.9684 43.7898 51.877C43.7521 51.7856 43.7328 51.6876 43.7331 51.5888C43.7331 50.0967 43.1406 48.6658 42.086 47.6108C41.0314 46.5558 39.601 45.9631 38.1095 45.9631C36.618 45.9631 35.1876 46.5558 34.133 47.6108C33.0784 48.6658 32.4859 50.0967 32.4859 51.5888C32.4758 51.7818 32.3921 51.9636 32.2519 52.0966C32.1118 52.2296 31.9259 52.3038 31.7327 52.3038C31.5395 52.3038 31.3537 52.2296 31.2135 52.0966C31.0734 51.9636 30.9896 51.7818 30.9795 51.5888C30.9635 50.642 31.136 49.7016 31.487 48.8222C31.838 47.9429 32.3606 47.1423 33.0242 46.4671C33.6877 45.7919 34.4791 45.2556 35.352 44.8896C36.2249 44.5235 37.1619 44.335 38.1085 44.335C39.055 44.335 39.992 44.5235 40.865 44.8896C41.7379 45.2556 42.5292 45.7919 43.1928 46.4671C43.8564 47.1423 44.3789 47.9429 44.7299 48.8222C45.081 49.7016 45.2535 50.642 45.2374 51.5888C45.2377 51.6876 45.2184 51.7856 45.1807 51.877C45.143 51.9684 45.0876 52.0515 45.0177 52.1214C44.9478 52.1913 44.8648 52.2468 44.7734 52.2845C44.682 52.3222 44.5841 52.3415 44.4852 52.3412V52.3412Z" fill="#3869E5"/>
<path id="Vector_14" d="M64.2147 52.3412C64.1159 52.3415 64.018 52.3222 63.9266 52.2845C63.8352 52.2468 63.7522 52.1913 63.6823 52.1214C63.6124 52.0515 63.557 51.9684 63.5193 51.877C63.4816 51.7856 63.4623 51.6876 63.4626 51.5888C63.4626 50.85 63.3171 50.1185 63.0345 49.4359C62.7519 48.7534 62.3377 48.1332 61.8155 47.6108C61.2933 47.0884 60.6733 46.6741 59.991 46.3913C59.3088 46.1086 58.5775 45.9631 57.839 45.9631C57.1005 45.9631 56.3692 46.1086 55.6869 46.3913C55.0046 46.6741 54.3847 47.0884 53.8625 47.6108C53.3403 48.1332 52.9261 48.7534 52.6435 49.4359C52.3609 50.1185 52.2154 50.85 52.2154 51.5888C52.2053 51.7818 52.1215 51.9636 51.9814 52.0966C51.8413 52.2296 51.6554 52.3038 51.4622 52.3038C51.269 52.3038 51.0832 52.2296 50.943 52.0966C50.8029 51.9636 50.7191 51.7818 50.709 51.5888C50.6929 50.642 50.8655 49.7016 51.2165 48.8222C51.5675 47.9429 52.0901 47.1423 52.7536 46.4671C53.4172 45.7919 54.2086 45.2556 55.0815 44.8896C55.9544 44.5235 56.8914 44.335 57.838 44.335C58.7845 44.335 59.7215 44.5235 60.5944 44.8896C61.4674 45.2556 62.2587 45.7919 62.9223 46.4671C63.5858 47.1423 64.1084 47.9429 64.4594 48.8222C64.8105 49.7016 64.983 50.642 64.9669 51.5888C64.9671 51.6876 64.9479 51.7856 64.9102 51.877C64.8725 51.9684 64.8171 52.0515 64.7472 52.1214C64.6773 52.1913 64.5943 52.2468 64.5029 52.2845C64.4115 52.3222 64.3136 52.3415 64.2147 52.3412V52.3412Z" fill="#3869E5"/>
</g>
</g>
</g>
</g>
</g>
</g>
</g>
</g>
<defs>
<clipPath id="clip0_4680_6694">
<rect width="100" height="100" fill="white"/>
</clipPath>
</defs>
</svg>
