<svg width="100" height="100" viewBox="0 0 100 100" fill="none" xmlns="http://www.w3.org/2000/svg">
<g id="Son_blue" clip-path="url(#clip0_4680_6216)">
<rect width="100" height="100"/>
<g id="Group 37504" filter="url(#filter0_ddii_4680_6216)">
<g id="Group 356">
<ellipse id="Ellipse 96" cx="49.5519" cy="49.4999" rx="42.4483" ry="42.4999" fill="white"/>
<g id="Mask Group">
<mask id="mask0_4680_6216" style="mask-type:alpha" maskUnits="userSpaceOnUse" x="7" y="7" width="84" height="85">
<path id="Ellipse 95" d="M89.8694 49.4999C89.8694 72.7208 72.5915 91.4999 49.4484 91.4999C26.2815 91.4999 7.5 72.6965 7.5 49.5C7.5 26.2792 24.7779 7.5 47.921 7.5C71.0879 7.5 89.8694 26.3034 89.8694 49.4999Z" fill="#C4C4C4" stroke="black"/>
</mask>
<g mask="url(#mask0_4680_6216)">
<g id="Layer 2">
<g id="avatar">
<g id="Group">
<path id="Vector" d="M35.1448 21.6729H35.143C30.937 21.6729 27.5273 25.0634 27.5273 29.2459V58.5955C27.5273 62.778 30.937 66.1686 35.143 66.1686H35.1448C39.3508 66.1686 42.7605 62.778 42.7605 58.5955V29.2459C42.7605 25.0634 39.3508 21.6729 35.1448 21.6729Z" fill="#3869E5"/>
<path id="Vector_2" d="M70.6438 24.8736C70.6438 15.9531 63.3716 8.72168 54.401 8.72168C45.4303 8.72168 38.1582 15.9531 38.1582 24.8736V54.6332C38.1582 63.5536 45.4303 70.7851 54.401 70.7851C63.3716 70.7851 70.6438 63.5536 70.6438 54.6332V24.8736Z" fill="#3869E5"/>
<path id="Vector_3" d="M26.4131 65.0674C29.4027 65.0674 31.8262 62.6574 31.8262 59.6846C31.8262 56.7117 29.4027 54.3018 26.4131 54.3018C23.4235 54.3018 21 56.7117 21 59.6846C21 62.6574 23.4235 65.0674 26.4131 65.0674Z" fill="#45CBF6"/>
<path id="Vector_4" d="M71.6621 65.0674C74.6517 65.0674 77.0752 62.6574 77.0752 59.6846C77.0752 56.7117 74.6517 54.3018 71.6621 54.3018C68.6725 54.3018 66.249 56.7117 66.249 59.6846C66.249 62.6574 68.6725 65.0674 71.6621 65.0674Z" fill="#45CBF6"/>
<path id="Vector_5" d="M53.7177 72.9277H44.7822V89.2584H53.7177V72.9277Z" fill="#45CBF6"/>
<path id="Vector_6" d="M45.6363 82.041H52.7762C54.0553 82.041 55.282 82.5463 56.1864 83.4457C57.0909 84.3451 57.599 85.5649 57.599 86.8368V97.7181H40.8135V86.8368C40.8135 85.5649 41.3216 84.3451 42.226 83.4457C43.1305 82.5463 44.3572 82.041 45.6363 82.041V82.041Z" fill="#3869E5"/>
<path id="Vector_7" d="M49.0382 76.7578C60.976 76.7578 70.6536 65.9475 70.6536 52.6123C70.6536 39.2771 60.976 28.4668 49.0382 28.4668C37.1004 28.4668 27.4229 39.2771 27.4229 52.6123C27.4229 65.9475 37.1004 76.7578 49.0382 76.7578Z" fill="#45CBF6"/>
<path id="Vector_8" d="M48.8311 62.9647C46.8214 62.9651 44.8471 62.438 43.1079 61.4368C42.7722 61.2472 42.4778 60.9932 42.2417 60.6895C42.0055 60.3858 41.8324 60.0386 41.7324 59.6678C41.6323 59.2971 41.6074 58.9102 41.6589 58.5298C41.7104 58.1494 41.8374 57.7829 42.0326 57.4517C42.2277 57.1205 42.4871 56.8312 42.7956 56.6005C43.1041 56.3697 43.4556 56.2023 43.8298 56.1078C44.2039 56.0133 44.5932 55.9936 44.975 56.0499C45.3569 56.1063 45.7236 56.2375 46.0541 56.4359C47.9201 57.5223 50.0504 57.2542 50.8716 56.6427C51.1778 56.4144 51.5263 56.2484 51.8971 56.154C52.2679 56.0597 52.6537 56.0389 53.0326 56.0928C53.4115 56.1468 53.7759 56.2744 54.1052 56.4684C54.4345 56.6624 54.7221 56.919 54.9516 57.2236C55.1812 57.5281 55.3482 57.8746 55.443 58.2433C55.5379 58.612 55.5588 58.9957 55.5046 59.3725C55.4504 59.7492 55.322 60.1117 55.1269 60.4391C54.9318 60.7665 54.6738 61.0526 54.3675 61.2808C52.8645 62.3987 50.8857 62.9647 48.8311 62.9647Z" fill="#3869E5"/>
<path id="Vector_9" d="M45.0663 88.3945H40.8145V112.004H45.0663V88.3945Z" fill="#45CBF6"/>
<path id="Vector_10" d="M53.3487 112.003H57.6006V88.3936H53.3487V112.003Z" fill="#45CBF6"/>
<path id="Vector_11" d="M42.2611 41.0624L39.2392 42.1681C38.8868 42.2961 38.4977 42.2803 38.157 42.124C37.8163 41.9677 37.5516 41.6837 37.4207 41.334V41.334C37.2919 40.9822 37.3088 40.594 37.4677 40.2545C37.6266 39.9151 37.9146 39.6524 38.2683 39.524L41.2885 38.4166C41.6411 38.2887 42.0304 38.3048 42.3711 38.4614C42.7119 38.618 42.9764 38.9024 43.1069 39.2524V39.2524C43.2359 39.604 43.2192 39.9921 43.0607 40.3315C42.9021 40.6708 42.6145 40.9337 42.2611 41.0624Z" fill="#3869E5"/>
<path id="Vector_12" d="M56.2061 41.0621L59.2263 42.1677C59.579 42.2958 59.9683 42.2801 60.3093 42.1238C60.6503 41.9675 60.9153 41.6835 61.0465 41.3337V41.3337C61.1747 40.983 61.1583 40.5961 61.0008 40.2574C60.8434 39.9187 60.5577 39.6556 60.206 39.5254L57.1858 38.418C56.8327 38.2888 56.4425 38.3041 56.1007 38.4604C55.7588 38.6167 55.4932 38.9014 55.3621 39.2521V39.2521C55.2335 39.6034 55.2501 39.9911 55.4083 40.3304C55.5665 40.6696 55.8533 40.9327 56.2061 41.0621V41.0621Z" fill="#3869E5"/>
<path id="Vector_13" d="M45.7146 51.4899C45.63 51.4901 45.5463 51.4737 45.4682 51.4417C45.39 51.4096 45.319 51.3625 45.2593 51.3031C45.1995 51.2436 45.1521 51.173 45.1199 51.0953C45.0876 51.0176 45.0712 50.9344 45.0714 50.8503C45.0714 49.5821 44.5648 48.3658 43.663 47.4691C42.7612 46.5723 41.538 46.0685 40.2627 46.0685C38.9873 46.0685 37.7642 46.5723 36.8624 47.4691C35.9606 48.3658 35.454 49.5821 35.454 50.8503C35.4454 51.0144 35.3737 51.1689 35.2539 51.282C35.1341 51.3951 34.9752 51.4581 34.81 51.4581C34.6447 51.4581 34.4858 51.3951 34.366 51.282C34.2462 51.1689 34.1746 51.0144 34.1659 50.8503C34.1522 50.0456 34.2997 49.2462 34.5998 48.4988C34.9 47.7513 35.3468 47.0708 35.9143 46.4969C36.4817 45.923 37.1583 45.4671 37.9048 45.156C38.6512 44.8448 39.4525 44.6846 40.2618 44.6846C41.0712 44.6846 41.8724 44.8448 42.6189 45.156C43.3653 45.4671 44.042 45.923 44.6094 46.4969C45.1768 47.0708 45.6236 47.7513 45.9238 48.4988C46.224 49.2462 46.3715 50.0456 46.3577 50.8503C46.3579 50.9344 46.3415 51.0176 46.3092 51.0953C46.277 51.173 46.2296 51.2436 46.1699 51.3031C46.1101 51.3625 46.0391 51.4096 45.961 51.4417C45.8828 51.4737 45.7991 51.4901 45.7146 51.4899V51.4899Z" fill="#3869E5"/>
<path id="Vector_14" d="M62.5847 51.4899C62.5001 51.4901 62.4164 51.4737 62.3383 51.4417C62.2601 51.4096 62.1891 51.3625 62.1294 51.3031C62.0696 51.2436 62.0222 51.173 61.99 51.0953C61.9578 51.0176 61.9413 50.9344 61.9415 50.8503C61.9415 50.2223 61.8171 49.6005 61.5755 49.0204C61.3338 48.4402 60.9796 47.9131 60.5331 47.4691C60.0865 47.025 59.5564 46.6728 58.973 46.4325C58.3896 46.1922 57.7643 46.0685 57.1328 46.0685C56.5013 46.0685 55.876 46.1922 55.2926 46.4325C54.7092 46.6728 54.1791 47.025 53.7326 47.4691C53.286 47.9131 52.9318 48.4402 52.6902 49.0204C52.4485 49.6005 52.3241 50.2223 52.3241 50.8503C52.3155 51.0144 52.2439 51.1689 52.124 51.282C52.0042 51.3951 51.8453 51.4581 51.6801 51.4581C51.5149 51.4581 51.356 51.3951 51.2361 51.282C51.1163 51.1689 51.0447 51.0144 51.036 50.8503C51.0223 50.0456 51.1698 49.2462 51.47 48.4988C51.7701 47.7513 52.217 47.0708 52.7844 46.4969C53.3518 45.923 54.0284 45.4671 54.7749 45.156C55.5213 44.8448 56.3226 44.6846 57.1319 44.6846C57.9413 44.6846 58.7426 44.8448 59.489 45.156C60.2354 45.4671 60.9121 45.923 61.4795 46.4969C62.0469 47.0708 62.4937 47.7513 62.7939 48.4988C63.0941 49.2462 63.2416 50.0456 63.2278 50.8503C63.2281 50.9344 63.2116 51.0176 63.1793 51.0953C63.1471 51.173 63.0997 51.2436 63.04 51.3031C62.9802 51.3625 62.9092 51.4096 62.8311 51.4417C62.7529 51.4737 62.6692 51.4901 62.5847 51.4899V51.4899Z" fill="#3869E5"/>
</g>
</g>
</g>
</g>
</g>
</g>
</g>
</g>
<defs>
<filter id="filter0_ddii_4680_6216" x="-1.89648" y="-2" width="102.896" height="103" filterUnits="userSpaceOnUse" color-interpolation-filters="sRGB">
<feFlood flood-opacity="0" result="BackgroundImageFix"/>
<feColorMatrix in="SourceAlpha" type="matrix" values="0 0 0 0 0 0 0 0 0 0 0 0 0 0 0 0 0 0 127 0" result="hardAlpha"/>
<feOffset dx="5" dy="5"/>
<feGaussianBlur stdDeviation="2"/>
<feComposite in2="hardAlpha" operator="out"/>
<feColorMatrix type="matrix" values="0 0 0 0 1 0 0 0 0 1 0 0 0 0 1 0 0 0 0.5 0"/>
<feBlend mode="normal" in2="BackgroundImageFix" result="effect1_dropShadow_4680_6216"/>
<feColorMatrix in="SourceAlpha" type="matrix" values="0 0 0 0 0 0 0 0 0 0 0 0 0 0 0 0 0 0 127 0" result="hardAlpha"/>
<feOffset dx="-5" dy="-5"/>
<feGaussianBlur stdDeviation="2"/>
<feComposite in2="hardAlpha" operator="out"/>
<feColorMatrix type="matrix" values="0 0 0 0 0.92549 0 0 0 0 0.937255 0 0 0 0 0.941176 0 0 0 0.25 0"/>
<feBlend mode="normal" in2="effect1_dropShadow_4680_6216" result="effect2_dropShadow_4680_6216"/>
<feBlend mode="normal" in="SourceGraphic" in2="effect2_dropShadow_4680_6216" result="shape"/>
<feColorMatrix in="SourceAlpha" type="matrix" values="0 0 0 0 0 0 0 0 0 0 0 0 0 0 0 0 0 0 127 0" result="hardAlpha"/>
<feOffset dx="-1" dy="-2"/>
<feGaussianBlur stdDeviation="13"/>
<feComposite in2="hardAlpha" operator="arithmetic" k2="-1" k3="1"/>
<feColorMatrix type="matrix" values="0 0 0 0 0.176471 0 0 0 0 0.764706 0 0 0 0 0.952941 0 0 0 0.5 0"/>
<feBlend mode="normal" in2="shape" result="effect3_innerShadow_4680_6216"/>
<feColorMatrix in="SourceAlpha" type="matrix" values="0 0 0 0 0 0 0 0 0 0 0 0 0 0 0 0 0 0 127 0" result="hardAlpha"/>
<feOffset dx="1" dy="-3"/>
<feGaussianBlur stdDeviation="13.5"/>
<feComposite in2="hardAlpha" operator="arithmetic" k2="-1" k3="1"/>
<feColorMatrix type="matrix" values="0 0 0 0 0.176471 0 0 0 0 0.764706 0 0 0 0 0.952941 0 0 0 0.5 0"/>
<feBlend mode="normal" in2="effect3_innerShadow_4680_6216" result="effect4_innerShadow_4680_6216"/>
</filter>
<clipPath id="clip0_4680_6216">
<rect width="100" height="100" fill="white"/>
</clipPath>
</defs>
</svg>
