<svg width="100" height="100" viewBox="0 0 100 100" fill="none" xmlns="http://www.w3.org/2000/svg">
<g id="Daughter_blue" clip-path="url(#clip0_4680_6166)">
<rect width="100" height="100"/>
<g id="Group 37501" filter="url(#filter0_ddii_4680_6166)">
<circle id="Ellipse 98" cx="49.5" cy="49.5" r="42.5" fill="white"/>
<g id="Mask Group">
<mask id="mask0_4680_6166" style="mask-type:alpha" maskUnits="userSpaceOnUse" x="7" y="7" width="85" height="85">
<g id="Group 359">
<circle id="Ellipse 95" cx="49.5" cy="49.5" r="42.5" fill="#DDE1F0"/>
<mask id="mask1_4680_6166" style="mask-type:alpha" maskUnits="userSpaceOnUse" x="7" y="7" width="85" height="85">
<g id="Ellipse 94">
<circle cx="49.5" cy="49.5" r="42.5" fill="#DDE1F0"/>
<circle cx="49.5" cy="49.5" r="42" stroke="black" stroke-opacity="0.5"/>
</g>
</mask>
<g mask="url(#mask1_4680_6166)">
</g>
</g>
</mask>
<g mask="url(#mask0_4680_6166)">
<g id="Layer 2">
<g id="avatar">
<g id="Group">
<path id="Vector" d="M42.2378 78.7598H55.0403C55.8307 78.7598 56.5886 79.0716 57.1475 79.6266C57.7063 80.1817 58.0203 80.9345 58.0203 81.7194V96.2625H39.2578V81.7177C39.2583 80.933 39.5724 80.1807 40.1312 79.626C40.69 79.0713 41.4477 78.7598 42.2378 78.7598V78.7598Z" fill="#3869E5"/>
<path id="Vector_2" d="M42.8998 78.5693H44.2719C44.3452 78.5693 44.4155 78.5983 44.4674 78.6498C44.5193 78.7013 44.5484 78.7712 44.5484 78.844V96.0738H42.625V78.844C42.625 78.7715 42.6539 78.7019 42.7054 78.6504C42.7569 78.5989 42.8267 78.5698 42.8998 78.5693Z" fill="#45CBF6"/>
<path id="Vector_3" d="M53.0492 78.5693H54.4213C54.4946 78.5693 54.565 78.5983 54.6168 78.6498C54.6687 78.7013 54.6978 78.7712 54.6978 78.844V96.0738H52.7744V78.844C52.7744 78.7715 52.8033 78.7019 52.8548 78.6504C52.9063 78.5989 52.9762 78.5698 53.0492 78.5693V78.5693Z" fill="#45CBF6"/>
<path id="Vector_4" d="M42.6338 84.8076H39.2461V97.2291H42.6338V84.8076Z" fill="#3869E5"/>
<path id="Vector_5" d="M54.7225 97.2275H58.0215V84.8061H54.7225V97.2275Z" fill="#3869E5"/>
<path id="Vector_6" d="M44.5498 72.6465H52.7841V80.5695C52.7846 81.1063 52.6785 81.638 52.4721 82.1342C52.2657 82.6304 51.9629 83.0814 51.581 83.4613C51.1991 83.8413 50.7456 84.1428 50.2463 84.3487C49.7471 84.5546 49.2119 84.6608 48.6714 84.6612V84.6612C47.5797 84.6612 46.5327 84.2305 45.7607 83.4638C44.9888 82.6971 44.5551 81.6572 44.5551 80.573V72.65L44.5498 72.6465Z" fill="#3869E5"/>
<path id="Vector_7" d="M31.4111 62.9116C32.775 61.5571 32.775 59.3609 31.4111 58.0064C30.0473 56.6519 27.8361 56.6519 26.4723 58.0064C25.1085 59.3609 25.1085 61.5571 26.4723 62.9116C27.8361 64.2661 30.0473 64.2661 31.4111 62.9116Z" fill="#3869E5"/>
<path id="Vector_8" d="M68.8142 63.9084C70.7286 63.6756 72.0906 61.9455 71.8562 60.0441C71.6218 58.1427 69.8798 56.79 67.9654 57.0228C66.051 57.2556 64.689 58.9857 64.9234 60.8871C65.1578 62.7885 66.8998 64.1412 68.8142 63.9084Z" fill="#3869E5"/>
<path id="Vector_9" d="M24.2394 29.6851C29.7025 29.6851 34.1312 25.2865 34.1312 19.8606C34.1312 14.4347 29.7025 10.0361 24.2394 10.0361C18.7764 10.0361 14.3477 14.4347 14.3477 19.8606C14.3477 25.2865 18.7764 29.6851 24.2394 29.6851Z" fill="#3869E5"/>
<path id="Vector_10" d="M30.3876 32.8722L28.3543 30.8544C27.4362 29.9371 26.9209 28.6961 26.9209 27.4027C26.9209 26.1092 27.4362 24.8683 28.3543 23.9509C29.278 23.0385 30.5278 22.5264 31.8306 22.5264C33.1334 22.5264 34.3832 23.0385 35.3069 23.9509L37.3384 25.9686C38.2565 26.886 38.7718 28.1269 38.7718 29.4204C38.7718 30.7139 38.2565 31.9548 37.3384 32.8722C36.4152 33.7849 35.1656 34.2973 33.863 34.2973C32.5604 34.2973 31.3108 33.7849 30.3876 32.8722V32.8722Z" fill="#3869E5"/>
<path id="Vector_11" d="M73.3508 29.6851C78.8138 29.6851 83.2425 25.2865 83.2425 19.8606C83.2425 14.4347 78.8138 10.0361 73.3508 10.0361C67.8877 10.0361 63.459 14.4347 63.459 19.8606C63.459 25.2865 67.8877 29.6851 73.3508 29.6851Z" fill="#3869E5"/>
<path id="Vector_12" d="M67.2011 32.8722L69.2344 30.8544C70.1525 29.9371 70.6678 28.6961 70.6678 27.4027C70.6678 26.1092 70.1525 24.8683 69.2344 23.9509V23.9509C68.3107 23.0385 67.0609 22.5264 65.7581 22.5264C64.4554 22.5264 63.2056 23.0385 62.2818 23.9509L60.2503 25.9686C59.3313 26.8855 58.8154 28.1266 58.8154 29.4204C58.8154 30.7141 59.3313 31.9552 60.2503 32.8722V32.8722C61.1735 33.7849 62.4231 34.2973 63.7257 34.2973C65.0283 34.2973 66.2779 33.7849 67.2011 32.8722V32.8722Z" fill="#3869E5"/>
<path id="Vector_13" d="M65.7276 59.6266C75.1653 50.2374 75.1653 35.0145 65.7276 25.6254C56.2898 16.2362 40.9882 16.2362 31.5505 25.6254C22.1127 35.0145 22.1127 50.2374 31.5505 59.6266C40.9882 69.0158 56.2898 69.0158 65.7276 59.6266Z" fill="#3869E5"/>
<path id="Vector_14" d="M68.0459 47.7768C68.0459 37.1467 59.3694 28.5293 48.6665 28.5293C37.9635 28.5293 29.2871 37.1467 29.2871 47.7768V57.3918C29.2871 68.0219 37.9635 76.6393 48.6665 76.6393C59.3694 76.6393 68.0459 68.0219 68.0459 57.3918V47.7768Z" fill="#45CBF6"/>
<path id="Vector_15" d="M69.6271 48.1667C69.6271 36.1678 59.5971 26.3468 47.5337 26.9877C42.1812 27.2818 37.1448 29.5989 33.4576 33.4637C29.7703 37.3284 27.7118 42.448 27.7041 47.7723C36.9595 45.6313 44.2914 41.7174 48.6665 35.0779C52.8324 42.6417 60.0456 46.7476 69.6271 48.1667Z" fill="#3869E5"/>
<path id="Vector_16" d="M36.8677 58.012C36.8677 58.2532 36.5132 58.4487 36.0682 58.4487C35.6233 58.4487 35.2705 58.2532 35.2705 58.012C35.2705 57.7708 35.6251 57.5771 36.0682 57.5771C36.5114 57.5771 36.8677 57.7726 36.8677 58.012Z" fill="#3869E5"/>
<path id="Vector_17" d="M39.3685 58.012C39.3685 58.2532 39.014 58.4487 38.569 58.4487C38.1241 58.4487 37.7695 58.2532 37.7695 58.012C37.7695 57.7708 38.1241 57.5771 38.569 57.5771C39.014 57.5771 39.3685 57.7726 39.3685 58.012Z" fill="#3869E5"/>
<path id="Vector_18" d="M38.2117 59.1593C38.2117 59.4005 37.8571 59.5959 37.4122 59.5959C36.9672 59.5959 36.6162 59.3935 36.6162 59.1593C36.6162 58.9251 36.9708 58.7227 37.4139 58.7227C37.8571 58.7227 38.2117 58.9181 38.2117 59.1593Z" fill="#3869E5"/>
<path id="Vector_19" d="M40.7388 59.1593C40.7388 59.4005 40.3843 59.5959 39.9393 59.5959C39.4944 59.5959 39.1416 59.4005 39.1416 59.1593C39.1416 58.9181 39.4961 58.7227 39.9393 58.7227C40.3825 58.7227 40.7388 58.9181 40.7388 59.1593Z" fill="#3869E5"/>
<path id="Vector_20" d="M41.8687 58.012C41.8687 58.2532 41.5142 58.4487 41.071 58.4487C40.6278 58.4487 40.2715 58.2532 40.2715 58.012C40.2715 57.7708 40.626 57.5771 41.071 57.5771C41.5159 57.5771 41.8687 57.7726 41.8687 58.012Z" fill="#3869E5"/>
<path id="Vector_21" d="M57.4449 58.012C57.4449 58.2532 57.0903 58.4487 56.6454 58.4487C56.2004 58.4487 55.8477 58.2532 55.8477 58.012C55.8477 57.7708 56.2022 57.5771 56.6454 57.5771C57.0886 57.5771 57.4449 57.7726 57.4449 58.012Z" fill="#3869E5"/>
<path id="Vector_22" d="M59.9478 58.012C59.9478 58.2532 59.5933 58.4487 59.1483 58.4487C58.7034 58.4487 58.3506 58.2532 58.3506 58.012C58.3506 57.7708 58.7051 57.5771 59.1483 57.5771C59.5915 57.5771 59.9478 57.7726 59.9478 58.012Z" fill="#3869E5"/>
<path id="Vector_23" d="M58.7886 59.1593C58.7886 59.4005 58.4341 59.5959 57.9909 59.5959C57.5477 59.5959 57.1914 59.4005 57.1914 59.1593C57.1914 58.9181 57.5459 58.7227 57.9909 58.7227C58.4359 58.7227 58.7886 58.9181 58.7886 59.1593Z" fill="#3869E5"/>
<path id="Vector_24" d="M61.316 59.1593C61.316 59.4005 60.9614 59.5959 60.5165 59.5959C60.0715 59.5959 59.7188 59.4005 59.7188 59.1593C59.7188 58.9181 60.0733 58.7227 60.5165 58.7227C60.9597 58.7227 61.316 58.9181 61.316 59.1593Z" fill="#3869E5"/>
<path id="Vector_25" d="M62.4476 58.012C62.4476 58.2532 62.0931 58.4487 61.6481 58.4487C61.2032 58.4487 60.8486 58.2532 60.8486 58.012C60.8486 57.7708 61.2032 57.5771 61.6481 57.5771C62.0931 57.5771 62.4476 57.7726 62.4476 58.012Z" fill="#3869E5"/>
<path id="Vector_26" d="M52.4331 61.3897C52.773 59.3235 51.3621 57.3749 49.2818 57.0373C47.2015 56.6997 45.2396 58.101 44.8997 60.1671C44.5597 62.2333 45.9706 64.1819 48.0509 64.5195C50.1312 64.8571 52.0932 63.4558 52.4331 61.3897Z" fill="#3869E5"/>
<path id="Vector_27" d="M42.0334 54.4805C41.8238 54.4805 41.6227 54.3978 41.4744 54.2505C41.3261 54.1032 41.2428 53.9035 41.2428 53.6952C41.2287 53.2654 41.0469 52.8579 40.7357 52.5588C40.4246 52.2597 40.0086 52.0925 39.5756 52.0925C39.1426 52.0925 38.7265 52.2597 38.4154 52.5588C38.1043 52.8579 37.9224 53.2654 37.9083 53.6952C37.9083 53.9035 37.825 54.1032 37.6768 54.2505C37.5285 54.3978 37.3274 54.4805 37.1177 54.4805C36.908 54.4805 36.7069 54.3978 36.5586 54.2505C36.4104 54.1032 36.3271 53.9035 36.3271 53.6952C36.3169 53.2652 36.3935 52.8375 36.5522 52.4373C36.7109 52.037 36.9486 51.6723 37.2512 51.3646C37.5539 51.0569 37.9154 50.8124 38.3146 50.6455C38.7137 50.4786 39.1425 50.3926 39.5756 50.3926C40.0087 50.3926 40.4374 50.4786 40.8366 50.6455C41.2357 50.8124 41.5973 51.0569 41.8999 51.3646C42.2026 51.6723 42.4402 52.037 42.5989 52.4373C42.7576 52.8375 42.8342 53.2652 42.8241 53.6952C42.8241 53.9035 42.7408 54.1032 42.5925 54.2505C42.4442 54.3978 42.2431 54.4805 42.0334 54.4805Z" fill="#3869E5"/>
<path id="Vector_28" d="M59.1389 54.4805C58.9292 54.4805 58.7281 54.3978 58.5799 54.2505C58.4316 54.1032 58.3483 53.9035 58.3483 53.6952C58.3342 53.2654 58.1523 52.8579 57.8412 52.5588C57.5301 52.2597 57.114 52.0925 56.681 52.0925C56.248 52.0925 55.832 52.2597 55.5209 52.5588C55.2097 52.8579 55.0279 53.2654 55.0138 53.6952C55.0138 53.9035 54.9305 54.1032 54.7822 54.2505C54.634 54.3978 54.4329 54.4805 54.2232 54.4805C54.0135 54.4805 53.8124 54.3978 53.6641 54.2505C53.5158 54.1032 53.4325 53.9035 53.4325 53.6952C53.4224 53.2652 53.499 52.8375 53.6577 52.4373C53.8164 52.037 54.054 51.6723 54.3567 51.3646C54.6593 51.0569 55.0209 50.8124 55.42 50.6455C55.8192 50.4786 56.2479 50.3926 56.681 50.3926C57.1141 50.3926 57.5429 50.4786 57.942 50.6455C58.3412 50.8124 58.7027 51.0569 59.0054 51.3646C59.308 51.6723 59.5457 52.037 59.7044 52.4373C59.8631 52.8375 59.9397 53.2652 59.9295 53.6952C59.9298 53.7984 59.9095 53.9006 59.8698 53.996C59.8302 54.0914 59.772 54.1781 59.6985 54.251C59.625 54.324 59.5378 54.3818 59.4418 54.4212C59.3457 54.4606 59.2428 54.4807 59.1389 54.4805Z" fill="#3869E5"/>
</g>
</g>
</g>
</g>
</g>
</g>
</g>
<defs>
<filter id="filter0_ddii_4680_6166" x="-2" y="-2" width="103" height="103" filterUnits="userSpaceOnUse" color-interpolation-filters="sRGB">
<feFlood flood-opacity="0" result="BackgroundImageFix"/>
<feColorMatrix in="SourceAlpha" type="matrix" values="0 0 0 0 0 0 0 0 0 0 0 0 0 0 0 0 0 0 127 0" result="hardAlpha"/>
<feOffset dx="5" dy="5"/>
<feGaussianBlur stdDeviation="2"/>
<feComposite in2="hardAlpha" operator="out"/>
<feColorMatrix type="matrix" values="0 0 0 0 1 0 0 0 0 1 0 0 0 0 1 0 0 0 0.5 0"/>
<feBlend mode="normal" in2="BackgroundImageFix" result="effect1_dropShadow_4680_6166"/>
<feColorMatrix in="SourceAlpha" type="matrix" values="0 0 0 0 0 0 0 0 0 0 0 0 0 0 0 0 0 0 127 0" result="hardAlpha"/>
<feOffset dx="-5" dy="-5"/>
<feGaussianBlur stdDeviation="2"/>
<feComposite in2="hardAlpha" operator="out"/>
<feColorMatrix type="matrix" values="0 0 0 0 0.92549 0 0 0 0 0.937255 0 0 0 0 0.941176 0 0 0 0.25 0"/>
<feBlend mode="normal" in2="effect1_dropShadow_4680_6166" result="effect2_dropShadow_4680_6166"/>
<feBlend mode="normal" in="SourceGraphic" in2="effect2_dropShadow_4680_6166" result="shape"/>
<feColorMatrix in="SourceAlpha" type="matrix" values="0 0 0 0 0 0 0 0 0 0 0 0 0 0 0 0 0 0 127 0" result="hardAlpha"/>
<feOffset dx="-1" dy="-2"/>
<feGaussianBlur stdDeviation="13"/>
<feComposite in2="hardAlpha" operator="arithmetic" k2="-1" k3="1"/>
<feColorMatrix type="matrix" values="0 0 0 0 0.176471 0 0 0 0 0.764706 0 0 0 0 0.952941 0 0 0 0.5 0"/>
<feBlend mode="normal" in2="shape" result="effect3_innerShadow_4680_6166"/>
<feColorMatrix in="SourceAlpha" type="matrix" values="0 0 0 0 0 0 0 0 0 0 0 0 0 0 0 0 0 0 127 0" result="hardAlpha"/>
<feOffset dx="1" dy="-3"/>
<feGaussianBlur stdDeviation="13.5"/>
<feComposite in2="hardAlpha" operator="arithmetic" k2="-1" k3="1"/>
<feColorMatrix type="matrix" values="0 0 0 0 0.176471 0 0 0 0 0.764706 0 0 0 0 0.952941 0 0 0 0.5 0"/>
<feBlend mode="normal" in2="effect3_innerShadow_4680_6166" result="effect4_innerShadow_4680_6166"/>
</filter>
<clipPath id="clip0_4680_6166">
<rect width="100" height="100" fill="white"/>
</clipPath>
</defs>
</svg>
