<svg width="63" height="63" viewBox="0 0 63 63" fill="none" xmlns="http://www.w3.org/2000/svg">
<g opacity="0.25" filter="url(#filter0_f_3704_4604)">
<rect x="9.58691" y="31" width="42.2358" height="26.3974" rx="13.1987" fill="url(#paint0_radial_3704_4604)"/>
</g>
<rect x="8.30566" y="8.05957" width="45.7555" height="45.7555" rx="22.8777" fill="url(#paint1_radial_3704_4604)"/>
<g filter="url(#filter1_i_3704_4604)">
<path d="M31.2463 18.6006C24.2622 18.6006 18.8467 23.7185 18.8467 30.6283C18.8467 34.2428 20.3284 37.3675 22.7402 39.525C22.9417 39.7048 23.0657 39.959 23.0719 40.2318L23.1401 42.4389C23.145 42.6013 23.1898 42.76 23.2705 42.9011C23.3511 43.0421 23.4652 43.1612 23.6026 43.2478C23.7401 43.3344 23.8967 43.386 24.0588 43.3979C24.2208 43.4098 24.3833 43.3818 24.5319 43.3162L26.9933 42.2312C27.201 42.1382 27.4365 42.1227 27.6566 42.1816C28.7881 42.4916 29.9909 42.659 31.2463 42.659C38.2304 42.659 43.646 37.5411 43.646 30.6314C43.646 23.7216 38.2304 18.6006 31.2463 18.6006Z" fill="white"/>
<path d="M23.8003 34.1467L27.4427 28.3684C27.5798 28.1509 27.7604 27.9641 27.9732 27.8199C28.1861 27.6757 28.4265 27.5771 28.6794 27.5305C28.9322 27.4839 29.192 27.4902 29.4423 27.5491C29.6925 27.6079 29.9279 27.718 30.1335 27.8724L33.0319 30.0455C33.1613 30.1423 33.3187 30.1944 33.4803 30.1939C33.642 30.1933 33.799 30.1401 33.9278 30.0424L37.8399 27.0727C38.3606 26.6759 39.0426 27.302 38.6954 27.8569L35.0499 33.6321C34.9129 33.8496 34.7323 34.0364 34.5194 34.1806C34.3066 34.3248 34.0661 34.4233 33.8133 34.47C33.5605 34.5166 33.3007 34.5102 33.0504 34.4514C32.8001 34.3925 32.5648 34.2825 32.3592 34.1281L29.4608 31.955C29.3314 31.8581 29.174 31.806 29.0123 31.8066C28.8507 31.8072 28.6936 31.8604 28.5649 31.9581L24.6528 34.9278C24.132 35.3246 23.4501 34.7015 23.8003 34.1467Z" fill="url(#paint2_radial_3704_4604)"/>
</g>
<defs>
<filter id="filter0_f_3704_4604" x="4.12691" y="25.54" width="53.1554" height="37.3175" filterUnits="userSpaceOnUse" color-interpolation-filters="sRGB">
<feFlood flood-opacity="0" result="BackgroundImageFix"/>
<feBlend mode="normal" in="SourceGraphic" in2="BackgroundImageFix" result="shape"/>
<feGaussianBlur stdDeviation="2.73" result="effect1_foregroundBlur_3704_4604"/>
</filter>
<filter id="filter1_i_3704_4604" x="16.9863" y="16.7402" width="27.9004" height="28.4004" filterUnits="userSpaceOnUse" color-interpolation-filters="sRGB">
<feFlood flood-opacity="0" result="BackgroundImageFix"/>
<feBlend mode="normal" in="SourceGraphic" in2="BackgroundImageFix" result="shape"/>
<feColorMatrix in="SourceAlpha" type="matrix" values="0 0 0 0 0 0 0 0 0 0 0 0 0 0 0 0 0 0 127 0" result="hardAlpha"/>
<feOffset dy="0.5"/>
<feGaussianBlur stdDeviation="1.25"/>
<feComposite in2="hardAlpha" operator="arithmetic" k2="-1" k3="1"/>
<feColorMatrix type="matrix" values="0 0 0 0 0 0 0 0 0 0 0 0 0 0 0 0 0 0 0.1 0"/>
<feBlend mode="normal" in2="shape" result="effect1_innerShadow_3704_4604"/>
</filter>
<radialGradient id="paint0_radial_3704_4604" cx="0" cy="0" r="1" gradientUnits="userSpaceOnUse" gradientTransform="translate(16.6614 57.3967) scale(46.4594 29.0363)">
<stop stop-color="#0099FF"/>
<stop offset="0.6" stop-color="#A033FF"/>
<stop offset="0.9" stop-color="#FF5280"/>
<stop offset="1" stop-color="#FF7061"/>
</radialGradient>
<radialGradient id="paint1_radial_3704_4604" cx="0" cy="0" r="1" gradientUnits="userSpaceOnUse" gradientTransform="translate(15.9697 53.8138) scale(50.331 50.3296)">
<stop stop-color="#0099FF"/>
<stop offset="0.6" stop-color="#A033FF"/>
<stop offset="0.9" stop-color="#FF5280"/>
<stop offset="1" stop-color="#FF7061"/>
</radialGradient>
<radialGradient id="paint2_radial_3704_4604" cx="0" cy="0" r="1" gradientUnits="userSpaceOnUse" gradientTransform="translate(23.0006 43.3999) scale(27.2793)">
<stop stop-color="#0099FF"/>
<stop offset="0.6" stop-color="#A033FF"/>
<stop offset="0.9" stop-color="#FF5280"/>
<stop offset="1" stop-color="#FF7061"/>
</radialGradient>
</defs>
</svg>
