<svg width="21" height="20" viewBox="0 0 21 20" fill="none" xmlns="http://www.w3.org/2000/svg">
<path d="M17.75 10C17.75 14.1421 14.3921 17.5 10.25 17.5C6.75137 17.5 3.81224 15.1044 2.98348 11.8641C2.82427 11.2416 2.29753 10.75 1.655 10.75H1.62382C0.89705 10.75 0.31649 11.3711 0.46707 12.0821C1.42507 16.6056 5.44114 20 10.25 20C15.7729 20 20.25 15.5228 20.25 10C20.25 4.47715 15.7729 0 10.25 0C7.12442 0 4.33376 1.43396 2.5 3.6799V2.25C2.5 1.55964 1.94036 1 1.25 1C0.55964 1 0 1.55964 0 2.25V6.5C0 6.83152 0.1317 7.14946 0.36612 7.38388C0.60054 7.61831 0.91848 7.75 1.25 7.75H5.50001C6.19036 7.75 6.75001 7.19035 6.75001 6.5C6.75001 6.45685 6.74782 6.41422 6.74355 6.37219C6.67954 5.74187 6.14721 5.25 5.5 5.25H4.44562C5.82105 3.57125 7.91043 2.5 10.25 2.5C14.3921 2.5 17.75 5.85787 17.75 10Z" fill="#3869E5"/>
<path d="M10.25 5.5C9.5597 5.5 9 6.05965 9 6.75V10C9 10.4466 9.2383 10.8592 9.625 11.0825L12.8726 12.9575C13.4705 13.3027 14.235 13.0979 14.5801 12.5C14.9253 11.9021 14.7205 11.1376 14.1226 10.7925L11.5 9.2783V6.75C11.5 6.05965 10.9404 5.5 10.25 5.5Z" fill="#3869E5"/>
</svg>
