<svg width="24" height="24" viewBox="0 0 24 24" fill="none" xmlns="http://www.w3.org/2000/svg">
<path d="M12 20C12 19.3096 11.4404 18.75 10.75 18.75H5.25V5.25H10.75C11.4404 5.25 12 4.69036 12 4C12 3.30964 11.4404 2.75 10.75 2.75H5C3.75736 2.75 2.75 3.75736 2.75 5V19C2.75 20.2426 3.75736 21.25 5 21.25H10.75C11.4404 21.25 12 20.6904 12 20Z" fill="#3869E5"/>
<path d="M15.0001 15.2323L16.9823 13.2501L9.25005 13.2501C8.5597 13.2501 8.00005 12.6905 8.00005 12.0001C8.00005 11.3097 8.55969 10.7501 9.25005 10.7501L16.9823 10.7501L15 8.76783C14.5119 8.27968 14.5119 7.48822 15 7.00007C15.4882 6.51191 16.2796 6.51191 16.7678 7.00007L20.8839 11.1162C21.1184 11.3506 21.25 11.6686 21.25 12.0001C21.25 12.3316 21.1184 12.6496 20.8839 12.884L16.7678 17.0001C16.2797 17.4882 15.4882 17.4882 15.0001 17.0001C14.5119 16.5119 14.5119 15.7205 15.0001 15.2323Z" fill="#3869E5"/>
</svg>
