<svg width="100" height="100" viewBox="0 0 100 100" fill="none" xmlns="http://www.w3.org/2000/svg">
<g id="Man partner 2_blue" clip-path="url(#clip0_4680_6120)">
<rect width="100" height="100"/>
<g id="Group 37521" filter="url(#filter0_ddii_4680_6120)">
<ellipse id="Ellipse 97" cx="49.5" cy="49.4998" rx="42.5" ry="42.4998" fill="white"/>
<g id="Mask Group">
<mask id="mask0_4680_6120" style="mask-type:alpha" maskUnits="userSpaceOnUse" x="7" y="7" width="85" height="85">
<path id="Ellipse 96" d="M91.5 49.4998C91.5 72.6956 72.696 91.4995 49.5 91.4995C26.304 91.4995 7.5 72.6956 7.5 49.4998C7.5 26.3039 26.304 7.5 49.5 7.5C72.696 7.5 91.5 26.3039 91.5 49.4998Z" fill="#C4C4C4" stroke="black"/>
</mask>
<g mask="url(#mask0_4680_6120)">
<g id="avatar">
<g id="Group">
<path id="Vector" d="M53.8252 74.8232H44.8789V91.1538H53.8252V74.8232Z" fill="#3869E5"/>
<path id="Vector_2" d="M45.7339 83.9365H52.8825C54.1632 83.9365 55.3914 84.4418 56.2969 85.3412C57.2025 86.2406 57.7112 87.4604 57.7112 88.7323V99.6135H40.9053V88.7323C40.9053 87.4604 41.414 86.2406 42.3196 85.3412C43.2251 84.4418 44.4533 83.9365 45.7339 83.9365Z" fill="#3869E5"/>
<path id="Vector_3" d="M65.1749 55.0337C73.994 46.26 73.994 32.035 65.1749 23.2613C56.3558 14.4876 42.0571 14.4876 33.238 23.2613C24.4189 32.035 24.4189 46.26 33.238 55.0337C42.0571 63.8074 56.3558 63.8074 65.1749 55.0337Z" fill="#3869E5"/>
<path id="Vector_4" d="M31.8039 48.7816C32.8701 46.9023 32.2005 44.5205 30.3084 43.4616C28.4162 42.4027 26.0181 43.0677 24.9519 44.9469C23.8858 46.8262 24.5554 49.208 26.4475 50.2669C28.3396 51.3258 30.7378 50.6608 31.8039 48.7816Z" fill="#3869E5"/>
<path id="Vector_5" d="M27.3253 42.9551C29.4889 42.7686 31.0907 40.8754 30.903 38.7264C30.7152 36.5774 28.8089 34.9866 26.6453 35.1731C24.4816 35.3596 22.8798 37.2528 23.0675 39.4018C23.2553 41.5507 25.1616 43.1416 27.3253 42.9551Z" fill="#3869E5"/>
<path id="Vector_6" d="M31.1287 34.4157C32.7772 33.0114 32.9673 30.5457 31.5534 28.9084C30.1395 27.2711 27.6568 27.0822 26.0083 28.4865C24.3598 29.8909 24.1697 32.3566 25.5836 33.9939C26.9976 35.6312 29.4802 35.82 31.1287 34.4157Z" fill="#3869E5"/>
<path id="Vector_7" d="M32.4871 28.7234C34.659 28.7234 36.4196 26.9748 36.4196 24.8178C36.4196 22.6607 34.659 20.9121 32.4871 20.9121C30.3153 20.9121 28.5547 22.6607 28.5547 24.8178C28.5547 26.9748 30.3153 28.7234 32.4871 28.7234Z" fill="#3869E5"/>
<path id="Vector_8" d="M41.3433 22.219C42.7474 20.5734 42.5425 18.1089 40.8856 16.7143C39.2288 15.3197 36.7473 15.5232 35.3432 17.1688C33.9391 18.8144 34.1439 21.279 35.8008 22.6735C37.4577 24.0681 39.9391 23.8646 41.3433 22.219Z" fill="#3869E5"/>
<path id="Vector_9" d="M49.6653 16.6567C49.709 17.4278 49.5216 18.1945 49.1267 18.8598C48.7318 19.5251 48.1472 20.0592 47.4468 20.3946C46.7463 20.7299 45.9615 20.8515 45.1914 20.744C44.4214 20.6364 43.7008 20.3045 43.1206 19.7903C42.5405 19.2761 42.1269 18.6025 41.932 17.8549C41.7372 17.1072 41.77 16.3189 42.0262 15.5897C42.2823 14.8605 42.7504 14.2231 43.3712 13.7581C43.9921 13.2931 44.7378 13.0213 45.5141 12.9771C46.03 12.9477 46.5467 13.0196 47.0345 13.1887C47.5224 13.3578 47.972 13.6207 48.3575 13.9624C48.7431 14.3042 49.057 14.718 49.2814 15.1803C49.5058 15.6426 49.6362 16.1443 49.6653 16.6567V16.6567Z" fill="#3869E5"/>
<path id="Vector_10" d="M57.555 17.1357C57.605 14.9792 55.8854 13.1907 53.7141 13.1411C51.5429 13.0914 49.7422 14.7993 49.6922 16.9557C49.6421 19.1122 51.3617 20.9006 53.533 20.9503C55.7042 21 57.5049 19.2921 57.555 17.1357Z" fill="#3869E5"/>
<path id="Vector_11" d="M64.3175 22.0413C65.4975 20.2304 64.976 17.8124 63.1527 16.6404C61.3294 15.4684 58.8947 15.9864 57.7147 17.7973C56.5347 19.6082 57.0562 22.0262 58.8795 23.1982C60.7028 24.3702 63.1375 23.8522 64.3175 22.0413Z" fill="#3869E5"/>
<path id="Vector_12" d="M70.8222 26.151C71.5365 24.1139 70.4528 21.8875 68.4018 21.1781C66.3507 20.4687 64.1091 21.545 63.3948 23.5821C62.6806 25.6191 63.7642 27.8456 65.8153 28.555C67.8663 29.2643 70.108 28.188 70.8222 26.151Z" fill="#3869E5"/>
<path id="Vector_13" d="M74.3125 33.7931C75.5607 32.0279 75.1317 29.592 73.3544 28.3523C71.5771 27.1126 69.1244 27.5386 67.8763 29.3038C66.6281 31.069 67.057 33.505 68.8343 34.7447C70.6116 35.9844 73.0643 35.5583 74.3125 33.7931Z" fill="#3869E5"/>
<path id="Vector_14" d="M72.7432 43.1862C74.914 43.1192 76.6191 41.3171 76.5516 39.1611C76.4841 37.0051 74.6697 35.3117 72.4989 35.3787C70.3281 35.4457 68.623 37.2478 68.6905 39.4038C68.758 41.5598 70.5724 43.2532 72.7432 43.1862Z" fill="#3869E5"/>
<path id="Vector_15" d="M74.2161 46.5864C74.2598 47.3574 74.0724 48.124 73.6776 48.7892C73.2827 49.4545 72.6982 49.9886 71.9979 50.324C71.2975 50.6594 70.5128 50.7811 69.7428 50.6736C68.9729 50.5662 68.2522 50.2345 67.672 49.7204C67.0918 49.2064 66.6781 48.533 66.4831 47.7855C66.2881 47.0379 66.3206 46.2497 66.5765 45.5205C66.8324 44.7913 67.3002 44.1538 67.9208 43.6886C68.5414 43.2234 69.2869 42.9513 70.0631 42.9068C70.5791 42.8774 71.0959 42.9493 71.5839 43.1184C72.0719 43.2874 72.5215 43.5503 72.9072 43.892C73.2929 44.2337 73.607 44.6476 73.8316 45.1099C74.0561 45.5722 74.1868 46.0739 74.2161 46.5864V46.5864Z" fill="#3869E5"/>
<path id="Vector_16" d="M29.3178 56.5697C32.2724 56.0933 34.2787 53.3284 33.7991 50.394C33.3195 47.4596 30.5356 45.4669 27.5811 45.9432C24.6266 46.4195 22.6202 49.1845 23.0998 52.1189C23.5794 55.0533 26.3633 57.046 29.3178 56.5697Z" fill="#3869E5"/>
<path id="Vector_17" d="M73.8152 55.064C75.9317 52.9619 75.9317 49.5537 73.8152 47.4516C71.6987 45.3495 68.2672 45.3495 66.1506 47.4516C64.0341 49.5537 64.0341 52.9619 66.1506 55.064C68.2672 57.1661 71.6987 57.1661 73.8152 55.064Z" fill="#3869E5"/>
<path id="Vector_18" d="M49.8969 26.8135H48.3867C37.4262 26.8135 28.541 35.6382 28.541 46.524V58.9454C28.541 69.8312 37.4262 78.656 48.3867 78.656H49.8969C60.8573 78.656 69.7426 69.8312 69.7426 58.9454V46.524C69.7426 35.6382 60.8573 26.8135 49.8969 26.8135Z" fill="#45CBF6"/>
<path id="Vector_19" d="M53.8241 83.9352L49.3506 79.4922L44.8771 83.9352L49.3506 88.3783L53.8241 83.9352Z" fill="#3869E5"/>
<path id="Vector_20" d="M49.1391 33.6843C55.2415 33.6843 60.1884 31.7105 60.1884 29.2757C60.1884 26.841 55.2415 24.8672 49.1391 24.8672C43.0368 24.8672 38.0898 26.841 38.0898 29.2757C38.0898 31.7105 43.0368 33.6843 49.1391 33.6843Z" fill="#3869E5"/>
<path id="Vector_21" d="M41.4212 49.2266C41.4216 49.6734 41.2884 50.1103 41.0387 50.482C40.7889 50.8537 40.4338 51.1435 40.0182 51.3147C39.6026 51.4858 39.1452 51.5307 38.7039 51.4436C38.2626 51.3565 37.8573 51.1414 37.5391 50.8254C37.221 50.5094 37.0043 50.1068 36.9167 49.6685C36.829 49.2302 36.8742 48.776 37.0465 48.3632C37.2188 47.9504 37.5106 47.5977 37.8848 47.3496C38.2591 47.1016 38.699 46.9694 39.1489 46.9697C39.7515 46.9697 40.3295 47.2075 40.7557 47.6307C41.1818 48.054 41.4212 48.628 41.4212 49.2266V49.2266Z" fill="#3869E5"/>
<path id="Vector_22" d="M60.89 49.2266C60.8903 49.6733 60.7572 50.1102 60.5076 50.4819C60.2579 50.8535 59.9028 51.1433 59.4873 51.3145C59.0718 51.4857 58.6145 51.5307 58.1733 51.4437C57.7321 51.3568 57.3267 51.1418 57.0085 50.826C56.6903 50.5102 56.4735 50.1078 56.3856 49.6696C56.2977 49.2314 56.3427 48.7772 56.5147 48.3644C56.6868 47.9516 56.9783 47.5987 57.3523 47.3505C57.7263 47.1022 58.166 46.9697 58.6159 46.9697C58.9144 46.9695 59.2101 47.0277 59.486 47.141C59.7619 47.2543 60.0126 47.4205 60.2238 47.6301C60.435 47.8397 60.6025 48.0886 60.7168 48.3625C60.8311 48.6364 60.89 48.93 60.89 49.2266Z" fill="#3869E5"/>
<path id="Vector_23" d="M41.0059 56.6406C46.5208 66.453 51.944 66.7947 57.2737 56.6406H41.0059Z" fill="#3869E5"/>
<path id="Vector_24" d="M38.5554 109.753H34.2578V95.6211C34.2578 88.8016 38.5519 84.0391 44.702 84.0391V88.3074C40.4555 88.3074 38.5554 91.9871 38.5554 95.6211V109.753Z" fill="#3869E5"/>
<path id="Vector_25" d="M64.5399 109.753H60.2422V95.6211C60.2422 91.9818 58.3422 88.3074 54.0957 88.3074V84.0391C60.2458 84.0391 64.5399 88.8016 64.5399 95.6211V109.753Z" fill="#3869E5"/>
</g>
</g>
</g>
</g>
</g>
</g>
<defs>
<filter id="filter0_ddii_4680_6120" x="-2" y="-2" width="103" height="103" filterUnits="userSpaceOnUse" color-interpolation-filters="sRGB">
<feFlood flood-opacity="0" result="BackgroundImageFix"/>
<feColorMatrix in="SourceAlpha" type="matrix" values="0 0 0 0 0 0 0 0 0 0 0 0 0 0 0 0 0 0 127 0" result="hardAlpha"/>
<feOffset dx="5" dy="5"/>
<feGaussianBlur stdDeviation="2"/>
<feComposite in2="hardAlpha" operator="out"/>
<feColorMatrix type="matrix" values="0 0 0 0 1 0 0 0 0 1 0 0 0 0 1 0 0 0 0.5 0"/>
<feBlend mode="normal" in2="BackgroundImageFix" result="effect1_dropShadow_4680_6120"/>
<feColorMatrix in="SourceAlpha" type="matrix" values="0 0 0 0 0 0 0 0 0 0 0 0 0 0 0 0 0 0 127 0" result="hardAlpha"/>
<feOffset dx="-5" dy="-5"/>
<feGaussianBlur stdDeviation="2"/>
<feComposite in2="hardAlpha" operator="out"/>
<feColorMatrix type="matrix" values="0 0 0 0 0.92549 0 0 0 0 0.937255 0 0 0 0 0.941176 0 0 0 0.25 0"/>
<feBlend mode="normal" in2="effect1_dropShadow_4680_6120" result="effect2_dropShadow_4680_6120"/>
<feBlend mode="normal" in="SourceGraphic" in2="effect2_dropShadow_4680_6120" result="shape"/>
<feColorMatrix in="SourceAlpha" type="matrix" values="0 0 0 0 0 0 0 0 0 0 0 0 0 0 0 0 0 0 127 0" result="hardAlpha"/>
<feOffset dx="-1" dy="-2"/>
<feGaussianBlur stdDeviation="13"/>
<feComposite in2="hardAlpha" operator="arithmetic" k2="-1" k3="1"/>
<feColorMatrix type="matrix" values="0 0 0 0 0.176471 0 0 0 0 0.764706 0 0 0 0 0.952941 0 0 0 0.5 0"/>
<feBlend mode="normal" in2="shape" result="effect3_innerShadow_4680_6120"/>
<feColorMatrix in="SourceAlpha" type="matrix" values="0 0 0 0 0 0 0 0 0 0 0 0 0 0 0 0 0 0 127 0" result="hardAlpha"/>
<feOffset dx="1" dy="-3"/>
<feGaussianBlur stdDeviation="13.5"/>
<feComposite in2="hardAlpha" operator="arithmetic" k2="-1" k3="1"/>
<feColorMatrix type="matrix" values="0 0 0 0 0.176471 0 0 0 0 0.764706 0 0 0 0 0.952941 0 0 0 0.5 0"/>
<feBlend mode="normal" in2="effect3_innerShadow_4680_6120" result="effect4_innerShadow_4680_6120"/>
</filter>
<clipPath id="clip0_4680_6120">
<rect width="100" height="100" fill="white"/>
</clipPath>
</defs>
</svg>
