<svg width="100" height="100" viewBox="0 0 100 100" fill="none" xmlns="http://www.w3.org/2000/svg">
<g id="Woman partner 2" clip-path="url(#clip0_4680_5678)">
<rect width="100" height="100" />
<g id="Group 37506" filter="url(#filter0_dd_4680_5678)">
<ellipse id="Ellipse 97" cx="49.5" cy="49.4998" rx="42.5" ry="42.4998" fill="white"/>
<g id="Mask Group">
<mask id="mask0_4680_5678" style="mask-type:alpha" maskUnits="userSpaceOnUse" x="7" y="7" width="85" height="85">
<path id="Ellipse 96" d="M91.5 49.4998C91.5 72.6956 72.696 91.4995 49.5 91.4995C26.304 91.4995 7.5 72.6956 7.5 49.4998C7.5 26.3039 26.304 7.5 49.5 7.5C72.696 7.5 91.5 26.3039 91.5 49.4998Z" fill="#C4C4C4" stroke="black"/>
</mask>
<g mask="url(#mask0_4680_5678)">
<g id="avatar">
<g id="Group">
<path id="Vector" d="M53.8262 70.2363H44.8799V91.1541H53.8262V70.2363Z" fill="#45CBF6"/>
<path id="Vector_2" d="M45.7349 79.7012H52.8835C54.1642 79.7012 55.3924 80.2064 56.2979 81.1058C57.2035 82.0052 57.7122 83.225 57.7122 84.497V95.3781H40.9062V84.497C40.9062 83.225 41.415 82.0052 42.3205 81.1058C43.2261 80.2064 44.4543 79.7012 45.7349 79.7012Z" fill="#3869E5"/>
<path id="Vector_3" d="M65.1759 55.0337C73.995 46.26 73.995 32.035 65.1759 23.2613C56.3568 14.4876 42.0581 14.4876 33.239 23.2613C24.4198 32.035 24.4198 46.26 33.239 55.0337C42.0581 63.8074 56.3568 63.8074 65.1759 55.0337Z" fill="#3869E5"/>
<path id="Vector_4" d="M31.8059 48.7816C32.872 46.9023 32.2025 44.5205 30.3103 43.4616C28.4182 42.4027 26.02 43.0677 24.9539 44.9469C23.8877 46.8262 24.5573 49.208 26.4494 50.2669C28.3416 51.3258 30.7397 50.6608 31.8059 48.7816Z" fill="#3869E5"/>
<path id="Vector_5" d="M27.3262 42.9551C29.4899 42.7686 31.0917 40.8754 30.9039 38.7264C30.7162 36.5774 28.8099 34.9866 26.6462 35.1731C24.4825 35.3596 22.8807 37.2528 23.0685 39.4018C23.2563 41.5507 25.1625 43.1416 27.3262 42.9551Z" fill="#3869E5"/>
<path id="Vector_6" d="M31.1287 34.4157C32.7772 33.0114 32.9673 30.5457 31.5534 28.9084C30.1395 27.2711 27.6568 27.0822 26.0083 28.4865C24.3598 29.8909 24.1697 32.3566 25.5836 33.9939C26.9976 35.6312 29.4802 35.82 31.1287 34.4157Z" fill="#3869E5"/>
<path id="Vector_7" d="M32.4891 28.7234C34.6609 28.7234 36.4215 26.9748 36.4215 24.8178C36.4215 22.6607 34.6609 20.9121 32.4891 20.9121C30.3173 20.9121 28.5566 22.6607 28.5566 24.8178C28.5566 26.9748 30.3173 28.7234 32.4891 28.7234Z" fill="#3869E5"/>
<path id="Vector_8" d="M41.3433 22.219C42.7474 20.5734 42.5425 18.1089 40.8856 16.7143C39.2288 15.3197 36.7473 15.5232 35.3432 17.1688C33.9391 18.8144 34.1439 21.279 35.8008 22.6735C37.4577 24.0681 39.9391 23.8646 41.3433 22.219Z" fill="#3869E5"/>
<path id="Vector_9" d="M49.6663 16.6567C49.71 17.4278 49.5226 18.1945 49.1277 18.8598C48.7328 19.5251 48.1482 20.0592 47.4477 20.3946C46.7473 20.7299 45.9624 20.8515 45.1924 20.744C44.4224 20.6364 43.7018 20.3045 43.1216 19.7903C42.5415 19.2761 42.1278 18.6025 41.933 17.8549C41.7382 17.1072 41.771 16.3189 42.0271 15.5897C42.2833 14.8605 42.7514 14.2231 43.3722 13.7581C43.993 13.2931 44.7387 13.0213 45.5151 12.9771C46.031 12.9477 46.5476 13.0196 47.0355 13.1887C47.5234 13.3578 47.973 13.6207 48.3585 13.9624C48.744 14.3042 49.058 14.718 49.2824 15.1803C49.5068 15.6426 49.6372 16.1443 49.6663 16.6567V16.6567Z" fill="#3869E5"/>
<path id="Vector_10" d="M57.5569 17.1357C57.6069 14.9792 55.8873 13.1907 53.7161 13.1411C51.5448 13.0914 49.7441 14.7993 49.6941 16.9557C49.6441 19.1122 51.3637 20.9006 53.5349 20.9503C55.7062 21 57.5069 19.2921 57.5569 17.1357Z" fill="#3869E5"/>
<path id="Vector_11" d="M64.3184 22.0413C65.4984 20.2304 64.9769 17.8124 63.1536 16.6404C61.3303 15.4684 58.8957 15.9864 57.7157 17.7973C56.5357 19.6082 57.0572 22.0262 58.8805 23.1982C60.7038 24.3702 63.1384 23.8522 64.3184 22.0413Z" fill="#3869E5"/>
<path id="Vector_12" d="M70.8222 26.151C71.5365 24.1139 70.4528 21.8875 68.4018 21.1781C66.3507 20.4687 64.1091 21.545 63.3948 23.5821C62.6806 25.6191 63.7642 27.8456 65.8153 28.555C67.8663 29.2643 70.108 28.188 70.8222 26.151Z" fill="#3869E5"/>
<path id="Vector_13" d="M74.3135 33.7931C75.5617 32.0279 75.1327 29.592 73.3554 28.3523C71.5781 27.1126 69.1254 27.5386 67.8772 29.3038C66.629 31.069 67.058 33.505 68.8353 34.7447C70.6126 35.9844 73.0653 35.5583 74.3135 33.7931Z" fill="#3869E5"/>
<path id="Vector_14" d="M72.7442 43.1862C74.915 43.1192 76.62 41.3171 76.5526 39.1611C76.4851 37.0051 74.6707 35.3117 72.4999 35.3787C70.3291 35.4457 68.624 37.2478 68.6915 39.4038C68.7589 41.5598 70.5734 43.2532 72.7442 43.1862Z" fill="#3869E5"/>
<path id="Vector_15" d="M74.2161 46.5864C74.2598 47.3574 74.0724 48.124 73.6776 48.7892C73.2827 49.4545 72.6982 49.9886 71.9979 50.324C71.2975 50.6594 70.5128 50.7811 69.7428 50.6736C68.9729 50.5662 68.2522 50.2345 67.672 49.7204C67.0918 49.2064 66.6781 48.533 66.4831 47.7855C66.2881 47.0379 66.3206 46.2497 66.5765 45.5205C66.8324 44.7913 67.3002 44.1538 67.9208 43.6886C68.5414 43.2234 69.2869 42.9513 70.0631 42.9068C70.5791 42.8774 71.0959 42.9493 71.5839 43.1184C72.0719 43.2874 72.5215 43.5503 72.9072 43.892C73.2929 44.2337 73.607 44.6476 73.8316 45.1099C74.0561 45.5722 74.1868 46.0739 74.2161 46.5864V46.5864Z" fill="#3869E5"/>
<path id="Vector_16" d="M24.8679 62.7502C29.7411 61.9645 33.0504 57.4041 32.2593 52.564C31.4683 47.724 26.8766 44.4373 22.0034 45.223C17.1302 46.0086 13.8209 50.5691 14.612 55.4091C15.403 60.2491 19.9948 63.5358 24.8679 62.7502Z" fill="#3869E5"/>
<path id="Vector_17" d="M27.6186 49.5307C31.9676 48.8295 34.9209 44.7596 34.215 40.4402C33.509 36.1207 29.4112 33.1875 25.0621 33.8887C20.7131 34.5898 17.7598 38.6598 18.4657 42.9792C19.1717 47.2986 23.2696 50.2318 27.6186 49.5307Z" fill="#3869E5"/>
<path id="Vector_18" d="M81.373 60.2652C84.864 56.798 84.864 51.1766 81.373 47.7094C77.882 44.2422 72.2221 44.2422 68.7311 47.7094C65.2401 51.1766 65.2401 56.798 68.7311 60.2652C72.2221 63.7324 77.882 63.7324 81.373 60.2652Z" fill="#3869E5"/>
<path id="Vector_19" d="M78.0463 47.3126C81.1618 44.2184 81.1618 39.2016 78.0463 36.1073C74.9308 33.013 69.8796 33.013 66.7641 36.1073C63.6486 39.2016 63.6486 44.2184 66.7641 47.3126C69.8796 50.4069 74.9308 50.4069 78.0463 47.3126Z" fill="#3869E5"/>
<path id="Vector_20" d="M49.8969 26.8135H48.3867C37.4262 26.8135 28.541 34.5436 28.541 44.0791V54.9597C28.541 64.4953 37.4262 72.2254 48.3867 72.2254H49.8969C60.8573 72.2254 69.7426 64.4953 69.7426 54.9597V44.0791C69.7426 34.5436 60.8573 26.8135 49.8969 26.8135Z" fill="#45CBF6"/>
<path id="Vector_21" d="M53.825 79.6999L49.3516 75.2568L44.8781 79.6999L49.3516 84.1429L53.825 79.6999Z" fill="#45CBF6"/>
<path id="Vector_22" d="M45.2667 44.233C54.4979 41.6703 60.6938 34.8867 59.1056 29.0814C57.5174 23.2761 48.7466 20.6476 39.5154 23.2103C30.2842 25.7731 24.0883 32.5567 25.6764 38.3619C27.2646 44.1672 36.0355 46.7958 45.2667 44.233Z" fill="#3869E5"/>
<path id="Vector_23" d="M41.4232 49.2266C41.4235 49.6734 41.2904 50.1103 41.0406 50.482C40.7909 50.8537 40.4358 51.1435 40.0201 51.3147C39.6045 51.4858 39.3993 47.3496 38.7059 51.4436C38.2646 51.3565 37.8592 51.1414 37.5411 50.8254C37.2229 50.5094 37.0063 50.1068 36.9186 49.6685C36.8309 49.2302 36.8761 48.776 37.0484 48.3632C37.2208 47.9504 37.5125 47.5977 37.8868 47.3496C38.261 47.1016 38.7009 46.9694 39.1508 46.9697C39.7535 46.9697 40.3315 47.2075 40.7576 47.6307C41.1838 48.054 41.4232 48.628 41.4232 49.2266Z" fill="#3869E5"/>
<path id="Vector_24" d="M60.8919 49.2266C60.8923 49.6733 60.7592 50.1102 60.5095 50.4819C60.2598 50.8535 59.9048 51.1433 59.4893 51.3145C59.0738 51.4857 58.9199 47.3505 58.1753 51.4437C57.734 51.3568 57.3286 51.1418 57.0104 50.826C56.6922 50.5102 56.4755 50.1078 56.3876 49.6696C56.2997 49.2314 56.3446 48.7772 56.5167 48.3644C56.6888 47.9516 56.9802 47.5987 57.3542 47.3505C57.7282 47.1022 58.168 46.9697 58.6178 46.9697C58.9164 46.9695 59.2121 47.0277 59.4879 47.141C59.7638 47.2543 60.0145 47.4205 60.2257 47.6301C60.4369 47.8397 60.6045 48.0886 60.7188 48.3625C60.8331 48.6364 60.8919 48.93 60.8919 49.2266Z" fill="#3869E5"/>
<path id="Vector_25" d="M41.0068 58.1016C46.5218 70.5661 51.945 71.0002 57.2747 58.1016H41.0068Z" fill="#3869E5"/>
<path id="Vector_26" d="M38.5574 105.517H34.2598V91.3858C34.2598 84.5662 38.5539 79.8037 44.7039 79.8037V84.0721C40.4575 84.0721 38.5574 87.7517 38.5574 91.3858V105.517Z" fill="#3869E5"/>
<path id="Vector_27" d="M64.5408 105.517H60.2432V91.3858C60.2432 87.7465 58.3431 84.0721 54.0967 84.0721V79.8037C60.2467 79.8037 64.5408 84.5662 64.5408 91.3858V105.517Z" fill="#3869E5"/>
</g>
</g>
</g>
</g>
</g>
</g>
<defs>
<filter id="filter0_dd_4680_5678" x="-2" y="-2" width="103" height="103" filterUnits="userSpaceOnUse" color-interpolation-filters="sRGB">
<feFlood flood-opacity="0" result="BackgroundImageFix"/>
<feColorMatrix in="SourceAlpha" type="matrix" values="0 0 0 0 0 0 0 0 0 0 0 0 0 0 0 0 0 0 127 0" result="hardAlpha"/>
<feOffset dx="5" dy="5"/>
<feGaussianBlur stdDeviation="2"/>
<feComposite in2="hardAlpha" operator="out"/>
<feColorMatrix type="matrix" values="0 0 0 0 0.176471 0 0 0 0 0.764706 0 0 0 0 0.952941 0 0 0 0.15 0"/>
<feBlend mode="normal" in2="BackgroundImageFix" result="effect1_dropShadow_4680_5678"/>
<feColorMatrix in="SourceAlpha" type="matrix" values="0 0 0 0 0 0 0 0 0 0 0 0 0 0 0 0 0 0 127 0" result="hardAlpha"/>
<feOffset dx="-5" dy="-5"/>
<feGaussianBlur stdDeviation="2"/>
<feComposite in2="hardAlpha" operator="out"/>
<feColorMatrix type="matrix" values="0 0 0 0 0.866667 0 0 0 0 0.884052 0 0 0 0 0.941176 0 0 0 0.6 0"/>
<feBlend mode="normal" in2="effect1_dropShadow_4680_5678" result="effect2_dropShadow_4680_5678"/>
<feBlend mode="normal" in="SourceGraphic" in2="effect2_dropShadow_4680_5678" result="shape"/>
</filter>
<clipPath id="clip0_4680_5678">
<rect width="100" height="100" fill="white"/>
</clipPath>
</defs>
</svg>
