<svg width="100" height="100" viewBox="0 0 100 100" fill="none" xmlns="http://www.w3.org/2000/svg">
<g id="Woman partner 2_blue" clip-path="url(#clip0_4680_6072)">
<rect width="100" height="100"/>
<g id="Group 37535">
<g id="Group 37508" filter="url(#filter0_ddii_4680_6072)">
<ellipse id="Ellipse 97" cx="49.3114" cy="49.4989" rx="42.3114" ry="42.4989" fill="white"/>
<g id="Mask Group">
<mask id="mask0_4680_6072" style="mask-type:alpha" maskUnits="userSpaceOnUse" x="7" y="7" width="85" height="85">
<path id="Ellipse 96" d="M91.4997 49.5009C91.4997 72.6984 72.778 91.4998 49.6883 91.4998C26.5986 91.4998 7.87695 72.6984 7.87695 49.5009C7.87695 26.3034 26.5986 7.50195 49.6883 7.50195C72.778 7.50195 91.4997 26.3034 91.4997 49.5009Z" fill="#C4C4C4" stroke="black"/>
</mask>
<g mask="url(#mask0_4680_6072)">
<g id="avatar">
<g id="Group">
<path id="Vector" d="M53.6176 70.2334H44.7109V91.1508H53.6176V70.2334Z" fill="#45CBF6"/>
<path id="Vector_2" d="M45.5621 79.6992H52.679C53.954 79.6992 55.1767 80.2045 56.0782 81.1038C56.9798 82.0032 57.4862 83.223 57.4862 84.4949V95.3759H40.7549V84.4949C40.7549 83.223 41.2614 82.0032 42.1629 81.1038C43.0644 80.2045 44.2872 79.6992 45.5621 79.6992Z" fill="#3869E5"/>
<path id="Vector_3" d="M64.9164 55.0314C73.6964 46.2579 73.6964 32.0332 64.9164 23.2596C56.1364 14.4861 41.9012 14.4861 33.1212 23.2596C24.3412 32.0332 24.3412 46.2579 33.1212 55.0314C41.9012 63.8049 56.1364 63.8049 64.9164 55.0314Z" fill="#3869E5"/>
<path id="Vector_4" d="M31.6946 48.7796C32.7561 46.9004 32.0894 44.5186 30.2057 43.4597C28.322 42.4008 25.9345 43.0658 24.8731 44.9451C23.8116 46.8243 24.4782 49.206 26.362 50.2649C28.2457 51.3238 30.6332 50.6588 31.6946 48.7796Z" fill="#3869E5"/>
<path id="Vector_5" d="M27.2355 42.953C29.3896 42.7665 30.9843 40.8733 30.7974 38.7244C30.6104 36.5755 28.7126 34.9846 26.5585 35.1711C24.4044 35.3576 22.8098 37.2508 22.9967 39.3998C23.1836 41.5487 25.0814 43.1395 27.2355 42.953Z" fill="#3869E5"/>
<path id="Vector_6" d="M31.0214 34.4147C32.6626 33.0104 32.8519 30.5447 31.4443 28.9074C30.0366 27.2702 27.565 27.0813 25.9238 28.4856C24.2826 29.8899 24.0933 32.3556 25.501 33.9928C26.9086 35.6301 29.3802 35.819 31.0214 34.4147Z" fill="#3869E5"/>
<path id="Vector_7" d="M32.3749 28.7223C34.5371 28.7223 36.2899 26.9737 36.2899 24.8167C36.2899 22.6597 34.5371 20.9111 32.3749 20.9111C30.2128 20.9111 28.46 22.6597 28.46 24.8167C28.46 26.9737 30.2128 28.7223 32.3749 28.7223Z" fill="#3869E5"/>
<path id="Vector_8" d="M41.1901 22.218C42.588 20.5725 42.3841 18.108 40.7345 16.7134C39.085 15.3189 36.6146 15.5223 35.2167 17.1679C33.8188 18.8135 34.0227 21.278 35.6723 22.6725C37.3218 24.0671 39.7922 23.8636 41.1901 22.218Z" fill="#3869E5"/>
<path id="Vector_9" d="M49.4761 16.6557C49.5197 17.4268 49.3331 18.1934 48.9399 18.8587C48.5468 19.524 47.9648 20.0581 47.2674 20.3934C46.5701 20.7288 45.7887 20.8504 45.0221 20.7429C44.2555 20.6353 43.5381 20.3034 42.9605 19.7892C42.3829 19.275 41.9711 18.6014 41.7772 17.8538C41.5832 17.1061 41.6159 16.3179 41.8709 15.5887C42.1259 14.8595 42.5919 14.2221 43.21 13.7571C43.8281 13.2921 44.5705 13.0203 45.3433 12.9761C45.8569 12.9468 46.3713 13.0187 46.857 13.1877C47.3428 13.3568 47.7903 13.6197 48.1742 13.9614C48.558 14.3032 48.8705 14.717 49.0939 15.1793C49.3173 15.6416 49.4472 16.1433 49.4761 16.6557V16.6557Z" fill="#3869E5"/>
<path id="Vector_10" d="M57.3312 17.1348C57.381 14.9783 55.669 13.1899 53.5074 13.1402C51.3458 13.0905 49.5531 14.7984 49.5033 16.9548C49.4535 19.1112 51.1654 20.8997 53.327 20.9493C55.4887 20.999 57.2814 19.2912 57.3312 17.1348Z" fill="#3869E5"/>
<path id="Vector_11" d="M64.0629 22.0394C65.2376 20.2285 64.7184 17.8105 62.9032 16.6385C61.088 15.4666 58.6642 15.9845 57.4894 17.7954C56.3146 19.6062 56.8338 22.0243 58.649 23.1962C60.4642 24.3682 62.8881 23.8502 64.0629 22.0394Z" fill="#3869E5"/>
<path id="Vector_12" d="M70.5384 26.15C71.2495 24.113 70.1706 21.8866 68.1287 21.1773C66.0868 20.4679 63.855 21.5442 63.144 23.5812C62.4329 25.6182 63.5117 27.8446 65.5537 28.5539C67.5956 29.2633 69.8273 28.187 70.5384 26.15Z" fill="#3869E5"/>
<path id="Vector_13" d="M74.0141 33.7921C75.2568 32.0269 74.8297 29.591 73.0603 28.3514C71.2909 27.1117 68.8491 27.5377 67.6065 29.3029C66.3638 31.0681 66.7908 33.504 68.5603 34.7436C70.3297 35.9833 72.7715 35.5573 74.0141 33.7921Z" fill="#3869E5"/>
<path id="Vector_14" d="M72.4512 43.1841C74.6124 43.1171 76.3099 41.3151 76.2427 39.1591C76.1756 37.0032 74.3692 35.3097 72.208 35.3767C70.0469 35.4437 68.3494 37.2458 68.4165 39.4018C68.4837 41.5577 70.2901 43.2511 72.4512 43.1841Z" fill="#3869E5"/>
<path id="Vector_15" d="M73.9176 46.5844C73.9611 47.3554 73.7745 48.1219 73.3814 48.7872C72.9883 49.4524 72.4064 49.9865 71.7092 50.3219C71.0119 50.6573 70.2307 50.779 69.4641 50.6715C68.6976 50.5641 67.9802 50.2324 67.4025 49.7184C66.8249 49.2043 66.413 48.5309 66.2189 47.7834C66.0247 47.0359 66.0571 46.2477 66.3119 45.5185C66.5666 44.7893 67.0324 44.1519 67.6502 43.6866C68.268 43.2214 69.0102 42.9494 69.783 42.9048C70.2967 42.8755 70.8112 42.9474 71.297 43.1164C71.7828 43.2855 72.2305 43.5483 72.6145 43.89C72.9984 44.2318 73.3111 44.6456 73.5347 45.1079C73.7583 45.5702 73.8884 46.0719 73.9176 46.5844V46.5844Z" fill="#3869E5"/>
<path id="Vector_16" d="M24.7877 62.7479C29.6393 61.9623 32.9339 57.4019 32.1463 52.562C31.3588 47.7221 26.7875 44.4354 21.9359 45.221C17.0843 46.0067 13.7898 50.5671 14.5773 55.407C15.3648 60.2469 19.9362 63.5336 24.7877 62.7479Z" fill="#3869E5"/>
<path id="Vector_17" d="M27.5254 49.5294C31.8552 48.8283 34.7954 44.7584 34.0925 40.4391C33.3897 36.1197 29.31 33.1866 24.9803 33.8877C20.6506 34.5888 17.7104 38.6587 18.4132 42.9781C19.116 47.2974 23.1957 50.2306 27.5254 49.5294Z" fill="#3869E5"/>
<path id="Vector_18" d="M81.0427 60.2631C84.5182 56.796 84.5182 51.1747 81.0428 47.7076C77.5673 44.2404 71.9324 44.2404 68.457 47.7076C64.9815 51.1747 64.9815 56.796 68.457 60.2631C71.9324 63.7303 77.5673 63.7303 81.0427 60.2631Z" fill="#3869E5"/>
<path id="Vector_19" d="M77.73 47.3106C80.8316 44.2164 80.8316 39.1997 77.73 36.1054C74.6283 33.0112 69.5995 33.0112 66.4979 36.1054C63.3962 39.1997 63.3962 44.2164 66.4979 47.3106C69.5995 50.4048 74.6283 50.4048 77.73 47.3106Z" fill="#3869E5"/>
<path id="Vector_20" d="M49.7064 26.8115H48.2029C37.2911 26.8115 28.4453 34.5415 28.4453 44.0768V54.9572C28.4453 64.4926 37.2911 72.2226 48.2029 72.2226H49.7064C60.6182 72.2226 69.464 64.4926 69.464 54.9572V44.0768C69.464 34.5415 60.6182 26.8115 49.7064 26.8115Z" fill="#45CBF6"/>
<path id="Vector_21" d="M53.6167 79.6979L49.1631 75.2549L44.7095 79.6979L49.1631 84.1408L53.6167 79.6979Z" fill="#45CBF6"/>
<path id="Vector_22" d="M45.0957 44.2318C54.2859 41.6691 60.4543 34.8856 58.8732 29.0804C57.2921 23.2753 48.5601 20.6467 39.3699 23.2094C30.1797 25.7721 24.0113 32.5556 25.5924 38.3608C27.1735 44.1659 35.9054 46.7945 45.0957 44.2318Z" fill="#3869E5"/>
<path id="Vector_23" d="M41.2692 49.2255C41.2695 49.6724 41.137 50.1093 40.8884 50.481C40.6397 50.8527 40.2862 51.1424 39.8724 51.3136C39.4586 51.4848 39.2543 47.3487 38.5639 51.4425C38.1246 51.3554 37.721 51.1403 37.4043 50.8243C37.0876 50.5084 36.8719 50.1058 36.7846 49.6675C36.6973 49.2292 36.7423 48.7749 36.9139 48.3622C37.0855 47.9494 37.3759 47.5967 37.7485 47.3487C38.1211 47.1006 38.559 46.9684 39.007 46.9688C39.6069 46.9688 40.1823 47.2065 40.6066 47.6298C41.0308 48.053 41.2692 48.627 41.2692 49.2255Z" fill="#3869E5"/>
<path id="Vector_24" d="M60.651 49.2255C60.6514 49.6723 60.5189 50.1092 60.2703 50.4808C60.0218 50.8525 59.6683 51.1422 59.2546 51.3134C58.841 51.4846 58.6877 47.3495 57.9464 51.4427C57.5071 51.3557 57.1036 51.1408 56.7868 50.825C56.47 50.5092 56.2542 50.1067 56.1667 49.6686C56.0792 49.2304 56.1239 48.7762 56.2952 48.3634C56.4665 47.9506 56.7567 47.5978 57.129 47.3495C57.5014 47.1013 57.9392 46.9688 58.387 46.9688C58.6843 46.9685 58.9786 47.0267 59.2533 47.14C59.528 47.2533 59.7776 47.4195 59.9878 47.6291C60.1981 47.8387 60.3648 48.0876 60.4786 48.3615C60.5924 48.6354 60.651 48.929 60.651 49.2255Z" fill="#3869E5"/>
<path id="Vector_25" d="M40.8555 58.0996C46.3459 70.5639 51.7451 70.998 57.0511 58.0996H40.8555Z" fill="#3869E5"/>
<path id="Vector_26" d="M38.4163 105.515H34.1377V91.3836C34.1377 84.5642 38.4127 79.8018 44.5355 79.8018V84.07C40.3079 84.07 38.4163 87.7496 38.4163 91.3836V105.515Z" fill="#3869E5"/>
<path id="Vector_27" d="M64.2845 105.515H60.006V91.3836C60.006 87.7443 58.1143 84.07 53.8867 84.07V79.8018C60.0095 79.8018 64.2845 84.5642 64.2845 91.3836V105.515Z" fill="#3869E5"/>
</g>
</g>
</g>
</g>
</g>
</g>
</g>
<defs>
<filter id="filter0_ddii_4680_6072" x="-2" y="-2" width="102.623" height="103" filterUnits="userSpaceOnUse" color-interpolation-filters="sRGB">
<feFlood flood-opacity="0" result="BackgroundImageFix"/>
<feColorMatrix in="SourceAlpha" type="matrix" values="0 0 0 0 0 0 0 0 0 0 0 0 0 0 0 0 0 0 127 0" result="hardAlpha"/>
<feOffset dx="5" dy="5"/>
<feGaussianBlur stdDeviation="2"/>
<feComposite in2="hardAlpha" operator="out"/>
<feColorMatrix type="matrix" values="0 0 0 0 1 0 0 0 0 1 0 0 0 0 1 0 0 0 0.5 0"/>
<feBlend mode="normal" in2="BackgroundImageFix" result="effect1_dropShadow_4680_6072"/>
<feColorMatrix in="SourceAlpha" type="matrix" values="0 0 0 0 0 0 0 0 0 0 0 0 0 0 0 0 0 0 127 0" result="hardAlpha"/>
<feOffset dx="-5" dy="-5"/>
<feGaussianBlur stdDeviation="2"/>
<feComposite in2="hardAlpha" operator="out"/>
<feColorMatrix type="matrix" values="0 0 0 0 0.92549 0 0 0 0 0.937255 0 0 0 0 0.941176 0 0 0 0.25 0"/>
<feBlend mode="normal" in2="effect1_dropShadow_4680_6072" result="effect2_dropShadow_4680_6072"/>
<feBlend mode="normal" in="SourceGraphic" in2="effect2_dropShadow_4680_6072" result="shape"/>
<feColorMatrix in="SourceAlpha" type="matrix" values="0 0 0 0 0 0 0 0 0 0 0 0 0 0 0 0 0 0 127 0" result="hardAlpha"/>
<feOffset dx="-1" dy="-2"/>
<feGaussianBlur stdDeviation="13"/>
<feComposite in2="hardAlpha" operator="arithmetic" k2="-1" k3="1"/>
<feColorMatrix type="matrix" values="0 0 0 0 0.176471 0 0 0 0 0.764706 0 0 0 0 0.952941 0 0 0 0.5 0"/>
<feBlend mode="normal" in2="shape" result="effect3_innerShadow_4680_6072"/>
<feColorMatrix in="SourceAlpha" type="matrix" values="0 0 0 0 0 0 0 0 0 0 0 0 0 0 0 0 0 0 127 0" result="hardAlpha"/>
<feOffset dx="1" dy="-3"/>
<feGaussianBlur stdDeviation="13.5"/>
<feComposite in2="hardAlpha" operator="arithmetic" k2="-1" k3="1"/>
<feColorMatrix type="matrix" values="0 0 0 0 0.176471 0 0 0 0 0.764706 0 0 0 0 0.952941 0 0 0 0.5 0"/>
<feBlend mode="normal" in2="effect3_innerShadow_4680_6072" result="effect4_innerShadow_4680_6072"/>
</filter>
<clipPath id="clip0_4680_6072">
<rect width="100" height="100" fill="white"/>
</clipPath>
</defs>
</svg>
