<svg xmlns="http://www.w3.org/2000/svg" xmlns:xlink="http://www.w3.org/1999/xlink" width="311" height="600" fill="none" xmlns:v="https://vecta.io/nano"><style><![CDATA[.B{fill:#fff}.C{fill-opacity:.04}.D{stroke-width:2}.E{fill:#312f44}.F{stroke:#fff}.G{fill:#3f3d56}.H{fill:#3869e5}.I{fill:#2f2e41}.J{fill:#a9a9ad}.K{fill:#d3aea6}]]></style><path d="M.666 0h310v600h-310z" class="H"/><mask id="A" maskUnits="userSpaceOnUse" x="1" y="0" width="310" height="600" mask-type="alpha"><path stroke="#000" d="M1.5.5h309v599H1.5z" class="H"/></mask><g mask="url(#A)" class="B C"><path d="M10.43 16.079C9.548 10.568 5.248 6.195-.305 5.422c-5.115-.706-11.386 1.849-12.262 7.475-.62 3.996 5.499 5.724 6.125 1.691.444-2.859 3.984-3.455 6.368-2.664 2.658.882 3.966 3.205 4.385 5.845.639 4.02 6.758 2.311 6.119-1.691zM26.555 5.173c-5.882-.116-12.907 5.65-12.858 11.715.036 4.087 6.386 4.093 6.35 0-.024-2.591 4.124-5.389 6.472-5.298 3.4.128 4.659 3.856 4.902 6.709.341 4.045 6.697 4.081 6.35 0-.529-6.289-4.075-12.98-11.216-13.126zm27.06.45c-6.952.852-11.052 4.872-10.979 11.976.043 4.081 6.393 4.093 6.35 0-.03-2.95.578-4.477 3.461-5.298 1.569-.444 6.782-1.204 6.21 1.861-.748 3.996 5.371 5.705 6.125 1.691 1.278-6.842-4.865-11.002-11.167-10.23zm39.913 10.462c-2.013-5.523-6.758-9.574-12.822-9.61-6.07-.036-12.499 4.258-12.341 10.778.097 4.081 6.447 4.093 6.35 0-.085-3.522 4.489-4.823 7.25-4.288 2.591.505 4.543 2.354 5.438 4.811 1.387 3.808 7.524 2.165 6.125-1.691zm26.811 1.064c-1.783-6.113-5.833-11.69-12.907-10.76-2.926.383-7.086 1.679-8.996 4.087-2.068 2.609-1.527 5.991-.529 8.923 1.308 3.844 7.445 2.196 6.125-1.691-.511-1.502-1.119-2.713.231-3.741 1.253-.949 4.294-1.691 5.754-1.277 2.524.718 3.552 3.923 4.197 6.143 1.143 3.923 7.274 2.256 6.125-1.685zm30.71-1.07c-.882-5.511-5.182-9.884-10.735-10.656-5.116-.706-11.386 1.849-12.262 7.475-.621 3.996 5.498 5.724 6.125 1.691.444-2.859 3.984-3.455 6.368-2.664 2.658.882 3.966 3.205 4.385 5.845.639 4.02 6.758 2.311 6.119-1.691zm16.125-10.906c-5.882-.116-12.907 5.65-12.859 11.715.037 4.087 6.387 4.093 6.35 0-.024-2.591 4.124-5.389 6.472-5.298 3.4.128 4.659 3.856 4.902 6.709.341 4.045 6.697 4.081 6.351 0-.53-6.289-4.082-12.98-11.216-13.126zm27.054.45c-6.952.852-11.052 4.872-10.979 11.976.043 4.081 6.393 4.093 6.35 0-.03-2.95.578-4.477 3.461-5.298 1.569-.444 6.782-1.204 6.21 1.861-.748 3.996 5.371 5.705 6.125 1.691 1.284-6.843-4.86-11.003-11.167-10.231zm39.913 10.462c-2.013-5.523-6.758-9.574-12.822-9.61-6.07-.036-12.499 4.258-12.341 10.778.097 4.081 6.447 4.093 6.35 0-.085-3.522 4.489-4.823 7.25-4.288 2.591.505 4.544 2.354 5.438 4.811 1.393 3.808 7.53 2.165 6.125-1.691zm26.817 1.064c-1.782-6.113-5.833-11.69-12.907-10.76-2.926.383-7.086 1.679-8.996 4.087-2.068 2.609-1.527 5.991-.529 8.923 1.308 3.844 7.445 2.196 6.125-1.691-.511-1.502-1.119-2.713.231-3.741 1.253-.949 4.294-1.691 5.754-1.277 2.524.718 3.552 3.923 4.197 6.143 1.143 3.923 7.268 2.256 6.125-1.685zm30.709-1.07c-.882-5.511-5.182-9.884-10.735-10.656-5.115-.706-11.386 1.849-12.262 7.475-.621 3.996 5.498 5.724 6.125 1.691.444-2.859 3.984-3.455 6.368-2.664 2.658.882 3.966 3.205 4.385 5.845.639 4.02 6.758 2.311 6.119-1.691zm16.125-10.906c-5.882-.116-12.907 5.65-12.858 11.715.036 4.087 6.386 4.093 6.35 0-.025-2.591 4.123-5.389 6.471-5.298 3.4.128 4.659 3.856 4.903 6.709.34 4.045 6.696 4.081 6.35 0-.536-6.289-4.082-12.98-11.216-13.126zM3.046 27.793c-6.35-.231-13.722 4.574-13.217 11.532.292 4.051 6.648 4.081 6.35 0-.511-7.092 12.171-6.648 12.688.639.286 4.051 6.642 4.087 6.35 0-.468-6.575-5.413-11.921-12.171-12.171zM41.511 38c-1.521-2.846-2.153-6.107-4.471-8.491-2.141-2.196-5.17-3.157-8.138-2.238-6.228 1.922-8.971 8.978-7.925 14.926.706 4.02 6.831 2.317 6.125-1.691-.401-2.263 1.089-7.542 4.246-7.275 2.482.207 3.735 6.192 4.684 7.974 1.922 3.607 7.402.401 5.48-3.205zm26.799-4.884a10.35 10.35 0 0 0-13.369-6.155c-5.279 1.94-10.03 8.15-8.418 13.91 1.101 3.929 7.232 2.263 6.125-1.691-1.223-4.367 7.572-9.653 9.543-4.379 1.411 3.795 7.548 2.153 6.119-1.685zm28.198 6.313c-2.549-6.034-7.779-11.861-14.981-10.845-6.204.87-9.628 7.001-8.473 12.846.791 4.008 6.916 2.311 6.125-1.691-.693-3.509 2.634-5.651 5.754-4.531 3.212 1.156 4.848 4.477 6.088 7.427 1.587 3.753 7.062.517 5.486-3.205zm15.954-11.216c-7.998-.785-14.306 6.149-13.716 13.917.31 4.051 6.66 4.081 6.35 0-.322-4.233 2.701-8.546 7.427-7.506 3.278.724 5.279 3.881 5.304 7.086.03 4.087 6.38 4.094 6.35 0-.049-6.66-4.891-12.828-11.715-13.497zm-96.874 34.22c-2.494-6.721-6.733-11.49-14.494-10.638-5.857.645-13.588 4.556-10.097 11.538 1.825 3.656 7.305.444 5.486-3.205-.675-1.356 6.891-2.184 7.646-2.044 3.169.602 4.312 3.26 5.34 6.034 1.405 3.802 7.542 2.159 6.119-1.685zm28.246-3.194c-2.591-5.334-7.627-9.087-13.752-7.645-5.079 1.198-11.332 5.158-10.176 11.046.785 4.008 6.91 2.311 6.125-1.691-.268-1.369 5.772-3.26 6.454-3.291 3.072-.14 4.671 2.317 5.87 4.781 1.782 3.68 7.256.462 5.48-3.199zm25.656-2.603c-2.707-4.392-7.749-6.97-12.907-5.766-5.152 1.204-9.257 5.985-8.862 11.368.298 4.051 6.654 4.081 6.35 0-.438-5.894 7.244-6.764 9.939-2.402 2.135 3.479 7.633.292 5.48-3.199zm28.071 3.619c-1.375-2.634-1.873-5.62-4.227-7.652-2.701-2.336-6.946-2.512-10.31-2.056-6.332.858-11.508 6.873-8.114 13.15 1.946 3.595 7.427.395 5.48-3.205-1.916-3.54 5.304-4.045 7.141-3.625 3.005.693 3.272 4.148 4.543 6.587 1.892 3.631 7.372.42 5.486-3.199zm29.28 4.307c-1.192-6.788-7.11-11.891-14.081-11.636-6.131.225-13.095 5.091-11.198 11.915 1.095 3.929 7.22 2.263 6.125-1.691-.979-3.516 5.438-4.191 7.482-3.656 3.266.858 5 3.595 5.553 6.751.706 4.02 6.824 2.317 6.119-1.685zM-2.617 74.513c-7.341.547-11.763 8.479-11.021 15.218.444 4.02 6.794 4.063 6.35 0-.347-3.175.596-7.487 4.124-8.601 3.406-1.076 8.017 2.999 7.944 6.447-.085 4.087 6.265 4.087 6.35 0 .14-6.66-7.007-13.564-13.746-13.065zm30.133 1.781c-6.496-.505-12.846 5.115-12.755 11.654.055 4.081 6.405 4.094 6.35 0-.036-2.919 3.461-6.082 6.496-5.243 3.272.9 3.497 5.669 3.723 8.363.341 4.045 6.691 4.081 6.35 0-.523-6.338-2.506-14.172-10.164-14.774zm39.62 10.772c-2.664-6.806-6.812-11.593-14.713-10.03-5.912 1.168-12.937 6.721-8.625 13.241 2.244 3.394 7.743.219 5.48-3.205-1.782-2.701 4.367-4.087 6.094-4.069 3.376.043 4.562 2.993 5.638 5.748 1.478 3.771 7.621 2.129 6.125-1.685zm25.528-3.461c-3.199-13.345-27.036-7.122-22.28 5.48 1.429 3.789 7.573 2.147 6.125-1.691-1.819-4.817 8.74-7.506 10.036-2.105.949 3.978 7.074 2.299 6.119-1.685zm29.743 4.24c-2.36-7.007-6.667-10.814-14.355-10.072-6.149.59-12.584 4.422-9.592 11.41 1.606 3.747 7.074.517 5.481-3.205-.718-1.685 6.021-2.044 6.836-1.971 3.406.286 4.483 2.512 5.499 5.529 1.301 3.85 7.438 2.196 6.131-1.691z"/><use xlink:href="#C"/><use xlink:href="#D"/><use xlink:href="#E"/><use xlink:href="#F"/><path d="M120.339 112.898c-1.783-6.113-5.833-11.69-12.907-10.76-2.926.383-7.086 1.679-8.996 4.088-2.068 2.609-1.527 5.991-.529 8.922 1.308 3.845 7.445 2.196 6.125-1.69-.511-1.503-1.119-2.713.231-3.741 1.253-.949 4.294-1.691 5.754-1.277 2.524.717 3.552 3.923 4.197 6.143 1.143 3.923 7.274 2.256 6.125-1.685zm23.326-85.105c-6.35-.231-13.722 4.574-13.217 11.526.292 4.051 6.648 4.081 6.35 0-.511-7.092 12.171-6.648 12.688.639.286 4.051 6.642 4.087 6.35 0-.474-6.569-5.419-11.915-12.171-12.165zM182.124 38c-1.521-2.846-2.153-6.107-4.471-8.491-2.141-2.196-5.17-3.157-8.138-2.238-6.228 1.922-8.971 8.978-7.925 14.926.705 4.02 6.83 2.317 6.125-1.691-.402-2.263 1.095-7.542 4.245-7.275 2.482.207 3.735 6.192 4.684 7.974 1.928 3.607 7.408.401 5.48-3.205zm26.799-4.884a10.35 10.35 0 0 0-13.369-6.155c-5.28 1.94-10.03 8.15-8.418 13.91 1.101 3.929 7.232 2.263 6.125-1.691-1.223-4.367 7.572-9.653 9.543-4.379 1.417 3.795 7.554 2.153 6.119-1.685zm28.204 6.313c-2.548-6.034-7.779-11.861-14.981-10.845-6.204.87-9.628 7.001-8.472 12.846.79 4.008 6.915 2.311 6.125-1.691-.694-3.509 2.633-5.651 5.754-4.531 3.211 1.156 4.847 4.477 6.088 7.427 1.588 3.753 7.056.517 5.486-3.205zm15.948-11.216c-7.998-.785-14.306 6.149-13.716 13.917.311 4.051 6.661 4.081 6.35 0-.322-4.233 2.701-8.546 7.427-7.506 3.278.724 5.279 3.881 5.304 7.086.03 4.087 6.38 4.094 6.35 0-.043-6.66-4.884-12.828-11.715-13.497zm-96.874 34.22c-2.494-6.721-6.733-11.49-14.494-10.638-5.858.645-13.589 4.556-10.097 11.538 1.824 3.656 7.305.444 5.48-3.205-.675-1.356 6.891-2.184 7.646-2.044 3.168.602 4.312 3.26 5.34 6.034 1.411 3.802 7.554 2.159 6.125-1.685zm28.247-3.194c-2.592-5.334-7.628-9.087-13.753-7.645-5.078 1.198-11.331 5.158-10.176 11.046.785 4.008 6.91 2.311 6.125-1.691-.267-1.369 5.773-3.26 6.454-3.291 3.071-.14 4.671 2.317 5.869 4.781 1.782 3.68 7.263.462 5.481-3.199zm25.661-2.603c-2.707-4.392-7.749-6.97-12.907-5.766-5.151 1.204-9.257 5.985-8.862 11.368.298 4.051 6.654 4.081 6.35 0-.438-5.894 7.244-6.764 9.939-2.402 2.135 3.479 7.633.292 5.48-3.199zm28.071 3.619c-1.375-2.634-1.874-5.62-4.227-7.652-2.701-2.336-6.947-2.512-10.31-2.056-6.332.858-11.508 6.873-8.114 13.15 1.946 3.595 7.427.395 5.486-3.205-1.916-3.54 5.304-4.045 7.141-3.625 3.005.693 3.272 4.148 4.544 6.587 1.885 3.631 7.365.42 5.48-3.199zm29.28 4.307c-1.192-6.788-7.11-11.891-14.081-11.636-6.131.225-13.095 5.091-11.197 11.915 1.094 3.929 7.219 2.263 6.125-1.691-.98-3.516 5.437-4.191 7.481-3.656 3.266.858 5 3.595 5.553 6.751.706 4.02 6.825 2.317 6.119-1.685zm-129.458 9.95c-7.341.547-11.763 8.479-11.021 15.218.444 4.02 6.794 4.063 6.35 0-.346-3.175.596-7.487 4.124-8.601 3.406-1.077 8.017 2.999 7.944 6.447-.085 4.087 6.265 4.087 6.35 0 .14-6.66-7.007-13.564-13.747-13.065zm30.133 1.782c-6.496-.505-12.846 5.115-12.755 11.654.055 4.081 6.405 4.094 6.35 0-.043-2.919 3.461-6.082 6.496-5.243 3.272.9 3.497 5.669 3.722 8.363.341 4.045 6.691 4.081 6.35 0-.523-6.338-2.506-14.172-10.163-14.774zm39.62 10.772c-2.664-6.806-6.812-11.593-14.713-10.03-5.912 1.168-12.937 6.721-8.625 13.241 2.244 3.394 7.743.219 5.486-3.205-1.782-2.701 4.367-4.087 6.095-4.069 3.376.043 4.562 2.993 5.638 5.748 1.466 3.771 7.609 2.129 6.119-1.685zm25.528-3.461c-3.199-13.345-27.036-7.122-22.28 5.48 1.43 3.789 7.573 2.147 6.125-1.691-1.818-4.817 8.741-7.506 10.036-2.105.949 3.978 7.074 2.299 6.119-1.685zm29.743 4.24c-2.36-7.007-6.666-10.814-14.355-10.072-6.149.59-12.584 4.422-9.592 11.41 1.606 3.747 7.074.517 5.481-3.205-.718-1.685 6.021-2.044 6.836-1.971 3.406.286 4.483 2.512 5.499 5.529 1.301 3.85 7.439 2.196 6.131-1.691z"/><use xlink:href="#G"/><use xlink:href="#H"/><use xlink:href="#I"/><use xlink:href="#J"/><path d="M260.958 112.898c-1.782-6.113-5.833-11.69-12.907-10.76-2.926.383-7.086 1.679-8.996 4.088-2.068 2.609-1.527 5.991-.529 8.922 1.308 3.845 7.445 2.196 6.125-1.69-.511-1.503-1.119-2.713.231-3.741 1.253-.949 4.294-1.691 5.754-1.277 2.524.717 3.552 3.923 4.197 6.143 1.143 3.923 7.268 2.256 6.125-1.685zm23.319-85.105c-6.35-.231-13.722 4.574-13.217 11.526.292 4.051 6.648 4.081 6.35 0-.511-7.092 12.171-6.648 12.688.639.286 4.051 6.642 4.087 6.35 0-.469-6.569-5.413-11.915-12.171-12.165zM322.742 38c-1.521-2.846-2.153-6.107-4.47-8.491-2.141-2.196-5.171-3.157-8.139-2.238-6.228 1.922-8.971 8.978-7.925 14.926.705 4.02 6.83 2.317 6.125-1.691-.402-2.263 1.095-7.542 4.245-7.275 2.482.207 3.735 6.192 4.684 7.974 1.922 3.607 7.408.401 5.48-3.205zm-25.923 24.433c-2.494-6.721-6.733-11.49-14.494-10.638-5.858.645-13.588 4.556-10.097 11.538 1.825 3.656 7.305.444 5.48-3.205-.675-1.356 6.891-2.184 7.646-2.044 3.169.602 4.312 3.26 5.34 6.034 1.411 3.802 7.554 2.159 6.125-1.685zm28.247-3.194c-2.591-5.334-7.628-9.087-13.753-7.645-5.078 1.198-11.331 5.158-10.175 11.046.784 4.008 6.909 2.311 6.125-1.691-.268-1.369 5.772-3.26 6.453-3.291 3.072-.14 4.671 2.317 5.869 4.781 1.783 3.68 7.263.462 5.481-3.199zm-46.445 15.273c-7.342.547-11.764 8.479-11.022 15.218.444 4.02 6.794 4.063 6.35 0-.346-3.175.596-7.487 4.124-8.601 3.406-1.077 8.017 2.999 7.944 6.447-.085 4.087 6.265 4.087 6.35 0 .134-6.66-7.013-13.564-13.746-13.065zm30.132 1.782c-6.496-.505-12.846 5.115-12.755 11.654.055 4.081 6.405 4.094 6.35 0-.043-2.919 3.461-6.082 6.496-5.243 3.272.9 3.497 5.669 3.722 8.363.341 4.045 6.691 4.081 6.35 0-.529-6.338-2.512-14.172-10.163-14.774z"/><use xlink:href="#K"/><use xlink:href="#L"/><use xlink:href="#M"/><use xlink:href="#N"/><use xlink:href="#O"/><use xlink:href="#P"/><path d="M112.462 123.962c-7.998-.785-14.306 6.149-13.716 13.917.31 4.05 6.66 4.081 6.35 0-.322-4.234 2.701-8.546 7.427-7.506 3.278.724 5.279 3.881 5.304 7.086.03 4.087 6.38 4.093 6.35 0-.049-6.66-4.891-12.828-11.715-13.497z"/><use xlink:href="#Q"/><use xlink:href="#R"/><use xlink:href="#S"/><path d="M97.561 155.998c-1.375-2.633-1.873-5.62-4.227-7.651-2.701-2.336-6.946-2.512-10.31-2.056-6.332.858-11.508 6.873-8.114 13.15 1.946 3.595 7.427.395 5.48-3.205-1.916-3.54 5.304-4.045 7.141-3.625 3.005.693 3.272 4.148 4.543 6.587 1.892 3.637 7.372.426 5.486-3.2z"/><use xlink:href="#T"/><path d="M-2.617 170.262c-7.341.547-11.763 8.479-11.021 15.218.444 4.02 6.794 4.063 6.35 0-.347-3.175.596-7.487 4.124-8.601 3.406-1.076 8.017 2.999 7.944 6.448-.085 4.087 6.265 4.087 6.35 0 .14-6.66-7.007-13.564-13.746-13.065z"/><use xlink:href="#U"/><use xlink:href="#V"/><path d="M92.664 179.354c-3.199-13.344-27.036-7.122-22.28 5.48 1.429 3.79 7.573 2.148 6.125-1.69-1.819-4.818 8.74-7.506 10.036-2.105.949 3.978 7.074 2.299 6.119-1.685z"/><use xlink:href="#W"/><use xlink:href="#C" y="95.749"/><use xlink:href="#D" y="95.749"/><use xlink:href="#E" y="95.749"/><use xlink:href="#F" y="95.749"/><path d="M120.339 208.647c-1.783-6.113-5.833-11.69-12.907-10.76-2.926.383-7.086 1.679-8.996 4.088-2.068 2.609-1.527 5.991-.529 8.922 1.308 3.845 7.445 2.196 6.125-1.69-.511-1.503-1.119-2.713.231-3.741 1.253-.949 4.294-1.691 5.754-1.277 2.524.717 3.552 3.923 4.197 6.143 1.143 3.917 7.274 2.256 6.125-1.685z"/><use xlink:href="#X"/><use xlink:href="#Y"/><use xlink:href="#Z"/><use xlink:href="#a"/><path d="M253.075 123.962c-7.998-.785-14.306 6.149-13.716 13.917.311 4.05 6.661 4.081 6.35 0-.322-4.234 2.701-8.546 7.427-7.506 3.278.724 5.279 3.881 5.304 7.086.03 4.087 6.38 4.093 6.35 0-.043-6.66-4.884-12.828-11.715-13.497z"/><use xlink:href="#b"/><use xlink:href="#c"/><use xlink:href="#d"/><path d="M238.18 155.998c-1.375-2.633-1.874-5.62-4.227-7.651-2.701-2.336-6.947-2.512-10.31-2.056-6.332.858-11.508 6.873-8.114 13.15 1.946 3.595 7.427.395 5.486-3.205-1.916-3.54 5.304-4.045 7.141-3.625 3.005.693 3.272 4.148 4.544 6.587 1.885 3.637 7.365.426 5.48-3.2z"/><use xlink:href="#e"/><path d="M138.002 170.261c-7.341.547-11.763 8.479-11.021 15.218.444 4.02 6.794 4.063 6.35 0-.346-3.175.596-7.487 4.124-8.601 3.406-1.076 8.017 2.999 7.944 6.448-.085 4.087 6.265 4.087 6.35 0 .14-6.66-7.007-13.564-13.747-13.065z"/><use xlink:href="#f"/><use xlink:href="#g"/><path d="M233.283 179.354c-3.199-13.344-27.036-7.122-22.28 5.48 1.43 3.79 7.573 2.148 6.125-1.69-1.818-4.818 8.741-7.506 10.036-2.105.949 3.978 7.074 2.299 6.119-1.685z"/><use xlink:href="#h"/><use xlink:href="#G" y="95.749"/><use xlink:href="#H" y="95.749"/><use xlink:href="#I" y="95.749"/><use xlink:href="#J" y="95.749"/><path d="M260.958 208.647c-1.782-6.113-5.833-11.69-12.907-10.76-2.926.383-7.086 1.679-8.996 4.088-2.068 2.609-1.527 5.991-.529 8.922 1.308 3.845 7.445 2.196 6.125-1.69-.511-1.503-1.119-2.713.231-3.741 1.253-.949 4.294-1.691 5.754-1.277 2.524.717 3.552 3.923 4.197 6.143 1.143 3.917 7.268 2.256 6.125-1.685z"/><use xlink:href="#i"/><use xlink:href="#j"/><use xlink:href="#k"/><use xlink:href="#l"/><path d="M278.621 170.261c-7.342.547-11.764 8.479-11.022 15.218.444 4.02 6.794 4.063 6.35 0-.346-3.175.596-7.487 4.124-8.601 3.406-1.076 8.017 2.999 7.944 6.448-.085 4.087 6.265 4.087 6.35 0 .134-6.66-7.013-13.564-13.746-13.065z"/><use xlink:href="#m"/><use xlink:href="#K" y="95.749"/><use xlink:href="#L" y="95.749"/><use xlink:href="#M" y="95.749"/><use xlink:href="#N" y="95.749"/><use xlink:href="#O" y="95.749"/><use xlink:href="#P" y="95.749"/><use xlink:href="#n"/><use xlink:href="#Q" y="95.749"/><use xlink:href="#R" y="95.749"/><use xlink:href="#S" y="95.749"/><use xlink:href="#o"/><use xlink:href="#T" y="95.749"/><use xlink:href="#p"/><use xlink:href="#U" y="95.749"/><use xlink:href="#V" y="95.749"/><use xlink:href="#q"/><use xlink:href="#r"/><use xlink:href="#s"/><use xlink:href="#D" y="191.497"/><path d="M53.615 292.87c-6.952.852-11.052 4.872-10.979 11.976.043 4.082 6.393 4.094 6.35 0-.03-2.949.578-4.476 3.461-5.297 1.569-.444 6.782-1.205 6.21 1.861-.748 3.996 5.371 5.705 6.125 1.691 1.277-6.849-4.866-11.003-11.167-10.231z"/><use xlink:href="#F" y="191.498"/><path d="M120.339 304.396c-1.783-6.113-5.833-11.69-12.907-10.76-2.926.383-7.086 1.679-8.996 4.088-2.068 2.609-1.527 5.991-.529 8.923 1.308 3.844 7.445 2.195 6.125-1.691-.511-1.503-1.119-2.713.231-3.741 1.253-.949 4.294-1.691 5.754-1.277 2.524.717 3.552 3.923 4.197 6.143 1.143 3.917 7.274 2.256 6.125-1.685z"/><use xlink:href="#X" y="95.749"/><use xlink:href="#Y" y="95.749"/><use xlink:href="#Z" y="95.749"/><use xlink:href="#a" y="95.749"/><use xlink:href="#t"/><use xlink:href="#b" y="95.749"/><use xlink:href="#c" y="95.749"/><use xlink:href="#d" y="95.749"/><path d="M238.18 251.747c-1.375-2.633-1.874-5.62-4.227-7.651-2.701-2.336-6.947-2.512-10.31-2.056-6.332.858-11.508 6.873-8.114 13.15 1.946 3.595 7.427.395 5.486-3.205-1.916-3.54 5.304-4.045 7.141-3.625 3.005.693 3.272 4.148 4.544 6.587 1.885 3.631 7.365.426 5.48-3.2z"/><use xlink:href="#e" y="95.749"/><path d="M138.002 266.01c-7.341.547-11.763 8.479-11.021 15.218.444 4.02 6.794 4.063 6.35 0-.346-3.175.596-7.487 4.124-8.6 3.406-1.077 8.017 2.998 7.944 6.447-.085 4.087 6.265 4.087 6.35 0 .14-6.66-7.007-13.564-13.747-13.065z"/><use xlink:href="#f" y="95.749"/><use xlink:href="#g" y="95.749"/><use xlink:href="#u"/><use xlink:href="#v"/><path d="M151.049 303.326c-.882-5.511-5.182-9.884-10.735-10.657-5.116-.705-11.386 1.85-12.262 7.476-.621 3.996 5.498 5.723 6.125 1.691.444-2.859 3.984-3.455 6.368-2.664 2.658.881 3.966 3.205 4.385 5.845.639 4.02 6.758 2.311 6.119-1.691z"/><use xlink:href="#H" y="191.498"/><path d="M194.228 292.87c-6.952.852-11.052 4.872-10.979 11.976.043 4.082 6.393 4.094 6.35 0-.03-2.949.578-4.476 3.461-5.297 1.569-.444 6.782-1.205 6.21 1.861-.748 3.996 5.371 5.705 6.125 1.691 1.284-6.849-4.86-11.003-11.167-10.231z"/><use xlink:href="#J" y="191.498"/><path d="M260.958 304.396c-1.782-6.113-5.833-11.69-12.907-10.76-2.926.383-7.086 1.679-8.996 4.088-2.068 2.609-1.527 5.991-.529 8.923 1.308 3.844 7.445 2.195 6.125-1.691-.511-1.503-1.119-2.713.231-3.741 1.253-.949 4.294-1.691 5.754-1.277 2.524.717 3.552 3.923 4.197 6.143 1.143 3.917 7.268 2.256 6.125-1.685z"/><use xlink:href="#i" y="95.749"/><use xlink:href="#j" y="95.749"/><use xlink:href="#k" y="95.749"/><use xlink:href="#l" y="95.749"/><path d="M278.621 266.01c-7.342.547-11.764 8.479-11.022 15.218.444 4.02 6.794 4.063 6.35 0-.346-3.175.596-7.487 4.124-8.6 3.406-1.077 8.017 2.998 7.944 6.447-.085 4.087 6.265 4.087 6.35 0 .134-6.66-7.013-13.564-13.746-13.065z"/><use xlink:href="#m" y="95.749"/><path d="M291.667 303.326c-.882-5.511-5.182-9.884-10.735-10.657-5.115-.705-11.386 1.85-12.262 7.476-.621 3.996 5.498 5.723 6.125 1.691.444-2.859 3.984-3.455 6.368-2.664 2.658.881 3.966 3.205 4.385 5.845.639 4.02 6.758 2.311 6.119-1.691z"/><use xlink:href="#L" y="191.498"/><path d="M3.046 315.04c-6.35-.231-13.722 4.574-13.217 11.532.292 4.051 6.648 4.082 6.35 0-.511-7.092 12.171-6.648 12.688.639.286 4.051 6.642 4.087 6.35 0-.468-6.575-5.413-11.927-12.171-12.171z"/><use xlink:href="#N" y="191.498"/><path d="M68.31 320.363c-2.013-5.401-7.883-8.169-13.369-6.156-5.279 1.941-10.03 8.151-8.418 13.911 1.101 3.929 7.232 2.262 6.125-1.691-1.223-4.367 7.572-9.653 9.543-4.38 1.411 3.796 7.548 2.154 6.119-1.684zm28.198 6.314c-2.549-6.034-7.779-11.861-14.981-10.845-6.204.87-9.628 7.001-8.473 12.846.791 4.008 6.916 2.311 6.125-1.691-.693-3.51 2.634-5.651 5.754-4.531 3.212 1.155 4.848 4.476 6.088 7.426 1.587 3.753 7.062.517 5.486-3.205z"/><use xlink:href="#n" y="95.749"/><path d="M15.588 349.68c-2.494-6.721-6.733-11.49-14.494-10.638-5.857.645-13.588 4.555-10.097 11.538 1.825 3.656 7.305.444 5.486-3.205-.675-1.357 6.891-2.184 7.646-2.044 3.169.602 4.312 3.26 5.34 6.034 1.405 3.801 7.542 2.159 6.119-1.685z"/><use xlink:href="#R" y="191.498"/><use xlink:href="#S" y="191.498"/><use xlink:href="#o" y="95.749"/><use xlink:href="#T" y="191.498"/><use xlink:href="#p" y="95.75"/><path d="M27.516 363.541c-6.496-.504-12.846 5.116-12.755 11.654.055 4.081 6.405 4.094 6.35 0-.036-2.919 3.461-6.082 6.496-5.243 3.272.9 3.497 5.669 3.723 8.363.341 4.045 6.691 4.082 6.35 0-.523-6.337-2.506-14.178-10.164-14.774z"/><use xlink:href="#V" y="191.498"/><use xlink:href="#q" y="95.749"/><use xlink:href="#W" y="191.498"/><use xlink:href="#s" y="95.749"/><use xlink:href="#D" y="287.246"/><use xlink:href="#w"/><use xlink:href="#x"/><path d="M120.339 400.145c-1.783-6.113-5.833-11.69-12.907-10.76-2.926.383-7.086 1.679-8.996 4.088-2.068 2.609-1.527 5.991-.529 8.923 1.308 3.844 7.445 2.195 6.125-1.691-.511-1.503-1.119-2.713.231-3.741 1.253-.949 4.294-1.691 5.754-1.277 2.524.717 3.552 3.923 4.197 6.143 1.143 3.917 7.274 2.25 6.125-1.685z"/><use xlink:href="#y"/><use xlink:href="#Y" y="191.497"/><use xlink:href="#z"/><path d="M237.127 326.675c-2.548-6.034-7.779-11.861-14.981-10.845-6.204.87-9.628 7.001-8.472 12.846.79 4.008 6.915 2.311 6.125-1.691-.694-3.51 2.633-5.651 5.754-4.531 3.211 1.155 4.847 4.476 6.088 7.426 1.588 3.753 7.056.517 5.486-3.205z"/><use xlink:href="#t" y="95.748"/><path d="M156.201 349.679c-2.494-6.721-6.733-11.49-14.494-10.638-5.858.645-13.589 4.555-10.097 11.538 1.824 3.656 7.305.444 5.48-3.205-.675-1.357 6.891-2.184 7.646-2.044 3.168.602 4.312 3.26 5.34 6.034 1.411 3.801 7.554 2.159 6.125-1.685z"/><use xlink:href="#AA"/><use xlink:href="#d" y="191.497"/><path d="M238.18 347.496c-1.375-2.634-1.874-5.621-4.227-7.652-2.701-2.336-6.947-2.512-10.31-2.056-6.332.858-11.508 6.873-8.114 13.15 1.946 3.595 7.427.395 5.486-3.205-1.916-3.54 5.304-4.045 7.141-3.625 3.005.693 3.272 4.148 4.544 6.587 1.885 3.631 7.365.426 5.48-3.199z"/><use xlink:href="#e" y="191.497"/><use xlink:href="#AB"/><path d="M168.135 363.54c-6.496-.504-12.846 5.116-12.755 11.654.055 4.082 6.405 4.094 6.35 0-.043-2.919 3.461-6.082 6.496-5.243 3.272.9 3.497 5.669 3.722 8.363.341 4.045 6.691 4.082 6.35 0-.523-6.337-2.506-14.178-10.163-14.774z"/><use xlink:href="#AC"/><use xlink:href="#u" y="95.748"/><use xlink:href="#h" y="191.497"/><path d="M151.049 399.074c-.882-5.511-5.182-9.884-10.735-10.657-5.116-.705-11.386 1.85-12.262 7.476-.621 3.996 5.498 5.723 6.125 1.691.444-2.859 3.984-3.455 6.368-2.664 2.658.882 3.966 3.205 4.385 5.845.639 4.02 6.758 2.311 6.119-1.691z"/><use xlink:href="#AD"/><use xlink:href="#AE"/><use xlink:href="#AF"/><use xlink:href="#AG"/><use xlink:href="#AH"/><use xlink:href="#j" y="191.497"/><path d="M296.819 349.679c-2.494-6.721-6.733-11.49-14.494-10.638-5.858.645-13.588 4.555-10.097 11.538 1.825 3.656 7.305.444 5.48-3.205-.675-1.357 6.891-2.184 7.646-2.044 3.169.602 4.312 3.26 5.34 6.034 1.411 3.801 7.554 2.159 6.125-1.685z"/><use xlink:href="#AI"/><use xlink:href="#AJ"/><path d="M308.753 363.54c-6.496-.504-12.846 5.116-12.755 11.654.055 4.082 6.405 4.094 6.35 0-.043-2.919 3.461-6.082 6.496-5.243 3.272.9 3.497 5.669 3.722 8.363.341 4.045 6.691 4.082 6.35 0-.529-6.337-2.512-14.178-10.163-14.774zm-17.086 35.534c-.882-5.511-5.182-9.884-10.735-10.657-5.115-.705-11.386 1.85-12.262 7.476-.621 3.996 5.498 5.723 6.125 1.691.444-2.859 3.984-3.455 6.368-2.664 2.658.882 3.966 3.205 4.385 5.845.639 4.02 6.758 2.311 6.119-1.691z"/><use xlink:href="#AK"/><use xlink:href="#AL"/><use xlink:href="#N" y="287.247"/><use xlink:href="#AM"/><use xlink:href="#AN"/><use xlink:href="#n" y="191.498"/><path d="M15.588 445.429c-2.494-6.721-6.733-11.49-14.494-10.638-5.857.645-13.588 4.555-10.097 11.538 1.825 3.656 7.305.444 5.486-3.205-.675-1.357 6.891-2.184 7.646-2.044 3.169.602 4.312 3.26 5.34 6.034 1.405 3.801 7.542 2.153 6.119-1.685zm28.246-3.194c-2.591-5.334-7.627-9.087-13.752-7.645-5.079 1.198-11.332 5.158-10.176 11.045.785 4.009 6.91 2.312 6.125-1.691-.268-1.368 5.772-3.26 6.454-3.29 3.072-.14 4.671 2.317 5.87 4.781 1.782 3.68 7.256.462 5.48-3.2z"/><use xlink:href="#S" y="287.247"/><use xlink:href="#o" y="191.498"/><use xlink:href="#T" y="287.247"/><path d="M-2.617 457.508c-7.341.547-11.763 8.479-11.021 15.218.444 4.021 6.794 4.063 6.35 0-.347-3.175.596-7.487 4.124-8.6 3.406-1.077 8.017 2.998 7.944 6.447-.085 4.087 6.265 4.087 6.35 0 .14-6.66-7.007-13.564-13.746-13.065z"/><use xlink:href="#AO"/><use xlink:href="#AP"/><use xlink:href="#q" y="191.498"/><use xlink:href="#r" y="191.498"/><path d="M10.43 494.824c-.882-5.511-5.182-9.884-10.735-10.657-5.115-.705-11.386 1.85-12.262 7.476-.62 3.996 5.499 5.723 6.125 1.691.444-2.859 3.984-3.455 6.368-2.664 2.658.882 3.966 3.205 4.385 5.845.639 4.02 6.758 2.311 6.119-1.691z"/><use xlink:href="#D" y="382.995"/><use xlink:href="#w" y="95.749"/><use xlink:href="#x" y="95.749"/><path d="M120.339 495.894c-1.783-6.113-5.833-11.69-12.907-10.76-2.926.384-7.086 1.679-8.996 4.088-2.068 2.609-1.527 5.991-.529 8.923 1.308 3.844 7.445 2.195 6.125-1.691-.511-1.503-1.119-2.713.231-3.741 1.253-.949 4.294-1.691 5.754-1.277 2.524.717 3.552 3.923 4.197 6.143 1.143 3.917 7.274 2.25 6.125-1.685z"/><use xlink:href="#y" y="95.749"/><use xlink:href="#Y" y="287.246"/><use xlink:href="#z" y="95.749"/><use xlink:href="#AQ"/><path d="M253.075 411.208c-7.998-.784-14.306 6.15-13.716 13.917.311 4.051 6.661 4.081 6.35 0-.322-4.234 2.701-8.546 7.427-7.506 3.278.724 5.279 3.881 5.304 7.086.03 4.087 6.38 4.093 6.35 0-.043-6.66-4.884-12.828-11.715-13.497zm-96.874 34.22c-2.494-6.721-6.733-11.49-14.494-10.638-5.858.645-13.589 4.556-10.097 11.538 1.824 3.656 7.305.444 5.48-3.205-.675-1.357 6.891-2.184 7.646-2.044 3.168.602 4.312 3.26 5.34 6.034 1.411 3.801 7.554 2.153 6.125-1.685z"/><use xlink:href="#AA" y="95.749"/><use xlink:href="#d" y="287.246"/><use xlink:href="#AR"/><use xlink:href="#e" y="287.246"/><use xlink:href="#AB" y="95.749"/><use xlink:href="#AS"/><use xlink:href="#AC" y="95.749"/><use xlink:href="#u" y="191.497"/><use xlink:href="#v" y="191.497"/><use xlink:href="#AT"/><use xlink:href="#AD" y="95.749"/><use xlink:href="#AE" y="95.749"/><use xlink:href="#AF" y="95.749"/><use xlink:href="#AG" y="95.749"/><use xlink:href="#AH" y="95.749"/><use xlink:href="#j" y="287.246"/><path d="M296.819 445.428c-2.494-6.721-6.733-11.49-14.494-10.638-5.858.645-13.588 4.556-10.097 11.538 1.825 3.656 7.305.444 5.48-3.205-.675-1.357 6.891-2.184 7.646-2.044 3.169.602 4.312 3.26 5.34 6.034 1.411 3.801 7.554 2.153 6.125-1.685z"/><use xlink:href="#AI" y="95.749"/><use xlink:href="#AJ" y="95.749"/><use xlink:href="#AU"/><use xlink:href="#AV"/><use xlink:href="#AK" y="95.749"/><use xlink:href="#AL" y="95.747"/><use xlink:href="#N" y="382.995"/><use xlink:href="#AM" y="95.748"/><use xlink:href="#AN" y="95.747"/><path d="M112.462 506.957c-7.998-.784-14.306 6.15-13.716 13.917.31 4.051 6.66 4.081 6.35 0-.322-4.234 2.701-8.546 7.427-7.506 3.278.724 5.279 3.881 5.304 7.086.03 4.087 6.38 4.094 6.35 0-.049-6.66-4.891-12.828-11.715-13.497zm-96.874 34.214c-2.494-6.721-6.733-11.49-14.494-10.638-5.857.645-13.588 4.556-10.097 11.538 1.825 3.656 7.305.444 5.486-3.205-.675-1.357 6.891-2.184 7.646-2.044 3.169.602 4.312 3.26 5.34 6.034 1.405 3.807 7.542 2.159 6.119-1.685zm28.246-3.188c-2.591-5.334-7.627-9.087-13.752-7.645-5.079 1.198-11.332 5.158-10.176 11.045.785 4.009 6.91 2.312 6.125-1.69-.268-1.369 5.772-3.261 6.454-3.291 3.072-.14 4.671 2.317 5.87 4.781 1.782 3.68 7.256.462 5.48-3.2zm25.656-2.603c-2.707-4.391-7.749-6.97-12.907-5.766-5.152 1.205-9.257 5.985-8.862 11.368.298 4.051 6.654 4.082 6.35 0-.438-5.893 7.244-6.763 9.939-2.402 2.135 3.479 7.633.292 5.48-3.2zm28.071 3.614c-1.375-2.634-1.873-5.621-4.227-7.652-2.701-2.336-6.946-2.512-10.31-2.056-6.332.858-11.508 6.873-8.114 13.15 1.946 3.595 7.427.396 5.48-3.205-1.916-3.54 5.304-4.045 7.141-3.625 3.005.693 3.272 4.148 4.543 6.587 1.892 3.631 7.372.426 5.486-3.199z"/><use xlink:href="#T" y="382.995"/><path d="M-2.617 553.256c-7.341.547-11.763 8.479-11.021 15.218.444 4.021 6.794 4.063 6.35 0-.347-3.175.596-7.487 4.124-8.6 3.406-1.077 8.017 2.998 7.944 6.447-.085 4.087 6.265 4.087 6.35 0 .14-6.666-7.007-13.564-13.746-13.065z"/><use xlink:href="#AO" y="95.748"/><use xlink:href="#AP" y="95.748"/><use xlink:href="#q" y="287.246"/><use xlink:href="#r" y="287.246"/><path d="M10.43 590.572c-.882-5.511-5.182-9.884-10.735-10.656-5.115-.706-11.386 1.849-12.262 7.475-.62 3.996 5.499 5.723 6.125 1.691.444-2.859 3.984-3.455 6.368-2.664 2.658.882 3.966 3.205 4.385 5.845.639 4.02 6.758 2.311 6.119-1.691zm16.125-10.906c-5.882-.116-12.907 5.65-12.858 11.714.036 4.088 6.386 4.094 6.35 0-.024-2.591 4.124-5.389 6.472-5.297 3.4.127 4.659 3.856 4.902 6.709.341 4.044 6.697 4.081 6.35 0-.529-6.29-4.075-12.986-11.216-13.126zm27.06.444c-6.952.852-11.052 4.872-10.979 11.976.043 4.082 6.393 4.094 6.35 0-.03-2.95.578-4.476 3.461-5.297 1.569-.444 6.782-1.205 6.21 1.861-.748 3.996 5.371 5.705 6.125 1.691 1.277-6.843-4.866-10.997-11.167-10.231zm39.913 10.468c-2.013-5.523-6.758-9.574-12.822-9.61-6.07-.036-12.499 4.258-12.341 10.778.097 4.081 6.447 4.093 6.35 0-.085-3.522 4.489-4.823 7.25-4.288 2.591.505 4.543 2.354 5.438 4.811 1.387 3.808 7.524 2.159 6.125-1.691zm26.811 1.064c-1.783-6.113-5.833-11.69-12.907-10.76-2.926.384-7.086 1.679-8.996 4.088-2.068 2.609-1.527 5.991-.529 8.923 1.308 3.844 7.445 2.195 6.125-1.691-.511-1.503-1.119-2.713.231-3.741 1.253-.949 4.294-1.691 5.754-1.277 2.524.718 3.552 3.923 4.197 6.143 1.143 3.917 7.274 2.25 6.125-1.685z"/><use xlink:href="#y" y="191.498"/><use xlink:href="#Y" y="382.995"/><use xlink:href="#z" y="191.498"/><use xlink:href="#AQ" y="95.749"/><path d="M253.075 506.957c-7.998-.784-14.306 6.15-13.716 13.917.311 4.051 6.661 4.081 6.35 0-.322-4.234 2.701-8.546 7.427-7.506 3.278.724 5.279 3.881 5.304 7.086.03 4.087 6.38 4.094 6.35 0-.043-6.66-4.884-12.828-11.715-13.497zm-96.874 34.214c-2.494-6.721-6.733-11.49-14.494-10.638-5.858.645-13.589 4.556-10.097 11.538 1.824 3.656 7.305.444 5.48-3.205-.675-1.357 6.891-2.184 7.646-2.044 3.168.602 4.312 3.26 5.34 6.034 1.411 3.807 7.554 2.159 6.125-1.685zm28.247-3.188c-2.592-5.334-7.628-9.087-13.753-7.645-5.078 1.198-11.331 5.158-10.176 11.045.785 4.009 6.91 2.312 6.125-1.69-.267-1.369 5.773-3.261 6.454-3.291 3.071-.14 4.671 2.317 5.869 4.781 1.782 3.68 7.263.462 5.481-3.2zm25.661-2.603c-2.707-4.391-7.749-6.97-12.907-5.766-5.151 1.205-9.257 5.985-8.862 11.368.298 4.051 6.654 4.082 6.35 0-.438-5.893 7.244-6.763 9.939-2.402 2.135 3.479 7.633.292 5.48-3.2z"/><use xlink:href="#AR" y="95.749"/><use xlink:href="#e" y="382.995"/><path d="M138.002 553.256c-7.341.547-11.763 8.479-11.021 15.218.444 4.021 6.794 4.063 6.35 0-.346-3.175.596-7.487 4.124-8.6 3.406-1.077 8.017 2.998 7.944 6.447-.085 4.087 6.265 4.087 6.35 0 .14-6.666-7.007-13.564-13.747-13.065z"/><use xlink:href="#AS" y="95.749"/><use xlink:href="#AC" y="191.498"/><use xlink:href="#u" y="287.246"/><use xlink:href="#v" y="287.246"/><use xlink:href="#AT" y="95.749"/><use xlink:href="#AD" y="191.498"/><path d="M194.228 580.11c-6.952.852-11.052 4.872-10.979 11.976.043 4.082 6.393 4.094 6.35 0-.03-2.95.578-4.476 3.461-5.297 1.569-.444 6.782-1.205 6.21 1.861-.748 3.996 5.371 5.705 6.125 1.691 1.284-6.843-4.86-10.997-11.167-10.231zm39.913 10.468c-2.013-5.523-6.758-9.574-12.822-9.61-6.07-.036-12.499 4.258-12.341 10.778.097 4.081 6.447 4.093 6.35 0-.085-3.522 4.489-4.823 7.25-4.288 2.591.505 4.544 2.354 5.438 4.811 1.393 3.808 7.53 2.159 6.125-1.691zm26.817 1.064c-1.782-6.113-5.833-11.69-12.907-10.76-2.926.384-7.086 1.679-8.996 4.088-2.068 2.609-1.527 5.991-.529 8.923 1.308 3.844 7.445 2.195 6.125-1.691-.511-1.503-1.119-2.713.231-3.741 1.253-.949 4.294-1.691 5.754-1.277 2.524.718 3.552 3.923 4.197 6.143 1.143 3.917 7.268 2.25 6.125-1.685z"/><use xlink:href="#AH" y="191.498"/><use xlink:href="#j" y="382.995"/><path d="M296.819 541.171c-2.494-6.721-6.733-11.49-14.494-10.638-5.858.645-13.588 4.556-10.097 11.538 1.825 3.656 7.305.444 5.48-3.205-.675-1.357 6.891-2.184 7.646-2.044 3.169.602 4.312 3.26 5.34 6.034 1.411 3.807 7.554 2.159 6.125-1.685zm28.247-3.188c-2.591-5.334-7.628-9.087-13.753-7.645-5.078 1.198-11.331 5.158-10.175 11.045.784 4.009 6.909 2.312 6.125-1.69-.268-1.369 5.772-3.261 6.453-3.291 3.072-.14 4.671 2.317 5.869 4.781 1.783 3.68 7.263.462 5.481-3.2zm-46.445 15.273c-7.342.547-11.764 8.479-11.022 15.218.444 4.021 6.794 4.063 6.35 0-.346-3.175.596-7.487 4.124-8.6 3.406-1.077 8.017 2.998 7.944 6.447-.085 4.087 6.265 4.087 6.35 0 .134-6.666-7.013-13.564-13.746-13.065z"/><use xlink:href="#AU" y="95.749"/><use xlink:href="#AV" y="95.749"/><use xlink:href="#AK" y="191.498"/><use xlink:href="#AM" y="191.497"/><use xlink:href="#z" y="287.247"/></g><path d="M110.836 117.641c.747.601 1.349 1.239 1.805 1.914.455.656.82 1.458 1.093 2.406.456 1.586.684 3.628.684 6.125V151h-10.637v-22.449c0-3.518-1.786-5.278-5.359-5.278l-1.914.028v16.898c0 1.349-.1 2.561-.301 3.637a10.05 10.05 0 0 1-1.066 3.09c-.51.984-1.185 1.804-2.023 2.461-1.823 1.422-4.512 2.133-8.066 2.133a10.59 10.59 0 0 1-2.461-.301c-.838-.183-1.467-.365-1.887-.547l-.656-.301v-7.629c1.367.255 2.525.383 3.473.383s1.577-.219 1.887-.656c.328-.456.492-1.212.492-2.27V123.93l-3.773.3v-8.148c6.107-.674 11.867-1.012 17.281-1.012s9.224.857 11.43 2.571zM132.301 151h-10.61v-35.41h10.61V151zm7.219-35.52c1.458-.291 3.308-.437 5.55-.437s4.047.21 5.414.629 2.47.984 3.309 1.695c.839.693 1.513 1.559 2.023 2.598.529 1.039.885 2.114 1.067 3.226.2 1.094.301 2.316.301 3.664v13.071c0 1.713-.11 3.5-.329 5.359-.2 1.841-.401 3.254-.601 4.238l-.301 1.477h-17.992v-8.176h8.285c.219-.893.328-1.859.328-2.898v-13.071c0-.947-.209-1.75-.629-2.406-.401-.674-1.066-1.011-1.996-1.011-1.185 0-2.424.091-3.719.273l-.71.082v-8.313zM164.457 151v-34.918c4.339-.693 9.233-1.039 14.684-1.039 4.356 0 7.583.538 9.679 1.613 1.094.547 1.987 1.176 2.68 1.887.711.711 1.249 1.604 1.613 2.68.383 1.075.638 2.178.766 3.308.146 1.112.219 2.443.219 3.992V151h-10.637v-22.477c0-3.518-1.787-5.277-5.359-5.277-.948 0-1.96.027-3.036.082V151h-10.609zm65.379-33.359c.747.601 1.349 1.239 1.805 1.914.455.656.82 1.458 1.093 2.406.456 1.586.684 3.628.684 6.125V151h-10.637v-22.449c0-3.518-1.786-5.278-5.359-5.278-.912 0-1.55.01-1.914.028v16.898c0 1.349-.1 2.561-.301 3.637a10.06 10.06 0 0 1-1.066 3.09c-.511.984-1.185 1.804-2.024 2.461-1.823 1.422-4.512 2.133-8.066 2.133-.802 0-1.623-.101-2.461-.301-.839-.183-1.468-.365-1.887-.547l-.656-.301v-7.629c1.367.255 2.525.383 3.473.383s1.576-.219 1.886-.656c.328-.456.492-1.212.492-2.27V123.93l-3.773.3v-8.148c6.107-.674 11.867-1.012 17.281-1.012s9.224.857 11.43 2.571zM81.904 193v-18.083c2.247-.358 4.781-.538 7.604-.538 2.256 0 3.927.279 5.013.836.566.283 1.029.609 1.388.977.368.368.647.831.836 1.388.198.557.33 1.128.396 1.713.076.576.113 1.265.113 2.067V193h-5.508v-11.64c0-1.822-.925-2.733-2.775-2.733l-1.572.043V193h-5.494zm24.61 0h-5.494v-18.337h5.494V193zm3.314-18.295l7.83-.326c2.558 0 4.541.831 5.947 2.493 1.416 1.652 2.124 3.969 2.124 6.952 0 2.974-.717 5.291-2.152 6.953-1.425 1.661-3.408 2.492-5.947 2.492s-4.508-.821-5.905-2.464c-1.388-1.642-2.081-3.965-2.081-6.967 0-2.02.566-3.653 1.699-4.899l-1.515.099v-4.333zm5.38 9.133c0 1.737.194 3.016.581 3.838.397.821 1.024 1.232 1.883 1.232.869 0 1.501-.411 1.898-1.232.396-.831.595-2.115.595-3.852s-.199-3.035-.595-3.894-1.024-1.288-1.883-1.288l-1.105.056c-.916 1.331-1.374 3.045-1.374 5.14zm13.538 3.229v-12.404h5.494v8.552l-3.045 3.852h-2.449zm9.034-12.461c.755-.151 1.713-.227 2.874-.227s2.096.109 2.804.326 1.279.51 1.713.878c.435.359.784.807 1.048 1.345a5.68 5.68 0 0 1 .552 1.671c.104.567.156 1.199.156 1.898v6.768a23.62 23.62 0 0 1-.17 2.776l-.311 2.194-.156.765h-9.317v-4.234h4.29a6.31 6.31 0 0 0 .17-1.501v-6.768c0-.491-.108-.907-.326-1.247-.207-.349-.552-.523-1.033-.523-.614 0-1.256.047-1.926.141l-.368.043v-4.305zm17.204.057h9.233v3.356l-2.407 8.17.014-.014L160.28 193h-5.409l1.6-7.009 2.11-7.095h-9.091v-7.858h5.494v3.625zm23.464-.284c1.17 0 2.209.156 3.115.468.916.311 1.657.727 2.223 1.246.567.51 1.034 1.133 1.402 1.869.661 1.312.991 2.884.991 4.715v17.29h-5.48v-17.318a9.44 9.44 0 0 0-.071-1.26c-.037-.35-.127-.708-.269-1.077-.132-.368-.321-.665-.566-.892-.538-.509-1.383-.764-2.535-.764l-3.894.184-.694.071v-4.305c1.605-.151 3.531-.227 5.778-.227zm10.308.298l5.084-.298c1.472 0 2.624.071 3.455.213.84.141 1.539.363 2.096.665.566.302 1.029.642 1.387 1.02.368.377.647.849.836 1.416.198.557.33 1.119.396 1.685.076.557.114 1.218.114 1.982V193h-5.495v-11.64c0-1.822-.925-2.733-2.775-2.733-1.397 0-3.096.104-5.098.312v-4.262zm30.912-.014v3.879c-.925.359-1.558.77-1.897 1.232-.331.454-.496 1.185-.496 2.195V193h-5.494v-11.13c0-1.237.439-2.228 1.317-2.974h-8.794v-4.233h15.364zm7.179-.284c1.718 0 3.073.156 4.064.468 1.105.34 1.888.783 2.351 1.331a4.65 4.65 0 0 1 1.076 2.124c.179.783.269 1.723.269 2.818v7.646h1.997V193h-15.378v-4.234h7.887v-7.406c0-1.822-.93-2.733-2.79-2.733-1.17 0-2.577.081-4.219.241l-.878.085v-4.205c1.142-.246 3.016-.369 5.621-.369zM119.844 87.195h4.402v8.066h-4.402V103H109.18v-7.738H93.238v-7.93l16.625-24.309h9.981v24.172zm-10.664 0v-4.648l.082-3.527.164-2.351h-.301c-.674 1.495-1.376 2.807-2.105 3.938l-4.43 6.59h6.59zm31.5 10.432h-7.725v-4.266h7.725v4.266zm7.15-12.605c1.659 0 2.967.15 3.924.451 1.066.328 1.823.757 2.269 1.285a4.48 4.48 0 0 1 1.039 2.051c.174.757.26 1.663.26 2.721v7.383h1.928V103h-14.848v-4.088h7.616v-7.15c0-1.759-.898-2.639-2.694-2.639-1.13 0-2.488.078-4.074.233l-.848.082v-4.061c1.103-.237 2.912-.355 5.428-.355zm17.774.287l4.908-.287c1.422 0 2.534.068 3.336.205.811.137 1.485.351 2.023.642.547.292.994.62 1.34.984.355.365.624.82.807 1.367a7.37 7.37 0 0 1 .382 1.627c.073.538.11 1.176.11 1.914V103h-5.305V91.762c0-1.759-.893-2.639-2.68-2.639-1.349 0-2.989.1-4.921.301v-4.115zM187.451 103h-5.305V85.295h5.305V103zm8.395-17.978c1.659 0 2.966.15 3.924.451 1.066.328 1.822.757 2.269 1.285a4.48 4.48 0 0 1 1.039 2.051c.173.757.26 1.663.26 2.721v7.383h1.928V103h-14.848v-4.088h7.615v-7.15c0-1.759-.898-2.639-2.693-2.639-1.13 0-2.488.078-4.074.233l-.848.082v-4.061c1.103-.237 2.912-.355 5.428-.355zm26.592.273l-.698 7.793c-.136 1.577-.401 2.867-.793 3.869-1.285 3.336-4.12 5.35-8.504 6.043l-6.111.957v-4.211l4.252-.643-3.746-13.809h5.291l2.146 7.684.889 4.43c.684-.793 1.112-2.151 1.285-4.074l.711-8.039h5.278zm2.939-.055c.729-.146 1.654-.219 2.775-.219s2.024.105 2.707.314 1.235.492 1.655.848c.419.346.756.779 1.011 1.299a5.51 5.51 0 0 1 .534 1.613c.1.547.15 1.158.15 1.832v6.535a23.04 23.04 0 0 1-.164 2.68c-.1.92-.201 1.627-.301 2.119l-.15.738h-8.996v-4.088h4.142a6.05 6.05 0 0 0 .164-1.449v-6.535c0-.474-.105-.875-.314-1.203-.201-.337-.533-.506-.998-.506a13.38 13.38 0 0 0-1.86.137l-.355.041V85.24zM85.914 212.7c1.15 0 2.171.154 3.062.46.9.306 1.628.714 2.185 1.224a6.13 6.13 0 0 1 1.378 1.837c.649 1.29.974 2.834.974 4.634v16.992h-5.386v-17.02c0-.482-.023-.895-.07-1.238-.037-.343-.125-.696-.264-1.058-.13-.362-.315-.654-.557-.876-.529-.501-1.359-.752-2.491-.752l-3.827.181-.682.07v-4.231c1.577-.148 3.47-.223 5.678-.223zm15.516.279h9.073v3.298l-2.365 8.029.014-.014-1.517 6.708h-5.316l1.572-6.888 2.074-6.972h-8.934v-7.724h5.399v3.563zM121.706 231h-7.904l-1.517-18.021h5.246l.696 8.377a.99.99 0 0 0 .389-.097c.149-.065.274-.158.376-.279.112-.12.218-.31.32-.57.112-.269.181-.585.209-.946l.557-6.485h5.204l-.542 6.415c-.056.752-.186 1.433-.39 2.046-.204.603-.445 1.104-.724 1.503a4.81 4.81 0 0 1-.96 1.029c-.371.297-.724.52-1.058.668a6.25 6.25 0 0 1-1.085.362 7.69 7.69 0 0 1-1.753.195h-.223l.167 1.642h3.618c1.16 0 2.12-.454 2.881-1.364.77-.918 1.243-2.384 1.419-4.397l.696-8.099h5.246l-.737 8.224c-.139 1.587-.432 2.969-.877 4.147s-.974 2.125-1.586 2.839c-.603.705-1.336 1.276-2.199 1.712-.863.426-1.726.719-2.589.876-.853.149-1.813.223-2.88.223zm28.625-18.3c2.227 0 3.869.288 4.926.863a5.45 5.45 0 0 1 1.364 1.016c.362.371.636.83.821 1.378.195.547.325 1.099.39 1.656.074.547.111 1.197.111 1.948V231h-5.413v-11.439c0-1.79-.909-2.686-2.728-2.686-1.633 0-3.562.121-5.789.362l-1.155.125v-4.133c2.208-.352 4.699-.529 7.473-.529zm-2.073 18.3h-5.386v-10.507h5.386V231zm22.126 0h-7.904l-1.517-18.021h5.246l.696 8.377a1 1 0 0 0 .39-.097 1.02 1.02 0 0 0 .375-.279c.112-.12.218-.31.32-.57.112-.269.181-.585.209-.946l.557-6.485h5.204l-.542 6.415c-.056.752-.186 1.433-.39 2.046-.204.603-.445 1.104-.724 1.503a4.81 4.81 0 0 1-.96 1.029c-.371.297-.723.52-1.057.668a6.26 6.26 0 0 1-1.086.362c-.556.13-1.141.195-1.753.195h-.223l.167 1.642h3.618c1.16 0 2.12-.454 2.881-1.364.77-.918 1.243-2.384 1.419-4.397l.696-8.099h5.246l-.737 8.224c-.139 1.587-.432 2.969-.877 4.147s-.974 2.125-1.586 2.839c-.603.705-1.336 1.276-2.199 1.712a9.82 9.82 0 0 1-2.588.876c-.854.149-1.814.223-2.881.223zm26.343-.849V231h-5.358v-.849c0-.714.116-1.725.348-3.034.241-1.317.538-2.449.891-3.395l2.477-6.582h-10.952v-4.161h16.88v3.117l-2.922 7.737c-.909 2.403-1.364 4.509-1.364 6.318zm-7.195 7.696h-5.399v-17.701h5.399v17.701zm18.704-25.147c1.688 0 3.019.154 3.993.46 1.086.334 1.856.77 2.311 1.308.538.612.89 1.308 1.057 2.087.176.77.265 1.693.265 2.769v7.515h1.962V231h-15.113v-4.161h7.751v-7.278c0-1.79-.914-2.686-2.741-2.686-1.151 0-2.533.079-4.147.237l-.863.083v-4.133c1.122-.241 2.964-.362 5.525-.362zm19.329 0c2.227 0 3.869.288 4.926.863a5.45 5.45 0 0 1 1.364 1.016c.362.371.635.83.821 1.378.195.547.325 1.099.39 1.656.074.547.111 1.197.111 1.948V231h-5.413v-11.439c0-1.79-.91-2.686-2.728-2.686-1.633 0-3.562.121-5.789.362l-1.155.125v-4.133c2.208-.352 4.699-.529 7.473-.529zm-2.074 18.3h-5.385v-10.507h5.385V231z" class="B"/><ellipse cx="196.538" cy="511.882" rx="104.462" ry="16.317" fill="#000" fill-opacity=".1"/><path d="M41.664 321.723l1.838-.051c.542 0 .991.034 1.348.102a4.04 4.04 0 0 1 1.011.315 2.57 2.57 0 0 1 .791.564c.454.493.681 1.167.681 2.022v6.592h-1.216v-6.607c0-1.304-.874-1.955-2.622-1.955l-1.831.051v-1.033zm9.177 9.544h-1.216v-9.449h1.216v9.449zm8.811-9.449v3.069l-.051 1.04a4.65 4.65 0 0 1-.212.916c-.22.654-.686 1.12-1.399 1.399l1.824 3.025h-1.37l-2.307-3.948-1.113-1.67c-.195.073-.337.146-.425.22-.464.376-.696 1.006-.696 1.889v3.509h-1.216v-3.069c0-1.07.159-1.863.476-2.381.127-.21.303-.405.527-.586a2.66 2.66 0 0 1 .82-.439l-1.816-2.974h1.377l2.168 3.655 1.223 1.897c.249-.146.432-.298.549-.454a1.99 1.99 0 0 0 .3-.637c.078-.268.124-.586.124-.952v-3.509h1.216zm1.919 6.255v-6.255h1.216v5.01l-.967 1.245h-.249zm3.494 3.296c-.215 0-.459-.034-.732-.102v-1.004l.593.073c.698 0 1.047-.415 1.047-1.245v-6.247l-1.033.095v-1.033l3.574-.234c.869 0 1.602.139 2.197.417.625.293 1.055.767 1.289 1.421a3.45 3.45 0 0 1 .183 1.165v6.592H70.96v-6.607c0-1.304-.872-1.955-2.615-1.955l-1.157.044v6.174c0 .771-.176 1.372-.527 1.802s-.884.644-1.597.644zm-2.1 44.639c.996 0 1.824-.359 2.483-1.076s1.064-1.819 1.201-3.304l.373-4.116h1.209l-.359 4.116c-.049.635-.149 1.199-.3 1.692a7.32 7.32 0 0 1-.469 1.201 4.67 4.67 0 0 1-.644.923 4.12 4.12 0 0 1-.894.784c-.332.215-.74.391-1.223.527a5.91 5.91 0 0 1-1.575.198h-3.135l-.784-9.448h1.23l.439 5.281.974-.323c.752-.244 1.184-.922 1.296-2.036l.286-2.922h1.216l-.242 2.483-.132.901c-.054.263-.142.539-.264.827a3.09 3.09 0 0 1-.447.755c-.171.215-.398.412-.681.593a3.29 3.29 0 0 1-.981.41l-.952.256.19 2.278h2.183zm8.379-7.668c-.264 0-.562.044-.894.132v-.96a5.19 5.19 0 0 1 1.311-.154c1.523 0 2.285.838 2.285 2.513v7.082h-1.003l-.139-1.597h-.059a2.44 2.44 0 0 1-.176.308c-.088.147-.176.276-.264.388a3.7 3.7 0 0 1-.344.359 2.88 2.88 0 0 1-.447.344c-.157.097-.332.179-.542.242a2.01 2.01 0 0 1-.637.103c-.459 0-.801-.032-1.025-.096l.176-1.113c.205.064.54.095 1.003.095.342 0 .706-.141 1.091-.424.459-.347.786-.811.981-1.392.112-.337.168-.703.168-1.099v-3.098c0-.591-.129-1.015-.388-1.274-.239-.24-.605-.359-1.099-.359zm4.153-.93l1.838-.052c.542 0 .991.035 1.348.103a3.96 3.96 0 0 1 1.011.315c.313.146.576.334.791.564.454.493.681 1.167.681 2.021v6.592H79.95v-6.606c0-1.304-.874-1.956-2.622-1.956l-1.831.051v-1.032zm-9.398 49.817c.361-.069.747-.103 1.157-.103a4.16 4.16 0 0 1 1.135.147c.347.097.64.229.879.395s.459.356.644.586a3.09 3.09 0 0 1 .454.703 5.37 5.37 0 0 1 .293.769c.127.469.19.955.19 1.458v9.14h-1.216v-8.994c0-.62-.068-1.138-.205-1.553-.059-.18-.149-.373-.271-.578s-.256-.376-.417-.513-.371-.251-.63-.344-.561-.139-.923-.139a5.76 5.76 0 0 0-1.055.095c-.347.058-.593.12-.74.183l-.22.095v-1.084a2.13 2.13 0 0 1 .234-.102c.102-.039.332-.093.689-.161zm6.196-.052l1.838-.051c.542 0 .991.034 1.348.103a3.96 3.96 0 0 1 1.011.315 2.55 2.55 0 0 1 .791.563c.454.494.681 1.167.681 2.022v6.592h-1.216v-6.607c0-1.303-.874-1.955-2.622-1.955l-1.831.051v-1.033zm9.177 9.544h-1.216v-9.448h1.216v9.448zm8.672 0h-6.951v-.945h4.028l1.67.08v-.029l-2.439-3.303-3.332-5.251h1.384l2.827 4.548.234.329c.376-.224.659-.6.85-1.127s.334-1.221.417-2.081l.161-1.691h1.216l-.147 1.516-.037.373-.044.462-.066.49a3.9 3.9 0 0 1-.11.542l-.161.528a2.55 2.55 0 0 1-.234.534l-.315.484c-.225.312-.542.573-.952.783l1.999 2.813v.945zm-16.895 40.378a3.45 3.45 0 0 1 .183 1.165v6.592h-1.216v-6.607c0-1.304-.874-1.955-2.622-1.955l-2.556.08-.513.029v-1.032l3.12-.11c.947 0 1.726.144 2.336.432a2.36 2.36 0 0 1 1.267 1.406zm-5.508 7.757h-1.216v-6.028h1.216v6.028zm11.689-.945c.996 0 1.824-.359 2.483-1.077s1.064-1.819 1.201-3.303l.373-4.116h1.209l-.359 4.116a7.83 7.83 0 0 1-.3 1.692c-.151.488-.308.888-.469 1.201a4.85 4.85 0 0 1-.644.923 4.19 4.19 0 0 1-.894.783c-.332.214-.74.391-1.223.528a5.91 5.91 0 0 1-1.575.198h-3.135l-.784-9.449h1.231l.439 5.281.974-.322c.752-.244 1.184-.923 1.296-2.036l.286-2.923h1.216l-.242 2.483-.132.901c-.054.264-.142.54-.264.828s-.271.539-.447.754-.398.413-.681.593-.61.318-.981.411l-.952.256.19 2.278h2.183zm11.865.695v.25h-1.208v-.25c0-.356.08-.839.242-1.45l.352-1.318.542-1.904 1.047-3.589h-5.735v-.938h6.951v.938l-1.099 3.735-.315 1.113-.249.887-.205.776-.161.688c-.107.479-.161.833-.161 1.062zm-3.545 3.86h-1.209v-9.257h1.209v9.257zm6.929-13.095c.781-.074 1.697-.11 2.747-.11s1.826.229 2.329.688.754 1.226.754 2.315v5.647h1.077v.945h-6.907v-.945h4.614v-5.662c0-.752-.171-1.265-.513-1.538s-.859-.417-1.567-.417l-2.161.08-.374.029v-1.032z" fill="#eceff0"/><rect width="8.158" height="8.158" rx="4.079" transform="matrix(1 0 0 -1 24.9973 340.559)" class="B"/><path d="M159.79 336.479H29.076" class="D F"/><rect width="8.158" height="8.158" rx="4.079" transform="matrix(1 0 0 -1 34.4526 388.691)" class="B"/><path d="M170.396 384.613H38.532" class="D F"/><rect width="8.158" height="8.158" rx="4.079" transform="matrix(1 0 0 -1 43.1255 436.825)" class="B"/><path d="M172.843 432.747H47.205" class="D F"/><rect width="8.158" height="8.158" rx="4.079" transform="matrix(1 0 0 -1 52.2837 484.959)" class="B"/><path d="M188.344 480.881H55.083" class="D F"/><g filter="url(#B)" class="G"><path d="M108.941 285.082h78.584c8.884 0 13.316 6.15 15.27 14.81l43.881 194.857c2.039 9.79 1.209 18.534-7.066 20.397l-8.333.356c3.195.041-90.233 4.525-90.233 4.525-10.176.501-15.066-3.355-16.879-13.377L98.55 365.126l-1.905.545-4.902-26.822 1.961-.49-7.149-31.348c-1.151-6.355-1.821-21.407 16.943-21.744 7.247-.13 4.712-.193 5.444-.185z"/></g><path d="M175.76 289.395h10.432a13.13 13.13 0 0 1 12.828 10.322l43.342 200.172a8.13 8.13 0 0 1-6.213 9.677c-.398.085-.799.144-1.203.17l-90.752 4.367c-5.349.349-10.106-3.366-11.057-8.641l-38.803-205.21a9.23 9.23 0 0 1 7.446-10.713l2.634-.144h9.894c1.969 0 3.692 1.321 4.205 3.221.453 1.678 1.975 2.844 3.714 2.844h46.978c3.435 0 6.291-2.643 6.555-6.065z" fill="#eceff0"/><path d="M160.315 337.397h-6.657v-12.849l.099-4.283a12.82 12.82 0 0 1-1.527 1.56l-2.756 2.275-3.403-4.184 8.334-6.79h5.91v24.271zm2.863 24.331c1.472 0 2.822.282 4.051.846 1.229.554 2.18 1.334 2.855 2.341.687 1.007 1.03 2.12 1.03 3.337v.116a9.22 9.22 0 0 1-1.461 5.03c-.542.819-1.218 1.65-2.026 2.491-.796.841-2.54 2.468-5.229 4.881v.166h9.181v5.412h-17.615v-4.317l5.927-5.993 3.387-3.702c.476-.598.813-1.129 1.013-1.594.21-.465.315-.979.315-1.544a1.78 1.78 0 0 0-.631-1.411c-.409-.365-.985-.548-1.726-.548-.731 0-1.484.211-2.258.631-.764.421-1.66 1.079-2.69 1.976l-3.602-4.234c1.228-1.095 2.28-1.892 3.154-2.39 1.738-.996 3.791-1.494 6.159-1.494h.166zm9.453 47.133c2.512 0 4.483.498 5.91 1.494s2.142 2.369 2.142 4.118c0 1.505-.465 2.8-1.395 3.884-.918 1.074-2.241 1.854-3.967 2.341v.1c4.05.52 6.076 2.435 6.076 5.744 0 2.247-.897 4.029-2.69 5.346-1.782 1.284-4.261 1.925-7.437 1.925a21.63 21.63 0 0 1-3.586-.282c-1.107-.177-2.324-.52-3.653-1.029v-5.445c2.092 1.062 4.19 1.593 6.292 1.593 1.428 0 2.474-.199 3.138-.597.664-.41.996-1.068.996-1.976 0-.918-.387-1.566-1.162-1.942s-2.108-.581-4.001-.614H167.8v-4.931h1.527c3.332 0 4.997-.852 4.997-2.557 0-.62-.243-1.09-.73-1.411-.476-.321-1.14-.481-1.992-.481-1.561 0-3.166.52-4.815 1.56l-2.722-4.383c1.284-.874 2.59-1.499 3.918-1.876 1.339-.387 2.888-.581 4.648-.581zm16.89 63.343h2.673v4.898h-2.673v4.698h-6.474v-4.698h-9.679v-4.815l10.094-14.759h6.059v14.676zm-6.474 0v-2.822l.05-2.142.099-1.428h-.182c-.41.908-.836 1.705-1.279 2.391l-2.689 4.001h4.001z" class="H"/><path d="M100.866 336.479h57.924m-48.95 48.949h60.371m-51.397 47.318h52.397m-43.423 48.134h61.372" stroke="#3869e5" class="D"/><path d="M133.025 505.844L99.452 327.598h-4.266l30.234 170.827 7.605 7.419z" class="G"/><g class="I"><path d="M280.226 352.259c2.151 2.553 3.363 5.944 3.052 9.279-.311 3.328-2.207 6.529-5.092 8.181a9.22 9.22 0 0 1-6.414.995c-.733-2.442-.797-5.161-.63-7.737.271-4.158 1.02-8.402.008-12.441-1.546-6.156-6.924-10.646-12.622-13.38-4.637-2.229-9.641-3.581-14.438-5.438l-.614-.237c-.852-.546-1.761-1.004-2.709-1.36-1.339-.498-3.036-1.13-3.147-2.568a1.06 1.06 0 0 1 .008-.277c.063-.782.605-1.478 1.004-2.173.438-.783.653-1.913-.048-2.474-1.004-.791-2.446.521-3.697.268-.741-.15-1.267-.853-1.506-1.572-.239-.727-.263-1.494-.407-2.245-.574-2.956-3.331-5.295-6.295-5.517-.183-.016-.374-.016-.565-.016a4.11 4.11 0 0 1-.192-.869c-.39-3.754 3.57-5.809 6.638-6.599 5.928-1.518 11.984-.143 16.646 3.857 4.677 4.007 7.314 10.891 8.804 16.834.287 1.138.487 2.34 1.164 3.288.797 1.13 2.159 1.747 3.522 1.992 1.354.245 2.749.182 4.127.253 3.714.182 7.371 1.336 10.519 3.319 1.107.696 2.175 1.518 2.908 2.609.733 1.082 1.108 2.481.741 3.746-.622 2.165-3.211 3.517-3.315 5.769-.103 1.771 1.403 3.154 2.55 4.513z"/><path d="M271.142 350.528c1.012 4.039.263 8.283-.008 12.441-.167 2.576-.096 5.295.63 7.737a8.25 8.25 0 0 1-3.036-1.288c-.032-.024-.072-.047-.104-.071-.151-.688-.335-1.375-.518-2.047-2.438-8.828-4.064-27.607-17.195-26.359l-.829.071a14.86 14.86 0 0 0-1.179-3.469c-1.092-2.245-2.773-4.197-4.813-5.636l-.024-.189c4.797 1.849 9.801 3.209 14.438 5.437 5.714 2.727 11.1 7.209 12.638 13.373z"/></g><path d="M268.632 369.339c.598 2.6.901 5.264.327 7.848-.638-2.861-1.976-5.674-3.45-8.219-2.184-3.786-4.765-7.501-6.048-11.634-.199-.625-1.092-.562-1.188.094-.948 6.94 2.965 14.393 2.965 21.237.414 2.537.996 5.051 1.569 7.572.917 4.023 1.825 8.038 2.072 12.148.08 1.359.072 2.829-.709 3.944-.462.664-1.108 1.091-1.849 1.359-1.235.451-2.725.451-4.063.364-7.005-.451-14.08-1.446-20.997-.237-1.817.316-3.633.79-5.466.774-.263-.008-.526-.015-.789-.039-1.53-.135-3.179-.775-4.175-2-.144-.174-.263-.355-.359-.545.191-1.842.414-3.675.661-5.509 1.865-13.681 5.204-24.928 5.714-38.546.024-.561-.431-.901-.877-.901-.303 0-.605.15-.773.482-1.785 3.517-4.358 6.979-7.402 10.054-4.192 4.252-9.267 7.753-14.367 9.579-6.43 2.308-13.267 3.375-20.112 3.817-.39-.6-.709-1.241-.972-1.912a11.11 11.11 0 0 1-.733-5.043c11.132-1.715 21.466-8.346 27.61-17.846 3.347-5.169 6.151-12.33 12.167-14.899 3.108-1.328 6.391-1.13 9.65-.751l1.514.182c2.167.269 4.478.419 6.781.443 1.61.016 3.211-.032 4.757-.158.279-.016.558-.048.829-.071 13.131-1.249 14.757 17.53 17.195 26.358.184.68.367 1.368.518 2.055z" fill="#c4c4c4"/><path d="M268.967 377.188c0 .016-.008.031-.008.047-.685 3.012-2.526 5.659-4.765 7.785l-1.378 1.218-1.57-7.572c0-6.837-3.905-14.298-2.964-21.237.095-.656.988-.719 1.187-.095 1.283 4.134 3.857 7.84 6.048 11.634 1.474 2.545 2.805 5.359 3.45 8.22z" class="J"/><path d="M262.298 506.119c-.741 2.774-2.128 5.383-3.49 7.928-1.044 1.928-2.144 3.936-3.953 5.169-2.311 1.572-5.219 1.541-8.04 1.067a4.24 4.24 0 0 1-1.163-.822c-.048-.048-.096-.064-.136-.072-.199-.466-.342-.948-.39-1.454-.207-2.142 1.458-2.79 2.701-3.944l3.108-2.932 1.131-1.185c1.626-1.787 2.686-4.229 4.861-5.28a4.89 4.89 0 0 1 4.51.174c.136.071.255.158.375.245.183.355.35.727.486 1.106z" fill="#504e69"/><path d="M261.723 504.839l.096.174a2.73 2.73 0 0 0-.374-.245c-1.355-.79-3.1-.853-4.51-.174-2.168 1.051-3.236 3.494-4.861 5.28l-1.132 1.185c.694-1.675 1.475-3.351 1.793-5.105.191-1.083.207-2.174.104-3.257.757-.703 1.673-1.24 2.669-1.525 1.251-.356 2.606-.308 3.849.087l.701.996 1.665 2.584z" class="I"/><path d="M262.321 403.68c-.079 2.166-.271 4.252-.765 6.355a25.18 25.18 0 0 1-4.279.948c-2.9.403-5.888.379-8.813.174l-2.988-.261c-3.641-.363-7.267-.853-10.908-.956-.056 0-.104-.008-.16-.008-.796-1.81-1.673-3.596-2.605-5.343 1.832.016 3.649-.458 5.466-.774 6.916-1.21 13.992-.222 20.996.237 1.331.079 2.821.079 4.056-.372z" class="B"/><path d="M258.68 500.263l.669.996c-1.243-.395-2.589-.443-3.848-.087-.996.284-1.913.814-2.67 1.525-.103-1.083-.319-2.158-.581-3.225 1.641-.814 3.434-1.327 5.259-1.509.302.798.717 1.573 1.171 2.3z" class="K"/><g class="G"><path d="M258.186 494.81l.773 3.066-1.443.079c-.342-.925-.525-1.889-.446-2.861l1.116-.284z"/><path d="M258.186 494.809l-1.115.285c-.08.98.111 1.936.446 2.861a15.26 15.26 0 0 0-5.259 1.509c-.909.443-1.777.98-2.582 1.597l-.422-1.217-1.968-5.912c-1.419-3.794-3.076-7.485-4.829-11.137l-6.996-14.131c-1.204-2.474-2.359-4.964-3.443-7.485-1.577-3.683-3.115-7.516-4.159-11.429-.223-.829-.414-1.667-.59-2.513-1.083-5.335-1.315-11.018-1.585-16.447-.303-5.936-.311-11.887-.032-17.823a176.79 176.79 0 0 1 .557-8.228 8.75 8.75 0 0 1 5.252 2.656c.86.925 1.521 2.039 2.47 2.869a6.63 6.63 0 0 0 .613.474c1.498 1.02 3.395 1.407 5.212 1.699a88.94 88.94 0 0 0 5.426.712 64.46 64.46 0 0 1-.399 2.489c-2.127 4.877-4.302 8.189-6.063 13.792-1.722 5.501-3.18 11.271-2.479 17.001.335 2.735 1.148 5.335 2.256 7.832 2.119 4.758 5.33 9.145 8.454 13.373 2.04 2.751 4.088 5.58 5.841 8.544 2.071 6.118 3.785 12.361 5.394 18.629z"/></g><path d="M257.278 410.984l-.853 2.624c-3.753.086-7.522-.064-11.251-.443l.303-2.276a97.1 97.1 0 0 0 2.988.26c2.924.214 5.912.23 8.813-.165z" class="E"/><path d="M245.174 413.165c3.737.379 7.498.53 11.251.443-4.016 11.974-9.905 23.394-14.654 35.163l-.207-.917c-2.231-10.646 1.339-21.371 3.211-32.191l.399-2.498z" class="G"/><path d="M248.911 337.536a14.86 14.86 0 0 1 1.179 3.469l-4.757.158-1.235-9.263c2.04 1.439 3.721 3.391 4.813 5.636z" class="I"/><path d="M248.281 464.712c1.698 3.754 3.172 7.596 4.502 11.484-1.745-2.964-3.801-5.793-5.84-8.544-3.124-4.22-6.343-8.607-8.455-13.373l1.259-.245c.646-1.762 1.323-3.517 2.024-5.263 1.347 5.579 4.144 10.701 6.51 15.941zm-2.812-53.824l-.303 2.276-5.427-.711c-1.816-.293-3.705-.68-5.211-1.699l.024-.815c3.649.103 7.283.585 10.917.949z" class="E"/><path d="M244.098 331.899l1.235 9.263c-2.303-.024-4.614-.174-6.781-.442l-1.514-.182c-.048-1.881-.271-3.754-.661-5.596-.088-.419-.2-.869-.518-1.162-.367-.348-.917-.403-1.419-.442l-1.769-.143c.965-.355 1.769-1.122 2.176-2.07.35-.815.422-1.747.892-2.498.422-.672 1.116-1.122 1.881-1.359-.008.094-.016.181-.008.276.103 1.439 1.801 2.063 3.147 2.569.948.356 1.857.814 2.709 1.359.216.127.423.277.63.427z" fill="#c3a196"/><path d="M238.711 429.454c1.761-5.604 3.937-8.915 6.064-13.792-1.872 10.812-5.442 21.545-3.211 32.192a30.73 30.73 0 0 0 .207.916l-2.024 5.264-1.259.245c-1.107-2.497-1.92-5.098-2.255-7.832-.701-5.73.757-11.492 2.478-16.993z" class="E"/><path d="M238.568 322.62c.701.561.486 1.692.048 2.474-.399.696-.94 1.391-1.004 2.174-.765.237-1.458.687-1.881 1.359-.47.751-.533 1.683-.892 2.498-.406.948-1.211 1.715-2.175 2.07-1.315-.158-2.351-.537-3.355-1.92-1.697-2.34-2.215-5.335-2.398-8.22-.176-2.743-.606-5.722-.359-8.56l.104-.948c2.964.221 5.721 2.561 6.294 5.517.144.75.168 1.525.407 2.244.239.727.765 1.423 1.506 1.573 1.259.261 2.701-1.051 3.705-.261z" fill="#ddc2b0"/><path d="M234.56 409.932l-.024.814a6.78 6.78 0 0 1-.614-.474c-.948-.838-1.609-1.952-2.47-2.869-1.362-1.454-3.259-2.411-5.251-2.656l.271-2.742c.104.19.223.371.359.545.996 1.217 2.645 1.865 4.175 2l.789.039 2.606 5.343h.159z" class="E"/><path d="M231.962 357.042c.454 0 .9.34.877.901-.51 13.626-3.857 24.873-5.714 38.546-.247 1.834-.47 3.667-.661 5.509-.709-1.352-.446-3.051-.709-4.553-.574-3.319-1.036-6.647-1.371-9.998l-.111-1.138a140.04 140.04 0 0 1-.478-18.739c3.043-3.075 5.617-6.545 7.402-10.054.167-.332.47-.474.765-.474z" class="J"/><path d="M232.01 461.187l3.442 7.485c-1.514 6.971-3.808 19.815-4.757 26.888-.302.103-.621.15-.94.158-.056 0-.119 0-.175-.008-.861-.039-1.674-.371-2.47-.695l-3.913-1.597-1.92-.79c.605-6.181 2.255-18.566 3.235-24.43l3.331-18.439c1.052 3.912 2.589 7.745 4.167 11.428z" class="E"/><path d="M229.763 495.718l-.159 5.722c-.486-.521-1.02-.996-1.618-1.375-1.211-.767-2.773-1.114-4.103-.561-1.283.537-2.088 1.754-2.726 3.027a40.01 40.01 0 0 0 1.817-6.647c.152-.83.215-1.644.223-2.466l3.913 1.597c.789.324 1.609.656 2.47.695.064.008.127.008.183.008z" class="K"/><path d="M229.604 501.441l-.718 7.129-.239.134c-.557.055-1.115.04-1.673-.024h-.008l-3.45-.861-3.108-1.17c-.048-.016-.08-.016-.111-.008l-.71-.703 1.132-2.49.422-.893c.008-.008.016-.016.008-.024.638-1.272 1.442-2.489 2.725-3.027 1.323-.553 2.885-.205 4.104.561.614.38 1.139.846 1.626 1.376z" fill="#504e69"/><path d="M226.201 401.344l-.558 6.608a45.83 45.83 0 0 1-1.251-20.505l1.371 8.031c.263 1.206 0 2.571.709 3.656l-.271 2.21z" class="J"/><path d="M187.611 374.025a11.11 11.11 0 0 0 .733 5.043l-5.705.751c-2.909.379-5.028 2.157-7.769 1.991.43-1.296.43-2.647 1.163-3.872.932-1.565 2.375-2.529 4.12-2.996 1.569-.419 3.219-.458 4.836-.6l2.622-.317z" class="K"/><path d="M227.635 316.623a4.51 4.51 0 0 1 3.012 2" stroke="#9b786e" stroke-width=".51" stroke-miterlimit="10" stroke-linecap="round" stroke-linejoin="round"/><path d="M226.902 321.097c-.263.932-.813 1.652-1.179 2.513-.383.909.557 1.178 1.434 1.391l-.255-3.904z" fill="#dcc0af"/><path d="M227.794 320.385c.399 0 .972-.024 1.395.118a.83.83 0 0 0 .024-.197c-.016-.411-.343-.727-.733-.712s-.702.364-.686.775z" fill="#444"/><defs><filter id="B" x="82.066" y="285.081" width="169.549" height="242.989" filterUnits="userSpaceOnUse" color-interpolation-filters="sRGB"><feFlood flood-opacity="0" result="A"/><feColorMatrix in="SourceAlpha" values="0 0 0 0 0 0 0 0 0 0 0 0 0 0 0 0 0 0 127 0"/><feOffset dy="4"/><feGaussianBlur stdDeviation="2"/><feColorMatrix values="0 0 0 0 0 0 0 0 0 0 0 0 0 0 0 0 0 0 0.25 0"/><feBlend in2="A"/><feBlend in="SourceGraphic"/></filter><path id="C" d="M10.43 111.828c-.882-5.511-5.182-9.884-10.735-10.657-5.115-.705-11.386 1.849-12.262 7.476-.62 3.996 5.499 5.723 6.125 1.691.444-2.859 3.984-3.455 6.368-2.665 2.658.882 3.966 3.206 4.385 5.846.639 4.02 6.758 2.311 6.119-1.691z"/><path id="D" d="M26.555 100.923c-5.882-.116-12.907 5.65-12.858 11.714.036 4.088 6.386 4.094 6.35 0-.024-2.591 4.124-5.389 6.472-5.297 3.4.127 4.659 3.856 4.902 6.708.341 4.045 6.697 4.082 6.35 0-.529-6.289-4.075-12.985-11.216-13.125z"/><path id="E" d="M53.615 101.372c-6.952.852-11.052 4.872-10.979 11.976.043 4.082 6.393 4.094 6.35 0-.03-2.95.578-4.476 3.461-5.297 1.569-.444 6.782-1.205 6.21 1.861-.748 3.996 5.371 5.705 6.125 1.691 1.277-6.843-4.866-11.003-11.167-10.231z"/><path id="F" d="M93.528 111.834c-2.013-5.523-6.758-9.574-12.822-9.61-6.07-.037-12.499 4.258-12.341 10.778.097 4.081 6.447 4.093 6.35 0-.085-3.522 4.489-4.823 7.25-4.288 2.591.505 4.543 2.354 5.438 4.811 1.387 3.808 7.524 2.165 6.125-1.691z"/><path id="G" d="M151.049 111.828c-.882-5.511-5.182-9.884-10.735-10.657-5.116-.705-11.386 1.849-12.262 7.476-.621 3.996 5.498 5.723 6.125 1.691.444-2.859 3.984-3.455 6.368-2.665 2.658.882 3.966 3.206 4.385 5.846.639 4.02 6.758 2.311 6.119-1.691z"/><path id="H" d="M167.174 100.922c-5.882-.116-12.907 5.65-12.859 11.714.037 4.088 6.387 4.094 6.35 0-.024-2.591 4.124-5.389 6.472-5.297 3.4.127 4.659 3.856 4.902 6.708.341 4.045 6.697 4.082 6.351 0-.53-6.289-4.082-12.985-11.216-13.125z"/><path id="I" d="M194.228 101.372c-6.952.852-11.052 4.872-10.979 11.976.043 4.082 6.393 4.094 6.35 0-.03-2.95.578-4.476 3.461-5.297 1.569-.444 6.782-1.205 6.21 1.861-.748 3.996 5.371 5.705 6.125 1.691 1.284-6.843-4.86-11.003-11.167-10.231z"/><path id="J" d="M234.141 111.834c-2.013-5.523-6.758-9.574-12.822-9.61-6.07-.037-12.499 4.258-12.341 10.778.097 4.081 6.447 4.093 6.35 0-.085-3.522 4.489-4.823 7.25-4.288 2.591.505 4.544 2.354 5.438 4.811 1.393 3.808 7.53 2.165 6.125-1.691z"/><path id="K" d="M291.667 111.828c-.882-5.511-5.182-9.884-10.735-10.657-5.115-.705-11.386 1.849-12.262 7.476-.621 3.996 5.498 5.723 6.125 1.691.444-2.859 3.984-3.455 6.368-2.665 2.658.882 3.966 3.206 4.385 5.846.639 4.02 6.758 2.311 6.119-1.691z"/><path id="L" d="M307.792 100.922c-5.882-.116-12.907 5.65-12.858 11.714.036 4.088 6.386 4.094 6.35 0-.025-2.591 4.123-5.389 6.471-5.297 3.4.127 4.659 3.856 4.903 6.708.34 4.045 6.696 4.082 6.35 0-.536-6.289-4.082-12.985-11.216-13.125z"/><path id="M" d="M3.046 123.542c-6.35-.231-13.722 4.574-13.217 11.532.292 4.051 6.648 4.082 6.35 0-.511-7.092 12.171-6.648 12.688.639.286 4.051 6.642 4.087 6.35 0-.468-6.575-5.413-11.928-12.171-12.171z"/><path id="N" d="M41.511 133.749c-1.521-2.847-2.153-6.107-4.471-8.491-2.141-2.196-5.17-3.157-8.138-2.238-6.228 1.922-8.971 8.977-7.925 14.926.706 4.02 6.831 2.317 6.125-1.691-.401-2.263 1.089-7.542 4.246-7.275 2.482.207 3.735 6.192 4.684 7.974 1.922 3.607 7.402.402 5.48-3.205z"/><path id="O" d="M68.31 128.865a10.35 10.35 0 0 0-13.369-6.156c-5.279 1.941-10.03 8.151-8.418 13.911 1.101 3.929 7.232 2.262 6.125-1.691-1.223-4.367 7.572-9.653 9.543-4.38 1.411 3.796 7.548 2.154 6.119-1.684z"/><path id="P" d="M96.508 135.178c-2.549-6.034-7.779-11.861-14.981-10.845-6.204.87-9.628 7.001-8.473 12.846.791 4.008 6.916 2.311 6.125-1.691-.693-3.51 2.634-5.651 5.754-4.532 3.212 1.156 4.848 4.477 6.088 7.427 1.587 3.753 7.062.517 5.486-3.205z"/><path id="Q" d="M15.588 158.182c-2.494-6.721-6.733-11.49-14.494-10.638-5.857.644-13.588 4.555-10.097 11.538 1.825 3.656 7.305.444 5.486-3.205-.675-1.357 6.891-2.184 7.646-2.044 3.169.602 4.312 3.26 5.34 6.034 1.405 3.801 7.542 2.159 6.119-1.685z"/><path id="R" d="M43.834 154.988c-2.591-5.334-7.627-9.087-13.752-7.645-5.079 1.198-11.332 5.158-10.176 11.045.785 4.009 6.91 2.312 6.125-1.691-.268-1.368 5.772-3.26 6.454-3.29 3.072-.14 4.671 2.317 5.87 4.781 1.782 3.679 7.256.462 5.48-3.2z"/><path id="S" d="M69.49 152.385c-2.707-4.391-7.749-6.97-12.907-5.766-5.152 1.205-9.257 5.985-8.862 11.368.298 4.051 6.654 4.082 6.35 0-.438-5.894 7.244-6.763 9.939-2.402 2.135 3.479 7.633.292 5.48-3.2z"/><path id="T" d="M126.841 160.311c-1.192-6.788-7.11-11.891-14.081-11.636-6.131.225-13.095 5.091-11.198 11.916 1.095 3.929 7.22 2.262 6.125-1.691-.979-3.516 5.438-4.191 7.482-3.656 3.266.858 5 3.595 5.553 6.752.706 4.02 6.824 2.317 6.119-1.685z"/><path id="U" d="M27.516 172.043c-6.496-.505-12.846 5.116-12.755 11.654.055 4.081 6.405 4.094 6.35 0-.036-2.919 3.461-6.082 6.496-5.243 3.272.9 3.497 5.669 3.723 8.363.341 4.045 6.691 4.082 6.35 0-.523-6.337-2.506-14.172-10.164-14.774z"/><path id="V" d="M67.136 182.815c-2.664-6.806-6.812-11.593-14.713-10.029-5.912 1.167-12.937 6.721-8.625 13.241 2.244 3.394 7.743.219 5.48-3.206-1.782-2.7 4.367-4.087 6.094-4.069 3.376.043 4.562 2.993 5.638 5.748 1.478 3.765 7.621 2.129 6.125-1.685z"/><path id="W" d="M122.407 183.594c-2.36-7.007-6.667-10.815-14.355-10.073-6.149.59-12.584 4.422-9.592 11.411 1.606 3.747 7.074.517 5.481-3.206-.718-1.684 6.021-2.043 6.836-1.97 3.406.292 4.483 2.512 5.499 5.529 1.301 3.85 7.438 2.195 6.131-1.691z"/><path id="X" d="M143.665 123.542c-6.35-.231-13.722 4.574-13.217 11.526.292 4.051 6.648 4.082 6.35 0-.511-7.092 12.171-6.648 12.688.639.286 4.051 6.642 4.087 6.35 0-.474-6.569-5.419-11.922-12.171-12.165z"/><path id="Y" d="M182.124 133.749c-1.521-2.847-2.153-6.107-4.471-8.491-2.141-2.196-5.17-3.157-8.138-2.238-6.228 1.922-8.971 8.977-7.925 14.926.705 4.02 6.83 2.317 6.125-1.691-.402-2.263 1.095-7.542 4.245-7.275 2.482.207 3.735 6.192 4.684 7.974 1.928 3.607 7.408.402 5.48-3.205z"/><path id="Z" d="M208.923 128.865a10.35 10.35 0 0 0-13.369-6.156c-5.28 1.941-10.03 8.151-8.418 13.911 1.101 3.929 7.232 2.262 6.125-1.691-1.223-4.367 7.572-9.653 9.543-4.38 1.417 3.796 7.554 2.154 6.119-1.684z"/><path id="a" d="M237.127 135.178c-2.548-6.034-7.779-11.861-14.981-10.845-6.204.87-9.628 7.001-8.472 12.846.79 4.008 6.915 2.311 6.125-1.691-.694-3.51 2.633-5.651 5.754-4.532 3.211 1.156 4.847 4.477 6.088 7.427 1.588 3.753 7.056.517 5.486-3.205z"/><path id="b" d="M156.201 158.182c-2.494-6.721-6.733-11.49-14.494-10.638-5.858.644-13.589 4.555-10.097 11.538 1.824 3.656 7.305.444 5.48-3.205-.675-1.357 6.891-2.184 7.646-2.044 3.168.602 4.312 3.26 5.34 6.034 1.411 3.801 7.554 2.159 6.125-1.685z"/><path id="c" d="M184.448 154.988c-2.592-5.334-7.628-9.087-13.753-7.645-5.078 1.198-11.331 5.158-10.176 11.045.785 4.009 6.91 2.312 6.125-1.691-.267-1.368 5.773-3.26 6.454-3.29 3.071-.14 4.671 2.317 5.869 4.781 1.782 3.679 7.263.462 5.481-3.2z"/><path id="d" d="M210.109 152.385c-2.707-4.391-7.749-6.97-12.907-5.766-5.151 1.205-9.257 5.985-8.862 11.368.298 4.051 6.654 4.082 6.35 0-.438-5.894 7.244-6.763 9.939-2.402 2.135 3.479 7.633.292 5.48-3.2z"/><path id="e" d="M267.46 160.311c-1.192-6.788-7.11-11.891-14.081-11.636-6.131.225-13.095 5.091-11.197 11.916 1.094 3.929 7.219 2.262 6.125-1.691-.98-3.516 5.437-4.191 7.481-3.656 3.266.858 5 3.595 5.553 6.752.706 4.02 6.825 2.317 6.119-1.685z"/><path id="f" d="M168.135 172.043c-6.496-.505-12.846 5.116-12.755 11.654.055 4.081 6.405 4.094 6.35 0-.043-2.919 3.461-6.082 6.496-5.243 3.272.9 3.497 5.669 3.722 8.363.341 4.045 6.691 4.082 6.35 0-.523-6.337-2.506-14.172-10.163-14.774z"/><path id="g" d="M207.755 182.815c-2.664-6.806-6.812-11.593-14.713-10.029-5.912 1.167-12.937 6.721-8.625 13.241 2.244 3.394 7.743.219 5.486-3.206-1.782-2.7 4.367-4.087 6.095-4.069 3.376.043 4.562 2.993 5.638 5.748 1.466 3.765 7.609 2.129 6.119-1.685z"/><path id="h" d="M263.026 183.594c-2.36-7.007-6.666-10.815-14.355-10.073-6.149.59-12.584 4.422-9.592 11.411 1.606 3.747 7.074.517 5.481-3.206-.718-1.684 6.021-2.043 6.836-1.97 3.406.292 4.483 2.512 5.499 5.529 1.301 3.85 7.439 2.195 6.131-1.691z"/><path id="i" d="M284.277 123.542c-6.35-.231-13.722 4.574-13.217 11.526.292 4.051 6.648 4.082 6.35 0-.511-7.092 12.171-6.648 12.688.639.286 4.051 6.642 4.087 6.35 0-.469-6.569-5.413-11.922-12.171-12.165z"/><path id="j" d="M322.742 133.749c-1.521-2.847-2.153-6.107-4.47-8.491-2.141-2.196-5.171-3.157-8.139-2.238-6.228 1.922-8.971 8.977-7.925 14.926.705 4.02 6.83 2.317 6.125-1.691-.402-2.263 1.095-7.542 4.245-7.275 2.482.207 3.735 6.192 4.684 7.974 1.922 3.607 7.408.402 5.48-3.205z"/><path id="k" d="M296.819 158.182c-2.494-6.721-6.733-11.49-14.494-10.638-5.858.644-13.588 4.555-10.097 11.538 1.825 3.656 7.305.444 5.48-3.205-.675-1.357 6.891-2.184 7.646-2.044 3.169.602 4.312 3.26 5.34 6.034 1.411 3.801 7.554 2.159 6.125-1.685z"/><path id="l" d="M325.066 154.988c-2.591-5.334-7.628-9.087-13.753-7.645-5.078 1.198-11.331 5.158-10.175 11.045.784 4.009 6.909 2.312 6.125-1.691-.268-1.368 5.772-3.26 6.453-3.29 3.072-.14 4.671 2.317 5.869 4.781 1.783 3.679 7.263.462 5.481-3.2z"/><path id="m" d="M308.753 172.043c-6.496-.505-12.846 5.116-12.755 11.654.055 4.081 6.405 4.094 6.35 0-.043-2.919 3.461-6.082 6.496-5.243 3.272.9 3.497 5.669 3.722 8.363.341 4.045 6.691 4.082 6.35 0-.529-6.337-2.512-14.172-10.163-14.774z"/><path id="n" d="M112.462 219.711c-7.998-.784-14.306 6.149-13.716 13.917.31 4.051 6.66 4.081 6.35 0-.322-4.234 2.701-8.546 7.427-7.506 3.278.724 5.279 3.881 5.304 7.086.03 4.087 6.38 4.093 6.35 0-.049-6.66-4.891-12.828-11.715-13.497z"/><path id="o" d="M97.561 251.747c-1.375-2.633-1.873-5.62-4.227-7.651-2.701-2.336-6.946-2.512-10.31-2.056-6.332.858-11.508 6.873-8.114 13.15 1.946 3.595 7.427.395 5.48-3.205-1.916-3.54 5.304-4.045 7.141-3.625 3.005.693 3.272 4.148 4.543 6.587 1.892 3.631 7.372.426 5.486-3.2z"/><path id="p" d="M-2.617 266.01c-7.341.547-11.763 8.479-11.021 15.218.444 4.02 6.794 4.063 6.35 0-.347-3.175.596-7.487 4.124-8.6 3.406-1.077 8.017 2.998 7.944 6.447-.085 4.087 6.265 4.087 6.35 0 .14-6.66-7.007-13.564-13.746-13.065z"/><path id="q" d="M92.664 275.103c-3.199-13.344-27.036-7.122-22.28 5.481 1.429 3.789 7.573 2.147 6.125-1.691-1.819-4.818 8.74-7.506 10.036-2.105.949 3.978 7.074 2.293 6.119-1.685z"/><path id="r" d="M122.407 279.343c-2.36-7.007-6.667-10.815-14.355-10.073-6.149.59-12.584 4.422-9.592 11.411 1.606 3.747 7.074.517 5.481-3.206-.718-1.684 6.021-2.043 6.836-1.97 3.406.286 4.483 2.512 5.499 5.529 1.301 3.85 7.438 2.195 6.131-1.691z"/><path id="s" d="M10.43 303.326c-.882-5.511-5.182-9.884-10.735-10.657-5.115-.705-11.386 1.85-12.262 7.476-.62 3.996 5.499 5.723 6.125 1.691.444-2.859 3.984-3.455 6.368-2.664 2.658.881 3.966 3.205 4.385 5.845.639 4.02 6.758 2.311 6.119-1.691z"/><path id="t" d="M253.075 219.711c-7.998-.784-14.306 6.149-13.716 13.917.311 4.051 6.661 4.081 6.35 0-.322-4.234 2.701-8.546 7.427-7.506 3.278.724 5.279 3.881 5.304 7.086.03 4.087 6.38 4.093 6.35 0-.043-6.66-4.884-12.828-11.715-13.497z"/><path id="u" d="M233.283 275.103c-3.199-13.344-27.036-7.122-22.28 5.481 1.43 3.789 7.573 2.147 6.125-1.691-1.818-4.818 8.741-7.506 10.036-2.105.949 3.978 7.074 2.293 6.119-1.685z"/><path id="v" d="M263.026 279.343c-2.36-7.007-6.666-10.815-14.355-10.073-6.149.59-12.584 4.422-9.592 11.411 1.606 3.747 7.074.517 5.481-3.206-.718-1.684 6.021-2.043 6.836-1.97 3.406.286 4.483 2.512 5.499 5.529 1.301 3.85 7.439 2.195 6.131-1.691z"/><path id="w" d="M53.615 388.619c-6.952.852-11.052 4.872-10.979 11.977.043 4.081 6.393 4.093 6.35 0-.03-2.95.578-4.477 3.461-5.298 1.569-.444 6.782-1.205 6.21 1.861-.748 3.996 5.371 5.705 6.125 1.691 1.277-6.849-4.866-11.003-11.167-10.231z"/><path id="x" d="M93.528 399.081c-2.013-5.523-6.758-9.574-12.822-9.61-6.07-.037-12.499 4.258-12.341 10.778.097 4.081 6.447 4.093 6.35 0-.085-3.522 4.489-4.823 7.25-4.288 2.591.505 4.543 2.354 5.438 4.811 1.387 3.808 7.524 2.159 6.125-1.691z"/><path id="y" d="M143.665 315.039c-6.35-.231-13.722 4.574-13.217 11.526.292 4.051 6.648 4.082 6.35 0-.511-7.092 12.171-6.648 12.688.639.286 4.051 6.642 4.087 6.35 0-.474-6.569-5.419-11.921-12.171-12.165z"/><path id="z" d="M208.923 320.362c-2.013-5.401-7.883-8.169-13.369-6.156-5.28 1.941-10.03 8.151-8.418 13.911 1.101 3.929 7.232 2.262 6.125-1.691-1.223-4.367 7.572-9.653 9.543-4.379 1.417 3.795 7.554 2.153 6.119-1.685z"/><path id="AA" d="M184.448 346.485c-2.592-5.334-7.628-9.087-13.753-7.645-5.078 1.198-11.331 5.158-10.176 11.045.785 4.009 6.91 2.312 6.125-1.691-.267-1.368 5.773-3.26 6.454-3.29 3.071-.14 4.671 2.317 5.869 4.781 1.782 3.68 7.263.462 5.481-3.2z"/><path id="AB" d="M138.002 361.758c-7.341.547-11.763 8.479-11.021 15.218.444 4.021 6.794 4.063 6.35 0-.346-3.175.596-7.487 4.124-8.6 3.406-1.077 8.017 2.998 7.944 6.447-.085 4.087 6.265 4.087 6.35 0 .14-6.66-7.007-13.564-13.747-13.065z"/><path id="AC" d="M207.755 374.312c-2.664-6.806-6.812-11.593-14.713-10.029-5.912 1.167-12.937 6.721-8.625 13.241 2.244 3.394 7.743.219 5.486-3.205-1.782-2.701 4.367-4.088 6.095-4.07 3.376.043 4.562 2.993 5.638 5.748 1.466 3.765 7.609 2.129 6.119-1.685z"/><path id="AD" d="M167.174 388.168c-5.882-.116-12.907 5.65-12.859 11.714.037 4.088 6.387 4.094 6.35 0-.024-2.591 4.124-5.389 6.472-5.297 3.4.127 4.659 3.856 4.902 6.709.341 4.044 6.697 4.081 6.351 0-.53-6.29-4.082-12.986-11.216-13.126z"/><path id="AE" d="M194.228 388.618c-6.952.852-11.052 4.872-10.979 11.977.043 4.081 6.393 4.093 6.35 0-.03-2.95.578-4.477 3.461-5.298 1.569-.444 6.782-1.205 6.21 1.861-.748 3.996 5.371 5.705 6.125 1.691 1.284-6.849-4.86-11.003-11.167-10.231z"/><path id="AF" d="M234.141 399.08c-2.013-5.523-6.758-9.574-12.822-9.61-6.07-.037-12.499 4.258-12.341 10.778.097 4.081 6.447 4.093 6.35 0-.085-3.522 4.489-4.823 7.25-4.288 2.591.505 4.544 2.354 5.438 4.811 1.393 3.808 7.53 2.159 6.125-1.691z"/><path id="AG" d="M260.958 400.144c-1.782-6.113-5.833-11.69-12.907-10.76-2.926.384-7.086 1.679-8.996 4.088-2.068 2.609-1.527 5.991-.529 8.923 1.308 3.844 7.445 2.195 6.125-1.691-.511-1.503-1.119-2.713.231-3.741 1.253-.949 4.294-1.691 5.754-1.277 2.524.717 3.552 3.923 4.197 6.143 1.143 3.917 7.268 2.25 6.125-1.685z"/><path id="AH" d="M284.277 315.039c-6.35-.231-13.722 4.574-13.217 11.526.292 4.051 6.648 4.082 6.35 0-.511-7.092 12.171-6.648 12.688.639.286 4.051 6.642 4.087 6.35 0-.469-6.569-5.413-11.921-12.171-12.165z"/><path id="AI" d="M325.066 346.485c-2.591-5.334-7.628-9.087-13.753-7.645-5.078 1.198-11.331 5.158-10.175 11.045.784 4.009 6.909 2.312 6.125-1.691-.268-1.368 5.772-3.26 6.453-3.29 3.072-.14 4.671 2.317 5.869 4.781 1.783 3.68 7.263.462 5.481-3.2z"/><path id="AJ" d="M278.621 361.758c-7.342.547-11.764 8.479-11.022 15.218.444 4.021 6.794 4.063 6.35 0-.346-3.175.596-7.487 4.124-8.6 3.406-1.077 8.017 2.998 7.944 6.447-.085 4.087 6.265 4.087 6.35 0 .134-6.66-7.013-13.564-13.746-13.065z"/><path id="AK" d="M307.792 388.168c-5.882-.116-12.907 5.65-12.858 11.714.036 4.088 6.386 4.094 6.35 0-.025-2.591 4.123-5.389 6.471-5.297 3.4.127 4.659 3.856 4.903 6.709.34 4.044 6.696 4.081 6.35 0-.536-6.29-4.082-12.986-11.216-13.126z"/><path id="AL" d="M3.046 410.79c-6.35-.231-13.722 4.574-13.217 11.526.292 4.051 6.648 4.082 6.35 0-.511-7.092 12.171-6.648 12.688.639.286 4.051 6.642 4.087 6.35 0-.468-6.569-5.413-11.921-12.171-12.165z"/><path id="AM" d="M68.31 416.112c-2.013-5.401-7.883-8.169-13.369-6.156-5.279 1.941-10.03 8.151-8.418 13.911 1.101 3.929 7.232 2.262 6.125-1.691-1.223-4.367 7.572-9.653 9.543-4.379 1.411 3.795 7.548 2.153 6.119-1.685z"/><path id="AN" d="M96.508 422.426c-2.549-6.034-7.779-11.861-14.981-10.845-6.204.87-9.628 7.001-8.473 12.846.791 4.008 6.916 2.311 6.125-1.691-.693-3.51 2.634-5.651 5.754-4.531 3.212 1.155 4.848 4.476 6.088 7.426 1.587 3.747 7.062.517 5.486-3.205z"/><path id="AO" d="M27.516 459.29c-6.496-.504-12.846 5.116-12.755 11.654.055 4.082 6.405 4.094 6.35 0-.036-2.919 3.461-6.082 6.496-5.243 3.272.9 3.497 5.669 3.723 8.364.341 4.044 6.691 4.081 6.35 0-.523-6.338-2.506-14.179-10.164-14.775z"/><path id="AP" d="M67.136 470.062c-2.664-6.806-6.812-11.593-14.713-10.029-5.912 1.167-12.937 6.721-8.625 13.241 2.244 3.394 7.743.219 5.48-3.205-1.782-2.701 4.367-4.088 6.094-4.07 3.376.043 4.562 2.993 5.638 5.748 1.478 3.765 7.621 2.129 6.125-1.685z"/><path id="AQ" d="M237.127 422.424c-2.548-6.034-7.779-11.861-14.981-10.845-6.204.87-9.628 7.001-8.472 12.846.79 4.008 6.915 2.311 6.125-1.691-.694-3.51 2.633-5.651 5.754-4.531 3.211 1.155 4.847 4.476 6.088 7.426 1.588 3.747 7.056.517 5.486-3.205z"/><path id="AR" d="M238.18 443.245c-1.375-2.634-1.874-5.621-4.227-7.652-2.701-2.336-6.947-2.512-10.31-2.056-6.332.858-11.508 6.873-8.114 13.15 1.946 3.595 7.427.396 5.486-3.205-1.916-3.54 5.304-4.045 7.141-3.625 3.005.693 3.272 4.148 4.544 6.587 1.885 3.631 7.365.426 5.48-3.199z"/><path id="AS" d="M168.135 459.289c-6.496-.504-12.846 5.116-12.755 11.654.055 4.082 6.405 4.094 6.35 0-.043-2.919 3.461-6.082 6.496-5.243 3.272.9 3.497 5.669 3.722 8.364.341 4.044 6.691 4.081 6.35 0-.523-6.338-2.506-14.179-10.163-14.775z"/><path id="AT" d="M151.049 494.823c-.882-5.511-5.182-9.884-10.735-10.656-5.116-.706-11.386 1.849-12.262 7.475-.621 3.996 5.498 5.723 6.125 1.691.444-2.859 3.984-3.455 6.368-2.664 2.658.882 3.966 3.205 4.385 5.845.639 4.02 6.758 2.311 6.119-1.691z"/><path id="AU" d="M308.753 459.289c-6.496-.504-12.846 5.116-12.755 11.654.055 4.082 6.405 4.094 6.35 0-.043-2.919 3.461-6.082 6.496-5.243 3.272.9 3.497 5.669 3.722 8.364.341 4.044 6.691 4.081 6.35 0-.529-6.338-2.512-14.179-10.163-14.775z"/><path id="AV" d="M291.667 494.823c-.882-5.511-5.182-9.884-10.735-10.656-5.115-.706-11.386 1.849-12.262 7.475-.621 3.996 5.498 5.723 6.125 1.691.444-2.859 3.984-3.455 6.368-2.664 2.658.882 3.966 3.205 4.385 5.845.639 4.02 6.758 2.311 6.119-1.691z"/></defs></svg>