<svg xmlns="http://www.w3.org/2000/svg" width="310" height="602" fill="none" xmlns:v="https://vecta.io/nano"><path fill="#3869e5" d="M0 2h310v600H0z"/><mask id="A" maskUnits="userSpaceOnUse" x="0" y="0" width="310" height="600" mask-type="alpha"><path fill="#3869e5" d="M0 0h310v600H0z"/></mask><g mask="url(#A)"><path d="M124.759 465.736c30.55-16 61.99-45.88 66.38-81.72 2.43-19.85-4.06-39.11-7.38-58.45-3.65-21.34-.57-42.37 11.29-60.75 23.22-36 72.46-46.33 108.62-23.55 15.13 9.53 28.15 23.29 46.51 26.34 14.39 2.39 29.43-1.5 41.04-10.3 28.2-21.37 26.44-59.88 7.36-86.52-11.91-16.64-27.58-30.49-35.94-49.5-8.94-20.34-10.2-43.82-3.93-65.1 12.71-43.08 56.7-69.03 100.46-64.29 7.72.84 7.66-11.25 0-12.08-70.75-7.67-128.48 56.54-114.09 126 3.52 17 11.46 31.92 22.16 45.46 11.45 14.5 26.29 28.04 31.79 46.22 6.18 20.44-1.84 43.92-21.17 54.04-21.49 11.24-39.97-.36-57.23-13.08-28.91-21.3-65.08-28.63-98.63-12.96-30.24 14.12-50.56 45.87-51.94 79.06-.89 21.5 7.39 41.81 9.2 63.01 2 23.34-8.26 43.07-23.83 59.82-26.6 28.6-65.79 44.97-104.84 43.64-41.47-1.41-81.29-23.81-105.24-57.52-19.15-26.96-27.21-86.2-71.76-80.81-7.62.92-7.72 13.02 0 12.08 24.94-3.02 35.96 22.41 43.83 41.45 6.44 15.56 14.05 29.93 24.83 42.96 21.09 25.5 51.16 44.03 83.57 50.89 33.48 7.08 68.72 1.48 98.94-14.34zm-45.14-316.801c11.25-13.88 12.89-32.34 13.03-49.529.17-20.22-.72-39.69 6.5-58.99 15.97-42.71 59.02-73.46 104.67-73.39 7.78.01 7.79-12.07 0-12.08-37.73-.06-73.32 18.46-96.74 47.8-11.37 14.25-19.88 30.96-23.81 48.81-4.42 20.05-1.47 40.39-3.17 60.66-2.29 27.26-19.53 42.58-45.9 47.71-13.65 2.66-27.42.69-36.75-10.42-8.05-9.58-11.71-22.11-15.52-33.8-13.32-40.829-25.54-85.429-62.33-111.73-31.58-22.56-83.08-19.99-100.67 19.07-3.17 7.03 7.24 13.19 10.43 6.1 8.33-18.51 27.43-28.26 47.35-27.96 21.74.33 40.75 13.67 54.26 29.81 15.38 18.37 24.06 41.08 31.47 63.58 6.44 19.549 10.84 41.92 22.87 59.029 21.51 30.6 72.7 22.01 94.31-4.67zm-55.19-33.959c37.93-6.51 31.57-63.88 34.42-90.61 4.93-46.25 43.04-76.79 88.1-80.94 4.61-.42 4.65-7.68 0-7.25-27.05 2.49-53.43 13.6-72.09 33.77-21.71 23.48-23.27 52.04-24.83 82.46-.9 17.49-2.46 41.53-18.98 52.24-26.93 17.46-35.26-24.29-37.42-41.15-3.34-26.09-15.31-48.84-35.84-65.56-22.45-18.29-51.21-26.73-79.84-22-4.59.76-2.64 7.75 1.93 6.99 38.66-6.39 78.86 14.9 97.11 49.31 10.28 19.38 6.99 41.31 15.24 61 5.36 12.81 17.32 24.29 32.2 21.74zm-.96-62.53c12.39-6.97 8.5-26.49 8.55-37.89.1-22.33 4.19-45.66 22.17-60.7 3.58-3-1.57-8.1-5.13-5.13-11.94 9.99-18.68 23.63-21.77 38.72-1.71 8.32-2.39 16.86-2.51 25.34-.11 7.77 1.89 16.96-.14 24.53-.74 6.95-6.27 8.29-16.61 4a29.98 29.98 0 0 1-3.39-13.45c-.34-3.09-.42-6.19-.88-9.27-1.19-8.06-4.06-15.79-8.43-22.67-7.84-12.34-19.6-21.03-33.44-25.52-4.45-1.44-6.35 5.56-1.93 6.99 11.5 3.73 21.31 10.79 28.17 20.8 7.25 10.59 8.04 21.43 9.66 33.81 1.53 11.65 11.69 28.3 25.68 20.44zm15.07 83.83c13.63-6.82 22-20.51 27.25-34.32 12.2-32.1 10.17-68.38 25.95-99.29 17.55-34.37 55.49-49.99 91.73-55.67 1.53-.24.88-2.57-.64-2.33-28.95 4.54-58.87 15.05-79.31 36.97-22.33 23.95-25.68 56.85-31.58 87.58-3.11 16.23-6.97 33.14-15.93 47.26-9.85 15.53-29.87 27.96-48.04 18.22-12.61-6.76-17.85-21.46-21.07-34.54-3.39-13.77-4.93-27.88-9.04-41.49-9.1-30.17-27.25-59.31-57.19-72.12-1.41-.61-2.65 1.48-1.22 2.09 29.68 12.7 47.47 41.59 56.33 71.52 4.1 13.86 5.56 28.24 9.18 42.21 2.99 11.55 7.59 23.95 17.34 31.52 10.55 8.18 24.57 8.23 36.24 2.39zm59.68 298.64c23.61-8.95 39.96-28.69 40.6-54.42.45-18.36-6.05-35.94-10.22-53.57-4.42-18.69-5.69-37.95-3.55-57.04 3.95-35.15 19.69-75.55 51.82-94.05 33.78-19.45 69.4 2.15 103.77 7.56 22.68 3.57 59.18-.83 46.21-32.26-16.36-39.64-31.53-81.66-15.51-124.34 13.56-36.15 53.17-64.48 92.31-53.69 4.5 1.24 6.43-5.75 1.93-6.99-26.71-7.37-53.86 1.63-74.27 19.63-23.64 20.85-34.31 51.15-33.99 82.23.18 17.75 3.7 35.43 9.17 52.26 2.49 7.65 5.39 15.16 8.63 22.53 1.93 4.4 5.27 9.33 6.22 13.99.93 4.54-1.01 13.41-5 16.74-1.94 1.63-6.19 2.21-8.68 2.76-34.08 7.52-66.85-16.36-100.85-15.9-67.65.92-94.24 87.69-89.41 142.78 3.04 34.77 29.26 79.08 1.78 109.6-21.97 24.4-60.69 24.89-88.03 10.45-36.57-19.31-55.82-56.22-78.65-88.71-18.97-27-49.58-53.33-84.81-40.83-4.37 1.55-2.49 8.56 1.93 6.99 40.93-14.52 69.48 25.97 88.46 55.42 16.95 26.3 35.94 52.89 62.98 69.68 23.17 14.4 51.27 19 77.16 9.18zm-28.28-40.46c24.16-2.79 33.42-25.17 33.73-46.83.2-14.18-2.18-28.33-2.92-42.47-.97-18.69-.58-37.45 1.16-56.08 3.16-33.86 9.53-73.37 38-95.74 14.34-11.27 30.65-14.8 48.45-11.18 14.03 2.85 27.63 8.76 42.18 8.34 22.4-.64 40.16-14.58 37.8-38.18-1.46-14.59-4.86-28.53-4.69-43.32.16-14.64 2.26-29.23 6.51-43.25 8.77-28.93 26.98-53.72 55.12-66.02 5.69-2.48.77-10.82-4.88-8.35-44.48 19.43-64.96 68.2-66.36 114.37-.34 11.16.49 22.31 2.3 33.32 1.5 9.12 5.09 19.61.68 28.51-3.91 7.9-12.66 11.41-20.88 12.68-15.55 2.41-30.26-4.31-45.21-7.43-13.49-2.82-26.74-2.63-39.64 2.65-57.8 23.68-61.77 105.22-60.63 157.98.34 15.84 2.57 31.5 3.21 47.3.61 14.98-.67 33.72-15.84 41.46-14.05 7.17-32 .44-43.01-9.24-12.38-10.89-19.47-26.65-26.79-41.09-14.26-28.14-33.01-53.9-61.19-69.46-28.42-15.7-62.88-17.72-91.96-2.76-5.53 2.85-.65 11.19 4.88 8.35 33.05-17.01 72.1-8.3 99.84 14.8 24.6 20.48 35.27 48.3 51.17 74.94 12.42 20.8 32.85 39.71 58.97 36.7zm-1.49 274.639c6.71-18.11 14.47-37.17 32.06-47.2.28.1.6.12.93-.03 30.51-13.14 64.26-5.76 96.26-5.42 28.54.31 55.2-6.73 75.65-27.56 19.52-19.88 29.3-45.76 33.4-72.88 2.37-15.65 3.83-31.9 10.45-46.48 6.45-14.21 17.9-24.99 31.77-31.91 35.99-17.99 76.92-7.57 113.64 2.25 1.5.4 2.15-1.93.64-2.33-32.36-8.65-67.08-17.77-100.28-7.97-12.6 3.72-24.64 10-34.11 19.19-10.3 10-16.19 22.91-19.46 36.74-3.67 15.56-4.44 31.66-8.23 47.2-3.46 14.18-9.37 27.8-17.59 39.87-8.34 12.25-19.19 22.92-32.17 30.18-14.33 8.01-30.51 10.87-46.76 11.25-34.72.82-70.92-8.48-104.11 5.65-.31-.15-.68-.18-1.06.04-18.3 10.31-26.41 29.99-33.37 48.77-.53 1.46 1.8 2.09 2.34.64zm185.36-8.33c14.9-1.15 30.36-2.21 44.28-8.09 27.08-11.42 40.54-43.58 51.14-68.93 6.34-15.17 11.51-30.8 15.32-46.8 3.84-16.16 5.52-34.51 16.74-47.63 18.53-21.68 52.74-20.27 77.91-14.37 9.08 2.13 12.95-11.85 3.86-13.98-23.9-5.6-50.55-6.84-73.2 4.08-28.55 13.77-32.95 42.26-39.81 70.17-4.4 17.88-10.41 35.4-18.12 52.13-6.88 14.91-14.67 32.54-26.89 43.9-13.09 12.17-31.95 13.45-48.89 14.82-19.45 1.57-38.93 2.14-58.44 1.93-9.33-.1-9.34 14.4 0 14.5 18.72.22 37.43-.29 56.1-1.73zm131.85-85.069c5.43-23.2 3.66-52.08 21.58-70.12 15.69-15.8 39.49-20.95 60.18-12.88 4.35 1.7 6.23-5.31 1.93-6.99-34-13.27-72.7 6.85-82.19 41.76-6.74 24.79-7.94 50.16-16.85 74.59-9.36 25.67-26.85 51.83-56.58 54.16-4.62.36-4.66 7.62 0 7.25 44.59-3.49 63.11-50.08 71.93-87.77zm-259.77 78.269c29.75-13.21 62.93-7.44 94.34-11.32 25.53-3.15 47.82-14.37 64.71-33.88 16.19-18.71 26.45-42.09 32.62-65.87 3.52-13.56 4.81-27.37 7.41-41.1 2.88-15.24 9.48-28.34 21.59-38.28 30.37-24.89 71.9-19.74 107.92-14.56 1.52.22 2.18-2.11.64-2.33-30.36-4.36-62.86-8.89-91.87 3.95-11.46 5.07-21.96 12.66-29.44 22.81-9.33 12.67-11.34 27.94-13.52 43.11-7.59 52.96-34.34 111.79-92.34 122.54-34.29 6.36-70.54-1.7-103.3 12.84-1.4.63-.17 2.72 1.24 2.09zm-109.23 2.641c6.73-31.99 29.06-59.83 59.94-71.52 33.38-12.63 69.77-5.02 104.36-5.06 25.74-.03 53.37-4.05 74.41-19.99 23.52-17.81 30.22-46.3 34.84-73.92 5.21-31.15 11.14-59.45 33.3-83.47 20.55-22.28 46.84-37.88 70.76-56.12 22.78-17.37 44.59-38.91 55.39-65.97 11.12-27.87 4.83-54.66-9.31-80.16-19.19-34.58-40.59-68.52-39.53-109.68.91-35.43 22.75-71.45 59.13-78.84 6.09-1.24 3.51-10.56-2.57-9.32-25.93 5.27-46.14 24.21-57.02 47.9-12.88 28.06-10.93 59.79-1.42 88.58 5.2 15.76 12.47 30.78 20.73 45.14 8.82 15.35 19.13 30.33 23.91 47.57 9.79 35.33-11.48 67.7-36.15 91.06-43.74 41.42-104.81 64.25-120.49 128.25-7.13 29.11-6.22 62.92-24.44 88.14-19.91 27.55-57.26 31.87-88.67 31.06-37.68-.97-77.37-7.38-112.18 11.08-27.87 14.78-47.83 41.95-54.3 72.7-1.29 6.07 8.02 8.66 9.31 2.57zm-49.97 1.369c8.1-42.04 34.1-79.19 70.59-101.61 38.69-23.77 81.83-20.68 124.95-27.76 18.45-3.03 36.67-8.77 51.63-20.33 15.87-12.26 26.33-29.67 35.65-47.09 10.74-20.09 20.87-40.12 35.72-57.61 15.64-18.41 34.37-30.97 53.58-45.17 13.3-9.83 22.27-22.88 20.12-40.04-2.24-17.88-15.01-31.69-30.42-39.9-27.25-14.52-67.63-15.19-89.62 9.37-12.39 13.84-14.39 32.54-14.62 50.34-.29 22.55-.7 43.81-9.31 65.04-18 44.38-58.03 75.88-103.31 89.13-47.64 13.93-112.88 14.21-155.33-15.01-24.34-16.76-28.68-43.53-43.97-66.75-10.41-15.81-28.29-28.26-47.71-22.44-2.97.89-1.71 5.56 1.29 4.66 28.97-8.68 44.8 23.02 54.28 44.33 7.95 17.85 17.31 33.15 33.66 44.37 31.98 21.94 76.28 26.11 113.92 23.43 75.39-5.36 152.39-54.86 160.55-135.53 2.31-22.82-3.25-48.27 7.95-69.39 10.1-19.04 31.91-26.97 52.46-26.82 21.16.15 45.45 8.95 57.97 26.83 7.54 10.78 10.64 25.93 4.47 38.1-5.65 11.13-16.95 17.63-26.94 24.34-34.75 23.38-57.08 54.73-76.29 91.29-10.31 19.62-21.46 39.89-40.03 52.91-17.92 12.57-39.89 16.82-61.23 19.17-43.61 4.79-85 6.26-121.87 33.04-32.33 23.48-55.21 58.51-62.79 97.8-.59 3.05 4.07 4.35 4.65 1.3zm-23.45 6.27c5.63-40.54 28.07-77.33 59.89-102.77 34.83-27.85 78.74-40.85 122.84-42.46 19.08-.7 39.92-.59 56.47-11.55 16.11-10.67 25.45-29.44 35.57-45.3 22.02-34.51 45.81-69.92 80.36-93.11 12.49-8.38 31.23-15.02 37.24-30.12 6.38-16.05-8.76-27.98-21.54-34.05-14.83-7.05-33.92-12.41-49.74-5.32-15.55 6.97-20.58 23.39-22.49 39.04-2.37 19.4-3.43 38.06-10.16 56.65-6.96 19.23-17.69 37.07-30.98 52.59-27.78 32.44-66.31 53.47-107.57 63.4-40.52 9.74-87.16 11.45-126.72-3.31-19.1-7.12-35.18-18.88-47.96-34.71-11.52-14.28-20.8-30.36-33.55-43.65-5.82-6.06-12.32-11.29-19.68-15.36-1.36-.75-2.58 1.33-1.22 2.09 32.43 17.98 44.09 57.21 73.45 78.89 31.09 22.95 72.58 27.27 110.05 25.14 78.02-4.44 155.81-45.25 185.22-120.97 6.66-17.15 9.17-34.57 10.74-52.77 1.69-19.55 6.29-42.65 29.01-47.05 10.2-1.98 20.8.03 30.49 3.39 9 3.12 18.88 7.5 25.53 14.56 18.14 19.22-7.47 35.19-22.37 43.9-33.83 19.79-58.23 51.01-79.58 83.19-11.21 16.91-20.79 36.09-34.42 51.19-15.84 17.56-37.86 19.83-60.19 20.62-40.92 1.45-80.68 10.13-115.52 32.58-31.78 20.49-56.98 51.25-69.11 87.21-3.01 8.92-5.11 18.09-6.4 27.42-.2 1.52 2.13 2.17 2.34.64zm317.17-284.209c6.41-3.94 8.84-11.02 12.7-17.06 5.59-8.74 14.55-11.35 23.49-15.44 11.59-5.29 22.31-17.11 13.02-29.71-8.35-11.33-28.28-11.43-38.7-2.9-6.8 5.56-8.78 15.33-11.33 23.27l-8.97 27.91c-2.58 3.88-5.1 9.43-3.01 13.27 2.48 4.55 9.4 2.75 12.8.66zm-10.5-5.09c.28-.12.52-.36.64-.73l2.3-7.15c.43-.62.89-1.23 1.38-1.82.52-.63.28-1.41-.21-1.82l4.7-14.63c2.51-7.81 4.55-16.01 7.86-23.52 4.28-9.72 13.58-13.89 23.9-13.79 9.52.09 20.67 6.13 20.32 17.02-.52 16.12-23.34 17.98-33.31 25.86-4.75 3.75-7.24 8.88-10.17 14.02-2.2 3.85-4.79 7.86-8.83 10.02-3.75 1.98-8.23.4-8.58-3.46zm16.19-8.821c2.38-3.02 3.7-6.73 5.72-9.99 2.71-4.36 6.35-8.2 10.55-11.16 5.8-4.09 14.53-5.25 18.88-11.18 2.73-3.71 3.11-8.75-.56-11.99-4.84-4.27-12.35-2.52-17.95-1.05-6.6 1.73-11.25 5.28-14.16 11.49-3.68 7.85-5.86 16.66-8.4 25.01l-3.04 4.93c-1 1.61-2.86 3.58-3.1 5.47-.13 1.02-.19 2.15.63 2.98 3.28 3.3 9.58-2.17 11.43-4.51zm-9.32 1.23l2.44-3.94 1.21-1.95c.51.03 1.04-.2 1.24-.82l.79-2.45 1.64-2.66c.37-.61.13-1.17-.31-1.5l3.77-11.75c1.61-4.99 3-10.62 6.77-14.5 4.09-4.2 12.96-6.67 18.73-6.21 8.82.7 9.42 9.53 2.89 13.8-2.07 1.35-4.49 2.17-6.73 3.15-7.21 3.16-13.37 7.75-17.99 14.18-2.98 4.14-4.51 9.54-8.1 13.2-1.6 2.21-3.71 2.69-6.35 1.45zm-62.37 190.9c12.03.01 24.03-2.87 34.76-8.3 20.76-10.5 36.24-31.18 40.12-54.18 1.38-8.15 0-20.4-10.47-21.46-10.23-1.03-14.81 13.59-18.94 20.39-7.69 12.66-17.12 24.82-29.97 32.58-13.41 8.1-29.09 9.69-44.45 10.05-.14-.2-.34-.36-.66-.42-5.57-1.13-11.2-1.28-16.75.07-3.77.91-10.37 2.63-12.05 6.73-3.51 8.6 11.94 6.88 15.61 7.2 14.52 1.26 28.07 7.34 42.8 7.34zm-40.33-9.48c-2.62-.33-5.23-.45-7.87-.46-2.91-.01-11.83.67-4.84-6.32 1.9-1.9 6.65-2.61 9.31-3.09 3.03-.54 6.02-.58 9.02-.29-.02.62.37 1.24 1.16 1.23 19.93-.22 40.09-2.13 56.42-14.68 6.64-5.1 12.3-11.37 17.26-18.09 5.76-7.8 9.81-16.51 15.12-24.56 1.83-2.78 4.59-5.91 8.3-5.88 5.99.05 9.17 6.66 9.5 11.71.37 5.54-1.27 11.48-2.97 16.72-3.26 10.01-8.72 19.31-15.83 27.08-14.5 15.85-35.77 24.52-57.21 23.65-12.79-.53-24.75-5.41-37.37-7.02zm38.27 3.621c18.25-.66 35.86-8.36 48.48-21.6a72.19 72.19 0 0 0 14.34-21.99c1.79-4.3 6.43-13.8 2.36-18.19-7.96-8.59-22.47 25.75-25.39 29.75-12.69 17.4-35.31 26.12-56.38 22.58-.19-.54-.7-.99-1.42-.85-2.29.43-6.17-.97-7.78 1.64-1.12 1.81-.28 3.14 1.18 4.36 5.72 4.74 17.62 4.55 24.61 4.3zm-12.57-3.1c-1.49-.22-6.6-.48-7.59-1.7-1.77-2.19-1.09-2.8.11-2.99a1.23 1.23 0 0 0 .51.26c15.4 3.27 31.52.32 44.89-8.02 6.41-3.99 12.08-9.16 16.53-15.27 5.37-7.39 8.07-16.34 13.48-23.69 1.01-1.39 2.12-2.69 3.35-3.88 4.61-.99 6.37.15 5.26 3.44-.01 1.68-.96 3.73-1.49 5.35-1.68 5.19-4 10.16-6.86 14.81-5.39 8.76-12.75 16.34-21.44 21.85-9.34 5.92-20.18 9.49-31.2 10.35-5.18.41-10.41.27-15.55-.51zm-141.62-351.44c18.27-2.59 36.3-10.9 48.71-24.79 13.95-15.61 16.63-35.84 17.65-55.98 1.19-23.61 3.98-45.88 14.27-67.47 22.71-47.66 70.94-78.62 123.62-80.16 1.55-.05 1.56-2.46 0-2.42-44 1.28-85.93 22.68-111.97 58.31-12.69 17.37-21.5 37.64-25.39 58.8-4.31 23.44-.22 48.8-9.72 71.15-8.79 20.69-29.1 34-50.5 38.86-12.55 2.85-26.7 3.52-38.79-1.47-12.14-5.02-20.74-15.67-27.32-26.67-23.39-39.13-22.7-92.99-60.64-123.09-16.35-12.97-38.24-18.58-57.63-9.05-18.06 8.88-30.37 28.21-29.46 48.44.07 1.55 2.49 1.56 2.42 0-.96-21.25 13.35-41.45 33.35-48.49 21.71-7.63 44.45 3.59 59.08 19.66 31.68 34.79 29.18 87.4 57.81 124.08 6 7.68 13.38 14.28 22.57 17.82 10.09 3.9 21.39 3.96 31.94 2.47zm200.63-82.561c10.67-10.04 6.43-25.02 3.87-37.51-8.18-39.91 4.87-81.53 33.77-110.1 3.32-3.29-1.8-8.41-5.13-5.13-22.49 22.23-36.15 51.97-38.16 83.58a122.19 122.19 0 0 0 .65 22.3c1.05 8.71 4.36 17.41 4.68 26.15 1.27 34.24-36.09 15.02-51.56 7.72-6.53-3.08-13.3-5.53-20.59-5.88-5.81-.27-13.15 1.69-18.44-1.62-5.43-3.41-7.26-9.84-7.97-15.71-2.31-19.15 8.4-37.35 21.25-50.62 26.9-27.77 66.43-37.6 96.94-60.45 3.69-2.76.08-9.06-3.66-6.26-27.73 20.8-62.1 30.79-88.91 52.92-19.87 16.39-40 44.8-31.52 72.08 3.51 11.3 11.73 17.12 23.42 17.21 12.05.1 20.45 1.8 31.21 7.33 6.76 3.47 13.42 7.29 20.85 9.13 9.79 2.42 21.56 2.14 29.3-5.14zm-27.41-25.48c5.43-7.14 4.88-19.66 5.32-28.15.61-11.88 1.01-24.18 6.77-34.9 4.59-8.55 13.63-16.9 14.33-27.06.4-5.87-5.81-12.84-11.04-7.04-1.04 1.15.67 2.87 1.71 1.71 5.75 2.01 7.78 4.94 6.08 8.78-.58 1.67-1.29 3.29-2.12 4.85-1.15 2.23-2.52 4.33-3.9 6.42-2.43 3.68-5.07 7.23-7.15 11.12-4.28 7.99-5.79 16.88-6.5 25.82-.84 10.52-.05 21.94-3.19 32.12-.41 1.58-1.04 3.06-1.89 4.46l-7.61 2.99c-2.71-.09-5.7-2.87-7.77-4.4-3.38-2.49-6.37-4.49-10.57-5.2-4.91-.82-9.88.3-14.81-.14-9.65-.85-8.71-10.05-6.83-16.87 2.96-10.71 10.36-19.37 18.6-26.5 7.83-6.78 16.54-12.48 24.64-18.92 8.49-6.75 16.53-14.02 24.18-21.72 1.1-1.1-.61-2.81-1.71-1.71-8.63 8.68-17.77 16.82-27.48 24.28-8.44 6.49-17.41 12.38-25.12 19.78-6.94 6.67-12.84 14.76-15.45 24.14-1.58 5.66-3.49 15.33 2.96 18.6 3.7 1.88 8.53 1.41 12.52 1.28 7.49-.23 12.6 1.15 18.58 5.61 5.29 3.95 12.66 6.93 17.45.65zm-10.87-19.73c2.27-3.16 1.84-8.47 2.25-12.1l2.44-21.61c.17-1.54-2.24-1.53-2.42 0l-2.72 24.02c-.57 5.02-1.76 10.15-7.76 10.34-4.6.15-9.28-.21-12.23-4.06-5.69-7.42 1.42-15.21 7.01-20.19 4.68-4.16 9.47-8.2 14.24-12.27.17.91 1.59 1.45 2.25.42 1.35-2.1 1.75-4.52 1.28-6.96-.29-1.53-2.62-.88-2.33.64.11.58.12 1.15.08 1.72-.1.05-.2.08-.29.16l-14.69 12.63c-3.55 3.05-7.34 6.16-9.74 10.26-3.53 6.02-3.37 14.64 3.41 18.22 4.72 2.49 15.6 3.82 19.22-1.22zm-122.87 273.78c12.87-22.91 3.55-52.47-.72-76.52-2.14-12.06-3-25.66-7.94-37-4.05-9.3-11.94-14.91-21.7-17.11-12.5-2.81-25.13.19-37.73.27-14.38.1-27.13-5.31-37.7-14.94-20.68-18.84-28.04-46.39-38.36-71.39-8.4-20.35-21.94-45.88-46.49-48.81-24.79-2.96-42.32 20.44-50.94 40.62-.6 1.41 1.48 2.65 2.09 1.22 8.35-19.53 25.33-42.93 49.54-39.3 24.88 3.73 37.36 31.34 45.51 51.98 8.46 21.42 15.53 44 31.14 61.52 6.49 7.28 14.35 13.59 23.38 17.42 10.84 4.6 22.01 4.36 33.55 3.4 11.78-.98 24.83-2.23 35.43 4.22 11.32 6.89 12.93 20.6 15.04 32.51l7.29 41.13c2.29 13.4 4.28 27.74.19 41.02-3.51 11.39-12.09 22.52-24.22 25.24-17.3 3.88-20.82-16.05-23.27-28.52-2.2-11.21-3.7-22.75-8.41-33.27-4.58-10.22-12.19-18.49-20.89-25.39-9.81-7.79-20.71-14.23-31.43-20.66-12.03-7.22-24.31-14.08-37.04-20-24.61-11.45-50.93-19.21-78.28-18.47-1.55.04-1.56 2.46 0 2.42 28.76-.77 56.3 7.97 81.92 20.46 12.62 6.16 24.8 13.16 36.78 20.47 11.14 6.8 22.63 13.58 32.21 22.52 10.42 9.72 16.32 21.41 19.43 35.23 2.68 11.88 3.59 24.6 8.45 35.88 9.52 22.04 34.25 9.73 43.17-6.15zm-7.52-23.93c5.77-15.63-1.03-35.44-7.18-49.95-5.91-13.93-14.97-26.01-29.27-32-17.29-7.24-36.24-6.57-53.09-15.69-19.3-10.45-31.76-26.89-40.75-46.5-7.93-17.31-13.87-35.8-26.54-50.44-17.51-20.24-56.31-29.449-69.58.93-1.85 4.23 4.4 7.93 6.26 3.66 6.11-13.98 22.5-19.19 36.67-14.81 15.58 4.82 26.05 19.49 33.19 33.3 13.31 25.77 20.31 53.07 44.22 71.67 9.07 7.06 19.4 12.44 30.4 15.78 13.86 4.21 29.58 3.92 42.22 11.65 12.72 7.78 19.19 22.28 23.46 35.96 2.39 7.64 4.82 15.78 4.73 23.83-.12 11.13-7.22 24.07-19.51 22.38 1.23-18.75 1.45-38.91-10.42-54.56-12.5-16.48-33.47-23.03-50.56-33.38-20.37-12.33-38.29-28.54-60.08-38.53-22.41-10.28-46.91-14.22-71.08-18.02-4.56-.72-6.53 6.27-1.93 6.99 21.05 3.31 42.4 6.6 62.37 14.36 21 8.16 38.34 22.32 56.8 34.83 15.8 10.71 34.46 17.29 49.47 29.04 19.85 15.54 19.62 39.14 18 62.15-.11 1.61 1.21 3.05 2.66 3.5 12.68 3.88 25.06-4.02 29.54-16.15z" fill="#fff" fill-opacity=".05"/></g><mask id="B" maskUnits="userSpaceOnUse" x="0" y="166" width="211" height="400" mask-type="alpha"><path fill="#c4c4c4" d="M0 166h211v400H0z"/></mask><g mask="url(#B)"><path d="M92.736 552.164H-32.108c-15.584-.017-28.215-12.635-28.231-28.202V208.285c.016-15.568 12.642-28.186 28.231-28.202H92.736c15.584.016 28.215 12.634 28.232 28.202v315.677c-.022 15.567-12.648 28.185-28.232 28.202z" fill="#3f3d56"/><path d="M90.836 188.82H76.95a4.68 4.68 0 0 0-4.674 4.671c-.005 5.273-4.28 9.544-9.556 9.55H-5.19c-5.276-.006-9.551-4.277-9.556-9.55a4.68 4.68 0 0 0-4.674-4.671h-12.243c-11.811.017-21.378 9.577-21.394 21.38v313.302c.016 11.803 9.583 21.363 21.394 21.38h122.5c11.811-.017 21.378-9.577 21.394-21.38V210.2c-.016-11.803-9.589-21.363-21.394-21.38z" fill="#fff"/><path d="M90.836 188.82H76.95a4.68 4.68 0 0 0-4.674 4.671c-.005 5.273-4.28 9.544-9.556 9.55H-5.19c-5.276-.006-9.551-4.277-9.556-9.55a4.68 4.68 0 0 0-4.674-4.671h-12.243c-11.811.017-21.378 9.577-21.394 21.38v313.302c.016 11.803 9.583 21.363 21.394 21.38H90.836c11.811-.017 21.378-9.577 21.394-21.38V210.2c-.016-11.803-9.589-21.363-21.394-21.38z" fill="#eceff0"/><path d="M46.066 194.646H8.009c-.75 0-1.359-.489-1.359-1.092s.609-1.092 1.359-1.092h38.058c.75 0 1.359.489 1.359 1.092s-.609 1.092-1.359 1.092zm6.092 0a1.092 1.092 0 1 0 0-2.184 1.092 1.092 0 1 0 0 2.184z" fill="#fff"/><path d="M121.332 304.596c-1.404 0-2.548-1.107-2.548-2.466v-48.223c0-1.364 1.138-2.466 2.548-2.466s2.549 1.102 2.549 2.466v48.223c-.006 1.359-1.144 2.466-2.549 2.466z" fill="#3f3d56"/><path d="M-29.731 485.055c-17.28-15.807-18.579-42.746-2.913-60.169 15.672-17.43 42.38-18.74 59.654-2.938 17.28 15.807 18.579 42.745 2.913 60.169l8.841 9.997L34.352 494c-6.825 2.921-13.509.077-17.258-2.187-15.509 7.602-34.044 4.927-46.824-6.758z" fill="#fff"/><path d="M-.682 496.097c-10.66-.011-20.931-3.96-28.809-11.074-17.575-15.798-18.903-42.725-2.963-60.143s43.109-18.735 60.684-2.937c17.449 15.685 18.898 42.378 3.247 59.829l9.053 10.061-5.051 2.124c-7.041 2.958-13.945.043-17.57-2.064-5.8 2.763-12.152 4.199-18.592 4.204zm-28.169-11.773c12.688 11.475 31.159 14.097 46.586 6.61l.23-.114.219.13c3.406 2.026 10.135 4.995 16.93 2.135l3.832-1.609-8.741-9.709.284-.314c15.585-17.034 14.29-43.365-2.897-58.816s-43.754-14.162-59.345 2.871c-15.585 17.039-14.284 43.37 2.903 58.816z" fill="#5cd2f7"/><path d="M21.941 445.855H-5.728v2.185h27.669v-2.185zm0 8.738h-48.057v2.912h48.057v-2.912zm0 8.737h-48.057v2.913h48.057v-2.913zm31.674 38.592a6.19 6.19 0 0 0 6.189-6.189 6.19 6.19 0 0 0-6.189-6.189 6.19 6.19 0 0 0-6.189 6.189 6.19 6.19 0 0 0 6.189 6.189z" fill="#45cbf6"/><path d="M81.448 363.29c-7.157 4.316-19.903 9.723-32.934 4.163l-8.42-3.592 16.874-19.02c-29.904-33.153-27.417-84.402 5.556-114.469s83.945-27.567 113.849 5.586 27.417 84.402-5.556 114.469c-24.381 22.24-59.762 27.327-89.369 12.863z" fill="#fff"/><path d="M81.495 364.229c-6.871 4.054-19.972 9.663-33.318 3.968l-9.576-4.081 17.175-19.346c-29.899-33.802-26.876-85.555 6.759-115.602s85.133-27.009 115.032 6.793c29.687 33.562 26.942 84.889-6.157 115.062-24.476 22.437-60.076 27.668-89.915 13.206zm94.193-127.664c-29.561-32.758-79.954-35.237-112.551-5.529s-35.064 80.35-5.502 113.109l.007.006.542.605-16.573 18.676 7.261 3.097c12.896 5.496 25.653-.213 32.114-4.108l.417-.252.436.213c39.581 19.326 87.263 2.751 106.494-37.032 14.225-29.409 9.219-64.56-12.645-88.785z" fill="#5cd2f7"/><path d="M167.321 274.545h-53.733v5.285h53.733v-5.285zm0 17.618H74.829v4.404h92.492v-4.404zm0 16.735H74.829v5.286h92.492v-5.286zM25.94 374.084a8.37 8.37 0 0 0 8.368-8.368 8.37 8.37 0 0 0-8.368-8.368 8.37 8.37 0 0 0-8.368 8.368 8.37 8.37 0 0 0 8.368 8.368z" fill="#45cbf6"/></g><path d="M151.407 402.572l4.558-.266c1.32 0 2.353.063 3.097.19.754.127 1.38.326 1.879.597.508.271.923.575 1.245.914.33.338.579.762.749 1.269.177.5.296 1.003.355 1.511a13.38 13.38 0 0 1 .102 1.777V419h-4.926v-10.436c0-1.633-.83-2.45-2.488-2.45-1.253 0-2.777.093-4.571.28v-3.822zM171.694 419h-4.925v-16.44h4.925V419zm7.364-16.44c.296.499.486 1.058.571 1.675h.178c.144-.169.385-.376.723-.622a7.39 7.39 0 0 1 .991-.634c.33-.17.753-.322 1.269-.458.525-.143 1.134-.215 1.828-.215a5.35 5.35 0 0 1 2.006.381c.643.245 1.168.579 1.574 1.002s.732.957.978 1.6c.448 1.143.673 2.628.673 4.456V419h-7.948v-3.796h2.933v-5.459c0-.889-.051-1.536-.152-1.942-.093-.407-.212-.707-.356-.902-.321-.457-.833-.685-1.536-.685a2.18 2.18 0 0 0-.863.178c-.28.11-.512.249-.698.418-.407.364-.682.669-.826.915l-.101.177L179.35 419h-4.85l.952-10.385.089-1.688c0-1.439-.267-2.895-.8-4.367h4.317zm22.14 16.44h-7.211l-1.383-16.44h4.786l.634 7.642a.9.9 0 0 0 .356-.089c.135-.059.25-.144.343-.254.101-.11.199-.283.292-.52a2.83 2.83 0 0 0 .19-.863l.508-5.916h4.748l-.495 5.852c-.051.686-.169 1.308-.356 1.866-.186.55-.406 1.007-.66 1.371-.245.356-.537.669-.876.94s-.66.474-.965.609a5.53 5.53 0 0 1-.99.33 6.99 6.99 0 0 1-1.599.178h-.204l.153 1.498h3.301a3.28 3.28 0 0 0 2.627-1.244c.703-.838 1.135-2.175 1.295-4.012l.635-7.388h4.786l-.673 7.502c-.127 1.448-.393 2.709-.799 3.784s-.889 1.938-1.448 2.59c-.55.643-1.218 1.163-2.005 1.561-.788.389-1.575.656-2.362.8-.778.135-1.654.203-2.628.203zm16.39-16.44h8.277v3.008l-2.158 7.326.013-.013-1.384 6.119h-4.85l1.435-6.284 1.891-6.361h-8.15v-7.045h4.926v3.25zM239.792 419h-4.926v-16.44h4.926V419zm17.685-16.44v5.979a8.06 8.06 0 0 1-.102 1.371c-.059.381-.186.796-.381 1.244-.381.931-1.227 1.642-2.539 2.133l3.631 5.713h-5.497l-4.456-7.414c-.161.254-.241.719-.241 1.396V419h-4.913v-5.979c0-.508.033-.961.101-1.359s.203-.821.406-1.269c.407-.931 1.261-1.642 2.565-2.133l-3.631-5.7h5.484l3.276 5.56 1.168 1.828c.135-.296.203-.753.203-1.371v-6.017h4.926zm-118.372 34.911c.711-.11 1.388-.165 2.032-.165.651 0 1.286.08 1.904.241.618.152 1.176.419 1.676.8.499.372.901.876 1.206 1.51.626 1.295.939 3.195.939 5.701 0 2.75-.639 4.887-1.917 6.411-1.278 1.515-3.093 2.272-5.446 2.272-.982 0-1.904-.194-2.768-.584-.854-.398-1.599-.96-2.234-1.688s-1.134-1.642-1.498-2.742c-.364-1.109-.546-2.332-.546-3.669v-7.998h4.939v7.998c0 3.165.74 4.748 2.221 4.748.77 0 1.346-.373 1.727-1.118.381-.753.571-1.95.571-3.592 0-1.651-.165-2.793-.495-3.428-.33-.643-.897-.965-1.701-.965l-.61.064v-3.796zm10.119.127l7.02-.292c2.294 0 4.071.744 5.332 2.234 1.27 1.481 1.904 3.559 1.904 6.233 0 2.666-.643 4.744-1.929 6.234-1.278 1.489-3.056 2.234-5.332 2.234s-4.042-.736-5.294-2.209c-1.244-1.472-1.866-3.554-1.866-6.246 0-1.811.507-3.275 1.523-4.392l-1.358.088v-3.884zm4.824 8.188c0 1.557.173 2.704.52 3.441.356.736.919 1.104 1.689 1.104.778 0 1.346-.368 1.701-1.104.355-.745.533-1.896.533-3.454s-.178-2.721-.533-3.491-.918-1.155-1.688-1.155l-.991.051c-.821 1.193-1.231 2.729-1.231 4.608zm23.727 7.44V454h-4.887v-.774c0-.652.105-1.575.317-2.768.22-1.202.491-2.234.813-3.098l2.259-6.005h-9.991v-3.795h15.4v2.843l-2.666 7.059c-.83 2.192-1.245 4.113-1.245 5.764zm-6.563 7.02h-4.926v-16.148h4.926v16.148zm19.284-22.775a13.3 13.3 0 0 1 2.031-.165c.652 0 1.287.08 1.905.241a4.51 4.51 0 0 1 1.675.8c.5.372.902.876 1.206 1.51.627 1.295.94 3.195.94 5.701 0 2.75-.639 4.887-1.917 6.411-1.278 1.515-3.093 2.272-5.446 2.272-.982 0-1.905-.194-2.768-.584-.855-.398-1.6-.96-2.234-1.688s-1.134-1.642-1.498-2.742c-.364-1.109-.546-2.332-.546-3.669v-7.998h4.938v7.998c0 3.165.741 4.748 2.222 4.748.77 0 1.346-.373 1.726-1.118.381-.753.572-1.95.572-3.592 0-1.651-.165-2.793-.495-3.428-.33-.643-.897-.965-1.702-.965l-.609.064v-3.796zm17.393-.165c2.031 0 3.529.262 4.494.787.499.271.914.58 1.244.927.33.338.58.757.749 1.256.178.5.296 1.003.355 1.511a13.38 13.38 0 0 1 .102 1.777V454h-4.938v-10.436c0-1.633-.83-2.45-2.489-2.45-1.489 0-3.25.11-5.281.33l-1.054.115v-3.771c2.015-.322 4.287-.482 6.818-.482zM205.997 454h-4.913v-9.585h4.913V454zm32.183-15.488c.347.279.626.575.838.888a3.8 3.8 0 0 1 .507 1.118c.212.736.318 1.684.318 2.843V454h-4.939v-10.423c0-1.633-.829-2.45-2.488-2.45l-.889.013v7.845c0 .627-.046 1.189-.139 1.689a4.68 4.68 0 0 1-.495 1.434 3.45 3.45 0 0 1-.94 1.143c-.846.66-2.095.99-3.745.99-.372 0-.753-.046-1.143-.139-.389-.085-.681-.17-.876-.254l-.304-.14v-3.542c.635.119 1.172.178 1.612.178s.732-.102.876-.305c.152-.212.229-.563.229-1.054v-7.553l-1.752.139v-3.783c2.835-.313 5.509-.47 8.023-.47s4.283.398 5.307 1.194zm19.297-.952v5.979a8.06 8.06 0 0 1-.102 1.371c-.059.381-.186.796-.381 1.244-.381.931-1.227 1.642-2.539 2.133l3.631 5.713h-5.497l-4.456-7.414c-.161.254-.241.719-.241 1.396V454h-4.913v-5.979c0-.508.033-.961.101-1.359s.203-.821.406-1.269c.407-.931 1.261-1.642 2.565-2.133l-3.631-5.7h5.484l3.276 5.56 1.168 1.828c.135-.296.203-.753.203-1.371v-6.017h4.926zm-91.14 34.746c1.049 0 1.98.139 2.793.419.821.279 1.485.651 1.993 1.117.508.457.927 1.015 1.257 1.676.592 1.176.889 2.585.889 4.227v15.501h-4.914V479.72c0-.44-.021-.817-.063-1.13-.034-.313-.114-.635-.241-.965-.119-.33-.288-.597-.508-.8-.482-.457-1.24-.685-2.272-.685l-3.492.165-.622.063v-3.859c1.439-.136 3.166-.203 5.18-.203zm14.612 0c1.05 0 1.981.139 2.793.419.821.279 1.486.651 1.993 1.117.517.457.94 1.015 1.27 1.676.592 1.176.889 2.585.889 4.227v2.082c0 .813-.055 1.553-.165 2.222-.102.66-.305 1.324-.61 1.993s-.707 1.231-1.206 1.688c-.499.449-1.172.817-2.018 1.105-.838.279-1.82.419-2.946.419-2.226 0-3.952-.114-5.179-.343v-3.847c1.311.153 2.881.229 4.709.229.915 0 1.558-.305 1.93-.914.373-.618.559-1.469.559-2.552v-2.107c0-.44-.021-.817-.064-1.13-.034-.313-.114-.635-.241-.965-.118-.33-.283-.597-.495-.8-.491-.457-1.253-.685-2.285-.685l-3.504.165-.609.063v-3.859c1.438-.136 3.165-.203 5.179-.203zm15.4.266l4.557-.266c1.321 0 2.353.063 3.098.19.753.127 1.379.326 1.879.597.508.271.922.575 1.244.914.33.338.58.762.749 1.269.178.5.296 1.003.355 1.511a13.38 13.38 0 0 1 .102 1.777V489h-4.926v-10.436c0-1.633-.829-2.45-2.488-2.45-1.253 0-2.776.093-4.57.28v-3.822zM211.71 489v-16.212c2.014-.322 4.287-.482 6.817-.482 2.023 0 3.521.249 4.494.749.508.254.923.546 1.245.876.33.33.579.744.749 1.244a6.88 6.88 0 0 1 .355 1.536c.068.516.102 1.134.102 1.853V489h-4.939v-10.436c0-1.633-.829-2.45-2.488-2.45l-1.409.038V489h-4.926zm31.395-16.44v5.979a8.07 8.07 0 0 1-.101 1.371c-.059.381-.186.796-.381 1.244-.381.931-1.227 1.642-2.539 2.133l3.631 5.713h-5.497l-4.456-7.414c-.161.254-.241.719-.241 1.396V489h-4.914v-5.979a8.13 8.13 0 0 1 .102-1.359c.068-.398.203-.821.406-1.269.406-.931 1.261-1.642 2.565-2.133l-3.631-5.7h5.484l3.276 5.56 1.168 1.828c.135-.296.203-.753.203-1.371v-6.017h4.925zm7.084 0h8.278v3.008l-2.158 7.326.012-.013-1.383 6.119h-4.85l1.434-6.284 1.892-6.361h-8.15v-7.045h4.925v3.25zM166.142 79.295h8.914v3.24l-2.325 7.889.014-.014-1.49 6.59h-5.223l1.545-6.768 2.037-6.85h-8.777v-7.588h5.305v3.5zm15.968-.273c1.131 0 2.133.15 3.008.451.884.301 1.6.702 2.147 1.203.556.492 1.011 1.094 1.367 1.805.638 1.267.957 2.784.957 4.553v2.242c0 .875-.059 1.672-.178 2.393a8.15 8.15 0 0 1-.656 2.146c-.328.72-.761 1.326-1.299 1.818-.538.483-1.262.88-2.174 1.189-.902.301-1.959.451-3.172.451-2.397 0-4.256-.123-5.578-.369v-4.143c1.413.164 3.104.246 5.072.246.985 0 1.678-.328 2.079-.984.401-.665.601-1.581.601-2.748v-2.27c0-.474-.023-.88-.068-1.217a4.14 4.14 0 0 0-.26-1.039c-.128-.356-.305-.643-.533-.861-.529-.492-1.349-.738-2.461-.738l-3.774.178-.656.068V79.24c1.55-.146 3.409-.219 5.578-.219zM197.874 97h-5.305V79.295h5.305V97zm3.609-17.76c.73-.146 1.655-.219 2.776-.219s2.023.105 2.707.314 1.235.492 1.654.848c.419.346.757.779 1.012 1.299a5.51 5.51 0 0 1 .533 1.613c.1.547.15 1.158.15 1.832v6.535c0 .857-.054 1.75-.164 2.68l-.3 2.119-.151.738h-8.996v-4.088h4.143c.109-.447.164-.93.164-1.449v-6.535c0-.474-.105-.875-.315-1.203-.2-.337-.533-.506-.998-.506-.592 0-1.212.046-1.859.137l-.356.041V79.24zm27.577.055v3.814a5.13 5.13 0 0 0-1.217 1.408c-.337.565-.597 1.098-.78 1.6-.173.501-.296 1.048-.369 1.641l-.136 1.477-.014 1.682V97h-5.305v-6.084c0-3.4.971-5.911 2.912-7.533h-3.513v-4.088h8.422zm17.527 0v6.439c0 .565-.037 1.057-.109 1.477-.064.41-.201.857-.411 1.34-.41 1.003-1.321 1.768-2.734 2.297l3.91 6.152h-5.92l-4.799-7.984c-.173.273-.259.775-.259 1.504V97h-5.291v-6.439c0-.547.036-1.035.109-1.463s.219-.884.438-1.367c.437-1.003 1.358-1.768 2.761-2.297l-3.91-6.139h5.906l3.528 5.988 1.257 1.969c.146-.319.219-.811.219-1.477v-6.481h5.305zM255.378 97h-5.305V79.295h5.305V97zm-145.381 25.43c0-1.659.319-3.236.957-4.731.638-1.513 1.458-2.734 2.461-3.664 1.021-.948 2.224-1.723 3.609-2.324 2.534-1.112 5.369-1.668 8.504-1.668 3.646 0 6.663.793 9.051 2.379.893.583 1.75 1.349 2.57 2.297s1.513 2.041 2.079 3.281c1.221 2.734 1.832 6.161 1.832 10.281v31.172h-10.747v-31.172c0-3.719-.246-6.134-.738-7.246-.528-1.203-1.249-1.959-2.16-2.269-.529-.183-1.194-.274-1.996-.274-.784 0-1.504.128-2.16.383-.638.237-1.112.51-1.422.82s-.556.675-.738 1.094c-.256.602-.383 1.231-.383 1.887s.127 1.267.383 1.832.583.993.984 1.285c.656.474 1.322.793 1.996.957l2.242.465-1.695 7.547-2.652-.082c-3.592-.091-6.444-1.058-8.559-2.899-2.279-1.987-3.418-5.104-3.418-9.351zm66.801-9.789c.747.601 1.349 1.239 1.805 1.914.455.656.82 1.458 1.093 2.406.456 1.586.684 3.628.684 6.125V146h-10.637v-22.449c0-3.518-1.786-5.278-5.359-5.278-.912 0-1.55.01-1.914.028v16.898c0 1.349-.101 2.561-.301 3.637a10.06 10.06 0 0 1-1.066 3.09c-.511.984-1.185 1.804-2.024 2.461-1.823 1.422-4.512 2.133-8.066 2.133-.802 0-1.623-.101-2.461-.301-.839-.183-1.468-.365-1.887-.547l-.656-.301v-7.629c1.367.255 2.525.383 3.472.383s1.577-.219 1.887-.656c.328-.456.492-1.212.492-2.27V118.93l-3.773.3v-8.148c6.107-.674 11.867-1.012 17.281-1.012s9.224.857 11.43 2.571zM204.825 146h-15.531l-2.981-35.41h10.309l1.367 16.461c.219 0 .474-.064.766-.192a1.99 1.99 0 0 0 .738-.547c.219-.236.429-.61.629-1.121.219-.528.356-1.148.41-1.859l1.094-12.742h10.227l-1.067 12.605c-.109 1.477-.364 2.817-.765 4.02-.402 1.185-.875 2.169-1.422 2.953a9.46 9.46 0 0 1-1.887 2.023c-.729.584-1.422 1.021-2.078 1.313a12.13 12.13 0 0 1-2.133.711 15.13 15.13 0 0 1-3.445.383h-.438l.328 3.226h7.11c2.278 0 4.165-.893 5.66-2.679 1.513-1.805 2.443-4.685 2.789-8.641l1.367-15.914h10.309l-1.45 16.16c-.273 3.117-.847 5.833-1.722 8.148s-1.914 4.175-3.117 5.579c-1.185 1.385-2.625 2.506-4.321 3.363-1.695.838-3.39 1.413-5.086 1.722-1.677.292-3.563.438-5.66.438zm35.301-35.41h17.828v6.48l-4.648 15.778.027-.028-2.98 13.18h-10.446l3.09-13.535 4.074-13.699h-17.554V103.59h10.609v7zm-82.907 46.431c2.187 0 3.801.283 4.84.848a5.35 5.35 0 0 1 1.339.998c.356.365.625.816.807 1.354a7.42 7.42 0 0 1 .383 1.627 14.45 14.45 0 0 1 .109 1.914V175h-5.318v-11.238c0-1.759-.893-2.639-2.68-2.639-1.604 0-3.5.119-5.687.356l-1.135.123v-4.061c2.169-.346 4.616-.52 7.342-.52zM155.182 175h-5.291v-10.322h5.291V175zm28.095 0h-15.763v-4.088h7.191l1.955.123-3.24-4.047-6.316-9.693h5.851l4.238 6.822c.274-.738.461-1.654.561-2.748l.342-4.074h5.277l-.328 3.568-.123 1.108c-.027.282-.11.724-.246 1.326a8.94 8.94 0 0 1-.506 1.572 11.03 11.03 0 0 1-.875 1.559c-.383.574-.83 1.098-1.34 1.572l3.322 3.992V175zm1.791-17.691l4.909-.288c1.421 0 2.533.069 3.335.206.812.136 1.486.35 2.024.642.547.292.993.62 1.34.985.355.364.624.82.806 1.367.192.537.319 1.08.383 1.627.073.537.11 1.175.11 1.914V175h-5.305v-11.238c0-1.759-.893-2.639-2.68-2.639-1.349 0-2.989.1-4.922.301v-4.115zm16.461-.069c.729-.146 1.655-.219 2.776-.219s2.023.105 2.707.315 1.235.492 1.654.848c.419.346.757.779 1.012 1.298.264.52.442 1.058.533 1.614.1.547.15 1.157.15 1.832v6.535c0 .857-.054 1.75-.164 2.68l-.301 2.119-.15.738h-8.996v-4.088h4.143c.109-.447.164-.93.164-1.449v-6.535c0-.474-.105-.875-.315-1.203-.2-.338-.533-.506-.998-.506a13.36 13.36 0 0 0-1.859.136l-.356.041v-4.156zM221.271 175v-17.459c2.17-.337 4.608-.506 7.315-.506s4.635.451 5.783 1.354 1.723 2.415 1.723 4.539V175h-14.821zm9.502-4.088v-8.148c0-.611-.227-1.035-.683-1.272-.447-.237-1.112-.355-1.996-.355l-1.518.054v9.721h4.197zm24.309-13.617v6.439c0 .565-.036 1.058-.109 1.477-.064.41-.201.857-.411 1.34-.41 1.002-1.321 1.768-2.734 2.297l3.91 6.152h-5.92l-4.798-7.984c-.174.273-.26.774-.26 1.504V175h-5.291v-6.439c0-.547.036-1.035.109-1.463s.219-.884.438-1.368c.437-1.002 1.358-1.768 2.761-2.296l-3.91-6.139h5.906l3.528 5.988 1.258 1.969c.145-.319.218-.811.218-1.477v-6.48h5.305z" fill="#fff"/></svg>