<svg width="20" height="22" viewBox="0 0 20 22" fill="none" xmlns="http://www.w3.org/2000/svg">
<path fill-rule="evenodd" clip-rule="evenodd" d="M16.25 7.5C18.3211 7.5 20 5.82107 20 3.75C20 1.67893 18.3211 0 16.25 0C14.1789 0 12.5 1.67893 12.5 3.75C12.5 3.98674 12.5219 4.21835 12.5639 4.44292L6.18128 8.14484C5.5266 7.58682 4.67764 7.25 3.75 7.25C1.67893 7.25 0 8.92893 0 11C0 13.0711 1.67893 14.75 3.75 14.75C4.67764 14.75 5.5266 14.4132 6.18128 13.8552L12.5639 17.5571C12.5219 17.7816 12.5 18.0133 12.5 18.25C12.5 20.3211 14.1789 22 16.25 22C18.3211 22 20 20.3211 20 18.25C20 16.1789 18.3211 14.5 16.25 14.5C15.3224 14.5 14.4734 14.8368 13.8187 15.3948L7.43612 11.6929C7.47807 11.4683 7.5 11.2367 7.5 11C7.5 10.7633 7.47807 10.5317 7.43612 10.3071L13.8187 6.60518C14.4734 7.16318 15.3224 7.5 16.25 7.5ZM17.5 3.75C17.5 4.44036 16.9404 5 16.25 5C15.5596 5 15 4.44036 15 3.75C15 3.05964 15.5596 2.5 16.25 2.5C16.9404 2.5 17.5 3.05964 17.5 3.75ZM3.75 12.25C4.44036 12.25 5 11.6904 5 11C5 10.3096 4.44036 9.75 3.75 9.75C3.05964 9.75 2.5 10.3096 2.5 11C2.5 11.6904 3.05964 12.25 3.75 12.25ZM16.25 19.5C16.9404 19.5 17.5 18.9404 17.5 18.25C17.5 17.5596 16.9404 17 16.25 17C15.5596 17 15 17.5596 15 18.25C15 18.9404 15.5596 19.5 16.25 19.5Z" fill="#3869E5"/>
</svg>
