<svg width="27" height="27" viewBox="0 0 27 27" fill="none" xmlns="http://www.w3.org/2000/svg">
<path d="M13.4996 16.875C9.93325 16.875 6.76174 18.597 4.74258 21.2692C4.30801 21.8444 4.09072 22.1319 4.09783 22.5206C4.10332 22.8208 4.29187 23.1996 4.52813 23.385C4.83392 23.625 5.25769 23.625 6.10522 23.625H20.894C21.7415 23.625 22.1653 23.625 22.4711 23.385C22.7073 23.1996 22.8959 22.8208 22.9014 22.5206C22.9085 22.1319 22.6912 21.8444 22.2566 21.2692C20.2374 18.597 17.0659 16.875 13.4996 16.875Z" stroke="white" stroke-linecap="round" stroke-linejoin="round"/>
<path d="M13.4996 13.5C16.2955 13.5 18.5621 11.2334 18.5621 8.4375C18.5621 5.64156 16.2955 3.375 13.4996 3.375C10.7036 3.375 8.43709 5.64156 8.43709 8.4375C8.43709 11.2334 10.7036 13.5 13.4996 13.5Z" stroke="white" stroke-linecap="round" stroke-linejoin="round"/>
</svg>
