<svg width="18" height="22" viewBox="0 0 18 22" fill="none" xmlns="http://www.w3.org/2000/svg">
<path fill-rule="evenodd" clip-rule="evenodd" d="M4.74249 4C4.74249 1.79086 6.53335 0 8.74249 0C10.9516 0 12.7425 1.79086 12.7425 4V11C12.7425 13.2091 10.9516 15 8.74249 15C6.53335 15 4.74249 13.2091 4.74249 11V4ZM8.74249 2.5C9.57089 2.5 10.2425 3.17157 10.2425 4V11C10.2425 11.8284 9.57089 12.5 8.74249 12.5C7.91409 12.5 7.24249 11.8284 7.24249 11V4C7.24249 3.17157 7.91409 2.5 8.74249 2.5Z" fill="#3869E5"/>
<path d="M1.49505 10C0.805279 10 0.244109 10.5602 0.246099 11.25C0.366169 15.4071 3.47104 18.8161 7.49249 19.4087V20.75C7.49249 21.4404 8.05209 22 8.74249 22C9.43289 22 9.99249 21.4404 9.99249 20.75V19.4087C14.014 18.8161 17.1188 15.4071 17.2389 11.25C17.2409 10.5602 16.6797 10 15.9899 10C15.3016 10 14.7402 10.5616 14.7374 11.25C14.7198 11.6799 14.6569 12.0981 14.5535 12.5C13.8874 15.0878 11.5383 17 8.74249 17C5.94673 17 3.59758 15.0878 2.93152 12.5C2.82808 12.0981 2.76523 11.6799 2.74761 11.25C2.74479 10.5616 2.18341 10 1.49505 10Z" fill="#3869E5"/>
</svg>
