<svg width="32" height="23" viewBox="0 0 32 23" fill="none" xmlns="http://www.w3.org/2000/svg">
<path fill-rule="evenodd" clip-rule="evenodd" d="M24.8286 8.12971L29.3286 3.7364L27.5714 2L22.6429 6.83264C20.6286 5.84937 18.4 5.2636 16 5.2636C13.6 5.2636 11.3714 5.84937 9.37857 6.83264L4.42857 2L2.67143 3.7364L7.17143 8.12971C3.44286 10.7866 1 15.0544 1 19.9079V22H31V19.9079C31 15.0544 28.5571 10.7866 24.8286 8.12971ZM9.57142 17.8157C8.39285 17.8157 7.42857 16.8743 7.42857 15.7237C7.42857 14.5731 8.39285 13.6316 9.57142 13.6316C10.75 13.6316 11.7143 14.5731 11.7143 15.7237C11.7143 16.8743 10.75 17.8157 9.57142 17.8157ZM20.2857 15.7237C20.2857 16.8743 21.25 17.8157 22.4286 17.8157C23.6071 17.8157 24.5714 16.8743 24.5714 15.7237C24.5714 14.5731 23.6071 13.6316 22.4286 13.6316C21.25 13.6316 20.2857 14.5731 20.2857 15.7237Z" stroke="#3869E5" stroke-width="2"/>
</svg>
