<svg width="26" height="27" viewBox="0 0 26 27" fill="none" xmlns="http://www.w3.org/2000/svg">
<path d="M17.6668 18.1239C17.6668 18.1239 15.9168 15.7905 13.0002 15.7905C10.0835 15.7905 8.3335 18.1239 8.3335 18.1239M18.8335 10.2372C18.3727 10.803 17.7427 11.1239 17.0835 11.1239C16.4243 11.1239 15.8118 10.803 15.3335 10.2372M10.6668 10.2372C10.206 10.803 9.576 11.1239 8.91683 11.1239C8.25766 11.1239 7.64516 10.803 7.16683 10.2372M24.6668 13.4572C24.6668 19.9005 19.4435 25.1239 13.0002 25.1239C6.55684 25.1239 1.3335 19.9005 1.3335 13.4572C1.3335 7.01387 6.55684 1.79053 13.0002 1.79053C19.4435 1.79053 24.6668 7.01387 24.6668 13.4572Z" stroke="#2DC3F3" stroke-width="2" stroke-linecap="round" stroke-linejoin="round"/>
</svg>
