<svg width="100" height="100" viewBox="0 0 100 100" fill="none" xmlns="http://www.w3.org/2000/svg">
<g id="Brother_Large" clip-path="url(#clip0_4680_6772)">
<rect width="100" height="100"/>
<g id="Group 37537">
<g id="Group 37524">
<g id="Group 37394">
<g id="Group 356">
<g id="Mask Group">
<mask id="mask0_4680_6772" style="mask-type:alpha" maskUnits="userSpaceOnUse" x="0" y="0" width="100" height="100">
<path id="Ellipse 95" d="M99.5004 49.9999C99.5004 77.3402 77.4426 99.4999 50.238 99.4999C23.0334 99.4999 0.975586 77.3402 0.975586 49.9999C0.975586 22.6596 23.0334 0.5 50.238 0.5C77.4426 0.5 99.5004 22.6596 99.5004 49.9999Z" fill="#C4C4C4" stroke="black"/>
</mask>
<g mask="url(#mask0_4680_6772)">
<g id="Layer 2">
<g id="avatar">
<g id="Group">
<path id="Vector" d="M75.1981 21.0302C75.1981 10.5355 60.6523 12.054 50.1359 12.054C39.6196 12.054 24.7988 10.5355 24.7988 21.0302V56.0415C24.7988 66.5361 45.6402 75.0437 56.1566 75.0437C66.6729 75.0437 75.1981 60.4946 75.1981 50L75.1981 21.0302Z" fill="#3869E5"/>
<path id="Vector_2" d="M23.3458 57.3851C26.8505 57.3851 29.6916 54.5499 29.6916 51.0524C29.6916 47.555 26.8505 44.7197 23.3458 44.7197C19.8411 44.7197 17 47.555 17 51.0524C17 54.5499 19.8411 57.3851 23.3458 57.3851Z" fill="#45CBF6"/>
<path id="Vector_3" d="M76.3917 57.3851C79.8964 57.3851 82.7375 54.5499 82.7375 51.0524C82.7375 47.555 79.8964 44.7197 76.3917 44.7197C72.887 44.7197 70.0459 47.555 70.0459 51.0524C70.0459 54.5499 72.887 57.3851 76.3917 57.3851Z" fill="#45CBF6"/>
<path id="Vector_4" d="M45.8813 88.2861H54.2515C55.751 88.2861 57.189 88.8806 58.2493 89.9387C59.3096 90.9968 59.9053 92.4319 59.9053 93.9283V106.73H40.2275V93.9283C40.2275 92.4319 40.8232 90.9968 41.8835 89.9387C42.9438 88.8806 44.3818 88.2861 45.8813 88.2861Z" fill="#3869E5"/>
<path id="Vector_5" d="M49.8691 82.0708C63.8639 82.0708 75.2089 69.3528 75.2089 53.6643C75.2089 37.9758 63.8639 25.2578 49.8691 25.2578C35.8743 25.2578 24.5293 37.9758 24.5293 53.6643C24.5293 69.3528 35.8743 82.0708 49.8691 82.0708Z" fill="#45CBF6"/>
<path id="Vector_6" d="M45.213 95.7617H40.2285V123.537H45.213V95.7617Z" fill="#45CBF6"/>
<path id="Vector_7" d="M54.9217 123.534H59.9062V95.7585H54.9217V123.534Z" fill="#45CBF6"/>
<path id="Vector_8" d="M40.731 40.0767L37.1884 41.3774C36.7752 41.5281 36.3191 41.5094 35.9197 41.3256C35.5203 41.1417 35.21 40.8076 35.0566 40.3962V40.3962C34.9055 39.9823 34.9253 39.5255 35.1117 39.1262C35.298 38.7269 35.6356 38.4178 36.0502 38.2668L39.5908 36.9639C40.0042 36.8134 40.4605 36.8323 40.86 37.0166C41.2595 37.2009 41.5696 37.5354 41.7226 37.9472V37.9472C41.8737 38.3608 41.8542 38.8174 41.6683 39.2167C41.4824 39.616 41.1453 39.9253 40.731 40.0767Z" fill="#3869E5"/>
<path id="Vector_9" d="M58.2716 40.0763L61.8121 41.377C62.2256 41.5277 62.682 41.5092 63.0817 41.3253C63.4815 41.1415 63.7922 40.8074 63.946 40.3958V40.3958C64.0963 39.9832 64.077 39.5281 63.8925 39.1296C63.7079 38.7311 63.373 38.4215 62.9607 38.2684L59.4201 36.9656C59.0061 36.8136 58.5487 36.8315 58.148 37.0155C57.7472 37.1994 57.4359 37.5343 57.2821 37.9468V37.9468C57.1314 38.3602 57.1509 38.8163 57.3363 39.2154C57.5217 39.6145 57.858 39.924 58.2716 40.0763V40.0763Z" fill="#3869E5"/>
</g>
<path id="Vector_10" d="M41.9935 50.0017C41.7433 50.0017 41.5033 49.9044 41.3263 49.7311C41.1494 49.5579 41.05 49.3229 41.05 49.0779C41.0331 48.5722 40.8161 48.0927 40.4448 47.7409C40.0736 47.389 39.5771 47.1922 39.0603 47.1922C38.5436 47.1922 38.0471 47.389 37.6758 47.7409C37.3046 48.0927 37.0876 48.5722 37.0707 49.0779C37.0707 49.3229 36.9713 49.5579 36.7944 49.7311C36.6174 49.9044 36.3774 50.0017 36.1272 50.0017C35.877 50.0017 35.637 49.9044 35.46 49.7311C35.2831 49.5579 35.1837 49.3229 35.1837 49.0779C35.1716 48.5719 35.263 48.0688 35.4523 47.5979C35.6417 47.127 35.9254 46.698 36.2865 46.336C36.6477 45.974 37.0792 45.6863 37.5555 45.4899C38.0319 45.2935 38.5435 45.1924 39.0603 45.1924C39.5772 45.1924 40.0888 45.2935 40.5652 45.4899C41.0415 45.6863 41.473 45.974 41.8341 46.336C42.1953 46.698 42.4789 47.127 42.6683 47.5979C42.8577 48.0688 42.9491 48.5719 42.937 49.0779C42.937 49.3229 42.8376 49.5579 42.6607 49.7311C42.4837 49.9044 42.2437 50.0017 41.9935 50.0017Z" fill="#3869E5"/>
<path id="Vector_11" d="M62.4066 50.0017C62.1563 50.0017 61.9164 49.9044 61.7394 49.7311C61.5625 49.5579 61.4631 49.3229 61.4631 49.0779C61.4462 48.5722 61.2292 48.0927 60.8579 47.7409C60.4866 47.389 59.9902 47.1922 59.4734 47.1922C58.9567 47.1922 58.4602 47.389 58.0889 47.7409C57.7176 48.0927 57.5006 48.5722 57.4838 49.0779C57.4838 49.3229 57.3844 49.5579 57.2074 49.7311C57.0305 49.9044 56.7905 50.0017 56.5403 50.0017C56.29 50.0017 56.0501 49.9044 55.8731 49.7311C55.6962 49.5579 55.5968 49.3229 55.5968 49.0779C55.5847 48.5719 55.676 48.0688 55.8654 47.5979C56.0548 47.127 56.3385 46.698 56.6996 46.336C57.0608 45.974 57.4923 45.6863 57.9686 45.4899C58.4449 45.2935 58.9566 45.1924 59.4734 45.1924C59.9903 45.1924 60.5019 45.2935 60.9783 45.4899C61.4546 45.6863 61.8861 45.974 62.2472 46.336C62.6084 46.698 62.892 47.127 63.0814 47.5979C63.2708 48.0688 63.3622 48.5719 63.3501 49.0779C63.3504 49.1993 63.3262 49.3195 63.2789 49.4317C63.2315 49.5439 63.162 49.6459 63.0744 49.7317C62.9867 49.8176 62.8826 49.8856 62.768 49.9319C62.6534 49.9783 62.5306 50.002 62.4066 50.0017Z" fill="#3869E5"/>
</g>
<path id="Vector_12" d="M45.0352 80.6592H54.8617V87.8324C54.8623 88.3185 54.7357 88.7998 54.4894 89.2491C54.243 89.6983 53.8817 90.1066 53.4259 90.4506C52.9702 90.7946 52.429 91.0676 51.8332 91.254C51.2375 91.4404 50.5988 91.5365 49.9537 91.5369V91.5369C48.6509 91.5369 47.4015 91.147 46.4803 90.4528C45.559 89.7587 45.0415 88.8172 45.0415 87.8356V80.6624L45.0352 80.6592Z" fill="#45CBF6"/>
</g>
</g>
</g>
</g>
</g>
<path id="Vector_13" d="M40 59.0977C46.5814 70.5573 53.0533 70.9563 59.4136 59.0977H40Z" fill="#3869E5"/>
</g>
</g>
</g>
<defs>
<clipPath id="clip0_4680_6772">
<rect width="100" height="100" fill="white"/>
</clipPath>
</defs>
</svg>
