<svg width="100" height="100" viewBox="0 0 100 100" fill="none" xmlns="http://www.w3.org/2000/svg">
<g id="Brother_blue" clip-path="url(#clip0_4680_6293)">
<rect width="100" height="100" />
<g id="Group 37382" filter="url(#filter0_ddii_4680_6293)">
<g id="Group 356">
<ellipse id="Ellipse 96" cx="49.2981" cy="49.4999" rx="42.2981" ry="42.4999" fill="white"/>
<g id="Mask Group">
<mask id="mask0_4680_6293" style="mask-type:alpha" maskUnits="userSpaceOnUse" x="7" y="7" width="85" height="85">
<path id="Ellipse 95" d="M91.4994 49.4999C91.4994 72.6981 72.7836 91.4999 49.7014 91.4999C26.6192 91.4999 7.90332 72.6981 7.90332 49.4999C7.90332 26.3018 26.6192 7.5 49.7014 7.5C72.7836 7.5 91.4994 26.3018 91.4994 49.4999Z" fill="#C4C4C4" stroke="black"/>
</mask>
<g mask="url(#mask0_4680_6293)">
<g id="Layer 2">
<g id="avatar">
<g id="Group">
<path id="Vector" d="M71.4683 24.8744C71.4683 15.954 59.1043 17.2447 50.1654 17.2447C41.2266 17.2447 28.6289 15.954 28.6289 24.8744V54.634C28.6289 63.5545 46.3441 70.7859 55.283 70.7859C64.2219 70.7859 71.4683 63.5545 71.4683 54.634V24.8744Z" fill="#3869E5"/>
<path id="Vector_2" d="M27.3939 55.7763C30.3729 55.7763 32.7878 53.3664 32.7878 50.3935C32.7878 47.4207 30.3729 45.0107 27.3939 45.0107C24.4149 45.0107 22 47.4207 22 50.3935C22 53.3664 24.4149 55.7763 27.3939 55.7763Z" fill="#45CBF6"/>
<path id="Vector_3" d="M72.4828 55.7763C75.4618 55.7763 77.8767 53.3664 77.8767 50.3935C77.8767 47.4207 75.4618 45.0107 72.4828 45.0107C69.5038 45.0107 67.0889 47.4207 67.0889 50.3935C67.0889 53.3664 69.5038 55.7763 72.4828 55.7763Z" fill="#45CBF6"/>
<path id="Vector_4" d="M46.5489 82.042H53.6635C54.9381 82.042 56.1604 82.5473 57.0617 83.4467C57.9629 84.346 58.4693 85.5659 58.4693 86.8378V97.7191H41.7432V86.8378C41.7432 85.5659 42.2495 84.346 43.1507 83.4467C44.052 82.5473 45.2743 82.042 46.5489 82.042Z" fill="#3869E5"/>
<path id="Vector_5" d="M49.9392 76.7588C61.8348 76.7588 71.478 65.9485 71.478 52.6133C71.478 39.2781 61.8348 28.4678 49.9392 28.4678C38.0437 28.4678 28.4004 39.2781 28.4004 52.6133C28.4004 65.9485 38.0437 76.7588 49.9392 76.7588Z" fill="#45CBF6"/>
<path id="Vector_6" d="M45.981 88.3955H41.7441V112.005H45.981V88.3955Z" fill="#45CBF6"/>
<path id="Vector_7" d="M54.2339 112.003H58.4707V88.3936H54.2339V112.003Z" fill="#45CBF6"/>
<path id="Vector_8" d="M42.1714 41.0634L39.1602 42.1691C38.809 42.2971 38.4213 42.2813 38.0818 42.125C37.7423 41.9687 37.4785 41.6847 37.3482 41.335V41.335C37.2198 40.9832 37.2366 40.5949 37.395 40.2555C37.5533 39.9161 37.8403 39.6533 38.1927 39.525L41.2022 38.4176C41.5536 38.2896 41.9415 38.3057 42.281 38.4623C42.6206 38.619 42.8842 38.9034 43.0142 39.2534V39.2534C43.1427 39.605 43.1261 39.9931 42.9681 40.3324C42.8101 40.6718 42.5236 40.9347 42.1714 41.0634Z" fill="#3869E5"/>
<path id="Vector_9" d="M57.0807 41.0631L60.0902 42.1687C60.4416 42.2968 60.8296 42.281 61.1694 42.1248C61.5092 41.9685 61.7733 41.6845 61.904 41.3347V41.3347C62.0317 40.984 62.0154 40.5971 61.8585 40.2584C61.7016 39.9196 61.4169 39.6565 61.0665 39.5264L58.057 38.419C57.7051 38.2898 57.3163 38.3051 56.9757 38.4614C56.6351 38.6177 56.3704 38.9024 56.2397 39.253V39.253C56.1116 39.6044 56.1282 39.9921 56.2858 40.3313C56.4434 40.6705 56.7292 40.9336 57.0807 41.0631V41.0631Z" fill="#3869E5"/>
</g>
<path id="Vector_10" d="M43.2443 49.501C43.0316 49.501 42.8276 49.4183 42.6772 49.271C42.5268 49.1237 42.4423 48.924 42.4423 48.7158C42.428 48.2859 42.2436 47.8784 41.928 47.5793C41.6124 47.2802 41.1904 47.113 40.7511 47.113C40.3119 47.113 39.8899 47.2802 39.5743 47.5793C39.2587 47.8784 39.0743 48.2859 39.06 48.7158C39.06 48.924 38.9755 49.1237 38.8251 49.271C38.6747 49.4183 38.4707 49.501 38.258 49.501C38.0453 49.501 37.8413 49.4183 37.6909 49.271C37.5405 49.1237 37.456 48.924 37.456 48.7158C37.4457 48.2857 37.5234 47.858 37.6843 47.4578C37.8453 47.0575 38.0864 46.6928 38.3934 46.3851C38.7004 46.0774 39.0671 45.8329 39.472 45.666C39.8769 45.4991 40.3118 45.4131 40.7511 45.4131C41.1905 45.4131 41.6254 45.4991 42.0303 45.666C42.4352 45.8329 42.8019 46.0774 43.1089 46.3851C43.4159 46.6928 43.657 47.0575 43.8179 47.4578C43.9789 47.858 44.0566 48.2857 44.0463 48.7158C44.0463 48.924 43.9618 49.1237 43.8114 49.271C43.661 49.4183 43.457 49.501 43.2443 49.501Z" fill="#3869E5"/>
<path id="Vector_11" d="M60.5959 49.501C60.3832 49.501 60.1792 49.4183 60.0288 49.271C59.8784 49.1237 59.7939 48.924 59.7939 48.7158C59.7796 48.2859 59.5951 47.8784 59.2795 47.5793C58.9639 47.2802 58.5419 47.113 58.1027 47.113C57.6635 47.113 57.2415 47.2802 56.9259 47.5793C56.6103 47.8784 56.4258 48.2859 56.4115 48.7158C56.4115 48.924 56.327 49.1237 56.1766 49.271C56.0262 49.4183 55.8222 49.501 55.6095 49.501C55.3968 49.501 55.1928 49.4183 55.0424 49.271C54.892 49.1237 54.8075 48.924 54.8075 48.7158C54.7973 48.2857 54.8749 47.858 55.0359 47.4578C55.1969 47.0575 55.438 46.6928 55.745 46.3851C56.052 46.0774 56.4187 45.8329 56.8236 45.666C57.2285 45.4991 57.6634 45.4131 58.1027 45.4131C58.542 45.4131 58.9769 45.4991 59.3818 45.666C59.7867 45.8329 60.1534 46.0774 60.4604 46.3851C60.7674 46.6928 61.0085 47.0575 61.1695 47.4578C61.3305 47.858 61.4081 48.2857 61.3979 48.7158C61.3981 48.8189 61.3775 48.9212 61.3373 49.0165C61.2971 49.1119 61.238 49.1986 61.1635 49.2715C61.089 49.3445 61.0005 49.4023 60.9031 49.4417C60.8057 49.4811 60.7013 49.5012 60.5959 49.501Z" fill="#3869E5"/>
</g>
<path id="Vector_12" d="M45.8301 75.5596H54.1826V81.6568C54.1831 82.07 54.0756 82.4791 53.8662 82.861C53.6568 83.2428 53.3496 83.5899 52.9622 83.8823C52.5749 84.1747 52.1148 84.4067 51.6084 84.5651C51.102 84.7236 50.5592 84.8053 50.0109 84.8057V84.8057C48.9035 84.8057 47.8414 84.4742 47.0584 83.8842C46.2754 83.2942 45.8355 82.4939 45.8355 81.6595V75.5623L45.8301 75.5596Z" fill="#45CBF6"/>
</g>
</g>
</g>
</g>
</g>
<path id="Vector_13" d="M41 57.2334C46.5942 66.9741 52.0953 67.3132 57.5015 57.2334H41Z" fill="#3869E5"/>
</g>
<defs>
<filter id="filter0_ddii_4680_6293" x="-2" y="-2" width="102.596" height="103" filterUnits="userSpaceOnUse" color-interpolation-filters="sRGB">
<feFlood flood-opacity="0" result="BackgroundImageFix"/>
<feColorMatrix in="SourceAlpha" type="matrix" values="0 0 0 0 0 0 0 0 0 0 0 0 0 0 0 0 0 0 127 0" result="hardAlpha"/>
<feOffset dx="5" dy="5"/>
<feGaussianBlur stdDeviation="2"/>
<feComposite in2="hardAlpha" operator="out"/>
<feColorMatrix type="matrix" values="0 0 0 0 1 0 0 0 0 1 0 0 0 0 1 0 0 0 0.5 0"/>
<feBlend mode="normal" in2="BackgroundImageFix" result="effect1_dropShadow_4680_6293"/>
<feColorMatrix in="SourceAlpha" type="matrix" values="0 0 0 0 0 0 0 0 0 0 0 0 0 0 0 0 0 0 127 0" result="hardAlpha"/>
<feOffset dx="-5" dy="-5"/>
<feGaussianBlur stdDeviation="2"/>
<feComposite in2="hardAlpha" operator="out"/>
<feColorMatrix type="matrix" values="0 0 0 0 0.92549 0 0 0 0 0.937255 0 0 0 0 0.941176 0 0 0 0.25 0"/>
<feBlend mode="normal" in2="effect1_dropShadow_4680_6293" result="effect2_dropShadow_4680_6293"/>
<feBlend mode="normal" in="SourceGraphic" in2="effect2_dropShadow_4680_6293" result="shape"/>
<feColorMatrix in="SourceAlpha" type="matrix" values="0 0 0 0 0 0 0 0 0 0 0 0 0 0 0 0 0 0 127 0" result="hardAlpha"/>
<feOffset dx="-1" dy="-2"/>
<feGaussianBlur stdDeviation="13"/>
<feComposite in2="hardAlpha" operator="arithmetic" k2="-1" k3="1"/>
<feColorMatrix type="matrix" values="0 0 0 0 0.176471 0 0 0 0 0.764706 0 0 0 0 0.952941 0 0 0 0.5 0"/>
<feBlend mode="normal" in2="shape" result="effect3_innerShadow_4680_6293"/>
<feColorMatrix in="SourceAlpha" type="matrix" values="0 0 0 0 0 0 0 0 0 0 0 0 0 0 0 0 0 0 127 0" result="hardAlpha"/>
<feOffset dx="1" dy="-3"/>
<feGaussianBlur stdDeviation="13.5"/>
<feComposite in2="hardAlpha" operator="arithmetic" k2="-1" k3="1"/>
<feColorMatrix type="matrix" values="0 0 0 0 0.176471 0 0 0 0 0.764706 0 0 0 0 0.952941 0 0 0 0.5 0"/>
<feBlend mode="normal" in2="effect3_innerShadow_4680_6293" result="effect4_innerShadow_4680_6293"/>
</filter>
<clipPath id="clip0_4680_6293">
<rect width="100" height="100" fill="white"/>
</clipPath>
</defs>
</svg>
