<svg width="100" height="100" viewBox="0 0 100 100" fill="none" xmlns="http://www.w3.org/2000/svg">
<g id="Brother" clip-path="url(#clip0_4680_5951)">
<rect width="100" height="100"/>
<g id="Group 37534">
<g id="Group 37523" filter="url(#filter0_dd_4680_5951)">
<g id="Group 356">
<ellipse id="Ellipse 96" cx="49.2981" cy="49.4999" rx="42.2981" ry="42.4999" fill="white"/>
<g id="Mask Group">
<mask id="mask0_4680_5951" style="mask-type:alpha" maskUnits="userSpaceOnUse" x="7" y="7" width="85" height="85">
<path id="Ellipse 95" d="M91.4994 49.4999C91.4994 72.6981 72.7836 91.4999 49.7014 91.4999C26.6192 91.4999 7.90332 72.6981 7.90332 49.4999C7.90332 26.3018 26.6192 7.5 49.7014 7.5C72.7836 7.5 91.4994 26.3018 91.4994 49.4999Z" fill="#C4C4C4" stroke="black"/>
</mask>
<g mask="url(#mask0_4680_5951)">
<g id="Layer 2">
<g id="avatar">
<g id="Group">
<path id="Vector" d="M69.1353 24.8744C69.1353 15.954 56.7713 17.2447 47.8324 17.2447C38.8935 17.2447 26.2959 15.954 26.2959 24.8744V54.634C26.2959 63.5545 44.0111 70.7859 52.95 70.7859C61.8889 70.7859 69.1353 63.5545 69.1353 54.634V24.8744Z" fill="#3869E5"/>
<path id="Vector_2" d="M25.0609 55.7763C28.0399 55.7763 30.4548 53.3664 30.4548 50.3935C30.4548 47.4207 28.0399 45.0107 25.0609 45.0107C22.0819 45.0107 19.667 47.4207 19.667 50.3935C19.667 53.3664 22.0819 55.7763 25.0609 55.7763Z" fill="#45CBF6"/>
<path id="Vector_3" d="M70.1498 55.7763C73.1288 55.7763 75.5437 53.3664 75.5437 50.3935C75.5437 47.4207 73.1288 45.0107 70.1498 45.0107C67.1708 45.0107 64.7559 47.4207 64.7559 50.3935C64.7559 53.3664 67.1708 55.7763 70.1498 55.7763Z" fill="#45CBF6"/>
<path id="Vector_4" d="M44.2159 82.042H51.3305C52.6051 82.042 53.8274 82.5473 54.7287 83.4467C55.6299 84.346 56.1362 85.5659 56.1362 86.8378V97.7191H39.4102V86.8378C39.4102 85.5659 39.9165 84.346 40.8177 83.4467C41.719 82.5473 42.9413 82.042 44.2159 82.042Z" fill="#3869E5"/>
<path id="Vector_5" d="M47.6062 76.7588C59.5018 76.7588 69.145 65.9485 69.145 52.6133C69.145 39.2781 59.5018 28.4678 47.6062 28.4678C35.7106 28.4678 26.0674 39.2781 26.0674 52.6133C26.0674 65.9485 35.7106 76.7588 47.6062 76.7588Z" fill="#45CBF6"/>
<path id="Vector_6" d="M43.648 88.3955H39.4111V112.005H43.648V88.3955Z" fill="#45CBF6"/>
<path id="Vector_7" d="M51.9009 112.003H56.1377V88.3936H51.9009V112.003Z" fill="#45CBF6"/>
<path id="Vector_8" d="M39.8384 41.0634L36.8272 42.1691C36.476 42.2971 36.0883 42.2813 35.7488 42.125C35.4093 41.9687 35.1455 41.6847 35.0152 41.335V41.335C34.8867 40.9832 34.9036 40.5949 35.062 40.2555C35.2203 39.9161 35.5073 39.6533 35.8597 39.525L38.8692 38.4176C39.2206 38.2896 39.6085 38.3057 39.948 38.4623C40.2876 38.619 40.5512 38.9034 40.6812 39.2534V39.2534C40.8097 39.605 40.7931 39.9931 40.6351 40.3324C40.4771 40.6718 40.1905 40.9347 39.8384 41.0634Z" fill="#3869E5"/>
<path id="Vector_9" d="M54.7477 41.0631L57.7572 42.1687C58.1086 42.2968 58.4966 42.281 58.8364 42.1248C59.1762 41.9685 59.4402 41.6845 59.571 41.3347V41.3347C59.6987 40.984 59.6824 40.5971 59.5255 40.2584C59.3686 39.9196 59.0839 39.6565 58.7335 39.5264L55.724 38.419C55.3721 38.2898 54.9833 38.3051 54.6427 38.4614C54.302 38.6177 54.0374 38.9024 53.9067 39.253V39.253C53.7786 39.6044 53.7951 39.9921 53.9528 40.3313C54.1104 40.6705 54.3962 40.9336 54.7477 41.0631V41.0631Z" fill="#3869E5"/>
</g>
<path id="Vector_10" d="M40.9113 49.501C40.6986 49.501 40.4946 49.4183 40.3442 49.271C40.1938 49.1237 40.1093 48.924 40.1093 48.7158C40.095 48.2859 39.9106 47.8784 39.595 47.5793C39.2794 47.2802 38.8574 47.113 38.4181 47.113C37.9789 47.113 37.5569 47.2802 37.2413 47.5793C36.9257 47.8784 36.7413 48.2859 36.7269 48.7158C36.7269 48.924 36.6425 49.1237 36.4921 49.271C36.3417 49.4183 36.1377 49.501 35.925 49.501C35.7123 49.501 35.5083 49.4183 35.3579 49.271C35.2075 49.1237 35.123 48.924 35.123 48.7158C35.1127 48.2857 35.1904 47.858 35.3513 47.4578C35.5123 47.0575 35.7534 46.6928 36.0604 46.3851C36.3674 46.0774 36.7341 45.8329 37.139 45.666C37.5439 45.4991 37.9788 45.4131 38.4181 45.4131C38.8575 45.4131 39.2924 45.4991 39.6973 45.666C40.1021 45.8329 40.4689 46.0774 40.7759 46.3851C41.0829 46.6928 41.324 47.0575 41.4849 47.4578C41.6459 47.858 41.7236 48.2857 41.7133 48.7158C41.7133 48.924 41.6288 49.1237 41.4784 49.271C41.328 49.4183 41.124 49.501 40.9113 49.501Z" fill="#3869E5"/>
<path id="Vector_11" d="M58.2629 49.501C58.0502 49.501 57.8462 49.4183 57.6958 49.271C57.5454 49.1237 57.4609 48.924 57.4609 48.7158C57.4466 48.2859 57.2621 47.8784 56.9465 47.5793C56.6309 47.2802 56.2089 47.113 55.7697 47.113C55.3305 47.113 54.9085 47.2802 54.5929 47.5793C54.2773 47.8784 54.0928 48.2859 54.0785 48.7158C54.0785 48.924 53.994 49.1237 53.8436 49.271C53.6932 49.4183 53.4892 49.501 53.2765 49.501C53.0638 49.501 52.8598 49.4183 52.7094 49.271C52.559 49.1237 52.4745 48.924 52.4745 48.7158C52.4643 48.2857 52.5419 47.858 52.7029 47.4578C52.8639 47.0575 53.105 46.6928 53.412 46.3851C53.719 46.0774 54.0857 45.8329 54.4906 45.666C54.8955 45.4991 55.3304 45.4131 55.7697 45.4131C56.209 45.4131 56.6439 45.4991 57.0488 45.666C57.4537 45.8329 57.8204 46.0774 58.1274 46.3851C58.4344 46.6928 58.6755 47.0575 58.8365 47.4578C58.9975 47.858 59.0751 48.2857 59.0649 48.7158C59.0651 48.8189 59.0445 48.9212 59.0043 49.0165C58.9641 49.1119 58.905 49.1986 58.8305 49.2715C58.756 49.3445 58.6675 49.4023 58.5701 49.4417C58.4727 49.4811 58.3683 49.5012 58.2629 49.501Z" fill="#3869E5"/>
</g>
<path id="Vector_12" d="M43.4971 75.5596H51.8496V81.6568C51.8501 82.07 51.7426 82.4791 51.5332 82.861C51.3238 83.2428 51.0166 83.5899 50.6292 83.8823C50.2418 84.1747 49.7818 84.4067 49.2754 84.5651C48.769 84.7236 48.2262 84.8053 47.6778 84.8057V84.8057C46.5705 84.8057 45.5084 84.4742 44.7254 83.8842C43.9424 83.2942 43.5025 82.4939 43.5025 81.6595V75.5623L43.4971 75.5596Z" fill="#45CBF6"/>
</g>
</g>
</g>
</g>
</g>
<path id="Vector_13" d="M38.9639 57.2334C44.4788 66.9741 49.902 67.3132 55.2317 57.2334H38.9639Z" fill="#3869E5"/>
</g>
</g>
<defs>
<filter id="filter0_dd_4680_5951" x="-2" y="-2" width="102.596" height="103" filterUnits="userSpaceOnUse" color-interpolation-filters="sRGB">
<feFlood flood-opacity="0" result="BackgroundImageFix"/>
<feColorMatrix in="SourceAlpha" type="matrix" values="0 0 0 0 0 0 0 0 0 0 0 0 0 0 0 0 0 0 127 0" result="hardAlpha"/>
<feOffset dx="5" dy="5"/>
<feGaussianBlur stdDeviation="2"/>
<feComposite in2="hardAlpha" operator="out"/>
<feColorMatrix type="matrix" values="0 0 0 0 0.176471 0 0 0 0 0.764706 0 0 0 0 0.952941 0 0 0 0.15 0"/>
<feBlend mode="normal" in2="BackgroundImageFix" result="effect1_dropShadow_4680_5951"/>
<feColorMatrix in="SourceAlpha" type="matrix" values="0 0 0 0 0 0 0 0 0 0 0 0 0 0 0 0 0 0 127 0" result="hardAlpha"/>
<feOffset dx="-5" dy="-5"/>
<feGaussianBlur stdDeviation="2"/>
<feComposite in2="hardAlpha" operator="out"/>
<feColorMatrix type="matrix" values="0 0 0 0 0.866667 0 0 0 0 0.882353 0 0 0 0 0.941176 0 0 0 0.6 0"/>
<feBlend mode="normal" in2="effect1_dropShadow_4680_5951" result="effect2_dropShadow_4680_5951"/>
<feBlend mode="normal" in="SourceGraphic" in2="effect2_dropShadow_4680_5951" result="shape"/>
</filter>
<clipPath id="clip0_4680_5951">
<rect width="100" height="100" fill="white"/>
</clipPath>
</defs>
</svg>
