<svg width="360" height="68" viewBox="0 0 360 68" fill="none" xmlns="http://www.w3.org/2000/svg">
<path d="M307.27 26.543H253.27C244.53 26.543 237.25 32.9132 235.62 41.3457H324.93C323.3 32.9132 316.02 26.543 307.27 26.543Z" fill="white"/>
<path d="M206.96 26.543H152.96C144.22 26.543 136.94 32.9132 135.31 41.3457H224.62C222.99 32.9132 215.71 26.543 206.96 26.543Z" fill="white"/>
<path d="M106.65 26.543H52.65C43.91 26.543 36.63 32.9132 35 41.3457H124.31C122.68 32.9132 115.4 26.543 106.65 26.543Z" fill="white"/>
<g filter="url(#filter0_d_4499_3044)">
<path d="M360 16.002H0V42.5439H360V16.002Z" fill="url(#paint0_linear_4499_3044)"/>
<path d="M0 42.9438H360" stroke="#2DC3F3"/>
</g>
<circle cx="180" cy="43.9434" r="18" fill="#2DC3F3"/>
<path d="M174 40.9434L180 48.9434L186 40.9434" fill="#2DC3F3"/>
<path d="M174 40.9434L180 48.9434L186 40.9434" stroke="white" stroke-width="1.5" stroke-linejoin="round"/>
<defs>
<filter id="filter0_d_4499_3044" x="-20" y="0.00195312" width="400" height="67.4419" filterUnits="userSpaceOnUse" color-interpolation-filters="sRGB">
<feFlood flood-opacity="0" result="BackgroundImageFix"/>
<feColorMatrix in="SourceAlpha" type="matrix" values="0 0 0 0 0 0 0 0 0 0 0 0 0 0 0 0 0 0 127 0" result="hardAlpha"/>
<feOffset dy="4"/>
<feGaussianBlur stdDeviation="10"/>
<feComposite in2="hardAlpha" operator="out"/>
<feColorMatrix type="matrix" values="0 0 0 0 0 0 0 0 0 0 0 0 0 0 0 0 0 0 0.15 0"/>
<feBlend mode="normal" in2="BackgroundImageFix" result="effect1_dropShadow_4499_3044"/>
<feBlend mode="normal" in="SourceGraphic" in2="effect1_dropShadow_4499_3044" result="shape"/>
</filter>
<linearGradient id="paint0_linear_4499_3044" x1="180" y1="16.0677" x2="180" y2="42.6096" gradientUnits="userSpaceOnUse">
<stop offset="0.552083" stop-color="white" stop-opacity="0"/>
<stop offset="1" stop-color="white"/>
</linearGradient>
</defs>
</svg>
