<svg xmlns="http://www.w3.org/2000/svg" width="62" height="62" fill="none" xmlns:v="https://vecta.io/nano"><mask id="A" fill="#fff"><path fill-rule="evenodd" d="M38.75 2.581a2.58 2.58 0 0 0-.757-1.825C37.509.272 36.852 0 36.167 0s-1.342.272-1.827.756a2.58 2.58 0 0 0-.757 1.825v5.162a2.58 2.58 0 0 0 .757 1.825c.484.484 1.142.756 1.827.756s1.342-.272 1.827-.756a2.58 2.58 0 0 0 .757-1.825V2.581zm-11.09.756c-.487-.47-1.14-.73-1.817-.724s-1.325.277-1.804.756a2.58 2.58 0 0 0-.032 3.618l2.583 2.581c.238.247.523.443.838.578s.654.206.997.209.683-.062 1.001-.192a2.58 2.58 0 0 0 1.413-1.411 2.58 2.58 0 0 0-.017-1.996 2.58 2.58 0 0 0-.579-.838L27.66 3.337zm20.667 3.649a2.58 2.58 0 0 0-.031-3.618c-.479-.479-1.127-.75-1.804-.756s-1.33.254-1.817.724L42.09 5.918a2.58 2.58 0 0 0-.789 1.834 2.58 2.58 0 0 0 .757 1.847c.243.242.531.434.848.564s.658.195 1.001.192.682-.074.997-.209.6-.332.839-.578l2.583-2.581zm-22.984 6.943c-1.186-1.187-2.764-2.183-4.518-2.532-1.842-.369-3.909-.003-5.528 1.618-.501.498-.878 1.038-1.157 1.6a7.74 7.74 0 0 0-1.535-.483c-1.842-.369-3.909 0-5.528 1.618s-1.989 3.683-1.62 5.523a7.47 7.47 0 0 0 .481 1.536 6 6 0 0 0-1.602 1.154c-1.622 1.621-1.989 3.683-1.62 5.523.351 1.755 1.349 3.329 2.532 4.517l.096.093a6.16 6.16 0 0 0-1.008.818c-1.622 1.621-1.989 3.683-1.62 5.523.351 1.755 1.349 3.329 2.532 4.514l12.788 12.775c5.213 5.208 13.374 5.464 20.354 1.807 5.386 1.213 11.364-.121 16.397-5.151C59.241 49.928 62 42.905 62 37.072c0-6.075-2.855-11.232-7.714-16.102l-1.514-1.549-.021-.021c-1.186-1.182-2.764-2.178-4.518-2.529-1.842-.369-3.909-.003-5.528 1.618-.323.323-.597.661-.827 1.012l-.098-.101h-.005c-1.183-1.185-2.762-2.181-4.513-2.529-1.842-.369-3.909-.003-5.528 1.618a5.98 5.98 0 0 0-.819 1.006l-5.575-5.57.003.003zm3.653 14.598l-9.137-9.126c-.641-.64-1.013-1.342-1.119-1.874-.088-.439 0-.658.207-.862s.424-.294.863-.206c.53.103 1.235.477 1.875 1.117l10.958 10.948.003.003 5.479 5.474c.24.24.525.43.838.56s.649.197.989.197.675-.066.989-.196.599-.32.839-.559.43-.524.56-.837a2.58 2.58 0 0 0 .001-1.976 2.58 2.58 0 0 0-.56-.838l-5.485-5.472c-.643-.645-1.013-1.347-1.118-1.876-.088-.439 0-.658.207-.862s.424-.294.863-.206c.53.106 1.235.477 1.876 1.12l.008.005 5.451 5.412 1.832 1.863.018.018c1.886 1.884 2.63 5.185 1.806 9.304-.814 4.052-3.074 8.388-6.373 11.684-1.236 1.243-2.626 2.323-4.136 3.213-5.797 3.389-11.728 2.834-15.045-.475L8.894 41.305c-.641-.643-1.013-1.345-1.119-1.876-.088-.439 0-.658.207-.862s.424-.294.863-.206c.532.106 1.235.477 1.878 1.12l5.479 5.472c.237.252.522.454.838.594s.658.215 1.004.221.69-.058 1.011-.188a2.58 2.58 0 0 0 1.425-1.423 2.58 2.58 0 0 0-.031-2.013 2.58 2.58 0 0 0-.594-.838l-5.477-5.482L8.9 30.351c-.643-.645-1.015-1.347-1.121-1.876-.088-.439 0-.658.207-.865s.424-.294.863-.206c.532.106 1.235.477 1.878 1.12l9.132 9.123c.24.24.525.43.838.56s.649.197.989.197.675-.066.989-.196.598-.32.838-.559a2.58 2.58 0 0 0 .758-1.825 2.58 2.58 0 0 0-.756-1.826l-9.135-9.118-2.738-2.736c-.646-.645-1.015-1.347-1.121-1.876-.088-.439 0-.658.207-.865s.424-.294.863-.206c.53.106 1.235.477 1.876 1.12l2.741 2.736 9.135 9.126c.487.47 1.14.73 1.817.724s1.325-.277 1.804-.756a2.58 2.58 0 0 0 .031-3.618l.003-.003zm22.137 22.206c-1.943 1.941-3.994 3.102-6.029 3.66 3.694-3.923 6.239-8.904 7.205-13.725 1-5.002.375-10.367-3.209-13.957l-1.834-1.866-.018-.018c-.646-.645-1.008-1.334-1.106-1.84-.08-.413 0-.627.22-.846.204-.206.424-.294.863-.206.527.103 1.227.475 1.868 1.11l1.511 1.546.018.018c4.291 4.3 6.213 8.223 6.213 12.466 0 4.491-2.234 10.195-5.704 13.661h.003z"/></mask><path fill-rule="evenodd" d="M38.75 2.581a2.58 2.58 0 0 0-.757-1.825C37.509.272 36.852 0 36.167 0s-1.342.272-1.827.756a2.58 2.58 0 0 0-.757 1.825v5.162a2.58 2.58 0 0 0 .757 1.825c.484.484 1.142.756 1.827.756s1.342-.272 1.827-.756a2.58 2.58 0 0 0 .757-1.825V2.581zm-11.09.756c-.487-.47-1.14-.73-1.817-.724s-1.325.277-1.804.756a2.58 2.58 0 0 0-.032 3.618l2.583 2.581c.238.247.523.443.838.578s.654.206.997.209.683-.062 1.001-.192a2.58 2.58 0 0 0 1.413-1.411 2.58 2.58 0 0 0-.017-1.996 2.58 2.58 0 0 0-.579-.838L27.66 3.337zm20.667 3.649a2.58 2.58 0 0 0-.031-3.618c-.479-.479-1.127-.75-1.804-.756s-1.33.254-1.817.724L42.09 5.918a2.58 2.58 0 0 0-.789 1.834 2.58 2.58 0 0 0 .757 1.847c.243.242.531.434.848.564s.658.195 1.001.192.682-.074.997-.209.6-.332.839-.578l2.583-2.581zm-22.984 6.943c-1.186-1.187-2.764-2.183-4.518-2.532-1.842-.369-3.909-.003-5.528 1.618-.501.498-.878 1.038-1.157 1.6a7.74 7.74 0 0 0-1.535-.483c-1.842-.369-3.909 0-5.528 1.618s-1.989 3.683-1.62 5.523a7.47 7.47 0 0 0 .481 1.536 6 6 0 0 0-1.602 1.154c-1.622 1.621-1.989 3.683-1.62 5.523.351 1.755 1.349 3.329 2.532 4.517l.096.093a6.16 6.16 0 0 0-1.008.818c-1.622 1.621-1.989 3.683-1.62 5.523.351 1.755 1.349 3.329 2.532 4.514l12.788 12.775c5.213 5.208 13.374 5.464 20.354 1.807 5.386 1.213 11.364-.121 16.397-5.151C59.241 49.928 62 42.905 62 37.072c0-6.075-2.855-11.232-7.714-16.102l-1.514-1.549-.021-.021c-1.186-1.182-2.764-2.178-4.518-2.529-1.842-.369-3.909-.003-5.528 1.618-.323.323-.597.661-.827 1.012l-.098-.101h-.005c-1.183-1.185-2.762-2.181-4.513-2.529-1.842-.369-3.909-.003-5.528 1.618a5.98 5.98 0 0 0-.819 1.006l-5.575-5.57.003.003zm3.653 14.598l-9.137-9.126c-.641-.64-1.013-1.342-1.119-1.874-.088-.439 0-.658.207-.862s.424-.294.863-.206c.53.103 1.235.477 1.875 1.117l10.958 10.948.003.003 5.479 5.474c.24.24.525.43.838.56s.649.197.989.197.675-.066.989-.196.599-.32.839-.559.43-.524.56-.837a2.58 2.58 0 0 0 .001-1.976 2.58 2.58 0 0 0-.56-.838l-5.485-5.472c-.643-.645-1.013-1.347-1.118-1.876-.088-.439 0-.658.207-.862s.424-.294.863-.206c.53.106 1.235.477 1.876 1.12l.008.005 5.451 5.412 1.832 1.863.018.018c1.886 1.884 2.63 5.185 1.806 9.304-.814 4.052-3.074 8.388-6.373 11.684-1.236 1.243-2.626 2.323-4.136 3.213-5.797 3.389-11.728 2.834-15.045-.475L8.894 41.305c-.641-.643-1.013-1.345-1.119-1.876-.088-.439 0-.658.207-.862s.424-.294.863-.206c.532.106 1.235.477 1.878 1.12l5.479 5.472c.237.252.522.454.838.594s.658.215 1.004.221.69-.058 1.011-.188a2.58 2.58 0 0 0 1.425-1.423 2.58 2.58 0 0 0-.031-2.013 2.58 2.58 0 0 0-.594-.838l-5.477-5.482L8.9 30.351c-.643-.645-1.015-1.347-1.121-1.876-.088-.439 0-.658.207-.865s.424-.294.863-.206c.532.106 1.235.477 1.878 1.12l9.132 9.123c.24.24.525.43.838.56s.649.197.989.197.675-.066.989-.196.598-.32.838-.559a2.58 2.58 0 0 0 .758-1.825 2.58 2.58 0 0 0-.756-1.826l-9.135-9.118-2.738-2.736c-.646-.645-1.015-1.347-1.121-1.876-.088-.439 0-.658.207-.865s.424-.294.863-.206c.53.106 1.235.477 1.876 1.12l2.741 2.736 9.135 9.126c.487.47 1.14.73 1.817.724s1.325-.277 1.804-.756a2.58 2.58 0 0 0 .031-3.618l.003-.003zm22.137 22.206c-1.943 1.941-3.994 3.102-6.029 3.66 3.694-3.923 6.239-8.904 7.205-13.725 1-5.002.375-10.367-3.209-13.957l-1.834-1.866-.018-.018c-.646-.645-1.008-1.334-1.106-1.84-.08-.413 0-.627.22-.846.204-.206.424-.294.863-.206.527.103 1.227.475 1.868 1.11l1.511 1.546.018.018c4.291 4.3 6.213 8.223 6.213 12.466 0 4.491-2.234 10.195-5.704 13.661h.003z" fill="#fff" stroke="#3869e5" stroke-width="2" mask="url(#A)"/></svg>