<svg width="61" height="61" viewBox="0 0 61 61" fill="none" xmlns="http://www.w3.org/2000/svg">
<path d="M9.1875 59.5V45.125M9.1875 16.375V2M2 9.1875H16.375M2 52.3125H16.375M33.625 4.875L28.6392 17.838C27.8285 19.946 27.4231 21 26.7926 21.8866C26.2339 22.6724 25.5474 23.3589 24.7616 23.9176C23.875 24.5481 22.821 24.9535 20.713 25.7642L7.75 30.75L20.713 35.7358C22.821 36.5465 23.875 36.9519 24.7616 37.5824C25.5474 38.1411 26.2339 38.8276 26.7926 39.6134C27.4231 40.5 27.8285 41.554 28.6392 43.662L33.625 56.625L38.6108 43.662C39.4215 41.554 39.8269 40.5 40.4574 39.6134C41.0161 38.8276 41.7026 38.1411 42.4884 37.5824C43.375 36.9519 44.429 36.5465 46.537 35.7358L59.5 30.75L46.537 25.7642C44.429 24.9535 43.375 24.5481 42.4884 23.9176C41.7026 23.3589 41.0161 22.6724 40.4574 21.8866C39.8269 21 39.4215 19.946 38.6108 17.838L33.625 4.875Z" stroke="white" stroke-width="3" stroke-linecap="round" stroke-linejoin="round"/>
</svg>
