<svg width="19" height="19" viewBox="0 0 19 19" fill="none" xmlns="http://www.w3.org/2000/svg">
<path fill-rule="evenodd" clip-rule="evenodd" d="M18.3319 6.08579C19.1129 5.30474 19.1129 4.03841 18.3319 3.25736L15.6603 0.585787C14.8793 -0.195262 13.6129 -0.195262 12.8319 0.585786L0.83188 12.5858C0.456808 12.9609 0.246094 13.4696 0.246094 14V17.6716C0.246094 18.2239 0.693809 18.6716 1.24609 18.6716H4.91767C5.4481 18.6716 5.95681 18.4609 6.33188 18.0858L18.3319 6.08579ZM10.7412 6.21196L12.7057 8.17642L4.71056 16.1716H2.74609V14.2071L10.7412 6.21196ZM14.4735 6.40866L12.509 4.44419L14.2461 2.70711L16.2106 4.67157L14.4735 6.40866Z" fill="#3869E5"/>
</svg>
