<svg width="26" height="26" viewBox="0 0 26 26" fill="none" xmlns="http://www.w3.org/2000/svg">
<path d="M8.3335 15.3335C8.3335 15.3335 10.0835 17.6668 13.0002 17.6668C15.9168 17.6668 17.6668 15.3335 17.6668 15.3335M16.5002 9.50016H16.5118M9.50016 9.50016H9.51183M24.6668 13.0002C24.6668 19.4435 19.4435 24.6668 13.0002 24.6668C6.55684 24.6668 1.3335 19.4435 1.3335 13.0002C1.3335 6.55684 6.55684 1.3335 13.0002 1.3335C19.4435 1.3335 24.6668 6.55684 24.6668 13.0002ZM17.0835 9.50016C17.0835 9.82233 16.8223 10.0835 16.5002 10.0835C16.178 10.0835 15.9168 9.82233 15.9168 9.50016C15.9168 9.178 16.178 8.91683 16.5002 8.91683C16.8223 8.91683 17.0835 9.178 17.0835 9.50016ZM10.0835 9.50016C10.0835 9.82233 9.82233 10.0835 9.50016 10.0835C9.178 10.0835 8.91683 9.82233 8.91683 9.50016C8.91683 9.178 9.178 8.91683 9.50016 8.91683C9.82233 8.91683 10.0835 9.178 10.0835 9.50016Z" stroke="#2DC3F3" stroke-width="2" stroke-linecap="round" stroke-linejoin="round"/>
</svg>
