<svg width="100" height="100" viewBox="0 0 100 100" fill="none" xmlns="http://www.w3.org/2000/svg">
<g id="Son" clip-path="url(#clip0_4680_5853)">
<rect width="100" height="100"/>
<g id="Group 37502" filter="url(#filter0_dd_4680_5853)">
<g id="Group 356">
<ellipse id="Ellipse 96" cx="49.8049" cy="49.4999" rx="42.1955" ry="42.4999" fill="white"/>
<g id="Mask Group">
<mask id="mask0_4680_5853" style="mask-type:alpha" maskUnits="userSpaceOnUse" x="7" y="7" width="85" height="85">
<path id="Ellipse 95" d="M90.891 49.4999C90.891 72.6993 72.2199 91.4999 49.1955 91.4999C26.1711 91.4999 7.5 72.6993 7.5 49.4999C7.5 26.3006 26.1711 7.5 49.1955 7.5C72.2199 7.5 90.891 26.3006 90.891 49.4999Z" fill="#C4C4C4" stroke="black"/>
</mask>
<g mask="url(#mask0_4680_5853)">
<g id="Layer 2">
<g id="avatar">
<g id="Group">
<path id="Vector" d="M36.0604 21.6729H36.0586C31.8776 21.6729 28.4883 25.0634 28.4883 29.2459V58.5955C28.4883 62.778 31.8776 66.1686 36.0586 66.1686H36.0604C40.2413 66.1686 43.6307 62.778 43.6307 58.5955V29.2459C43.6307 25.0634 40.2413 21.6729 36.0604 21.6729Z" fill="#3869E5"/>
<path id="Vector_2" d="M71.3487 24.8736C71.3487 15.9531 64.1199 8.72168 55.2027 8.72168C46.2855 8.72168 39.0566 15.9531 39.0566 24.8736V54.6332C39.0566 63.5536 46.2855 70.7851 55.2027 70.7851C64.1199 70.7851 71.3487 63.5536 71.3487 54.6332V24.8736Z" fill="#3869E5"/>
<path id="Vector_3" d="M27.3808 65.0674C30.3526 65.0674 32.7617 62.6574 32.7617 59.6846C32.7617 56.7117 30.3526 54.3018 27.3808 54.3018C24.4091 54.3018 22 56.7117 22 59.6846C22 62.6574 24.4091 65.0674 27.3808 65.0674Z" fill="#45CBF6"/>
<path id="Vector_4" d="M72.3603 65.0674C75.3321 65.0674 77.7412 62.6574 77.7412 59.6846C77.7412 56.7117 75.3321 54.3018 72.3603 54.3018C69.3886 54.3018 66.9795 56.7117 66.9795 59.6846C66.9795 62.6574 69.3886 65.0674 72.3603 65.0674Z" fill="#45CBF6"/>
<path id="Vector_5" d="M54.5229 72.9277H45.6406V89.2584H54.5229V72.9277Z" fill="#45CBF6"/>
<path id="Vector_6" d="M46.4894 82.041H53.5868C54.8582 82.041 56.0776 82.5463 56.9767 83.4457C57.8758 84.3451 58.3808 85.5649 58.3808 86.8368V97.7181H41.6953V86.8368C41.6953 85.5649 42.2004 84.3451 43.0995 83.4457C43.9985 82.5463 45.2179 82.041 46.4894 82.041V82.041Z" fill="#3869E5"/>
<path id="Vector_7" d="M49.8714 76.7578C61.7381 76.7578 71.358 65.9475 71.358 52.6123C71.358 39.2771 61.7381 28.4668 49.8714 28.4668C38.0046 28.4668 28.3848 39.2771 28.3848 52.6123C28.3848 65.9475 38.0046 76.7578 49.8714 76.7578Z" fill="#45CBF6"/>
<path id="Vector_8" d="M49.6652 62.9647C47.6674 62.9651 45.705 62.438 43.976 61.4368C43.6424 61.2472 43.3497 60.9932 43.115 60.6895C42.8803 60.3858 42.7082 60.0386 42.6087 59.6678C42.5093 59.2971 42.4845 58.9102 42.5357 58.5298C42.5869 58.1494 42.7132 57.7829 42.9071 57.4517C43.1011 57.1205 43.3589 56.8312 43.6656 56.6005C43.9723 56.3697 44.3217 56.2023 44.6936 56.1078C45.0655 56.0133 45.4525 55.9936 45.8321 56.0499C46.2116 56.1063 46.5762 56.2375 46.9047 56.4359C48.7596 57.5223 50.8773 57.2542 51.6935 56.6427C51.9979 56.4144 52.3443 56.2484 52.7129 56.154C53.0815 56.0597 53.465 56.0389 53.8416 56.0928C54.2182 56.1468 54.5806 56.2744 54.9079 56.4684C55.2352 56.6624 55.5211 56.919 55.7493 57.2236C55.9774 57.5281 56.1434 57.8746 56.2377 58.2433C56.332 58.612 56.3528 58.9957 56.2989 59.3725C56.245 59.7492 56.1174 60.1117 55.9235 60.4391C55.7296 60.7665 55.473 61.0526 55.1686 61.2808C53.6745 62.3987 51.7075 62.9647 49.6652 62.9647Z" fill="#3869E5"/>
<path id="Vector_9" d="M45.9228 88.3945H41.6963V112.004H45.9228V88.3945Z" fill="#45CBF6"/>
<path id="Vector_10" d="M54.1553 112.003H58.3818V88.3936H54.1553V112.003Z" fill="#45CBF6"/>
<path id="Vector_11" d="M43.1351 41.0624L40.1312 42.1681C39.7808 42.2961 39.3941 42.2803 39.0554 42.124C38.7167 41.9677 38.4536 41.6837 38.3235 41.334V41.334C38.1954 40.9822 38.2122 40.594 38.3702 40.2545C38.5282 39.9151 38.8145 39.6524 39.166 39.524L42.1682 38.4166C42.5188 38.2887 42.9057 38.3048 43.2445 38.4614C43.5832 38.618 43.8462 38.9024 43.9759 39.2524V39.2524C44.1041 39.604 44.0875 39.9921 43.9299 40.3315C43.7722 40.6708 43.4864 40.9337 43.1351 41.0624Z" fill="#3869E5"/>
<path id="Vector_12" d="M56.9964 41.0621L59.9986 42.1677C60.3492 42.2958 60.7362 42.2801 61.0752 42.1238C61.4142 41.9675 61.6776 41.6835 61.808 41.3337V41.3337C61.9355 40.983 61.9191 40.5961 61.7626 40.2574C61.6061 39.9187 61.3221 39.6556 60.9725 39.5254L57.9703 38.418C57.6193 38.2888 57.2314 38.3041 56.8916 38.4604C56.5519 38.6167 56.2878 38.9014 56.1574 39.2521V39.2521C56.0297 39.6034 56.0462 39.9911 56.2034 40.3304C56.3607 40.6696 56.6458 40.9327 56.9964 41.0621V41.0621Z" fill="#3869E5"/>
<path id="Vector_13" d="M46.5676 51.4899C46.4836 51.4901 46.4004 51.4737 46.3227 51.4417C46.245 51.4096 46.1745 51.3625 46.115 51.3031C46.0556 51.2436 46.0085 51.173 45.9765 51.0953C45.9445 51.0176 45.9281 50.9344 45.9283 50.8503C45.9283 49.5821 45.4247 48.3658 44.5283 47.4691C43.6318 46.5723 42.416 46.0685 41.1482 46.0685C39.8805 46.0685 38.6647 46.5723 37.7682 47.4691C36.8718 48.3658 36.3682 49.5821 36.3682 50.8503C36.3596 51.0144 36.2884 51.1689 36.1693 51.282C36.0502 51.3951 35.8922 51.4581 35.728 51.4581C35.5638 51.4581 35.4058 51.3951 35.2867 51.282C35.1676 51.1689 35.0964 51.0144 35.0878 50.8503C35.0741 50.0456 35.2207 49.2462 35.5191 48.4988C35.8175 47.7513 36.2617 47.0708 36.8257 46.4969C37.3897 45.923 38.0624 45.4671 38.8044 45.156C39.5463 44.8448 40.3428 44.6846 41.1474 44.6846C41.9519 44.6846 42.7484 44.8448 43.4904 45.156C44.2324 45.4671 44.905 45.923 45.469 46.4969C46.0331 47.0708 46.4772 47.7513 46.7756 48.4988C47.074 49.2462 47.2206 50.0456 47.207 50.8503C47.2072 50.9344 47.1908 51.0176 47.1588 51.0953C47.1267 51.173 47.0796 51.2436 47.0202 51.3031C46.9608 51.3625 46.8902 51.4096 46.8126 51.4417C46.7349 51.4737 46.6517 51.4901 46.5676 51.4899V51.4899Z" fill="#3869E5"/>
<path id="Vector_14" d="M63.3372 51.4899C63.2531 51.4901 63.1699 51.4737 63.0922 51.4417C63.0146 51.4096 62.944 51.3625 62.8846 51.3031C62.8252 51.2436 62.7781 51.173 62.746 51.0953C62.714 51.0176 62.6976 50.9344 62.6978 50.8503C62.6978 50.2223 62.5742 49.6005 62.334 49.0204C62.0938 48.4402 61.7417 47.9131 61.2978 47.4691C60.8539 47.025 60.327 46.6728 59.747 46.4325C59.1671 46.1922 58.5455 46.0685 57.9178 46.0685C57.2901 46.0685 56.6685 46.1922 56.0885 46.4325C55.5086 46.6728 54.9816 47.025 54.5378 47.4691C54.0939 47.9131 53.7418 48.4402 53.5016 49.0204C53.2614 49.6005 53.1377 50.2223 53.1377 50.8503C53.1291 51.0144 53.058 51.1689 52.9388 51.282C52.8197 51.3951 52.6617 51.4581 52.4975 51.4581C52.3333 51.4581 52.1753 51.3951 52.0562 51.282C51.9371 51.1689 51.8659 51.0144 51.8573 50.8503C51.8436 50.0456 51.9903 49.2462 52.2887 48.4988C52.587 47.7513 53.0312 47.0708 53.5952 46.4969C54.1593 45.923 54.8319 45.4671 55.5739 45.156C56.3159 44.8448 57.1124 44.6846 57.9169 44.6846C58.7214 44.6846 59.5179 44.8448 60.2599 45.156C61.0019 45.4671 61.6745 45.923 62.2386 46.4969C62.8026 47.0708 63.2468 47.7513 63.5452 48.4988C63.8435 49.2462 63.9902 50.0456 63.9765 50.8503C63.9767 50.9344 63.9603 51.0176 63.9283 51.0953C63.8962 51.173 63.8492 51.2436 63.7897 51.3031C63.7303 51.3625 63.6598 51.4096 63.5821 51.4417C63.5044 51.4737 63.4212 51.4901 63.3372 51.4899V51.4899Z" fill="#3869E5"/>
</g>
</g>
</g>
</g>
</g>
</g>
</g>
</g>
<defs>
<filter id="filter0_dd_4680_5853" x="-1.39062" y="-2" width="102.391" height="103" filterUnits="userSpaceOnUse" color-interpolation-filters="sRGB">
<feFlood flood-opacity="0" result="BackgroundImageFix"/>
<feColorMatrix in="SourceAlpha" type="matrix" values="0 0 0 0 0 0 0 0 0 0 0 0 0 0 0 0 0 0 127 0" result="hardAlpha"/>
<feOffset dx="-5" dy="-5"/>
<feGaussianBlur stdDeviation="2"/>
<feComposite in2="hardAlpha" operator="out"/>
<feColorMatrix type="matrix" values="0 0 0 0 0.866667 0 0 0 0 0.882353 0 0 0 0 0.941176 0 0 0 0.6 0"/>
<feBlend mode="normal" in2="BackgroundImageFix" result="effect1_dropShadow_4680_5853"/>
<feColorMatrix in="SourceAlpha" type="matrix" values="0 0 0 0 0 0 0 0 0 0 0 0 0 0 0 0 0 0 127 0" result="hardAlpha"/>
<feOffset dx="5" dy="5"/>
<feGaussianBlur stdDeviation="2"/>
<feComposite in2="hardAlpha" operator="out"/>
<feColorMatrix type="matrix" values="0 0 0 0 0.176471 0 0 0 0 0.764706 0 0 0 0 0.952941 0 0 0 0.15 0"/>
<feBlend mode="normal" in2="effect1_dropShadow_4680_5853" result="effect2_dropShadow_4680_5853"/>
<feBlend mode="normal" in="SourceGraphic" in2="effect2_dropShadow_4680_5853" result="shape"/>
</filter>
<clipPath id="clip0_4680_5853">
<rect width="100" height="100" fill="white"/>
</clipPath>
</defs>
</svg>
