<svg width="100" height="100" viewBox="0 0 100 100" fill="none" xmlns="http://www.w3.org/2000/svg">
<g id="Daughter_Large" clip-path="url(#clip0_4680_6644)">
<rect width="100" height="100"/>
<g id="Group 37500">
<g id="Mask Group">
<mask id="mask0_4680_6644" style="mask-type:alpha" maskUnits="userSpaceOnUse" x="0" y="0" width="100" height="100">
<g id="Group 359">
<circle id="Ellipse 95" cx="50" cy="50" r="50" fill="#DDE1F0"/>
<mask id="mask1_4680_6644" style="mask-type:alpha" maskUnits="userSpaceOnUse" x="0" y="0" width="100" height="100">
<g id="Ellipse 94">
<circle cx="50" cy="50" r="50" fill="#DDE1F0"/>
<circle cx="50" cy="50" r="49.5" stroke="black" stroke-opacity="0.5"/>
</g>
</mask>
<g mask="url(#mask1_4680_6644)">
</g>
</g>
</mask>
<g mask="url(#mask0_4680_6644)">
<g id="Layer 2">
<g id="avatar">
<g id="Group">
<path id="Vector" d="M41.457 84.4229H56.5188C57.4486 84.4229 58.3404 84.7897 58.9978 85.4427C59.6553 86.0957 60.0247 86.9813 60.0247 87.9048V105.014H37.9512V87.9027C37.9517 86.9796 38.3213 86.0945 38.9787 85.442C39.6361 84.7894 40.5276 84.4229 41.457 84.4229V84.4229Z" fill="#3869E5"/>
<path id="Vector_2" d="M42.2354 84.1982H43.8496C43.9359 84.1982 44.0186 84.2323 44.0796 84.2929C44.1407 84.3535 44.1749 84.4357 44.1749 84.5214V104.792H41.9121V84.5214C41.9121 84.436 41.9461 84.3542 42.0067 84.2936C42.0672 84.2331 42.1494 84.1988 42.2354 84.1982Z" fill="#45CBF6"/>
<path id="Vector_3" d="M54.1758 84.1982H55.79C55.8763 84.1982 55.9591 84.2323 56.0201 84.2929C56.0811 84.3535 56.1154 84.4357 56.1154 84.5214V104.792H53.8525V84.5214C53.8525 84.436 53.8865 84.3542 53.9471 84.2936C54.0077 84.2331 54.0899 84.1988 54.1758 84.1982V84.1982Z" fill="#45CBF6"/>
<path id="Vector_4" d="M41.922 91.5371H37.9365V106.151H41.922V91.5371Z" fill="#3869E5"/>
<path id="Vector_5" d="M56.1442 106.148H60.0254V91.535H56.1442V106.148Z" fill="#3869E5"/>
<path id="Vector_6" d="M44.1768 77.2295H53.8642V86.5506C53.8647 87.1823 53.74 87.8078 53.4971 88.3915C53.2543 88.9753 52.898 89.5058 52.4487 89.9528C51.9994 90.3998 51.4659 90.7546 50.8786 90.9968C50.2912 91.239 49.6616 91.3639 49.0257 91.3645V91.3645C47.7413 91.3645 46.5096 90.8578 45.6014 89.9558C44.6932 89.0538 44.183 87.8304 44.183 86.5548V77.2336L44.1768 77.2295Z" fill="#3869E5"/>
<path id="Vector_7" d="M28.7195 65.777C30.3239 64.1834 30.3239 61.5998 28.7195 60.0062C27.115 58.4126 24.5136 58.4126 22.9091 60.0062C21.3046 61.5998 21.3046 64.1834 22.9091 65.777C24.5136 67.3706 27.115 67.3706 28.7195 65.777Z" fill="#3869E5"/>
<path id="Vector_8" d="M72.7231 66.9495C74.9754 66.6757 76.5777 64.6403 76.3019 62.4033C76.0262 60.1664 73.9768 58.575 71.7246 58.8488C69.4723 59.1227 67.87 61.1581 68.1458 63.3951C68.4215 65.632 70.4709 67.2234 72.7231 66.9495Z" fill="#3869E5"/>
<path id="Vector_9" d="M20.2819 26.6868C26.7091 26.6868 31.9193 21.512 31.9193 15.1285C31.9193 8.7451 26.7091 3.57031 20.2819 3.57031C13.8548 3.57031 8.64453 8.7451 8.64453 15.1285C8.64453 21.512 13.8548 26.6868 20.2819 26.6868Z" fill="#3869E5"/>
<path id="Vector_10" d="M27.515 30.4362L25.1229 28.0624C24.0428 26.9831 23.4365 25.5232 23.4365 24.0015C23.4365 22.4797 24.0428 21.0198 25.1229 19.9406C26.2096 18.8672 27.68 18.2646 29.2126 18.2646C30.7453 18.2646 32.2157 18.8672 33.3024 19.9406L35.6925 22.3143C36.7726 23.3936 37.3788 24.8535 37.3788 26.3753C37.3788 27.897 36.7726 29.3569 35.6925 30.4362C34.6063 31.5099 33.1362 32.1128 31.6037 32.1128C30.0713 32.1128 28.6011 31.5099 27.515 30.4362V30.4362Z" fill="#3869E5"/>
<path id="Vector_11" d="M78.0602 26.6868C84.4874 26.6868 89.6976 21.512 89.6976 15.1285C89.6976 8.7451 84.4874 3.57031 78.0602 3.57031C71.6331 3.57031 66.4229 8.7451 66.4229 15.1285C66.4229 21.512 71.6331 26.6868 78.0602 26.6868Z" fill="#3869E5"/>
<path id="Vector_12" d="M70.8245 30.4362L73.2166 28.0624C74.2967 26.9831 74.903 25.5232 74.903 24.0015C74.903 22.4797 74.2967 21.0198 73.2166 19.9406V19.9406C72.1299 18.8672 70.6595 18.2646 69.1269 18.2646C67.5942 18.2646 66.1239 18.8672 65.0371 19.9406L62.6471 22.3143C61.5659 23.3931 60.959 24.8532 60.959 26.3753C60.959 27.8973 61.5659 29.3574 62.6471 30.4362V30.4362C63.7332 31.5099 65.2033 32.1128 66.7358 32.1128C68.2683 32.1128 69.7384 31.5099 70.8245 30.4362V30.4362Z" fill="#3869E5"/>
<path id="Vector_13" d="M69.0918 61.9118C80.1951 50.8658 80.1951 32.9565 69.0918 21.9104C57.9886 10.8643 39.9867 10.8643 28.8835 21.9104C17.7802 32.9565 17.7802 50.8658 28.8835 61.9118C39.9867 72.9579 57.9886 72.9579 69.0918 61.9118Z" fill="#3869E5"/>
<path id="Vector_14" d="M71.8192 47.9723C71.8192 35.4663 61.6117 25.3281 49.02 25.3281C36.4283 25.3281 26.2207 35.4663 26.2207 47.9723V59.284C26.2207 71.79 36.4283 81.9282 49.02 81.9282C61.6117 81.9282 71.8192 71.79 71.8192 59.284V47.9723Z" fill="#45CBF6"/>
<path id="Vector_15" d="M73.6786 48.4299C73.6786 34.3135 61.8786 22.7595 47.6864 23.5134C41.3893 23.8594 35.4641 26.5854 31.1262 31.1322C26.7883 35.679 24.3664 41.7021 24.3574 47.9659C35.2461 45.4471 43.8719 40.8425 49.0191 33.0314C53.9201 41.9299 62.4062 46.7604 73.6786 48.4299Z" fill="#3869E5"/>
<path id="Vector_16" d="M35.1388 60.0126C35.1388 60.2964 34.7217 60.5263 34.1983 60.5263C33.6748 60.5263 33.2598 60.2964 33.2598 60.0126C33.2598 59.7288 33.6769 59.501 34.1983 59.501C34.7197 59.501 35.1388 59.7309 35.1388 60.0126Z" fill="#3869E5"/>
<path id="Vector_17" d="M38.0814 60.0126C38.0814 60.2964 37.6643 60.5263 37.1408 60.5263C36.6173 60.5263 36.2002 60.2964 36.2002 60.0126C36.2002 59.7288 36.6173 59.501 37.1408 59.501C37.6643 59.501 38.0814 59.7309 38.0814 60.0126Z" fill="#3869E5"/>
<path id="Vector_18" d="M36.7198 61.3633C36.7198 61.6471 36.3027 61.877 35.7792 61.877C35.2557 61.877 34.8428 61.6388 34.8428 61.3633C34.8428 61.0878 35.2599 60.8496 35.7813 60.8496C36.3027 60.8496 36.7198 61.0795 36.7198 61.3633Z" fill="#3869E5"/>
<path id="Vector_19" d="M39.6926 61.3633C39.6926 61.6471 39.2754 61.877 38.752 61.877C38.2285 61.877 37.8135 61.6471 37.8135 61.3633C37.8135 61.0795 38.2306 60.8496 38.752 60.8496C39.2734 60.8496 39.6926 61.0795 39.6926 61.3633Z" fill="#3869E5"/>
<path id="Vector_20" d="M41.0226 60.0126C41.0226 60.2964 40.6055 60.5263 40.0841 60.5263C39.5628 60.5263 39.1436 60.2964 39.1436 60.0126C39.1436 59.7288 39.5607 59.501 40.0841 59.501C40.6076 59.501 41.0226 59.7309 41.0226 60.0126Z" fill="#3869E5"/>
<path id="Vector_21" d="M59.3469 60.0126C59.3469 60.2964 58.9297 60.5263 58.4063 60.5263C57.8828 60.5263 57.4678 60.2964 57.4678 60.0126C57.4678 59.7288 57.8849 59.501 58.4063 59.501C58.9277 59.501 59.3469 59.7309 59.3469 60.0126Z" fill="#3869E5"/>
<path id="Vector_22" d="M62.2922 60.0126C62.2922 60.2964 61.8751 60.5263 61.3516 60.5263C60.8281 60.5263 60.4131 60.2964 60.4131 60.0126C60.4131 59.7288 60.8302 59.501 61.3516 59.501C61.873 59.501 62.2922 59.7309 62.2922 60.0126Z" fill="#3869E5"/>
<path id="Vector_23" d="M60.9279 61.3633C60.9279 61.6471 60.5108 61.877 59.9894 61.877C59.468 61.877 59.0488 61.6471 59.0488 61.3633C59.0488 61.0795 59.4659 60.8496 59.9894 60.8496C60.5129 60.8496 60.9279 61.0795 60.9279 61.3633Z" fill="#3869E5"/>
<path id="Vector_24" d="M63.9015 61.3633C63.9015 61.6471 63.4844 61.877 62.961 61.877C62.4375 61.877 62.0225 61.6471 62.0225 61.3633C62.0225 61.0795 62.4396 60.8496 62.961 60.8496C63.4823 60.8496 63.9015 61.0795 63.9015 61.3633Z" fill="#3869E5"/>
<path id="Vector_25" d="M65.2327 60.0126C65.2327 60.2964 64.8156 60.5263 64.2921 60.5263C63.7687 60.5263 63.3516 60.2964 63.3516 60.0126C63.3516 59.7288 63.7687 59.501 64.2921 59.501C64.8156 59.501 65.2327 59.7309 65.2327 60.0126Z" fill="#3869E5"/>
<path id="Vector_26" d="M53.4512 63.9863C53.8511 61.5555 52.1913 59.263 49.7439 58.8658C47.2964 58.4686 44.9882 60.1172 44.5883 62.5479C44.1884 64.9787 45.8483 67.2712 48.2957 67.6684C50.7431 68.0656 53.0513 66.417 53.4512 63.9863Z" fill="#3869E5"/>
<path id="Vector_27" d="M41.2154 55.8581C40.9687 55.8581 40.7321 55.7608 40.5577 55.5876C40.3833 55.4143 40.2853 55.1793 40.2853 54.9343C40.2687 54.4286 40.0547 53.9492 39.6887 53.5973C39.3227 53.2454 38.8332 53.0487 38.3238 53.0487C37.8144 53.0487 37.3249 53.2454 36.9589 53.5973C36.5929 53.9492 36.3789 54.4286 36.3623 54.9343C36.3623 55.1793 36.2643 55.4143 36.0899 55.5876C35.9155 55.7608 35.6789 55.8581 35.4322 55.8581C35.1855 55.8581 34.9489 55.7608 34.7745 55.5876C34.6 55.4143 34.502 55.1793 34.502 54.9343C34.4901 54.4284 34.5802 53.9252 34.7669 53.4543C34.9536 52.9835 35.2332 52.5544 35.5893 52.1924C35.9453 51.8304 36.3707 51.5428 36.8403 51.3464C37.3099 51.15 37.8143 51.0488 38.3238 51.0488C38.8333 51.0488 39.3377 51.15 39.8073 51.3464C40.2769 51.5428 40.7023 51.8304 41.0583 52.1924C41.4144 52.5544 41.694 52.9835 41.8807 53.4543C42.0674 53.9252 42.1575 54.4284 42.1456 54.9343C42.1456 55.1793 42.0476 55.4143 41.8731 55.5876C41.6987 55.7608 41.4621 55.8581 41.2154 55.8581Z" fill="#3869E5"/>
<path id="Vector_28" d="M61.3404 55.8581C61.0937 55.8581 60.8571 55.7608 60.6827 55.5876C60.5083 55.4143 60.4103 55.1793 60.4103 54.9343C60.3937 54.4286 60.1797 53.9492 59.8137 53.5973C59.4477 53.2454 58.9582 53.0487 58.4488 53.0487C57.9394 53.0487 57.4499 53.2454 57.0839 53.5973C56.7179 53.9492 56.5039 54.4286 56.4873 54.9343C56.4873 55.1793 56.3893 55.4143 56.2149 55.5876C56.0405 55.7608 55.8039 55.8581 55.5572 55.8581C55.3105 55.8581 55.0739 55.7608 54.8995 55.5876C54.725 55.4143 54.627 55.1793 54.627 54.9343C54.6151 54.4284 54.7052 53.9252 54.8919 53.4543C55.0786 52.9835 55.3582 52.5544 55.7143 52.1924C56.0703 51.8304 56.4957 51.5428 56.9653 51.3464C57.4349 51.15 57.9393 51.0488 58.4488 51.0488C58.9583 51.0488 59.4627 51.15 59.9323 51.3464C60.4019 51.5428 60.8273 51.8304 61.1833 52.1924C61.5394 52.5544 61.819 52.9835 62.0057 53.4543C62.1924 53.9252 62.2825 54.4284 62.2706 54.9343C62.2709 55.0557 62.247 55.176 62.2003 55.2882C62.1537 55.4004 62.0852 55.5023 61.9987 55.5882C61.9123 55.674 61.8097 55.742 61.6967 55.7884C61.5837 55.8347 61.4626 55.8584 61.3404 55.8581Z" fill="#3869E5"/>
</g>
</g>
</g>
</g>
</g>
</g>
</g>
<defs>
<clipPath id="clip0_4680_6644">
<rect width="100" height="100" fill="white"/>
</clipPath>
</defs>
</svg>
