<svg width="29" height="29" viewBox="0 0 29 29" fill="none" xmlns="http://www.w3.org/2000/svg">
<path d="M20.5413 12.0833V9.66667C20.5413 6.32995 17.8364 3.625 14.4997 3.625C11.163 3.625 8.45801 6.32995 8.45801 9.66667V12.0833M14.4997 17.5208V19.9375M10.633 25.375H18.3663C20.3965 25.375 21.4116 25.375 22.1871 24.9799C22.8691 24.6324 23.4237 24.0778 23.7712 23.3957C24.1663 22.6203 24.1663 21.6052 24.1663 19.575V17.8833C24.1663 15.8531 24.1663 14.838 23.7712 14.0626C23.4237 13.3805 22.8691 12.826 22.1871 12.4784C21.4116 12.0833 20.3965 12.0833 18.3663 12.0833H10.633C8.60282 12.0833 7.58772 12.0833 6.81229 12.4784C6.1302 12.826 5.57565 13.3805 5.22811 14.0626C4.83301 14.838 4.83301 15.8531 4.83301 17.8833V19.575C4.83301 21.6052 4.83301 22.6203 5.22811 23.3957C5.57565 24.0778 6.1302 24.6324 6.81229 24.9799C7.58772 25.375 8.60282 25.375 10.633 25.375Z" stroke="white" stroke-linecap="round" stroke-linejoin="round"/>
</svg>
