<svg width="360" height="491" viewBox="0 0 360 491" fill="none" xmlns="http://www.w3.org/2000/svg">
<circle cx="186.186" cy="457.586" r="304.586" fill="#3869E5"/>
<path d="M255.54 80.1869C255.685 79.1921 256.073 77.5057 257.297 75.9164C260.483 71.8036 266.239 72.3738 267.014 72.4587C267.983 72.5679 273.169 73.1745 275.471 77.6513C276.889 80.4053 277.288 84.7365 274.817 87.1629C272.357 89.5772 268.395 88.7765 266.541 88.4004C260.229 87.1144 256.63 81.9218 255.54 80.1869Z" fill="#38484E"/>
<path d="M249.567 106.416C248.489 112.931 249.749 115.867 248.743 120.671C248.246 123.049 247.059 126.556 243.775 130.511C245.314 132.44 247.543 134.721 250.633 136.698C258.933 142 267.656 141.357 270.855 140.944C272.151 137.644 273.387 133.859 274.344 129.649C276.743 119.106 276.549 109.801 275.774 102.946C273.29 101.903 270.237 100.872 266.699 100.168C260.532 98.9306 255.189 99.1247 251.348 99.5858C250.827 101.029 250.051 103.407 249.555 106.416H249.567Z" fill="#FFD879"/>
<path d="M247.01 204.311C247.301 205.245 247.604 206.191 247.895 207.126C248.755 207.781 250.015 208.666 251.59 209.637C254.692 211.517 258.375 213.762 260.047 212.549C260.096 212.512 260.641 212.1 260.713 211.469C260.871 210.219 259.114 209.103 257.624 208.084C256.085 207.029 253.916 205.464 251.311 203.268C249.87 203.619 248.44 203.971 246.998 204.323L247.01 204.311Z" fill="#534C5D"/>
<path d="M190.828 149.534C196.05 149.243 202.06 149.291 208.675 150.019C220.767 151.354 230.775 154.52 238.214 157.577C241.122 161.751 245.12 166.252 246.816 172.257C251.772 189.764 251.408 194.447 252.438 204.104C251.966 204.468 251.227 204.929 250.233 205.172C247.846 205.754 245.871 204.602 245.387 204.311C236.227 192.761 231.841 185.906 222.681 174.356C219.071 173.822 214.042 172.585 208.748 169.625C197.577 163.364 192.573 153.501 190.828 149.534Z" fill="#14BFDD"/>
<path d="M221.809 143.796C219.034 143.492 216.659 144.669 215.969 146.489C215.823 146.865 215.581 147.702 215.932 148.915C216.805 149.219 218.053 149.534 219.591 149.583C221.53 149.631 223.081 149.207 224.05 148.867C224.232 147.472 224.413 146.076 224.595 144.681C223.662 144.39 222.741 144.099 221.809 143.796Z" fill="#534C5D"/>
<path d="M239.91 165.682C237.293 166.689 235.73 168.812 235.948 170.753C235.996 171.141 236.166 172.003 237.026 172.925C237.935 172.791 239.195 172.5 240.576 171.833C242.321 170.984 243.508 169.904 244.211 169.152C243.739 167.829 243.254 166.507 242.781 165.185C241.824 165.354 240.867 165.512 239.898 165.682H239.91Z" fill="#534C5D"/>
<path d="M130.902 76.8866C128.636 82.4067 127.23 87.6357 126.394 92.4522C119.416 132.864 148.785 167.138 157.266 176.407C167.129 169.467 176.979 162.528 186.841 155.588C181.971 149.097 177.088 142.607 172.217 136.116C169.746 132.488 165.408 125.027 164.487 114.678C163.894 108.066 164.911 102.583 165.905 98.9307C163.554 97.4627 160.683 95.8977 157.315 94.5025C153.159 92.7919 149.342 91.7849 146.18 91.1661C144.52 88.679 142.121 85.6217 138.765 82.5887C135.954 80.0531 133.216 78.1968 130.914 76.8623L130.902 76.8866Z" fill="#F8AD50"/>
<path d="M147.816 101.988C144.968 102.619 142.121 103.262 139.286 103.893C138.547 102.267 137.759 100.156 137.25 97.6204C136.536 94.0899 136.608 91.0326 136.851 88.8488C137.069 88.2301 137.638 86.8349 139.031 85.6823C140.11 84.7967 141.2 84.4448 141.83 84.2871C144.762 86.0705 147.707 87.854 150.639 89.6374C151.281 90.4381 151.923 91.3602 152.505 92.4278C155.328 97.6204 154.952 102.934 154.528 105.688C152.299 104.451 150.069 103.213 147.84 101.988H147.816Z" fill="#F28F32"/>
<path d="M169.14 150.905L170.182 149.813C162.379 142.339 156.346 133.119 152.735 123.158C150.3 116.437 148.931 109.364 148.676 102.146L147.174 102.206C147.44 109.583 148.834 116.801 151.318 123.668C155.001 133.859 161.168 143.274 169.14 150.905Z" fill="#F28F32"/>
<path d="M135.106 80.6475C133.143 78.4394 131.12 75.9159 129.133 73.0649C125.038 67.1929 122.215 61.5272 120.24 56.6743C121.052 51.1299 121.875 45.5734 122.724 40.0047C123.657 33.8415 124.602 27.7027 125.547 21.588C125.183 21.3333 124.432 20.8844 123.366 20.7267C122.336 20.5811 121.512 20.7873 121.088 20.9208C118.834 24.4998 116.46 28.9401 114.473 34.2176C110.571 44.5664 109.735 53.896 109.711 60.411C111.238 67.0594 113.527 74.824 117.017 83.2074C120.179 90.7778 123.657 97.2807 126.952 102.667C128.709 100.168 130.817 96.6377 132.477 92.1002C134.113 87.6477 134.803 83.6441 135.094 80.6353L135.106 80.6475Z" fill="#F8AD50"/>
<path d="M157.836 94.9033C159.29 95.2188 161.01 95.704 162.864 96.5169C165.808 97.7908 168.026 99.3801 169.564 100.69C177.185 104.051 184.818 107.399 192.439 110.76C191.955 114.946 191.47 119.143 190.985 123.329C186.89 122.553 182.419 121.497 177.67 120.017C170.291 117.712 163.942 114.946 158.684 112.24C158.405 106.465 158.115 100.69 157.836 94.9155V94.9033Z" fill="#F8AD50"/>
<path d="M188.199 109.814C192.149 108.151 196.353 106.174 200.727 103.796C207.96 99.853 214.115 95.6674 219.228 91.7002C219.725 91.87 221.07 92.4039 222.088 93.7991C222.911 94.9273 223.105 96.0678 223.166 96.6016C221.506 98.7005 218.998 101.758 215.715 105.215C213.11 107.969 195.578 126.471 189.847 122.941C188.538 122.14 188.102 120.344 187.581 118.282C186.612 114.387 187.702 111.112 188.223 109.801L188.199 109.814Z" fill="#F8AD50"/>
<path d="M145.477 70.7354C144.787 72.3853 144.12 74.1445 143.49 76.0007C141.952 80.5382 140.958 84.8087 140.328 88.6303C143.599 97.8022 146.156 102.243 147.985 101.964C149.427 101.745 150.409 98.603 150.954 92.5369C153.062 88.606 155.158 84.6752 157.266 80.7323C153.341 77.3959 149.415 74.0717 145.477 70.7354Z" fill="#F8BC9F"/>
<path d="M153.801 87.3328C153.426 87.9272 153.05 88.5217 152.687 89.1162C151.826 88.9706 150.905 88.7522 149.936 88.4247C145.829 87.0295 143.127 84.3725 141.637 82.5891C142.4 79.3255 143.163 76.062 143.927 72.8105C147.222 77.6513 150.518 82.492 153.813 87.3328H153.801Z" fill="#F4A388"/>
<path d="M164.997 72.5309C165.639 71.6088 166.548 70.0316 166.717 67.9449C167.081 63.3104 163.422 59.8891 162.15 58.6881C159.06 55.8006 155.546 54.7815 150.058 53.1922C148.119 52.6341 146.496 52.2701 145.405 52.0518C145.018 52.7554 144.678 53.5319 144.4 54.3933C142.776 59.5009 144.69 64.2446 145.66 66.2343C152.105 68.3331 158.551 70.4199 165.009 72.5187L164.997 72.5309Z" fill="#38484E"/>
<path d="M151.075 59.6465C149.585 61.0539 147.779 63.0557 146.217 65.749C143.272 70.796 142.618 75.6367 142.473 78.3907C143.163 79.8709 144.278 81.8727 146.083 83.8988C147.913 85.9734 149.803 87.3443 151.208 88.2178C152.577 88.0601 154.128 87.7811 155.812 87.3322C157.824 86.7984 159.544 86.1189 160.974 85.4638C161.107 84.0443 161.434 81.8848 162.367 79.4463C163.676 76.025 164.996 75.1636 165.481 72.6158C166.184 68.9519 164.427 65.7975 164.148 65.3123C161.822 61.2601 156.648 59.0521 151.087 59.6465H151.075Z" fill="#F8BC9F"/>
<path d="M151.851 59.5255C149.052 59.4042 146.253 59.2829 143.454 59.1494C143.139 61.9398 142.837 64.7302 142.521 67.5206C143.406 67.7511 144.303 67.9938 145.187 68.2243C147.404 65.3247 149.634 62.413 151.851 59.5134V59.5255Z" fill="#607782"/>
<path d="M145.538 68.564C145.538 68.4791 145.332 67.2295 144.242 66.7563C143.576 66.4773 142.8 66.5743 142.267 66.9504C141.237 67.6784 141.346 69.2798 141.516 71.5607C141.576 72.3371 141.673 72.8952 142.049 73.429C142.461 74.0356 143.03 74.3511 143.358 74.5088C143.83 74.0235 144.618 73.0772 145.114 71.6699C145.575 70.3717 145.587 69.2313 145.538 68.564Z" fill="#F8BC9F"/>
<path d="M163.991 63.6989C163.324 63.4198 162.319 63.0559 161.071 62.7404C157.86 61.9276 155.764 62.1945 153.341 62.1581C149.391 62.0974 144.387 62.0368 142.787 59.3919C142.436 58.7975 141.527 56.917 143.527 52.877C145.538 53.0711 147.9 53.4957 150.445 54.3813C157.315 56.7471 161.725 61.0904 163.978 63.6989H163.991Z" fill="#38484E"/>
<path d="M219.337 92.0516C219.494 91.8332 219.725 91.5056 219.979 91.0931C220.658 89.9527 220.73 89.3704 221.191 88.509C221.639 87.6718 221.748 87.8781 222.79 86.4829C224.05 84.7965 224.365 83.8623 224.753 83.9351C224.947 83.9715 225.189 84.2627 225.31 85.5245C226.679 84.8936 228.048 84.2627 229.417 83.6318C229.684 83.8866 229.951 84.1899 230.193 84.5539C231.453 86.4586 231.138 88.6424 230.968 89.4432C230.229 90.256 229.357 91.1053 228.339 91.9666C226.607 93.4225 224.922 94.478 223.468 95.2545C223.226 95.5578 222.984 95.8611 222.742 96.1644C222.196 95.764 221.554 95.2181 220.912 94.4659C220.161 93.5802 219.664 92.7188 219.349 92.0516H219.337Z" fill="#F8BC9F"/>
<path d="M121.161 21.2491C121.354 20.4605 121.621 19.2109 121.766 17.6458C122.009 15.0253 121.791 14.7705 122.106 13.4845C122.227 12.9628 123.148 9.21394 126.068 8.41321C126.286 8.35255 128.37 7.80661 129.218 8.83784C130.175 10.0025 128.733 12.1621 126.734 17.7793C126.08 19.6233 125.607 21.1399 125.328 22.0983C124.953 22.2196 124.117 22.438 123.063 22.2196C122.093 22.0134 121.451 21.516 121.148 21.2612L121.161 21.2491Z" fill="#F8BC9F"/>
<path d="M123.753 11.7494C123.947 10.7788 123.899 9.99025 123.826 9.4807C123.693 8.54652 123.438 8.29174 123.293 8.17042C123.026 7.95204 122.542 7.77006 122.215 7.93991C121.669 8.24322 122.045 9.33511 121.972 10.9002C121.875 13.2659 120.93 13.642 121.015 15.3891C121.051 16.1777 121.306 17.3302 122.348 18.689C122.82 16.3718 123.281 14.0545 123.753 11.7252V11.7494Z" fill="#F8BC9F"/>
<path d="M147.501 105.895C148.834 107.096 153.099 110.639 159.46 110.93C160.756 110.991 164.851 111.124 168.91 108.831C172.412 106.854 172.799 104.827 176.664 102.025C179.584 99.9139 182.432 98.8463 184.358 98.2761C179.451 95.9831 175.962 96.1651 173.708 96.711C166.984 98.3489 165.299 104.743 158.418 106.465C154.565 107.424 150.99 106.453 148.688 105.543C148.289 105.652 147.901 105.774 147.501 105.883V105.895Z" fill="#FFD879"/>
<path d="M133.664 108.127C136.185 108.527 138.717 108.928 141.237 109.328C141.128 110.044 141.019 110.76 140.91 111.475C138.475 111.16 136.027 110.845 133.592 110.517C133.616 109.716 133.64 108.916 133.664 108.127Z" fill="#F28F32"/>
<path d="M143.454 102.959C144.181 103.117 144.896 103.263 145.623 103.42C146.168 104.27 146.713 105.119 147.259 105.956C147.767 105.98 148.264 106.017 148.773 106.041C149.076 105.337 149.367 104.646 149.67 103.942L151.305 103.893C150.154 103.25 148.991 102.607 147.84 101.977L143.478 102.947L143.454 102.959Z" fill="#FFD879"/>
<path d="M220.948 183.274C221.215 183.614 221.675 184.087 222.366 184.499C223.202 184.997 223.989 185.154 224.462 185.203C226.231 182.582 227.176 180.204 227.709 178.567C228.182 177.074 230.072 171.166 228.012 169.613C227.963 169.577 227.418 169.176 226.788 169.285C225.407 169.528 224.789 171.979 224.462 173.228C223.832 175.57 222.802 178.858 220.96 183.274H220.948Z" fill="#534C5D"/>
<path d="M227.975 95.7038C229.417 97.6328 231.126 99.6468 233.173 101.649C240.31 108.612 248.124 112.107 253.613 113.926C254.461 109.146 255.321 104.378 256.169 99.5983C253.359 99.2222 250.281 98.6277 246.985 97.7178C240.201 95.8494 234.651 93.2167 230.399 90.7539C229.95 91.1421 229.32 91.7851 228.799 92.7436C228.145 93.9447 228 95.073 227.951 95.7038H227.975Z" fill="#FFD879"/>
<path d="M269.485 140.654C269.073 141.915 267.995 144.706 265.269 147.108C264.518 147.775 261.828 150.092 257.793 150.59C253.274 151.148 249.93 149.061 245.811 146.514C241.509 143.844 239.026 142.304 238.626 139.513C238.177 136.322 240.637 132.853 244.502 130.499C247.386 131.191 250.475 132.088 253.722 133.253C259.914 135.461 265.172 138.106 269.485 140.642V140.654Z" fill="#F8AD50"/>
<path d="M248.294 132.5C239.752 124.966 230.956 121.606 226.849 124.542C224.619 126.143 223.601 129.722 222.22 134.611C221.178 138.287 220.766 141.442 220.597 143.601C220.9 143.941 221.517 144.548 222.499 144.96C223.468 145.361 224.328 145.385 224.777 145.361C226.509 144.414 228.86 142.861 231.053 140.374C232.168 139.1 233.016 137.851 233.658 136.747C234.966 137.96 236.335 139.185 237.801 140.423C239.837 142.145 241.836 143.735 243.775 145.179C245.277 140.957 246.779 136.722 248.294 132.5Z" fill="#F8AD50"/>
<path d="M256.133 137.014C250.717 138.421 246.67 140.459 244.005 142.061C240.431 144.208 238.201 145.591 236.978 148.382C235.984 150.675 236.178 152.858 236.614 157.117C236.99 160.829 237.717 163.838 238.298 165.852C238.637 166.082 239.546 166.628 240.806 166.64C242.224 166.665 243.229 166.01 243.557 165.767C244.696 164.517 246.634 162.018 247.555 158.33C248.112 156.122 248.112 154.181 248.003 152.81C250.124 152.967 255.527 153.077 260.992 149.789C264.36 147.751 266.456 145.215 267.595 143.565C266.613 142.946 265.596 142.328 264.566 141.709C261.694 139.986 258.859 138.433 256.109 137.038L256.133 137.014Z" fill="#F8AD50"/>
<path d="M272.756 115.77C281.637 116.328 289.913 112.531 294.226 105.676C297.594 100.314 297.497 94.7693 297.304 92.4157C297.013 92.0275 296.237 91.1054 294.868 90.5837C293.451 90.0499 292.215 90.2562 291.742 90.3654C291.197 92.0881 289.925 95.2789 286.896 97.9844C280.995 103.274 273.423 102.267 272.235 102.097C272.066 103.589 271.957 105.239 271.945 106.999C271.933 110.335 272.284 113.295 272.756 115.77Z" fill="#FFD879"/>
<path d="M241.437 143.638C244.042 142.279 246.659 140.92 249.264 139.562C247.955 139.925 246.417 140.253 244.696 140.447C242.006 140.75 239.644 140.629 237.79 140.387C238.299 140.884 238.832 141.381 239.401 141.891C240.092 142.51 240.783 143.092 241.437 143.638Z" fill="#F28F32"/>
<path d="M230.266 91.2637C230.145 89.7836 229.781 88.6311 229.491 87.9031C229.394 87.6726 229.139 87.1752 228.618 86.1804C228.037 85.0763 227.855 84.7852 227.588 84.7852C227.201 84.7852 226.91 85.4039 226.813 85.6101C226.449 86.3866 226.607 87.1509 226.692 87.4664C226.062 86.0469 224.608 85.2098 223.19 85.416C221.397 85.6708 220.658 87.4178 220.622 87.4906C220.44 87.9881 219.992 89.4439 220.67 90.8512C221.203 91.9553 222.148 92.4648 223.42 93.1321C224.232 93.5567 225.504 94.1148 227.201 94.3938C227.661 94.7093 228.122 95.0368 228.57 95.3523C228.909 95.049 229.479 94.4666 229.878 93.5325C230.29 92.5619 230.302 91.7005 230.278 91.2516L230.266 91.2637Z" fill="#F8BC9F"/>
<path d="M292.154 90.7535C291.706 89.6738 291.354 88.7396 291.1 87.9874C290.724 86.9076 290.845 87.126 290.506 86.1433C289.912 84.4327 289.573 83.8503 289.828 83.5956C290.082 83.3529 290.712 83.6198 290.894 83.7047C291.996 84.1779 292.372 85.379 292.457 85.6823C292.614 84.8937 292.711 84.2507 292.772 83.8018C292.966 82.4551 292.954 81.8971 293.39 81.2541C293.535 81.0357 293.983 80.3805 294.432 80.4897C294.747 80.5625 294.989 80.9871 295.038 81.521C295.159 81.2419 295.425 80.7688 295.898 80.6232C296.867 80.332 297.933 81.7029 298.091 81.9213C299.411 83.6805 298.951 86.0705 298.721 87.2837C298.551 88.1451 298.188 89.4797 297.303 90.9598C297.206 91.5057 297.109 92.0638 297 92.6098C296.431 92.6098 295.668 92.5248 294.795 92.2458C293.547 91.8454 292.663 91.2024 292.142 90.7535H292.154Z" fill="#F8BC9F"/>
<path d="M160.55 58.871C159.071 58.7618 157.775 57.8761 157.157 56.5658C156.321 54.7582 157.218 53.0839 157.315 52.9141C157.92 53.5692 158.853 54.5276 160.077 55.5467C163.421 58.3493 165.166 58.5555 166.293 60.2419C167.141 61.5036 167.698 63.6874 166.293 67.7274C164.378 64.7793 162.464 61.8191 160.538 58.871H160.55Z" fill="#38484E"/>
<path d="M270.019 87.6357C269.789 88.9824 269.522 90.3776 269.207 91.8092C268.492 95.0849 267.632 98.0937 266.699 100.836C264.942 104.415 261.731 105.591 260.265 104.718C259.114 104.038 258.702 101.903 259.199 99.6587C258.957 96.2253 258.727 92.804 258.484 89.3706C262.325 88.7883 266.166 88.2181 270.007 87.6357H270.019Z" fill="#F8BC9F"/>
<path d="M258.763 94.9398C258.872 96.1773 258.993 97.4269 259.102 98.6644C260.095 98.8221 261.38 98.9313 262.87 98.8099C264.942 98.6401 266.602 98.0699 267.729 97.5846C268.528 95.1946 269.328 92.7924 270.14 90.4023C266.347 91.9189 262.555 93.4354 258.775 94.9398H258.763Z" fill="#F4A388"/>
<path d="M270.721 78.4885C272.151 80.3569 272.441 82.3102 272.599 83.5113C273.314 88.7524 270.66 92.9258 269.643 94.3695C268.782 95.2552 266.989 96.8324 264.275 97.5118C261.234 98.2761 256.581 98.0092 254.594 95.1945C253.783 94.042 254.001 91.2394 254.449 85.6465C254.74 82.0311 255.018 80.9514 255.539 79.8352C256.024 78.804 257.199 76.3047 259.78 75.14C263.524 73.4294 268.334 75.3706 270.709 78.5007L270.721 78.4885Z" fill="#F8BC9F"/>
<path d="M270.249 117.59L270.685 115.928L264.009 114.326L263.354 116.352L264.166 116.619L264.578 115.345L269.631 116.558L269.413 117.371L270.249 117.59Z" fill="#FAB855"/>
<path d="M272.151 78.7668C270.903 79.4462 268.892 80.3804 266.287 80.8293C262.531 81.4723 255.322 81.4965 254.001 77.9903C252.754 74.6783 257.503 70.2015 257.806 69.9346C257.794 70.3956 257.842 71.1114 258.291 71.7059C260.399 74.4963 267.959 70.068 271.061 72.8706C271.921 73.647 272.697 75.2242 272.163 78.7789L272.151 78.7668Z" fill="#38484E"/>
<path d="M271.472 86.6165C272.514 86.1433 273.714 86.2404 274.586 86.8712C275.604 87.6113 275.931 88.8852 275.773 89.7708C275.47 91.4815 273.156 92.9494 270.091 92.7068C270.551 90.6807 271 88.6425 271.46 86.6165H271.472Z" fill="#F8BC9F"/>
<path d="M145.157 61.7212L144.363 62.5225L146.687 64.8286L147.48 64.0273L145.157 61.7212Z" fill="#38484E"/>
<path d="M260.011 73.6475C259.647 72.7376 259.332 71.6093 259.817 71.1604C260.229 70.7722 260.968 71.0997 262.034 71.2453C263.827 71.4879 264.409 70.9905 266.226 70.8085C267.147 70.7115 270.576 70.3475 272.357 72.2644C273.811 73.8416 273.52 76.268 273.375 77.1051C268.916 75.9526 264.47 74.8 260.011 73.6475Z" fill="#38484E"/>
<path d="M156.285 82.0427C154.953 81.3512 153.62 80.6597 152.275 79.9681C151.354 79.4828 150.421 79.0097 149.5 78.5244C148.701 80.4049 149.525 82.6008 151.318 83.4865C153.062 84.3479 155.231 83.7291 156.285 82.0427Z" fill="white"/>
<path d="M157.036 177.438C153.862 174.951 156.661 166.471 157.715 163.256C160.32 155.358 166.947 141.369 186.405 127.526C189.943 130.123 193.566 133.107 197.177 136.528C212.976 151.548 221.409 168.533 226.049 181.138C224.607 181.951 223.178 182.752 221.736 183.565C216.889 181.745 210.759 178.918 204.277 174.466C197.043 169.492 191.797 164.153 188.235 159.931C185.024 163.328 179.875 168.108 172.593 172.415C167.214 175.594 160.077 179.828 157.024 177.438H157.036Z" fill="#2DC3F3"/>
<path d="M167.771 217.535C168.365 217.983 168.959 218.445 169.564 218.893C169.661 219.718 169.819 220.883 170.122 222.278C170.558 224.353 170.897 225.069 170.691 226.245C170.437 227.713 169.492 229.097 169.007 228.987C168.51 228.878 168.668 227.325 168.329 225.251C167.917 222.788 167.02 220.895 166.317 219.67C166.802 218.954 167.299 218.238 167.783 217.522L167.771 217.535Z" fill="#534C5D"/>
<path d="M167.844 195.734C168.595 195.746 169.346 195.758 170.085 195.77C170.655 196.377 171.466 197.226 172.533 198.172C174.108 199.592 174.798 199.968 175.331 201.036C175.998 202.37 176.046 204.044 175.586 204.238C175.125 204.445 174.338 203.098 172.836 201.63C171.055 199.883 169.201 198.888 167.929 198.318C167.904 197.457 167.88 196.583 167.844 195.722V195.734Z" fill="#534C5D"/>
<path d="M103.072 44.0204C101.169 43.8506 96.2745 43.6807 92.0096 46.8108C86.1939 51.0814 83.9282 59.7195 86.7876 68.1513C86.2303 69.9105 85.2731 72.6281 83.7465 75.7825C78.3064 86.9562 70.5642 93.3741 68.0804 95.5822C57.6485 104.851 43.0002 126.216 45.1569 141.806C47.362 157.808 67.6806 170.753 92.8093 176.601C93.827 177.62 106.44 189.849 118.326 186.173C132.61 181.745 137.53 156.886 129.933 144.05C123.633 133.398 111.117 135.109 107.942 124.796C106.234 119.228 109.445 117.323 114.158 102.243C114.158 102.243 121.924 77.3961 117.441 58.3971C116.872 55.9706 115.866 52.8041 113.285 49.8681C109.844 45.9616 105.422 44.5542 103.084 44.0083L103.072 44.0204Z" fill="#534C5D"/>
<path d="M111.31 75.6009C111.31 75.6009 111.213 77.178 110.922 79.9078C110.765 81.2666 110.583 82.9287 110.28 84.8092C110.135 85.7676 109.941 86.7382 109.747 87.7937C109.541 88.8492 109.36 89.9775 109.069 91.0936C108.814 92.2341 108.511 93.4109 108.148 94.612C107.821 95.8252 107.409 97.0627 106.985 98.3366C106.1 100.86 105.046 103.481 103.81 106.174C102.647 108.855 101.193 111.706 101.096 114.897C101.024 115.686 101.108 116.474 101.169 117.263C101.327 118.063 101.448 118.804 101.654 119.58C102.15 121.109 102.805 122.625 103.81 123.887C105.713 126.532 108.305 128.461 110.704 130.39C113.128 132.307 115.43 134.248 117.344 136.407C119.307 138.53 120.797 140.908 122.021 143.238C122.312 143.832 122.602 144.415 122.881 144.997C123.135 145.555 123.378 146.198 123.608 146.768C124.032 147.921 124.432 149.073 124.723 150.189C125.922 154.678 126.116 158.621 126.104 161.351C126.104 162.722 126.043 163.802 126.007 164.542C125.959 165.282 125.922 165.67 125.922 165.67L126.055 165.694C126.055 165.694 126.116 165.306 126.249 164.578C126.358 163.85 126.528 162.771 126.649 161.387C126.782 160.004 126.831 158.318 126.758 156.377C126.698 154.436 126.431 152.252 125.898 149.898C125.365 147.545 124.577 145.033 123.317 142.583C122.093 140.108 120.494 137.608 118.41 135.425C116.35 133.217 113.939 131.263 111.443 129.407C108.972 127.551 106.355 125.792 104.404 123.414C103.374 122.261 102.696 120.866 102.15 119.447C101.945 118.719 101.787 117.906 101.629 117.19C101.569 116.426 101.46 115.661 101.52 114.897C101.629 111.815 103.108 109.061 104.477 106.477C105.846 103.869 107.203 101.309 108.099 98.7126C109.045 96.1406 109.735 93.6535 110.183 91.2999C110.45 90.1231 110.607 89.0069 110.789 87.9514C110.983 86.8959 111.092 85.8525 111.189 84.8941C111.371 82.9772 111.492 81.2908 111.504 79.9078C111.565 77.1416 111.456 75.5645 111.456 75.5645H111.31V75.6009Z" fill="#38323D"/>
<path d="M125.462 143.48L126.867 143.395C126.771 141.709 126.443 140.059 125.898 138.481C124.117 133.337 120.628 131.178 117.55 129.261C115.042 127.696 112.861 126.361 111.844 123.68C110.499 120.198 111.783 117.274 113.552 113.222C115.406 108.976 117.72 103.698 117.865 95.667C117.926 92.3428 117.599 88.9822 116.908 85.6943L115.539 85.9855C116.217 89.1763 116.52 92.4277 116.472 95.6427C116.339 103.395 114.085 108.527 112.28 112.652C110.45 116.838 108.996 120.15 110.547 124.178C111.747 127.283 114.218 128.824 116.835 130.45C119.852 132.318 122.978 134.259 124.602 138.93C125.099 140.374 125.401 141.903 125.498 143.468L125.462 143.48Z" fill="#534C5D"/>
<path d="M98.6494 79.0831C100.988 76.1714 103.29 73.0049 105.507 69.5472C117.405 51.0213 121.827 32.1437 123.451 17.8641C123.742 17.8277 124.154 17.8034 124.626 17.8762C125.22 17.9733 125.68 18.1795 125.971 18.3373C127.062 24.5975 127.037 29.7415 126.88 33.2356C126.407 43.3174 123.814 51.446 121.537 56.9176C120.301 60.8241 118.762 65.034 116.823 69.438C113.431 77.1419 109.602 83.6326 105.992 88.9465C103.544 85.6587 101.109 82.3709 98.6615 79.0709L98.6494 79.0831Z" fill="#2DC3F3"/>
<path d="M125.729 18.9433C126.201 18.2881 126.674 17.633 127.146 16.9778C127.534 16.6867 128.079 16.2256 128.576 15.5341C129.642 14.054 129.776 12.5617 129.873 11.2879C129.994 9.77133 130.079 8.60664 129.327 7.96364C128.794 7.50261 128.067 7.52688 127.498 7.53901C127.498 7.53901 125.886 7.57541 124.42 8.6673C122.542 10.0625 121.767 14.0297 122.857 18.6642C123.148 18.8341 123.778 19.1616 124.626 19.1495C125.087 19.1495 125.474 19.0403 125.729 18.9433Z" fill="#F8BC9F"/>
<path d="M93.4875 174.891C93.4875 174.891 93.1725 174.745 92.5667 174.466C91.973 174.187 91.1006 173.787 90.0344 173.18C88.9682 172.586 87.6839 171.846 86.3027 170.863C84.9215 169.88 83.4069 168.715 81.8924 167.296C80.3779 165.877 78.8998 164.178 77.4458 162.285C76.0283 160.393 74.647 158.27 73.5081 155.916C72.3329 153.575 71.4605 150.978 70.9516 148.273C70.4549 145.567 70.3095 142.74 70.6972 139.986C71.0849 137.232 71.9573 134.576 72.8417 131.967C73.7504 129.347 74.647 126.775 75.5194 124.275C77.1914 119.265 78.6575 114.557 79.8448 110.505C81.0685 106.465 82.0015 103.056 82.6679 100.678C83.2979 98.2882 83.6614 96.9294 83.6614 96.9294L83.5281 96.8809C83.5281 96.8809 83.0192 98.2033 82.1348 100.508C81.2866 102.826 80.0508 106.126 78.6817 110.129C77.2762 114.121 75.7133 118.792 74.1382 123.839C73.3506 126.338 72.4661 128.934 71.6665 131.603C70.8668 134.272 70.1278 137.051 69.9339 139.914C69.8249 141.333 69.8491 142.789 69.9702 144.184C70.0793 145.604 70.2489 146.999 70.5276 148.37C71.0607 151.112 71.8119 153.757 72.8175 156.244C73.8231 158.719 75.0226 161.024 76.4523 163.038C77.8941 165.039 79.5056 166.738 81.1049 168.17C82.7042 169.601 84.2914 170.766 85.7938 171.664C87.2841 172.561 88.629 173.253 89.78 173.738C92.0699 174.721 93.4511 175.036 93.4511 175.036L93.4996 174.903L93.4875 174.891Z" fill="#38323D"/>
<path d="M51.833 148.273L53.0204 147.521C45.1207 135.085 42.6369 124.579 45.6296 116.329C47.9922 109.79 53.1779 106.198 59.1874 102.037C65.2697 97.8273 72.1758 93.0593 78.2217 84.0936C82.8622 77.2268 86.0245 69.2924 87.648 60.5087L86.2668 60.2539C84.6796 68.8435 81.59 76.5959 77.0586 83.305C71.1581 92.0523 64.3731 96.7475 58.3878 100.885C52.1844 105.179 46.8169 108.892 44.3089 115.844C41.1709 124.53 43.7031 135.437 51.833 148.273Z" fill="#534C5D"/>
<path d="M91.6461 65.9922C91.6461 65.9922 91.5128 66.4411 91.2584 67.3025C91.0039 68.1517 90.6283 69.4013 90.0952 70.9542C89.0411 74.0843 87.3449 78.4883 84.752 83.5111C84.0978 84.7849 83.395 86.0224 82.5833 87.3327C82.1956 87.9878 81.7957 88.6672 81.3959 89.3466C80.9718 90.0018 80.5357 90.6569 80.0874 91.3242C79.2392 92.683 78.1851 93.9811 77.228 95.3763C76.1739 96.6987 75.1077 98.0697 73.9082 99.3799C71.5819 102.049 68.8921 104.536 66.1903 107.108C63.4763 109.656 60.738 112.349 58.5571 115.516C56.352 118.67 54.8496 122.285 53.9652 125.974C53.117 129.662 52.7536 133.399 52.8626 137.014C52.9595 140.629 53.6017 144.099 54.571 147.266C55.5281 150.444 56.9215 153.307 58.4602 155.722C61.5862 160.647 65.2937 163.802 67.9834 165.755C69.3404 166.726 70.4672 167.393 71.2305 167.842C72.006 168.279 72.4179 168.509 72.4179 168.509L72.4906 168.388C72.4906 168.388 72.1029 168.121 71.3638 167.636C70.6368 167.126 69.5828 166.374 68.3227 165.318C67.0626 164.263 65.5723 162.928 64.0457 161.23C62.5312 159.531 60.944 157.481 59.5264 155.103C58.0967 152.677 56.8851 149.91 55.9522 146.853C55.0193 143.796 54.4983 140.447 54.3286 136.965C54.159 133.483 54.4498 129.844 55.1889 126.241C55.9401 122.674 57.2486 119.107 59.2235 115.928C60.2413 114.351 61.3438 112.835 62.5797 111.427C63.8276 110.032 65.1483 108.71 66.5053 107.424C69.2314 104.888 71.9696 102.437 74.4776 99.9016C76.9857 97.366 79.2635 94.7333 81.1051 92.0036C81.5655 91.3242 82.0259 90.6448 82.4863 89.9896C82.8862 89.3102 83.286 88.643 83.6737 87.9757C84.4491 86.6654 85.1761 85.3187 85.794 84.0449C87.0662 81.485 88.0961 79.0585 88.8715 76.8748C89.6469 74.691 90.2648 72.7619 90.6768 71.1484C91.5128 67.9212 91.8036 66.0528 91.8036 66.0528L91.6703 66.0165L91.6461 65.9922Z" fill="#38323D"/>
<path d="M81.8686 137.73C82.3532 140.168 82.9954 142.668 83.8435 145.227C90.1196 164.19 104.114 176.067 113.479 182.425C118.156 183.517 122.918 184.718 127.752 186.028C142.291 189.971 155.813 194.46 168.292 199.228C168.45 198.645 168.607 197.845 168.595 196.886C168.595 196.158 168.486 195.54 168.377 195.042C164.112 191.366 158.721 187.338 152.105 183.626C140.74 177.244 130.066 174.211 122.215 172.683C119.949 166.993 114.994 156.85 104.732 147.945C98.1768 142.267 91.6341 138.979 86.8725 137.062C85.2005 137.281 83.5285 137.499 81.8564 137.73H81.8686Z" fill="#F28F32"/>
<path d="M83.5287 137.087C84.0255 138.822 84.7524 140.848 85.8308 143.019C87.1878 145.773 88.7265 147.969 90.0593 149.631C92.0827 150.699 94.106 151.767 96.1173 152.834C98.8071 156.28 101.606 159.725 104.514 163.171C124.384 186.732 145.636 205.694 166.33 220.969C166.645 220.787 167.42 220.289 167.929 219.294C168.462 218.251 168.39 217.293 168.341 216.941C164.331 209.298 157.849 199.228 147.538 189.68C142.631 185.142 137.784 181.563 133.386 178.761C132.514 176.237 131.193 172.44 129.521 167.83C127.256 161.582 125.293 156.45 124.905 155.479C123.221 151.233 118.241 142.11 100.285 127.806C94.6997 130.899 89.1021 133.993 83.5166 137.087H83.5287Z" fill="#F8AD50"/>
<path d="M86.3516 76.8506C85.0673 78.9252 83.262 81.4123 80.7783 83.9358C78.7185 86.0346 76.683 87.6482 74.9141 88.8736C74.5143 89.6986 73.448 92.2221 74.1144 95.3643C74.5991 97.6209 75.7501 99.1495 76.3801 99.8653C76.1742 102.68 76.0772 105.64 76.1257 108.746C76.3195 121.461 78.9366 132.38 81.9414 140.957C84.4736 140.666 87.9146 139.999 91.6948 138.324C97.2561 135.861 100.939 132.392 102.987 130.135C101.872 128.582 100.564 126.92 99.0371 125.197C97.5226 123.499 96.0202 122.019 94.6148 120.757C96.5533 114.084 98.9039 106.963 101.751 99.4892C104.526 92.2221 107.434 85.513 110.354 79.3862C102.357 78.5491 94.3482 77.6998 86.3516 76.8627V76.8506Z" fill="#2DC3F3"/>
<path d="M90.2533 76.5589C89.7807 77.396 89.1507 78.7669 88.9447 80.5504C88.7387 82.4187 88.872 85.8764 90.229 86.4951C91.4406 87.0532 94.0335 85.5367 99.8492 77.7357C98.4437 77.2383 96.59 76.753 94.3727 76.5468C92.8097 76.4133 91.4164 76.4497 90.2533 76.5589Z" fill="#14BFDD"/>
<path d="M87.4302 79.046C86.4609 76.5953 85.5522 74.0475 84.7284 71.3906C78.0403 49.9409 78.9975 29.7287 81.9053 13.9205C81.869 13.8598 81.1057 12.6587 79.7487 12.683C78.8278 12.6951 78.2342 13.2532 78.0888 13.3988C77.0831 15.7767 75.7504 19.2708 74.5751 23.6019C71.958 33.1864 71.4976 41.8002 71.7763 48.5457C71.7278 53.3379 71.9944 58.8095 72.891 64.8149C74.2722 74.0475 76.7439 81.8485 79.2034 87.9874C81.9417 85.0029 84.6799 82.0184 87.4181 79.0339L87.4302 79.046Z" fill="#2DC3F3"/>
<path d="M101.945 66.6961C102.236 66.8417 103.314 67.3391 104.405 66.9024C106.077 66.2351 106.804 63.7723 106.065 62.9958C105.556 62.462 104.405 62.7532 103.787 62.9594C103.169 64.209 102.563 65.4465 101.945 66.6961Z" fill="#F8BC9F"/>
<path d="M93.0513 66.9749C92.3001 70.3477 91.5368 73.7204 90.7856 77.0931C90.3494 78.8644 88.9924 84.7243 90.6402 85.5493C92.7363 86.6048 98.4793 78.7916 99.073 77.9667C99.9696 73.2108 100.878 68.455 101.775 63.6992C98.867 64.7911 95.9592 65.883 93.0634 66.9749H93.0513Z" fill="#F8BC9F"/>
<path d="M94.8694 48.7766C94.6513 48.7766 93.1368 48.8009 92.3008 47.6968C91.3073 46.3987 91.9494 44.4333 92.9672 43.4384C94.2515 42.1888 96.5535 42.0918 98.4073 43.4263C97.1715 43.0987 95.8872 43.402 95.0511 44.2634C93.9486 45.3917 93.8274 47.3207 94.8694 48.7887V48.7766Z" fill="#534C5D"/>
<path d="M78.3546 13.7509C78.4394 13.0715 78.5363 12.1252 78.5969 10.9726C78.6333 10.1598 78.706 8.71602 78.5848 6.88406C78.4515 4.76093 78.1486 3.34147 78.3667 3.28081C78.4879 3.24441 78.706 3.65691 78.815 3.88742C79.1058 4.4455 79.1543 4.89439 79.2633 5.40394C79.336 5.78004 79.4693 6.31385 79.6874 6.94473C79.7479 6.49583 79.8328 5.81643 79.857 5.00358C79.9297 2.98964 79.6389 1.59444 79.9903 1.48525C80.1357 1.43672 80.3295 1.6551 80.4628 1.80068C80.8384 2.20104 80.8384 2.7106 80.8384 2.88045C80.9111 4.27565 80.9717 5.65871 81.0444 7.05391C81.2624 6.41091 81.5169 5.51313 81.638 4.39697C81.8319 2.60141 81.6017 1.08488 81.9531 0.999958C82.0985 0.963562 82.256 1.19407 82.3287 1.279C83.2979 2.61354 82.5589 6.50797 82.4135 7.22377C82.68 6.76274 83.0556 6.01055 83.3222 5.02784C83.6978 3.65691 83.6978 2.50435 83.9643 2.48008C84.1461 2.46795 84.3278 2.98964 84.3642 3.07456C84.8609 4.51829 84.0734 5.75577 83.5403 8.07302C83.4312 8.53404 83.2858 9.23771 83.201 10.1476C83.6008 9.54101 84.0491 9.15278 84.352 8.9344C84.7398 8.65536 85.3334 8.23074 86.0483 8.30353C86.1694 8.31566 86.5329 8.35206 86.5814 8.52191C86.6541 8.76455 86.0604 9.11638 85.6848 9.38329C85.3092 9.63807 84.6792 10.4145 83.4191 11.9432C82.8981 12.5741 82.2438 13.3869 81.5048 14.3575C81.1655 14.4303 80.5839 14.4909 79.8812 14.3575C79.1785 14.2119 78.6696 13.9329 78.3788 13.7387L78.3546 13.7509Z" fill="#F8BC9F"/>
<path d="M91.5615 72.5795C92.2158 73.0648 93.0154 73.5622 93.9726 74.0111C96.1414 75.0302 98.1648 75.3092 99.5339 75.3699C100.031 72.9799 100.527 70.602 101.024 68.2119C97.874 69.6678 94.7117 71.1236 91.5615 72.5795Z" fill="#F4A388"/>
<path d="M97.3044 49.08C94.0088 49.5046 92.0824 51.9917 91.2948 52.9987C86.3393 59.4045 87.5752 71.5973 92.155 73.2958C96.0322 74.7395 102.684 68.7462 104.816 62.3768C105.277 61.018 107.324 54.8549 103.823 51.2516C102.175 49.5531 99.6185 48.7767 97.3044 49.08Z" fill="#F8BC9F"/>
<path d="M95.0629 47.175C95.1841 48.4246 95.5718 50.3051 96.9288 51.8701C98.9643 54.2116 101.23 53.5929 103.702 55.9223C106.404 58.47 106.149 61.5273 106.997 61.4667C108.172 61.3939 110.244 55.4249 107.797 51.2514C105.689 47.6603 100.551 45.9496 95.0508 47.175H95.0629Z" fill="#534C5D"/>
<path d="M96.5049 48.6062C96.5049 48.6062 97.2561 48.8246 98.4434 48.7033C98.7342 48.6669 99.0614 48.6183 99.3885 48.5213C99.7399 48.4121 100.031 48.3272 100.406 48.1452C101.097 47.8298 101.739 47.2959 102.308 46.8592C102.587 46.6287 102.866 46.4346 103.157 46.289C103.435 46.1434 103.75 46.0099 104.053 45.9371C104.671 45.7794 105.289 45.7551 105.834 45.7915C106.379 45.8279 106.852 45.8886 107.167 45.9614C107.494 46.0221 107.688 46.0585 107.688 46.0585C107.688 46.0585 107.082 45.561 105.943 45.1971C105.374 45.0272 104.659 44.918 103.871 45.0272C103.484 45.0879 103.096 45.1849 102.708 45.3791C102.333 45.561 101.981 45.7915 101.666 46.0342C101.061 46.5437 100.54 46.9926 99.9701 47.3323C99.7156 47.4779 99.3764 47.672 99.1219 47.7934C98.8433 47.9147 98.5646 48.036 98.3102 48.1209C97.7892 48.3029 97.3409 48.4364 97.0138 48.497C96.6866 48.5698 96.5049 48.6062 96.5049 48.6062Z" fill="#38323D"/>
<path d="M96.2871 49.3105C96.2871 49.3105 96.3962 49.5047 96.6627 49.7958C96.9293 50.0749 97.317 50.4995 97.9107 50.8513C98.2014 51.0333 98.5407 51.2032 98.9284 51.3245C99.2555 51.4458 99.7523 51.5429 100.164 51.5793C101.049 51.6521 101.957 51.4579 102.793 51.2881C104.441 50.8877 106.077 50.8271 107.337 50.9969C107.967 51.0818 108.5 51.1668 108.864 51.2638C109.239 51.3488 109.445 51.3973 109.445 51.3973C109.445 51.3973 108.742 50.8513 107.47 50.4024C106.828 50.1841 106.053 50.0263 105.205 49.99C104.356 49.9414 103.436 50.0749 102.587 50.2447C101.727 50.4388 100.928 50.6208 100.188 50.6451C99.8008 50.633 99.51 50.6451 99.1223 50.5602C98.7951 50.4995 98.468 50.4146 98.1772 50.3054C97.5956 50.087 97.1231 49.8444 96.8081 49.6381C96.4931 49.4319 96.2992 49.3105 96.2992 49.3105H96.2871Z" fill="#38323D"/>
<path d="M95.4993 153.101C93.2336 152.968 90.9678 152.822 88.7021 152.688C89.3806 153.489 90.0713 154.29 90.7498 155.103C92.337 154.436 93.9121 153.78 95.4993 153.113V153.101Z" fill="#F8AD50"/>
<path d="M80.5961 96.8197C80.7899 94.83 81.4079 93.2649 82.4377 92.1609C83.0556 91.4936 83.6493 91.1782 84.558 90.6808C85.0911 90.3896 85.7212 90.0499 86.4845 89.5646C87.9384 88.6426 89.3075 87.5749 90.5434 86.3981L89.8164 85.6338C88.629 86.7742 87.3205 87.7933 85.915 88.679C85.176 89.1521 84.5702 89.4797 84.0492 89.7587C83.1283 90.2562 82.4014 90.6565 81.6623 91.4451C80.4628 92.7311 79.748 94.5024 79.542 96.7226L80.584 96.8197H80.5961Z" fill="#14BFDD"/>
<path d="M91.8037 68.3459C92.5549 68.2124 93.3061 68.079 94.0815 67.9334C94.966 67.7635 95.8384 67.6058 96.6986 67.4238C96.1655 68.6249 95.0266 69.3771 93.8513 69.3407C92.7003 69.3043 91.9612 68.5157 91.8037 68.3337V68.3459Z" fill="white"/>
<circle opacity="0.5" cx="45.5" cy="30.5" r="8.5" fill="#45CBF6"/>
<circle cx="320.201" cy="132.475" r="17.5" transform="rotate(-13.9424 320.201 132.475)" fill="#2DC3F3"/>
<circle opacity="0.5" cx="338.44" cy="102.188" r="10.5" transform="rotate(-13.9424 338.44 102.188)" fill="#45CBF6"/>
<circle opacity="0.5" cx="318.829" cy="81.2972" r="8.5" transform="rotate(-13.9424 318.829 81.2972)" fill="#45CBF6"/>
<circle cx="35.5" cy="58.5" r="12.5" fill="#45CBF6"/>
</svg>
