<svg width="230" height="65" viewBox="0 0 230 65" fill="none" xmlns="http://www.w3.org/2000/svg">
<path d="M61.9759 46.7196C59.5372 49.6717 56.9059 52.1104 52.7344 53.9716C43.9421 57.8864 32.7753 57.6938 21.416 45.2435C20.9025 44.6659 20.71 45.1151 20.9667 45.436C27.7695 53.7149 37.2035 59.94 48.5629 57.5013C54.2105 56.2819 58.2536 54.0358 62.3609 49.6717C64.928 46.9121 62.746 45.9494 61.9759 46.7196Z" fill="#3869E5"/>
<path d="M24.6897 35.6829C25.3315 34.6561 24.3046 33.8218 23.5987 34.9128C20.3257 40.6246 13.2662 37.5441 13.9721 37.9291C16.2183 39.2127 21.16 40.8813 24.6897 35.6829Z" fill="#3869E5"/>
<path d="M24.6897 35.6829C25.3315 34.6561 24.3046 33.8218 23.5987 34.9128C20.3257 40.6246 13.2662 37.5441 13.9721 37.9291C16.2183 39.2127 21.16 40.8813 24.6897 35.6829Z" stroke="#3869E5" stroke-width="0.658" stroke-miterlimit="10"/>
<path d="M79.4969 16.686C78.791 14.6324 77.8283 12.8354 76.7373 11.1668C76.4165 10.6534 76.0956 10.2042 75.7105 9.75492C71.2181 3.85063 64.2228 0 56.3932 0C55.6231 0 54.853 0.0641849 54.0828 0.128362C52.5426 0.256716 51.0665 0.577594 49.6546 0.962656C49.3337 1.09101 48.9487 1.15519 48.6278 1.28354C42.0817 3.52974 37.1401 8.79228 33.9954 15.0175C33.7387 15.4667 32.5835 17.9696 30.6582 15.3383C27.6419 11.231 22.8928 8.40718 17.5019 8.40718C15.8333 8.40718 14.293 8.6639 12.7528 9.17731C12.6886 9.17731 12.5603 9.24152 12.4961 9.24152C7.49026 10.9743 3.57546 15.21 1.90685 20.4725C-1.43035 30.9975 4.28141 43.8972 9.28722 49.9298C10.7633 51.9835 12.111 53.5879 14.6781 55.7699C14.999 56.0266 15.2557 56.2191 15.4482 56.2833C15.5124 56.3475 16.1542 56.4758 15.3199 55.7699C8.64545 49.8014 2.16357 36.7735 5.17989 24.5157C5.75748 22.2695 6.59178 20.5367 8.06786 18.6114C8.83798 17.5845 9.80063 16.686 10.8916 15.9159C13.202 14.2473 15.9616 13.2847 18.978 13.2847C23.4062 13.2847 26.8717 15.595 29.4388 18.8039C32.391 22.3978 34.9581 19.3815 35.664 18.3546C39.4505 13.0279 44.0712 5.58341 54.4037 4.94164C54.4679 4.94164 54.5962 4.94164 54.6604 4.94164C56.2007 4.87747 57.8051 4.94162 59.3453 5.19833C66.9182 6.41769 73.9777 11.6161 77.3149 22.0769C79.1761 27.8529 78.9194 34.9123 78.1492 39.7256C76.0314 52.6252 67.9451 60.1981 62.1691 63.7279C61.1423 64.3696 61.3348 64.6905 62.1691 64.498C63.6452 63.9846 65.6347 62.8935 67.175 61.7383C76.3523 54.9997 82.3849 43.8971 82.3849 31.3184C82.3849 26.1842 81.3581 21.1784 79.4969 16.686Z" fill="#3869E5"/>
<path d="M135.844 39.6617C136.807 38.314 137.898 38.3782 138.476 40.6885C138.668 41.2661 138.54 42.9347 137.064 42.8064C135.652 42.7422 134.817 41.0736 135.844 39.6617Z" fill="#3869E5"/>
<path d="M94.1928 50.9569C95.6047 48.9032 95.9256 46.2078 95.1554 43.7048C94.5137 41.7795 93.3585 40.1751 92.0749 39.7259C91.4332 39.4692 90.7914 39.3408 90.1496 39.3408C89.187 39.2766 88.2885 39.5333 87.4542 39.9826C85.6572 40.9452 84.3095 42.9989 83.8603 45.8869C83.0902 50.7002 80.0738 55 76.6083 59.6208C74.1695 62.8938 72.4368 63.5997 73.5919 63.5997C74.6188 63.5997 77.0575 61.1611 77.0575 61.1611C81.9991 56.6045 85.2722 51.5987 85.2722 51.5345L85.7214 51.3419C86.8766 52.8822 88.096 53.6523 89.4437 53.6523C92.0749 53.5881 94.1928 50.9569 94.1928 50.9569ZM87.4542 49.8658C86.8124 49.2241 86.4274 48.2615 86.299 47.1063C86.0423 44.6675 87.5184 42.293 89.5079 42.1004C90.4705 41.9721 91.4332 42.3572 92.1391 43.1273C92.7809 43.8332 93.2301 44.8601 93.3585 46.0152C93.6152 48.3898 92.1391 50.4435 90.0213 50.7002C89.8287 50.7002 89.6362 50.7002 89.4437 50.7002C88.6735 50.636 87.9676 50.3792 87.4542 49.8658Z" fill="#3869E5"/>
<path d="M107.35 44.7949C107.35 44.7307 107.029 40.0458 103.628 39.404C103.371 39.3399 103.05 39.3398 102.793 39.3398C101.638 39.3398 100.547 39.7891 99.6487 40.5592C97.8517 42.0995 96.9532 44.8591 97.1457 48.0037C97.3383 51.2126 99.1994 52.9454 100.932 53.2663C102.537 53.523 104.654 52.7529 105.81 49.7365L106.002 49.2873L106.259 49.7365C106.836 50.635 108.505 53.0096 109.66 53.2021C110.238 53.2663 110.751 53.0737 110.944 52.6245C111.136 52.1111 110.944 51.1484 109.66 50.1857C109.275 49.929 108.954 49.6723 108.698 49.4798C107.35 48.5813 107.35 48.5172 107.35 46.8486C107.35 46.3352 107.35 45.6934 107.35 44.7949ZM104.783 47.9396C104.013 49.8007 103.05 50.7633 101.895 50.8275C101.831 50.8275 101.831 50.8275 101.766 50.8275C100.611 50.8275 99.6486 49.9291 99.1352 49.0948C98.4935 47.9396 98.3651 45.8217 99.1352 44.1531C99.6486 43.0621 100.483 42.4203 101.574 42.2278C102.472 42.0995 103.178 42.2278 103.82 42.6771C104.975 43.5755 105.104 45.2441 105.104 45.3083C105.232 46.7202 104.783 47.8754 104.783 47.9396Z" fill="#3869E5"/>
<path d="M113.19 49.9292C114.088 51.8545 115.307 52.9455 116.784 53.2022C118.195 53.3947 119.672 52.8171 120.827 51.5977C122.046 50.3142 121.789 49.4157 121.725 49.2232C121.597 48.9665 121.404 48.7739 121.212 48.7739C120.762 48.7739 120.442 49.0948 119.992 49.544C119.543 50.0574 118.901 50.6992 117.875 50.7634C116.976 50.8276 116.27 50.5709 115.693 50.0575C114.216 48.6456 114.088 45.3725 114.216 42.6771V42.4846L114.409 42.4204C115.5 42.1637 116.013 41.907 117.104 40.9443C117.489 40.6234 117.554 40.2384 117.425 40.0459C117.297 39.8533 116.912 39.725 116.398 40.0459C116.27 40.11 116.206 40.11 116.142 40.1742C115.757 40.3667 115.564 40.4951 114.666 40.5593H114.345V40.2384C114.666 37.2221 114.794 36.6445 115.243 34.655C115.372 34.2057 115.436 33.6282 115.628 32.9864C115.757 32.4088 116.013 31.7028 116.27 30.9327C116.976 28.6223 116.142 28.5581 116.013 28.6223C115.179 28.9432 114.345 30.4193 113.382 33.6282C112.869 35.3609 112.548 36.2594 112.163 39.9817L112.099 40.3025L111.778 40.1742C111.328 40.0458 110.943 39.8533 110.494 39.5966C109.852 39.2757 109.275 39.0832 108.89 39.0832C108.633 39.0832 108.376 39.1474 108.248 39.3399C107.991 39.725 108.184 40.4951 108.697 40.9443C109.339 41.4577 110.302 42.2279 111.714 42.4846L111.906 42.5487V42.7413C111.97 45.8218 112.419 48.1964 113.19 49.9292Z" fill="#3869E5"/>
<path d="M130.581 53.2669C130.902 53.3953 131.159 53.2669 131.223 53.2027C132.956 49.3521 132.57 44.0254 131.223 41.1374C130.774 40.1106 130.196 39.4688 129.618 39.2763C129.105 39.148 128.656 39.1479 128.206 39.4688C126.474 40.4957 125.639 44.0896 125.639 44.1538L125.318 45.6298L125.126 44.1538C124.677 40.239 123.201 29.7781 121.66 28.5587C121.532 28.4304 121.468 28.4946 121.404 28.4946C120.569 28.6229 120.698 31.8959 121.019 34.1421C121.211 37.4152 123.265 49.3521 124.227 51.7266C124.805 53.2669 125.19 53.2669 125.254 53.2669C125.447 53.2669 125.768 52.6252 125.96 51.5983C126.024 51.3416 126.024 51.0207 126.089 50.6357C126.602 47.1059 127.18 43.6403 128.591 42.6777C128.784 42.5493 128.912 42.5493 129.041 42.5493C129.169 42.5493 129.297 42.6135 129.362 42.6777C130.709 43.512 130.26 50.4431 130.068 51.7908C130.003 52.5609 130.132 53.1386 130.581 53.2669Z" fill="#3869E5"/>
<path d="M138.796 53.5236C138.026 52.5609 136.358 50.5715 136.614 46.785C136.743 45.1164 136.422 44.6672 136.229 44.5388C136.165 44.4746 136.037 44.4746 135.972 44.4746C135.844 44.4746 135.716 44.5388 135.716 44.5388C134.304 45.1806 134.047 48.8387 134.817 51.0207C135.844 53.8445 136.871 54.1654 137.898 54.1654C138.86 54.037 138.925 53.7161 138.796 53.5236Z" fill="#3869E5"/>
<path d="M148.422 40.5596C148.358 40.5596 148.23 40.5596 148.166 40.5596C146.24 40.5596 143.545 41.2013 141.363 44.1535C140.208 45.7579 139.823 48.1324 140.464 50.1861C140.849 51.4696 141.812 53.1383 144.123 53.9084C148.936 55.577 153.877 54.486 156.637 53.0099C157.6 52.4965 156.894 51.7906 155.867 51.9189C154.07 52.1756 151.054 52.689 148.358 52.0472C145.406 51.3413 143.866 49.6085 143.352 47.5548C143.032 46.2713 143.481 44.9878 144.443 44.2177C146.69 42.4207 148.615 42.6774 150.284 42.9341C150.989 43.0625 151.695 43.1266 152.401 43.0625C152.722 42.9983 152.979 42.8699 153.107 42.6774C153.236 42.4849 153.236 42.2923 153.172 42.0998C152.915 41.8431 150.989 40.6237 148.422 40.5596Z" fill="#3869E5"/>
<path d="M185.774 44.7949C185.774 44.7307 185.453 40.0458 182.051 39.404C181.795 39.3399 181.474 39.3398 181.217 39.3398C180.062 39.3398 178.971 39.7891 178.072 40.5592C176.276 42.0995 175.377 44.8591 175.57 48.0037C175.762 51.2126 177.623 52.9454 179.356 53.2663C180.96 53.523 183.078 52.7529 184.233 49.7365L184.426 49.2873L184.683 49.7365C185.26 50.635 186.929 53.0096 188.084 53.2021C188.662 53.2663 189.175 53.0737 189.368 52.6245C189.56 52.1111 189.368 51.1484 188.084 50.1857C187.699 49.929 187.378 49.6723 187.121 49.4798C185.774 48.5813 185.774 48.5172 185.774 46.8486C185.838 46.3352 185.838 45.6934 185.774 44.7949ZM183.271 47.9396C182.501 49.8007 181.538 50.7633 180.383 50.8275C180.319 50.8275 180.319 50.8275 180.254 50.8275C179.099 50.8275 178.137 49.9291 177.623 49.0948C176.981 47.9396 176.853 45.8217 177.623 44.1531C178.137 43.0621 178.971 42.4203 180.062 42.2278C180.96 42.0995 181.666 42.2278 182.308 42.6771C183.463 43.5755 183.592 45.2441 183.592 45.3083C183.72 46.7202 183.271 47.8754 183.271 47.9396Z" fill="#3869E5"/>
<path d="M167.548 26.8907C168.639 24.5161 170.18 23.1684 171.977 22.8475C173.709 22.5908 175.571 23.3609 177.047 24.9011C178.523 26.5056 178.266 27.5966 178.138 27.8533C178.009 28.1742 177.753 28.3667 177.496 28.3667C176.918 28.3667 176.533 27.9817 176.02 27.4041C175.442 26.7623 174.672 25.9922 173.389 25.8638C172.298 25.7996 171.399 26.0564 170.693 26.7623C168.832 28.5593 168.768 32.6024 168.832 35.8755V36.1321L169.089 36.1963C170.436 36.5172 171.078 36.7739 172.426 37.9933C172.875 38.3784 173.004 38.8276 172.811 39.1485C172.618 39.4052 172.169 39.5335 171.527 39.2126C171.399 39.1485 171.335 39.0843 171.207 39.0201C170.757 38.7634 170.501 38.635 169.41 38.5709H169.025L169.089 38.9559C169.474 42.6782 169.666 43.4483 170.18 45.8871C170.308 46.4647 170.436 47.1064 170.629 47.9407C170.757 48.6467 171.142 49.5451 171.399 50.4436C172.298 53.3316 171.271 53.3958 171.078 53.3316C170.051 52.8823 169.025 51.0854 167.805 47.1706C167.163 45.0528 166.778 43.8976 166.265 39.2768L166.201 38.8917L165.816 39.0201C165.302 39.2126 164.789 39.4052 164.211 39.7261C163.441 40.1753 162.735 40.3678 162.222 40.3678C161.901 40.3678 161.644 40.2395 161.452 40.047C161.131 39.5335 161.387 38.5709 162.029 38.1217C162.799 37.5441 164.083 36.5172 165.751 36.1963L166.008 36.1321V35.8755C166.008 32.0248 166.522 29.0085 167.548 26.8907Z" fill="#3869E5"/>
<path d="M209.648 38.5709C210.611 37.2231 211.702 37.2873 212.279 39.5977C212.472 40.1753 212.343 41.8439 210.867 41.7156C209.456 41.6514 208.621 39.9186 209.648 38.5709Z" fill="#3869E5"/>
<path d="M212.6 52.3693C211.83 51.4066 210.161 49.4171 210.418 45.6307C210.546 43.9621 210.225 43.5128 210.033 43.3845C209.969 43.3203 209.84 43.3203 209.776 43.3203C209.648 43.3203 209.519 43.3845 209.519 43.3845C208.108 44.0262 207.851 47.6843 208.621 49.8663C209.648 52.6901 210.675 53.011 211.701 53.011C212.664 52.9469 212.793 52.5618 212.6 52.3693Z" fill="#3869E5"/>
<path d="M194.888 52.3693C194.118 51.4066 192.449 49.4171 192.706 45.6307C192.834 43.9621 192.514 43.5128 192.321 43.3845C192.257 43.3203 192.128 43.3203 192.064 43.3203C191.936 43.3203 191.808 43.3845 191.808 43.3845C190.396 44.0262 190.139 47.6843 190.909 49.8663C191.936 52.6901 192.963 53.011 193.99 53.011C194.888 52.9469 195.016 52.5618 194.888 52.3693Z" fill="#3869E5"/>
<path d="M195.272 44.1537C196.043 43.7687 196.235 44.0254 196.363 44.1537C196.299 44.0254 197.069 46.4641 197.262 47.6193C197.519 48.9028 198.353 52.6251 199.187 52.6251C199.957 52.5609 200.407 47.876 200.022 46.2716C199.893 45.5656 199.701 44.7955 199.444 44.0896C199.187 43.2553 198.931 42.3568 198.16 41.7792C196.813 40.7523 194.887 41.1374 193.604 41.9717C192.256 42.8702 191.358 44.2179 190.78 45.694C190.459 46.3999 191.486 48.1969 191.807 47.5551C193.026 45.2447 195.144 44.2179 195.272 44.1537Z" fill="#3869E5"/>
<path d="M202.717 46.0146C202.781 46.6564 203.102 53.4591 204.193 53.074C204.963 52.8173 206.824 47.4906 204.001 42.2281C203.487 41.2013 202.396 40.8162 201.241 41.0088C200.407 41.1371 199.637 41.5863 198.995 42.0998C197.84 43.0624 197.134 44.6669 197.262 46.2071C197.326 46.9772 198.738 48.5817 198.802 47.7474C198.995 41.9073 202.46 43.8326 202.717 46.0146Z" fill="#3869E5"/>
<path d="M214.397 30.6767C214.268 33.308 214.525 35.9392 214.718 38.5705C214.974 41.9719 215.359 45.4375 216.065 48.7747C216.322 50.1866 216.9 53.9088 218.055 54.2939C219.146 54.679 217.285 39.1481 217.156 35.8751C217.092 34.6557 217.028 33.4364 217.092 32.217C217.156 31.4469 216.964 29.329 215.937 29.2007C215.039 29.0723 214.397 29.7782 214.397 30.6767Z" fill="#3869E5"/>
<path d="M220.302 42.6131C219.917 45.116 220.687 47.683 221.97 49.8009C222.997 51.4053 224.73 53.5232 226.912 53.3306C227.618 53.2665 228.324 52.7531 228.26 51.9829C228.26 51.277 228.773 49.6726 228.003 49.7367C227.939 49.7367 226.783 50.6352 226.719 50.6352C226.655 50.6352 223.125 51.9829 221.649 41.5221C221.649 40.8803 220.622 40.046 220.302 42.6131Z" fill="#3869E5"/>
<path d="M227.297 42.8068C227.425 44.0261 227.425 45.2455 227.425 46.4649C227.425 46.9783 227.361 47.4275 227.297 47.9409C227.297 48.0693 227.297 48.1976 227.233 48.326C227.168 48.711 227.297 48.0693 227.233 48.4543C227.168 48.7111 227.168 49.0319 227.104 49.2886C226.912 50.1871 226.719 51.0215 226.398 51.8558C226.334 52.0483 226.27 52.2408 226.206 52.4333C226.077 52.7542 226.334 52.1766 226.206 52.4975C226.142 52.5617 226.142 52.69 226.077 52.7542C225.949 53.0751 225.757 53.4602 225.564 53.7811C225.372 54.102 225.179 54.4228 224.986 54.7437C224.858 54.8721 224.794 55.0646 224.666 55.1929C224.601 55.2571 224.216 55.7705 224.473 55.4497C224.088 55.9631 223.639 56.4123 223.19 56.8615C222.804 57.2466 221.842 58.0809 221.778 58.0809C221.649 58.1451 221.585 58.2093 221.457 58.3376C221.264 58.466 221.072 58.5943 220.879 58.7868C220.173 59.2361 219.467 59.6853 218.697 60.0704C216.515 61.3539 217.542 62.1882 218.184 61.9315C225.436 58.7227 228.452 54.102 229.158 50.8931C229.736 48.326 230.056 46.0156 229.543 43.4485C229.158 41.5874 228.709 40.7531 227.874 40.7531C227.233 40.6889 227.233 42.1008 227.297 42.8068Z" fill="#3869E5"/>
</svg>
