<svg width="100" height="100" viewBox="0 0 100 100" fill="none" xmlns="http://www.w3.org/2000/svg">
<g id="Mom_Woman partner 1" clip-path="url(#clip0_4680_5483)">
<rect width="100" height="100"/>
<g id="Group 37510" filter="url(#filter0_dd_4680_5483)">
<circle id="Ellipse 100" cx="49.5" cy="49.5" r="42.5" fill="white"/>
<g id="Mask Group">
<mask id="mask0_4680_5483" style="mask-type:alpha" maskUnits="userSpaceOnUse" x="7" y="7" width="85" height="85">
<g id="Ellipse 99">
<circle cx="49.5" cy="49.5" r="42.5" fill="white"/>
<circle cx="49.5" cy="49.5" r="42" stroke="black" stroke-opacity="0.5"/>
</g>
</mask>
<g mask="url(#mask0_4680_5483)">
<g id="Layer 2">
<g id="avatar">
<g id="Group">
<path id="Vector" d="M75.2509 35.1638V66.9648C75.2509 79.5447 64.8858 89.8376 52.2198 89.8376H47.421C34.7549 89.8376 24.3916 79.5447 24.3916 66.9648V35.1638C24.4108 29.1034 26.8432 23.2967 31.1579 19.0113C35.4726 14.726 41.3191 12.3101 47.421 12.291H52.2198C64.8858 12.291 75.2509 22.5838 75.2509 35.1638Z" fill="#3869E5"/>
<path id="Vector_2" d="M66.542 125.898V106.264C66.542 97.5227 59.3394 90.3691 50.5379 90.3691H49.1055C40.3022 90.3691 33.0996 97.5227 33.0996 106.264V125.898H66.542Z" fill="#3869E5"/>
<path id="Vector_3" d="M61.5973 92.8958V81.7209C61.588 78.6207 60.344 75.65 58.1369 73.4577C55.9299 71.2653 52.9391 70.0293 49.8176 70.0195V70.0195C46.6959 70.0288 43.7046 71.2646 41.4972 73.457C39.2897 75.6495 38.0455 78.6204 38.0361 81.7209V92.8958H61.5973Z" fill="#3869E5"/>
<path id="Vector_4" d="M49.8207 77.5782C48.4958 77.5782 47.2252 77.0555 46.2883 76.125C45.3515 75.1946 44.8252 73.9326 44.8252 72.6167V67.6287C44.8257 66.3131 45.3522 65.0516 46.289 64.1215C47.2258 63.1914 48.4961 62.6689 49.8207 62.6689V62.6689C50.4765 62.6689 51.1259 62.7972 51.7317 63.0465C52.3376 63.2957 52.8881 63.6611 53.3518 64.1216C53.8155 64.5822 54.1834 65.129 54.4343 65.7307C54.6853 66.3324 54.8145 66.9774 54.8145 67.6287V72.6096C54.8156 73.2617 54.6873 73.9076 54.4369 74.5104C54.1865 75.1131 53.8188 75.6609 53.355 76.1224C52.8911 76.5839 52.3402 76.95 51.7338 77.1998C51.1273 77.4496 50.4773 77.5782 49.8207 77.5782V77.5782Z" fill="#45CBF6"/>
<path id="Vector_5" d="M49.8211 15.9043H49.8194C36.8353 15.9043 26.3096 26.3584 26.3096 39.2542V44.1647C26.3096 57.0604 36.8353 67.5145 49.8194 67.5145H49.8211C62.8053 67.5145 73.331 57.0604 73.331 44.1647V39.2542C73.331 26.3584 62.8053 15.9043 49.8211 15.9043Z" fill="#45CBF6"/>
<path id="Vector_6" d="M28.8833 50.859C30.5371 49.2164 30.5371 46.5532 28.8833 44.9105C27.2294 43.2679 24.5479 43.2679 22.894 44.9105C21.2401 46.5532 21.2401 49.2164 22.894 50.859C24.5479 52.5016 27.2294 52.5016 28.8833 50.859Z" fill="#45CBF6"/>
<path id="Vector_7" d="M77.9088 48.6713C78.3491 46.3898 76.8438 44.1858 74.5467 43.7485C72.2496 43.3112 70.0304 44.8062 69.5902 47.0877C69.1499 49.3692 70.6552 51.5732 72.9523 52.0105C75.2494 52.4478 77.4685 50.9528 77.9088 48.6713Z" fill="#45CBF6"/>
<path id="Vector_8" d="M35.0372 52.5048C35.0372 52.797 34.6047 53.033 34.0693 53.033C33.5339 53.033 33.0996 52.797 33.0996 52.5048C33.0996 52.2125 33.5339 51.9766 34.0693 51.9766C34.6047 51.9766 35.0372 52.2125 35.0372 52.5048Z" fill="#56CCF2"/>
<path id="Vector_9" d="M38.0714 52.5048C38.0714 52.797 37.6371 53.033 37.1017 53.033C36.5663 53.033 36.1338 52.797 36.1338 52.5048C36.1338 52.2125 36.5663 51.9766 37.1017 51.9766C37.6371 51.9766 38.0714 52.2125 38.0714 52.5048Z" fill="#56CCF2"/>
<path id="Vector_10" d="M36.668 53.8934C36.668 54.1857 36.2337 54.4216 35.6984 54.4216C35.163 54.4216 34.7305 54.1857 34.7305 53.8934C34.7305 53.6012 35.1648 53.3652 35.6984 53.3652C36.232 53.3652 36.668 53.6012 36.668 53.8934Z" fill="#56CCF2"/>
<path id="Vector_11" d="M39.7323 53.8934C39.7323 54.1857 39.298 54.4216 38.7626 54.4216C38.2273 54.4216 37.793 54.1857 37.793 53.8934C37.793 53.6012 38.2273 53.3652 38.7626 53.3652C39.298 53.3652 39.7323 53.6012 39.7323 53.8934Z" fill="#56CCF2"/>
<path id="Vector_12" d="M41.1134 52.5048C41.1134 52.797 40.6808 53.033 40.1455 53.033C39.6101 53.033 39.1758 52.797 39.1758 52.5048C39.1758 52.2125 39.6101 51.9766 40.1455 51.9766C40.6808 51.9766 41.1134 52.2125 41.1134 52.5048Z" fill="#56CCF2"/>
<path id="Vector_13" d="M60.0019 52.5048C60.0019 52.797 59.5675 53.033 59.0322 53.033C58.4968 53.033 58.0625 52.797 58.0625 52.5048C58.0625 52.2125 58.4968 51.9766 59.0322 51.9766C59.5675 51.9766 60.0019 52.2125 60.0019 52.5048Z" fill="#56CCF2"/>
<path id="Vector_14" d="M63.0352 52.5048C63.0352 52.797 62.6009 53.033 62.0673 53.033C61.5337 53.033 61.0977 52.797 61.0977 52.5048C61.0977 52.2125 61.532 51.9766 62.0673 51.9766C62.6027 51.9766 63.0352 52.2125 63.0352 52.5048Z" fill="#56CCF2"/>
<path id="Vector_15" d="M61.6309 53.8934C61.6309 54.1857 61.1984 54.4216 60.663 54.4216C60.1277 54.4216 59.6934 54.1857 59.6934 53.8934C59.6934 53.6012 60.1277 53.3652 60.663 53.3652C61.1984 53.3652 61.6309 53.6012 61.6309 53.8934Z" fill="#56CCF2"/>
<path id="Vector_16" d="M64.6905 53.8934C64.6905 54.1857 64.2562 54.4216 63.7208 54.4216C63.1855 54.4216 62.7529 54.1857 62.7529 53.8934C62.7529 53.6012 63.1855 53.3652 63.7208 53.3652C64.2562 53.3652 64.6905 53.6012 64.6905 53.8934Z" fill="#56CCF2"/>
<path id="Vector_17" d="M66.0702 52.5048C66.0702 52.797 65.6359 53.033 65.1005 53.033C64.5652 53.033 64.1309 52.797 64.1309 52.5048C64.1309 52.2125 64.5652 51.9766 65.1005 51.9766C65.6359 51.9766 66.0702 52.2125 66.0702 52.5048Z" fill="#56CCF2"/>
<path id="Vector_18" d="M38.7629 49.1174C39.8428 49.1174 40.7182 48.2479 40.7182 47.1754C40.7182 46.1029 39.8428 45.2334 38.7629 45.2334C37.683 45.2334 36.8076 46.1029 36.8076 47.1754C36.8076 48.2479 37.683 49.1174 38.7629 49.1174Z" fill="#3869E5"/>
<path id="Vector_19" d="M60.8772 49.1174C61.9571 49.1174 62.8325 48.2479 62.8325 47.1754C62.8325 46.1029 61.9571 45.2334 60.8772 45.2334C59.7973 45.2334 58.9219 46.1029 58.9219 47.1754C58.9219 48.2479 59.7973 49.1174 60.8772 49.1174Z" fill="#3869E5"/>
<path id="Vector_20" d="M46.6592 50.4199V55.2177C46.6615 56.0501 46.9955 56.8476 47.588 57.4362C48.1806 58.0247 48.9837 58.3564 49.8217 58.3587C50.6608 58.3578 51.4654 58.0268 52.0594 57.4382C52.6535 56.8495 52.9885 56.0511 52.9913 55.2177V50.4199H46.6592Z" fill="#3869E5"/>
<path id="Vector_21" d="M75.2508 35.1638V36.4173C70.3109 40.2107 64.2411 42.2646 57.9969 42.2557C51.4974 42.2551 45.1969 40.029 40.1572 35.9527C35.1175 31.8764 31.6468 26.1991 30.3301 19.8777C32.4828 17.4921 35.1172 15.5836 38.0619 14.2764C41.0066 12.9693 44.1955 12.2928 47.4209 12.291H52.2196C64.8857 12.291 75.2508 22.5838 75.2508 35.1638Z" fill="#3869E5"/>
<path id="Vector_22" d="M42.8346 84.2646H38.0713V105.252H42.8346V84.2646Z" fill="#45CBF6"/>
<path id="Vector_23" d="M61.6002 84.2646H56.8369V105.252H61.6002V84.2646Z" fill="#45CBF6"/>
</g>
</g>
</g>
</g>
</g>
</g>
</g>
<defs>
<filter id="filter0_dd_4680_5483" x="-2" y="-2" width="103" height="103" filterUnits="userSpaceOnUse" color-interpolation-filters="sRGB">
<feFlood flood-opacity="0" result="BackgroundImageFix"/>
<feColorMatrix in="SourceAlpha" type="matrix" values="0 0 0 0 0 0 0 0 0 0 0 0 0 0 0 0 0 0 127 0" result="hardAlpha"/>
<feOffset dx="5" dy="5"/>
<feGaussianBlur stdDeviation="2"/>
<feComposite in2="hardAlpha" operator="out"/>
<feColorMatrix type="matrix" values="0 0 0 0 0.176471 0 0 0 0 0.764706 0 0 0 0 0.952941 0 0 0 0.15 0"/>
<feBlend mode="normal" in2="BackgroundImageFix" result="effect1_dropShadow_4680_5483"/>
<feColorMatrix in="SourceAlpha" type="matrix" values="0 0 0 0 0 0 0 0 0 0 0 0 0 0 0 0 0 0 127 0" result="hardAlpha"/>
<feOffset dx="-5" dy="-5"/>
<feGaussianBlur stdDeviation="2"/>
<feComposite in2="hardAlpha" operator="out"/>
<feColorMatrix type="matrix" values="0 0 0 0 0.866667 0 0 0 0 0.882353 0 0 0 0 0.941176 0 0 0 0.6 0"/>
<feBlend mode="normal" in2="effect1_dropShadow_4680_5483" result="effect2_dropShadow_4680_5483"/>
<feBlend mode="normal" in="SourceGraphic" in2="effect2_dropShadow_4680_5483" result="shape"/>
</filter>
<clipPath id="clip0_4680_5483">
<rect width="100" height="100" fill="white"/>
</clipPath>
</defs>
</svg>
