<svg xmlns="http://www.w3.org/2000/svg" xmlns:xlink="http://www.w3.org/1999/xlink" width="100" height="100" fill="none" xmlns:v="https://vecta.io/nano"><style><![CDATA[.B{fill:#56ccf2}.C{fill:#3869e5}.D{fill:#45cbf6}]]></style><mask id="A" maskUnits="userSpaceOnUse" x="0" y="0" width="100" height="100" mask-type="alpha"><circle cx="50" cy="50" r="50" fill="#dde1f0"/><circle cx="50" cy="50" r="49.5" stroke="#000" stroke-opacity=".5"/></mask><g mask="url(#A)"><path d="M80.295 33.134v37.413c0 14.8-12.194 26.909-27.095 26.909h-5.646c-14.901 0-27.093-12.109-27.093-26.909V33.134c.023-7.13 2.884-13.961 7.96-19.003s11.954-7.884 19.133-7.906H53.2c14.901 0 27.096 12.109 27.096 26.909zM70.049 139.879v-23.098c0-10.284-8.474-18.7-18.828-18.7h-1.685c-10.357 0-18.83 8.416-18.83 18.7v23.098H70.05z" class="C"/><path d="M64.232 101.054V87.907a13.76 13.76 0 0 0-4.071-9.721 13.95 13.95 0 0 0-9.787-4.045 13.95 13.95 0 0 0-9.789 4.044 13.76 13.76 0 0 0-4.072 9.722v13.147h27.719z" class="C"/><path d="M50.378 83.034c-1.559 0-3.054-.615-4.156-1.71s-1.721-2.579-1.721-4.127v-5.868c.001-1.548.62-3.032 1.722-4.126s2.597-1.709 4.155-1.709a5.91 5.91 0 0 1 2.248.444 5.88 5.88 0 0 1 1.906 1.265c.546.542.978 1.185 1.274 1.893a5.8 5.8 0 0 1 .447 2.233v5.86a5.8 5.8 0 0 1-.444 2.236c-.295.709-.727 1.354-1.273 1.897a5.88 5.88 0 0 1-1.907 1.267 5.91 5.91 0 0 1-2.251.445z" class="D"/><path d="M50.378 10.475h-.002c-15.275 0-27.659 12.299-27.659 27.47v5.777c0 15.172 12.383 27.47 27.659 27.47h.002c15.275 0 27.659-12.299 27.659-27.47v-5.777c0-15.172-12.383-27.47-27.659-27.47z" class="D"/><path d="M25.745 51.599c1.946-1.932 1.946-5.066 0-6.998a5.01 5.01 0 0 0-7.046 0c-1.946 1.933-1.946 5.066 0 6.998a5.01 5.01 0 0 0 7.046 0zm57.677-2.574c.518-2.684-1.253-5.277-3.956-5.791s-5.313 1.244-5.831 3.928 1.253 5.277 3.956 5.792 5.313-1.245 5.831-3.929z" class="D"/><use xlink:href="#C" class="B"/><use xlink:href="#D" class="B"/><path d="M34.904 55.169c0 .344-.511.621-1.141.621s-1.139-.278-1.139-.621.511-.621 1.139-.621 1.141.278 1.141.621z" class="B"/><use xlink:href="#E" class="B"/><use xlink:href="#C" x="7.148" class="B"/><use xlink:href="#E" x="23.846" y="-1.634" class="B"/><path d="M65.923 53.535c0 .344-.511.621-1.139.621s-1.141-.278-1.141-.621.511-.621 1.141-.621 1.139.278 1.139.621z" class="B"/><use xlink:href="#C" x="31.287" y="1.634" class="B"/><use xlink:href="#D" x="31.317" y="1.634" class="B"/><use xlink:href="#E" x="30.985" y="-1.634" class="B"/><use xlink:href="#F" class="C"/><use xlink:href="#F" x="26.017" class="C"/><path d="M46.657 51.082v5.645c.003.979.396 1.917 1.093 2.61a3.74 3.74 0 0 0 2.628 1.085c.986.002 1.934-.39 2.633-1.083s1.093-1.632 1.096-2.612v-5.645h-7.45zm33.638-17.948v1.475a33.26 33.26 0 0 1-20.299 6.869 33.39 33.39 0 0 1-20.988-7.415A32.98 32.98 0 0 1 27.447 15.15a27.01 27.01 0 0 1 9.096-6.59 27.18 27.18 0 0 1 11.011-2.336H53.2c14.901 0 27.095 12.109 27.095 26.909z" class="C"/><path d="M42.159 90.899h-5.604v24.691h5.604V90.899zm22.077 0h-5.604v24.691h5.604V90.899z" class="D"/></g><defs ><path id="C" d="M32.985 53.535c0 .344-.509.621-1.139.621s-1.141-.278-1.141-.621.511-.621 1.141-.621 1.139.278 1.139.621z"/><path id="D" d="M36.554 53.535c0 .344-.511.621-1.141.621s-1.139-.278-1.139-.621.509-.621 1.139-.621 1.141.278 1.141.621z"/><path id="E" d="M38.509 55.169c0 .344-.511.621-1.141.621s-1.141-.278-1.141-.621.511-.621 1.141-.621 1.141.278 1.141.621z"/><path id="F" d="M37.368 49.549c1.27 0 2.3-1.023 2.3-2.285s-1.03-2.285-2.3-2.285-2.3 1.023-2.3 2.285 1.03 2.285 2.3 2.285z"/></defs></svg>