<svg width="18" height="19" viewBox="0 0 18 19" fill="none" xmlns="http://www.w3.org/2000/svg">
<path fill-rule="evenodd" clip-rule="evenodd" d="M10.4069 17.9768C10.5729 18.0992 10.778 18.1716 11 18.1716H17C17.5523 18.1716 18 17.7238 18 17.1716V9.00003C18 8.46953 17.7893 7.96083 17.4142 7.58583L10.4142 0.585788C9.6332 -0.195262 8.3668 -0.195262 7.5858 0.585788L0.58579 7.58583C0.21071 7.96083 0 8.46953 0 9.00003V17.1716C0 17.7238 0.44772 18.1716 1 18.1716H7C7.222 18.1716 7.4271 18.0992 7.5931 17.9768C7.8399 17.7947 8 17.5018 8 17.1716V12.1716H10V17.1716C10 17.5018 10.1601 17.7947 10.4069 17.9768ZM9 2.70711L2.5 9.20713V15.6716H5.5V10.6715C5.5 10.1193 5.94772 9.67153 6.5 9.67153H11.5C12.0523 9.67153 12.5 10.1193 12.5 10.6715V15.6716H15.5V9.20713L9 2.70711Z" fill="#3869E5"/>
</svg>
