<svg width="28" height="28" viewBox="0 0 28 28" fill="none" xmlns="http://www.w3.org/2000/svg">
<path d="M9.3335 17.5002H18.6668M17.5002 10.5002H17.5118M10.5002 10.5002H10.5118M25.6668 14.0002C25.6668 20.4435 20.4435 25.6668 14.0002 25.6668C7.55684 25.6668 2.3335 20.4435 2.3335 14.0002C2.3335 7.55684 7.55684 2.3335 14.0002 2.3335C20.4435 2.3335 25.6668 7.55684 25.6668 14.0002ZM18.0835 10.5002C18.0835 10.8223 17.8223 11.0835 17.5002 11.0835C17.178 11.0835 16.9168 10.8223 16.9168 10.5002C16.9168 10.178 17.178 9.91683 17.5002 9.91683C17.8223 9.91683 18.0835 10.178 18.0835 10.5002ZM11.0835 10.5002C11.0835 10.8223 10.8223 11.0835 10.5002 11.0835C10.178 11.0835 9.91683 10.8223 9.91683 10.5002C9.91683 10.178 10.178 9.91683 10.5002 9.91683C10.8223 9.91683 11.0835 10.178 11.0835 10.5002Z" stroke="white" stroke-width="2" stroke-linecap="round" stroke-linejoin="round"/>
</svg>
