<svg width="100" height="100" viewBox="0 0 100 100" fill="none" xmlns="http://www.w3.org/2000/svg">
<g id="Woman partner 2_Large" clip-path="url(#clip0_4680_6549)">
<rect width="100" height="100" />
<g id="Group 37507">
<g id="Mask Group">
<mask id="mask0_4680_6549" style="mask-type:alpha" maskUnits="userSpaceOnUse" x="0" y="0" width="101" height="100">
<path id="Ellipse 96" d="M99.5006 50C99.5006 77.3381 77.3385 99.5 50.0003 99.5C22.662 99.5 0.5 77.3381 0.5 50C0.5 22.6619 22.662 0.5 50.0003 0.5C77.3385 0.5 99.5006 22.6619 99.5006 50Z" fill="#C4C4C4" stroke="black"/>
</mask>
<g mask="url(#mask0_4680_6549)">
<g id="avatar">
<g id="Group">
<path id="Vector" d="M55.0886 74.3965H44.5635V99.0058H55.0886V74.3965Z" fill="#45CBF6"/>
<path id="Vector_2" d="M45.5695 85.5322H53.9797C55.4863 85.5322 56.9312 86.1267 57.9966 87.1848C59.062 88.2429 59.6605 89.678 59.6605 91.1744V103.976H39.8887V91.1744C39.8887 89.678 40.4872 88.2429 41.5525 87.1848C42.6179 86.1267 44.0628 85.5322 45.5695 85.5322Z" fill="#3869E5"/>
<path id="Vector_3" d="M68.4426 56.511C78.8181 46.189 78.8181 29.4536 68.4426 19.1315C58.0671 8.80948 41.245 8.80949 30.8695 19.1315C20.494 29.4536 20.494 46.189 30.8695 56.511C41.2451 66.8331 58.0671 66.8331 68.4426 56.511Z" fill="#3869E5"/>
<path id="Vector_4" d="M29.1819 49.1556C30.4363 46.9447 29.6485 44.1426 27.4225 42.8968C25.1964 41.651 22.375 42.4334 21.1207 44.6443C19.8664 46.8552 20.6542 49.6574 22.8802 50.9031C25.1063 52.1489 27.9276 51.3665 29.1819 49.1556Z" fill="#3869E5"/>
<path id="Vector_5" d="M23.913 42.3002C26.4585 42.0807 28.343 39.8534 28.1221 37.3252C27.9012 34.7969 25.6585 32.9253 23.113 33.1447C20.5675 33.3641 18.683 35.5915 18.9039 38.1197C19.1248 40.6479 21.3675 42.5196 23.913 42.3002Z" fill="#3869E5"/>
<path id="Vector_6" d="M28.3872 32.2545C30.3266 30.6024 30.5503 27.7015 28.8869 25.7753C27.2234 23.8491 24.3027 23.6269 22.3632 25.279C20.4238 26.9312 20.2001 29.832 21.8635 31.7583C23.527 33.6845 26.4478 33.9067 28.3872 32.2545Z" fill="#3869E5"/>
<path id="Vector_7" d="M29.9868 25.558C32.5419 25.558 34.6132 23.5008 34.6132 20.9631C34.6132 18.4254 32.5419 16.3682 29.9868 16.3682C27.4317 16.3682 25.3604 18.4254 25.3604 20.9631C25.3604 23.5008 27.4317 25.558 29.9868 25.558Z" fill="#3869E5"/>
<path id="Vector_8" d="M40.4036 17.9048C42.0555 15.9688 41.8145 13.0693 39.8652 11.4286C37.9159 9.78791 34.9965 10.0273 33.3446 11.9633C31.6927 13.8993 31.9337 16.7988 33.883 18.4395C35.8323 20.0802 38.7516 19.8408 40.4036 17.9048Z" fill="#3869E5"/>
<path id="Vector_9" d="M50.1948 11.3609C50.2462 12.2681 50.0257 13.1701 49.5611 13.9528C49.0965 14.7355 48.4088 15.3638 47.5847 15.7584C46.7606 16.153 45.8373 16.296 44.9314 16.1695C44.0254 16.043 43.1776 15.6525 42.4951 15.0475C41.8126 14.4425 41.326 13.6501 41.0968 12.7705C40.8676 11.8909 40.9061 10.9635 41.2075 10.1056C41.5088 9.24775 42.0595 8.49787 42.7899 7.95077C43.5203 7.40367 44.3976 7.08392 45.311 7.03194C45.9179 6.9974 46.5257 7.082 47.0997 7.2809C47.6737 7.47981 48.2026 7.78913 48.6562 8.19117C49.1098 8.59321 49.4791 9.08009 49.7431 9.62398C50.0071 10.1679 50.1606 10.7581 50.1948 11.3609V11.3609Z" fill="#3869E5"/>
<path id="Vector_10" d="M59.4781 11.9246C59.5369 9.38759 57.5139 7.28353 54.9595 7.22507C52.405 7.16661 50.2865 9.17589 50.2277 11.7129C50.1688 14.25 52.1919 16.354 54.7463 16.4125C57.3007 16.471 59.4192 14.4617 59.4781 11.9246Z" fill="#3869E5"/>
<path id="Vector_11" d="M67.433 17.696C68.8212 15.5656 68.2077 12.7207 66.0626 11.3419C63.9176 9.96316 61.0532 10.5725 59.665 12.703C58.2768 14.8335 58.8903 17.6783 61.0354 19.0571C63.1804 20.4359 66.0448 19.8265 67.433 17.696Z" fill="#3869E5"/>
<path id="Vector_12" d="M75.0848 22.5306C75.9251 20.134 74.6502 17.5147 72.2372 16.6801C69.8243 15.8455 67.187 17.1118 66.3467 19.5083C65.5064 21.9049 66.7813 24.5242 69.1943 25.3588C71.6073 26.1933 74.2446 24.9271 75.0848 22.5306Z" fill="#3869E5"/>
<path id="Vector_13" d="M79.1919 31.5213C80.6604 29.4446 80.1557 26.5787 78.0648 25.1203C75.9738 23.6618 73.0883 24.163 71.6198 26.2397C70.1514 28.3165 70.656 31.1823 72.747 32.6408C74.8379 34.0993 77.7234 33.5981 79.1919 31.5213Z" fill="#3869E5"/>
<path id="Vector_14" d="M77.3462 42.572C79.9001 42.4932 81.906 40.373 81.8267 37.8366C81.7473 35.3001 79.6126 33.3077 77.0588 33.3866C74.5049 33.4654 72.4989 35.5855 72.5783 38.122C72.6576 40.6585 74.7923 42.6508 77.3462 42.572Z" fill="#3869E5"/>
<path id="Vector_15" d="M79.0786 46.5729C79.13 47.4799 78.9095 48.3818 78.445 49.1644C77.9805 49.9471 77.2928 50.5754 76.4689 50.97C75.6449 51.3646 74.7217 51.5078 73.8158 51.3814C72.91 51.255 72.0622 50.8647 71.3796 50.26C70.697 49.6552 70.2103 48.863 69.9809 47.9835C69.7515 47.104 69.7897 46.1768 70.0908 45.3189C70.3918 44.461 70.9422 43.711 71.6723 43.1636C72.4024 42.6163 73.2795 42.2962 74.1927 42.2439C74.7997 42.2093 75.4077 42.2939 75.9818 42.4928C76.5559 42.6917 77.085 43.0009 77.5387 43.403C77.9924 43.805 78.362 44.2918 78.6262 44.8357C78.8904 45.3796 79.0441 45.9699 79.0786 46.5729V46.5729Z" fill="#3869E5"/>
<path id="Vector_16" d="M21.0205 65.5894C26.7537 64.6651 30.6469 59.2998 29.7163 53.6056C28.7857 47.9114 23.3836 44.0447 17.6504 44.969C11.9172 45.8933 8.02395 51.2586 8.95458 56.9528C9.88521 62.6469 15.2873 66.5137 21.0205 65.5894Z" fill="#3869E5"/>
<path id="Vector_17" d="M24.2553 50.0368C29.3719 49.212 32.8464 44.4237 32.0159 39.342C31.1853 34.2603 26.3643 30.8095 21.2477 31.6344C16.1312 32.4592 12.6567 37.2475 13.4872 42.3292C14.3177 47.4109 19.1388 50.8617 24.2553 50.0368Z" fill="#3869E5"/>
<path id="Vector_18" d="M87.4978 62.6651C91.6049 58.586 91.6049 51.9726 87.4978 47.8935C83.3908 43.8144 76.732 43.8144 72.6249 47.8935C68.5179 51.9726 68.5179 58.586 72.6249 62.6651C76.732 66.7442 83.3908 66.7442 87.4978 62.6651Z" fill="#3869E5"/>
<path id="Vector_19" d="M83.5827 47.4274C87.248 43.787 87.248 37.8849 83.5827 34.2445C79.9174 30.6042 73.9747 30.6042 70.3095 34.2445C66.6442 37.8849 66.6442 43.787 70.3095 47.4274C73.9748 51.0677 79.9174 51.0677 83.5827 47.4274Z" fill="#3869E5"/>
<path id="Vector_20" d="M50.4675 23.3096H48.6908C35.796 23.3096 25.3428 32.4038 25.3428 43.6222V56.423C25.3428 67.6414 35.796 76.7356 48.6908 76.7356H50.4675C63.3622 76.7356 73.8154 67.6414 73.8154 56.423V43.6222C73.8154 32.4038 63.3622 23.3096 50.4675 23.3096Z" fill="#45CBF6"/>
<path id="Vector_21" d="M55.0881 85.5299L49.8252 80.3027L44.5622 85.5299L49.8252 90.757L55.0881 85.5299Z" fill="#45CBF6"/>
<path id="Vector_22" d="M45.0185 43.8048C55.8788 40.7898 63.1681 32.8091 61.2997 25.9793C59.4312 19.1495 49.1125 16.0571 38.2522 19.0721C27.3919 22.0871 20.1026 30.0679 21.971 36.8976C23.8395 43.7274 34.1582 46.8199 45.0185 43.8048Z" fill="#3869E5"/>
<path id="Vector_23" d="M40.4963 49.6786C40.4967 50.2043 40.3401 50.7183 40.0463 51.1556C39.7525 51.5929 39.3346 51.9338 38.8457 52.1351C38.3567 52.3365 38.1153 47.4704 37.2995 52.2869C36.7803 52.1844 36.3034 51.9313 35.9291 51.5595C35.5548 51.1878 35.3 50.7141 35.1968 50.1985C35.0937 49.6829 35.1468 49.1484 35.3496 48.6628C35.5523 48.1772 35.8955 47.7622 36.3358 47.4704C36.7761 47.1786 37.2937 47.023 37.823 47.0234C38.532 47.0234 39.212 47.3032 39.7133 47.8011C40.2147 48.299 40.4963 48.9744 40.4963 49.6786Z" fill="#3869E5"/>
<path id="Vector_24" d="M63.4016 49.6786C63.402 50.2042 63.2454 50.7181 62.9517 51.1554C62.658 51.5926 62.2403 51.9335 61.7514 52.1349C61.2626 52.3364 61.0815 47.4714 60.2055 52.287C59.6864 52.1847 59.2095 51.9318 58.8351 51.5603C58.4608 51.1887 58.2057 50.7153 58.1023 50.1998C57.9989 49.6843 58.0518 49.1499 58.2542 48.6642C58.4567 48.1786 58.7996 47.7635 59.2396 47.4714C59.6796 47.1793 60.1969 47.0234 60.7262 47.0234C61.0774 47.0232 61.4253 47.0916 61.7499 47.225C62.0744 47.3583 62.3694 47.5538 62.6178 47.8004C62.8663 48.047 63.0634 48.3397 63.1979 48.662C63.3324 48.9843 63.4016 49.3297 63.4016 49.6786Z" fill="#3869E5"/>
<path id="Vector_25" d="M40.0078 60.1191C46.496 74.7834 52.8763 75.2941 59.1466 60.1191H40.0078Z" fill="#3869E5"/>
<path id="Vector_26" d="M37.1254 115.903H32.0693V99.2774C32.0693 91.2543 37.1213 85.6514 44.3567 85.6514V90.673C39.3608 90.673 37.1254 95.002 37.1254 99.2774V115.903Z" fill="#3869E5"/>
<path id="Vector_27" d="M67.6946 115.903H62.6385V99.2774C62.6385 94.9958 60.4031 90.673 55.4072 90.673V85.6514C62.6426 85.6514 67.6946 91.2543 67.6946 99.2774V115.903Z" fill="#3869E5"/>
</g>
</g>
</g>
</g>
</g>
</g>
<defs>
<clipPath id="clip0_4680_6549">
<rect width="100" height="100" fill="white"/>
</clipPath>
</defs>
</svg>
