<svg width="100" height="100" viewBox="0 0 100 100" fill="none" xmlns="http://www.w3.org/2000/svg">
<g id="Man partner 2_Large" clip-path="url(#clip0_4680_6598)">
<rect width="100" height="100"/>
<g id="Group 37520">
<g id="Mask Group">
<mask id="mask0_4680_6598" style="mask-type:alpha" maskUnits="userSpaceOnUse" x="0" y="0" width="101" height="100">
<path id="Ellipse 96" d="M99.5006 50C99.5006 77.3381 77.3385 99.5 50.0003 99.5C22.662 99.5 0.5 77.3381 0.5 50C0.5 22.6619 22.662 0.5 50.0003 0.5C77.3385 0.5 99.5006 22.6619 99.5006 50Z" fill="#C4C4C4" stroke="black"/>
</mask>
<g mask="url(#mask0_4680_6598)">
<g id="avatar">
<g id="Group">
<path id="Vector" d="M55.0896 79.792H44.5645V99.0045H55.0896V79.792Z" fill="#3869E5"/>
<path id="Vector_2" d="M45.5705 90.5146H53.9806C55.4873 90.5146 56.9322 91.1091 57.9976 92.1672C59.0629 93.2253 59.6614 94.6604 59.6614 96.1568V108.958H39.8896V96.1568C39.8896 94.6604 40.4882 93.2253 41.5535 92.1672C42.6189 91.1091 44.0638 90.5146 45.5705 90.5146Z" fill="#3869E5"/>
<path id="Vector_3" d="M68.4426 56.511C78.8181 46.189 78.8181 29.4536 68.4426 19.1315C58.0671 8.80948 41.245 8.80949 30.8695 19.1315C20.494 29.4536 20.494 46.189 30.8695 56.511C41.2451 66.8331 58.0671 66.8331 68.4426 56.511Z" fill="#3869E5"/>
<path id="Vector_4" d="M29.1829 49.1556C30.4372 46.9447 29.6495 44.1426 27.4234 42.8968C25.1974 41.651 22.376 42.4334 21.1217 44.6443C19.8674 46.8552 20.6551 49.6574 22.8812 50.9031C25.1072 52.1489 27.9286 51.3665 29.1829 49.1556Z" fill="#3869E5"/>
<path id="Vector_5" d="M23.913 42.3002C26.4585 42.0807 28.343 39.8534 28.1221 37.3252C27.9012 34.7969 25.6585 32.9253 23.113 33.1447C20.5675 33.3641 18.683 35.5915 18.9039 38.1197C19.1248 40.6479 21.3675 42.5196 23.913 42.3002Z" fill="#3869E5"/>
<path id="Vector_6" d="M28.3872 32.2545C30.3266 30.6024 30.5503 27.7015 28.8869 25.7753C27.2234 23.8491 24.3027 23.6269 22.3632 25.279C20.4238 26.9312 20.2001 29.832 21.8635 31.7583C23.527 33.6845 26.4478 33.9067 28.3872 32.2545Z" fill="#3869E5"/>
<path id="Vector_7" d="M29.9868 25.558C32.5419 25.558 34.6132 23.5008 34.6132 20.9631C34.6132 18.4254 32.5419 16.3682 29.9868 16.3682C27.4317 16.3682 25.3604 18.4254 25.3604 20.9631C25.3604 23.5008 27.4317 25.558 29.9868 25.558Z" fill="#3869E5"/>
<path id="Vector_8" d="M40.4045 17.9048C42.0565 15.9688 41.8154 13.0693 39.8662 11.4286C37.9169 9.78791 34.9975 10.0273 33.3456 11.9633C31.6937 13.8993 31.9347 16.7988 33.884 18.4395C35.8332 20.0802 38.7526 19.8408 40.4045 17.9048Z" fill="#3869E5"/>
<path id="Vector_9" d="M50.1957 11.3609C50.2472 12.2681 50.0267 13.1701 49.5621 13.9528C49.0975 14.7355 48.4097 15.3638 47.5857 15.7584C46.7616 16.153 45.8382 16.296 44.9323 16.1695C44.0264 16.043 43.1786 15.6525 42.4961 15.0475C41.8135 14.4425 41.3269 13.6501 41.0977 12.7705C40.8685 11.8909 40.9071 10.9635 41.2084 10.1056C41.5098 9.24775 42.0605 8.49787 42.7909 7.95077C43.5213 7.40367 44.3986 7.08392 45.3119 7.03194C45.9189 6.9974 46.5267 7.082 47.1007 7.2809C47.6747 7.47981 48.2036 7.78913 48.6572 8.19117C49.1107 8.59321 49.4801 9.08009 49.7441 9.62398C50.0081 10.1679 50.1615 10.7581 50.1957 11.3609V11.3609Z" fill="#3869E5"/>
<path id="Vector_10" d="M59.4781 11.9246C59.5369 9.38759 57.5139 7.28353 54.9595 7.22507C52.405 7.16661 50.2865 9.17589 50.2277 11.7129C50.1688 14.25 52.1919 16.354 54.7463 16.4125C57.3007 16.471 59.4192 14.4617 59.4781 11.9246Z" fill="#3869E5"/>
<path id="Vector_11" d="M67.434 17.696C68.8222 15.5656 68.2087 12.7207 66.0636 11.3419C63.9185 9.96316 61.0542 10.5725 59.666 12.703C58.2777 14.8335 58.8913 17.6783 61.0363 19.0571C63.1814 20.4359 66.0457 19.8265 67.434 17.696Z" fill="#3869E5"/>
<path id="Vector_12" d="M75.0858 22.5306C75.9261 20.134 74.6512 17.5147 72.2382 16.6801C69.8252 15.8455 67.1879 17.1118 66.3476 19.5083C65.5074 21.9049 66.7823 24.5242 69.1953 25.3588C71.6082 26.1933 74.2455 24.9271 75.0858 22.5306Z" fill="#3869E5"/>
<path id="Vector_13" d="M79.1929 31.5213C80.6614 29.4446 80.1567 26.5787 78.0657 25.1203C75.9748 23.6618 73.0893 24.163 71.6208 26.2397C70.1523 28.3165 70.657 31.1823 72.7479 32.6408C74.8389 34.0993 77.7244 33.5981 79.1929 31.5213Z" fill="#3869E5"/>
<path id="Vector_14" d="M77.3462 42.572C79.9001 42.4932 81.906 40.373 81.8267 37.8366C81.7473 35.3001 79.6126 33.3077 77.0588 33.3866C74.5049 33.4654 72.4989 35.5855 72.5783 38.122C72.6576 40.6585 74.7923 42.6508 77.3462 42.572Z" fill="#3869E5"/>
<path id="Vector_15" d="M79.0786 46.5729C79.13 47.4799 78.9095 48.3818 78.445 49.1644C77.9805 49.9471 77.2928 50.5754 76.4689 50.97C75.6449 51.3646 74.7217 51.5078 73.8158 51.3814C72.91 51.255 72.0622 50.8647 71.3796 50.26C70.697 49.6552 70.2103 48.863 69.9809 47.9835C69.7515 47.104 69.7897 46.1768 70.0908 45.3189C70.3918 44.461 70.9422 43.711 71.6723 43.1636C72.4024 42.6163 73.2795 42.2962 74.1927 42.2439C74.7997 42.2093 75.4077 42.2939 75.9818 42.4928C76.5559 42.6917 77.085 43.0009 77.5387 43.403C77.9924 43.805 78.362 44.2918 78.6262 44.8357C78.8904 45.3796 79.0441 45.9699 79.0786 46.5729V46.5729Z" fill="#3869E5"/>
<path id="Vector_16" d="M26.2569 58.3172C29.7329 57.7568 32.0933 54.5039 31.529 51.0516C30.9648 47.5994 27.6896 45.255 24.2137 45.8154C20.7377 46.3758 18.3773 49.6287 18.9415 53.081C19.5058 56.5333 22.781 58.8776 26.2569 58.3172Z" fill="#3869E5"/>
<path id="Vector_17" d="M78.6069 56.5463C81.0969 54.0732 81.0969 50.0635 78.6069 47.5905C76.1168 45.1174 72.0797 45.1174 69.5897 47.5905C67.0996 50.0635 67.0996 54.0732 69.5897 56.5463C72.0797 59.0193 76.1168 59.0193 78.6069 56.5463Z" fill="#3869E5"/>
<path id="Vector_18" d="M50.4675 23.3096H48.6908C35.796 23.3096 25.3428 33.6917 25.3428 46.4986V61.1121C25.3428 73.919 35.796 84.3011 48.6908 84.3011H50.4675C63.3622 84.3011 73.8154 73.919 73.8154 61.1121V46.4986C73.8154 33.6917 63.3622 23.3096 50.4675 23.3096Z" fill="#45CBF6"/>
<path id="Vector_19" d="M55.0881 90.5123L49.8252 85.2852L44.5622 90.5123L49.8252 95.7395L55.0881 90.5123Z" fill="#3869E5"/>
<path id="Vector_20" d="M49.5774 31.3936C56.7566 31.3936 62.5766 29.0715 62.5766 26.2071C62.5766 23.3426 56.7566 21.0205 49.5774 21.0205C42.3981 21.0205 36.5781 23.3426 36.5781 26.2071C36.5781 29.0715 42.3981 31.3936 49.5774 31.3936Z" fill="#3869E5"/>
<path id="Vector_21" d="M40.4973 49.6786C40.4977 50.2043 40.3411 50.7183 40.0473 51.1556C39.7534 51.5929 39.3356 51.9338 38.8467 52.1351C38.3577 52.3365 37.8196 52.3893 37.3005 52.2869C36.7813 52.1844 36.3044 51.9313 35.9301 51.5595C35.5558 51.1878 35.301 50.7141 35.1978 50.1985C35.0946 49.6829 35.1478 49.1484 35.3505 48.6628C35.5533 48.1772 35.8965 47.7622 36.3368 47.4704C36.7771 47.1786 37.2946 47.023 37.824 47.0234C38.533 47.0234 39.2129 47.3032 39.7143 47.8011C40.2156 48.299 40.4973 48.9744 40.4973 49.6786V49.6786Z" fill="#3869E5"/>
<path id="Vector_22" d="M63.4016 49.6786C63.402 50.2042 63.2454 50.7181 62.9517 51.1554C62.658 51.5926 62.2403 51.9335 61.7515 52.1349C61.2626 52.3364 60.7246 52.3893 60.2055 52.287C59.6864 52.1847 59.2095 51.9318 58.8351 51.5603C58.4608 51.1887 58.2057 50.7153 58.1023 50.1998C57.9989 49.6843 58.0518 49.1499 58.2542 48.6642C58.4567 48.1786 58.7996 47.7635 59.2396 47.4714C59.6796 47.1793 60.1969 47.0234 60.7262 47.0234C61.0774 47.0232 61.4253 47.0916 61.7499 47.225C62.0744 47.3583 62.3694 47.5538 62.6178 47.8004C62.8663 48.047 63.0634 48.3397 63.1979 48.662C63.3324 48.9843 63.4016 49.3297 63.4016 49.6786Z" fill="#3869E5"/>
<path id="Vector_23" d="M40.0078 58.4014C46.496 69.9454 52.8763 70.3474 59.1466 58.4014H40.0078Z" fill="#3869E5"/>
<path id="Vector_24" d="M37.1254 120.886H32.0693V104.261C32.0693 96.2377 37.1213 90.6348 44.3567 90.6348V95.6564C39.3608 95.6564 37.1254 99.9854 37.1254 104.261V120.886Z" fill="#3869E5"/>
<path id="Vector_25" d="M67.6955 120.886H62.6395V104.261C62.6395 99.9792 60.4041 95.6564 55.4082 95.6564V90.6348C62.6436 90.6348 67.6955 96.2377 67.6955 104.261V120.886Z" fill="#3869E5"/>
</g>
</g>
</g>
</g>
</g>
</g>
<defs>
<clipPath id="clip0_4680_6598">
<rect width="100" height="100" fill="white"/>
</clipPath>
</defs>
</svg>
