<svg width="429" height="360" viewBox="0 0 429 360" fill="none" xmlns="http://www.w3.org/2000/svg">
<circle cx="214.5" cy="179.5" r="214.5" fill="#3869E5"/>
<path d="M136.064 122.344C137.048 122.253 137.943 122.207 138.75 122.207C139.557 122.207 140.234 122.253 140.781 122.344C141.328 122.435 141.787 122.575 142.158 122.764C142.529 122.952 142.832 123.171 143.066 123.418C143.307 123.659 143.493 123.962 143.623 124.326C143.753 124.691 143.841 125.062 143.887 125.439C143.932 125.811 143.955 126.253 143.955 126.768V135H140.967V126.758C140.967 125.254 140.14 124.502 138.486 124.502C137.9 124.502 137.223 124.535 136.455 124.6C135.687 124.658 135.065 124.72 134.59 124.785L133.887 124.883V122.627C134.362 122.523 135.088 122.428 136.064 122.344ZM136.875 135H133.887V126.963H136.875V135ZM146.943 122.383C147.497 122.266 148.089 122.207 148.721 122.207C149.352 122.207 149.889 122.275 150.332 122.412C150.781 122.542 151.146 122.721 151.426 122.949C151.706 123.177 151.93 123.464 152.1 123.809C152.399 124.408 152.549 125.182 152.549 126.133V131.26C152.549 131.872 152.507 132.49 152.422 133.115C152.344 133.734 152.266 134.202 152.188 134.521L152.061 135H146.367V132.725H149.395C149.512 132.223 149.57 131.475 149.57 130.479V126.133C149.57 125.384 149.388 124.906 149.023 124.697C148.861 124.606 148.659 124.561 148.418 124.561C147.923 124.561 147.432 124.616 146.943 124.727V122.383ZM155.537 122.383C156.09 122.266 156.683 122.207 157.314 122.207C157.946 122.207 158.483 122.275 158.926 122.412C159.375 122.542 159.74 122.721 160.02 122.949C160.299 123.177 160.524 123.464 160.693 123.809C160.993 124.408 161.143 125.182 161.143 126.133V131.26C161.143 131.872 161.1 132.49 161.016 133.115C160.938 133.734 160.859 134.202 160.781 134.521L160.654 135H154.961V132.725H157.988C158.105 132.223 158.164 131.475 158.164 130.479V126.133C158.164 125.384 157.982 124.906 157.617 124.697C157.454 124.606 157.253 124.561 157.012 124.561C156.517 124.561 156.025 124.616 155.537 124.727V122.383ZM166.963 122.207C167.731 122.207 168.415 122.318 169.014 122.539C169.613 122.76 170.098 123.053 170.469 123.418C170.846 123.783 171.156 124.219 171.396 124.727C171.833 125.645 172.051 126.729 172.051 127.979V129.424C172.051 130.042 172.012 130.609 171.934 131.123C171.855 131.637 171.702 132.155 171.475 132.676C171.253 133.197 170.96 133.636 170.596 133.994C170.231 134.346 169.74 134.635 169.121 134.863C168.503 135.085 167.783 135.195 166.963 135.195C165.479 135.195 164.258 135.104 163.301 134.922V132.598C164.355 132.728 165.449 132.793 166.582 132.793C167.676 132.793 168.398 132.376 168.75 131.543C168.958 131.061 169.062 130.456 169.062 129.727V127.676C169.062 126.146 168.639 125.169 167.793 124.746C167.461 124.583 167.057 124.502 166.582 124.502C165.755 124.502 164.661 124.574 163.301 124.717V122.422C164.46 122.279 165.68 122.207 166.963 122.207ZM177.51 135H174.531V122.402H177.51V135ZM183.809 134.453C183.529 134.681 183.164 134.863 182.715 135C182.272 135.13 181.777 135.195 181.23 135.195C180.684 135.195 180.195 135.107 179.766 134.932V132.666C180.202 132.783 180.544 132.842 180.791 132.842C181.038 132.842 181.24 132.796 181.396 132.705C181.559 132.614 181.68 132.487 181.758 132.324C181.888 132.031 181.953 131.68 181.953 131.27V124.746L180.537 124.883V122.627C182.536 122.347 184.525 122.207 186.504 122.207C187.969 122.207 189.066 122.393 189.795 122.764C190.166 122.952 190.469 123.171 190.703 123.418C190.944 123.659 191.13 123.962 191.26 124.326C191.39 124.691 191.478 125.062 191.523 125.439C191.569 125.811 191.592 126.253 191.592 126.768V135H188.594V126.758C188.594 125.254 187.77 124.502 186.123 124.502C185.758 124.502 185.361 124.512 184.932 124.531V131.27C184.932 132.78 184.557 133.841 183.809 134.453ZM202.041 122.344C203.024 122.253 203.919 122.207 204.727 122.207C205.534 122.207 206.211 122.253 206.758 122.344C207.305 122.435 207.764 122.575 208.135 122.764C208.506 122.952 208.809 123.171 209.043 123.418C209.284 123.659 209.469 123.962 209.6 124.326C209.73 124.691 209.818 125.062 209.863 125.439C209.909 125.811 209.932 126.253 209.932 126.768V135H206.943V126.758C206.943 125.254 206.117 124.502 204.463 124.502C203.877 124.502 203.2 124.535 202.432 124.6C201.663 124.658 201.042 124.72 200.566 124.785L199.863 124.883V122.627C200.339 122.523 201.064 122.428 202.041 122.344ZM202.852 135H199.863V126.963H202.852V135ZM212.881 130.742V122.402H215.859V128.223L213.877 130.742H212.881ZM228.721 135H217.959V132.725H222.822L225.049 132.861V132.822L222.305 129.404L217.861 122.402H221.201L224.717 128.076C225.179 127.419 225.469 126.449 225.586 125.166L225.82 122.412H228.77L228.564 124.736C228.467 125.843 228.314 126.667 228.105 127.207C228.001 127.487 227.871 127.803 227.715 128.154C227.402 128.838 226.901 129.476 226.211 130.068L228.721 133.281V135ZM238.73 134.668V135H235.771V134.668C235.771 134.141 235.856 133.415 236.025 132.49C236.195 131.559 236.403 130.752 236.65 130.068L238.604 124.678H231.23V122.402H241.865V124.199L239.746 129.951C239.069 131.787 238.73 133.359 238.73 134.668ZM234.004 139.814H231.24V127.461H234.004V139.814ZM243.896 130.742V122.402H246.875V128.223L244.893 130.742H243.896ZM251.904 122.402H258.535V124.336L256.826 130.322L255.771 135H252.871L253.926 130.322L255.537 124.678H248.926V119.805H251.904V122.402ZM260.039 126.67C260.039 125.999 260.146 125.4 260.361 124.873C260.583 124.346 260.866 123.919 261.211 123.594C261.562 123.268 261.973 122.998 262.441 122.783C263.288 122.399 264.255 122.207 265.342 122.207C265.869 122.207 266.361 122.256 266.816 122.354C267.279 122.451 267.751 122.646 268.232 122.939C268.714 123.226 269.124 123.6 269.463 124.062C269.808 124.525 270.088 125.153 270.303 125.947C270.524 126.735 270.635 127.578 270.635 128.477C270.635 129.375 270.586 130.137 270.488 130.762C270.391 131.38 270.254 131.911 270.078 132.354C269.909 132.796 269.694 133.187 269.434 133.525C269.173 133.864 268.896 134.137 268.604 134.346C268.311 134.554 267.982 134.723 267.617 134.854C266.973 135.081 266.221 135.195 265.361 135.195C264.508 135.195 263.701 135.173 262.939 135.127C262.184 135.081 261.634 135.036 261.289 134.99L260.781 134.922V132.734C262.279 132.852 263.799 132.91 265.342 132.91C265.908 132.91 266.374 132.747 266.738 132.422C267.012 132.174 267.23 131.755 267.393 131.162C267.503 130.758 267.565 130.329 267.578 129.873C267.591 129.417 267.598 129.023 267.598 128.691C267.598 128.359 267.594 128.083 267.588 127.861C267.581 127.633 267.562 127.363 267.529 127.051C267.497 126.732 267.451 126.468 267.393 126.26C267.334 126.051 267.249 125.833 267.139 125.605C267.028 125.371 266.895 125.189 266.738 125.059C266.367 124.74 265.902 124.58 265.342 124.58C264.932 124.58 264.574 124.642 264.268 124.766C263.968 124.883 263.743 125.02 263.594 125.176C263.451 125.332 263.333 125.514 263.242 125.723C263.125 126.016 263.066 126.312 263.066 126.611C263.066 126.904 263.128 127.181 263.252 127.441C263.382 127.702 263.542 127.904 263.73 128.047C264.089 128.32 264.417 128.486 264.717 128.545L265.088 128.613L264.59 130.84L264.072 130.771C263.167 130.654 262.484 130.488 262.021 130.273C260.7 129.668 260.039 128.467 260.039 126.67ZM283.34 122.402V126.914C283.34 128.014 283.122 128.848 282.686 129.414C282.51 129.642 282.262 129.863 281.943 130.078C281.624 130.286 281.247 130.456 280.811 130.586L283.623 135H280.234L276.484 128.76C276.178 128.89 275.964 129.092 275.84 129.365C275.723 129.639 275.661 130.007 275.654 130.469V135H272.686V130.498C272.686 130.173 272.699 129.886 272.725 129.639C272.757 129.385 272.822 129.105 272.92 128.799C273.024 128.493 273.164 128.226 273.34 127.998C273.522 127.764 273.773 127.542 274.092 127.334C274.417 127.119 274.801 126.947 275.244 126.816L272.441 122.402H275.82L278.359 126.719L279.58 128.643C279.867 128.512 280.068 128.311 280.186 128.037C280.303 127.764 280.365 127.399 280.371 126.943V122.402H283.34ZM288.271 122.344C289.255 122.253 290.15 122.207 290.957 122.207C291.764 122.207 292.441 122.253 292.988 122.344C293.535 122.435 293.994 122.575 294.365 122.764C294.736 122.952 295.039 123.171 295.273 123.418C295.514 123.659 295.7 123.962 295.83 124.326C295.96 124.691 296.048 125.062 296.094 125.439C296.139 125.811 296.162 126.253 296.162 126.768V135H293.174V126.758C293.174 125.254 292.347 124.502 290.693 124.502C290.107 124.502 289.43 124.535 288.662 124.6C287.894 124.658 287.272 124.72 286.797 124.785L286.094 124.883V122.627C286.569 122.523 287.295 122.428 288.271 122.344ZM289.082 135H286.094V126.963H289.082V135ZM136.504 157.742V149.402H139.482V155.223L137.5 157.742H136.504ZM145.156 149.207C145.924 149.207 146.608 149.318 147.207 149.539C147.806 149.76 148.291 150.053 148.662 150.418C149.04 150.783 149.349 151.219 149.59 151.727C150.026 152.645 150.244 153.729 150.244 154.979V156.424C150.244 157.042 150.205 157.609 150.127 158.123C150.049 158.637 149.896 159.155 149.668 159.676C149.447 160.197 149.154 160.636 148.789 160.994C148.424 161.346 147.933 161.635 147.314 161.863C146.696 162.085 145.977 162.195 145.156 162.195C143.672 162.195 142.451 162.104 141.494 161.922V159.598C142.549 159.728 143.643 159.793 144.775 159.793C145.869 159.793 146.592 159.376 146.943 158.543C147.152 158.061 147.256 157.456 147.256 156.727V154.676C147.256 153.146 146.833 152.169 145.986 151.746C145.654 151.583 145.251 151.502 144.775 151.502C143.949 151.502 142.855 151.574 141.494 151.717V149.422C142.653 149.279 143.874 149.207 145.156 149.207ZM151.582 149.412C152.799 149.275 153.877 149.207 154.814 149.207C155.758 149.207 156.504 149.253 157.051 149.344C157.598 149.435 158.057 149.575 158.428 149.764C158.799 149.952 159.102 150.171 159.336 150.418C159.577 150.659 159.762 150.962 159.893 151.326C160.023 151.691 160.111 152.062 160.156 152.439C160.202 152.811 160.225 153.253 160.225 153.768V162H157.236V153.758C157.236 152.254 156.41 151.502 154.756 151.502C153.923 151.502 152.865 151.57 151.582 151.707V149.412ZM166.27 162H163.291V149.402H166.27V162ZM179.639 149.402V153.914C179.639 155.014 179.421 155.848 178.984 156.414C178.809 156.642 178.561 156.863 178.242 157.078C177.923 157.286 177.546 157.456 177.109 157.586L179.922 162H176.533L172.783 155.76C172.477 155.89 172.262 156.092 172.139 156.365C172.021 156.639 171.96 157.007 171.953 157.469V162H168.984V157.498C168.984 157.173 168.997 156.886 169.023 156.639C169.056 156.385 169.121 156.105 169.219 155.799C169.323 155.493 169.463 155.226 169.639 154.998C169.821 154.764 170.072 154.542 170.391 154.334C170.716 154.119 171.1 153.947 171.543 153.816L168.74 149.402H172.119L174.658 153.719L175.879 155.643C176.165 155.512 176.367 155.311 176.484 155.037C176.602 154.764 176.663 154.399 176.67 153.943V149.402H179.639ZM189.766 149.344C190.749 149.253 191.644 149.207 192.451 149.207C193.258 149.207 193.936 149.253 194.482 149.344C195.029 149.435 195.488 149.575 195.859 149.764C196.23 149.952 196.533 150.171 196.768 150.418C197.008 150.659 197.194 150.962 197.324 151.326C197.454 151.691 197.542 152.062 197.588 152.439C197.633 152.811 197.656 153.253 197.656 153.768V162H194.668V153.758C194.668 152.254 193.841 151.502 192.188 151.502C191.602 151.502 190.924 151.535 190.156 151.6C189.388 151.658 188.766 151.72 188.291 151.785L187.588 151.883V149.627C188.063 149.523 188.789 149.428 189.766 149.344ZM190.576 162H187.588V153.963H190.576V162ZM202.969 161.492C202.741 161.668 202.435 161.831 202.051 161.98C201.667 162.124 201.305 162.195 200.967 162.195C200.628 162.195 200.257 162.16 199.854 162.088L200.068 159.324C200.081 159.337 200.163 159.357 200.312 159.383C200.469 159.402 200.622 159.412 200.771 159.412C200.928 159.412 201.13 159.409 201.377 159.402C201.631 159.389 201.94 159.324 202.305 159.207C202.819 159.044 203.226 158.735 203.525 158.279C203.825 157.824 203.975 157.293 203.975 156.688V153.133C203.975 152.384 203.792 151.906 203.428 151.697C203.265 151.606 203.057 151.561 202.803 151.561C202.249 151.561 201.761 151.616 201.338 151.727L201.113 151.785V149.432C201.686 149.282 202.334 149.207 203.057 149.207C203.779 149.207 204.372 149.275 204.834 149.412C205.296 149.549 205.661 149.728 205.928 149.949C206.201 150.164 206.416 150.451 206.572 150.809C206.729 151.16 206.829 151.515 206.875 151.873C206.927 152.225 206.953 152.645 206.953 153.133V162H204.697L204.258 160.164H204.111C204.014 160.359 203.857 160.584 203.643 160.838C203.428 161.092 203.203 161.31 202.969 161.492ZM213.008 162H210.029V149.402H213.008V162ZM226.074 162H215.312V159.725H220.176L222.402 159.861V159.822L219.658 156.404L215.215 149.402H218.555L222.07 155.076C222.533 154.419 222.822 153.449 222.939 152.166L223.174 149.412H226.123L225.918 151.736C225.82 152.843 225.667 153.667 225.459 154.207C225.355 154.487 225.225 154.803 225.068 155.154C224.756 155.838 224.255 156.476 223.564 157.068L226.074 160.281V162ZM231.748 161.453C231.468 161.681 231.104 161.863 230.654 162C230.212 162.13 229.717 162.195 229.17 162.195C228.623 162.195 228.135 162.107 227.705 161.932V159.666C228.141 159.783 228.483 159.842 228.73 159.842C228.978 159.842 229.18 159.796 229.336 159.705C229.499 159.614 229.619 159.487 229.697 159.324C229.827 159.031 229.893 158.68 229.893 158.27V151.746L228.477 151.883V149.627C230.475 149.347 232.464 149.207 234.443 149.207C235.908 149.207 237.005 149.393 237.734 149.764C238.105 149.952 238.408 150.171 238.643 150.418C238.883 150.659 239.069 150.962 239.199 151.326C239.329 151.691 239.417 152.062 239.463 152.439C239.508 152.811 239.531 153.253 239.531 153.768V162H236.533V153.758C236.533 152.254 235.71 151.502 234.062 151.502C233.698 151.502 233.301 151.512 232.871 151.531V158.27C232.871 159.78 232.497 160.841 231.748 161.453ZM250.791 149.207C252.907 149.207 254.307 149.614 254.99 150.428C255.355 150.864 255.589 151.342 255.693 151.863C255.811 152.417 255.869 153.051 255.869 153.768V159.725H257.314V162H247.236V159.725H252.891V153.758C252.891 152.254 252.064 151.502 250.41 151.502C249.57 151.502 248.672 151.561 247.715 151.678L247.236 151.736V149.383C248.193 149.266 249.378 149.207 250.791 149.207ZM269.277 162H258.516V159.725H263.379L265.605 159.861V159.822L262.861 156.404L258.418 149.402H261.758L265.273 155.076C265.736 154.419 266.025 153.449 266.143 152.166L266.377 149.412H269.326L269.121 151.736C269.023 152.843 268.87 153.667 268.662 154.207C268.558 154.487 268.428 154.803 268.271 155.154C267.959 155.838 267.458 156.476 266.768 157.068L269.277 160.281V162ZM271.992 153.113C271.992 151.948 271.755 150.708 271.279 149.393H274.131C274.229 149.646 274.326 149.943 274.424 150.281L274.688 151.326H274.873C274.899 151.268 274.938 151.193 274.99 151.102C275.042 151.004 275.173 150.835 275.381 150.594C275.596 150.346 275.833 150.132 276.094 149.949C276.354 149.76 276.709 149.591 277.158 149.441C277.614 149.285 278.122 149.207 278.682 149.207C279.248 149.207 279.762 149.314 280.225 149.529C280.687 149.744 281.058 150.027 281.338 150.379C281.624 150.73 281.859 151.157 282.041 151.658C282.36 152.537 282.52 153.608 282.52 154.871V162H277.129V159.725H279.473V155.213C279.473 154.054 279.365 153.237 279.15 152.762C279.053 152.547 278.929 152.345 278.779 152.156C278.48 151.766 278.005 151.57 277.354 151.57C277.054 151.57 276.761 151.642 276.475 151.785C276.195 151.922 275.96 152.091 275.771 152.293C275.387 152.703 275.12 153.068 274.971 153.387L274.873 153.602L274.131 162H271.221L271.953 154.002C271.979 153.702 271.992 153.406 271.992 153.113ZM287.695 149.402H294.326V151.336L292.617 157.322L291.562 162H288.662L289.717 157.322L291.328 151.678H284.717V146.805H287.695V149.402ZM107.393 211.742V203.402H110.371V209.223L108.389 211.742H107.393ZM122.227 203.402V205.561C121.953 205.665 121.667 205.818 121.367 206.02C121.042 206.26 120.817 206.547 120.693 206.879C120.57 207.211 120.508 207.644 120.508 208.178V216H117.529V208.109C117.529 207.751 117.578 207.426 117.676 207.133C117.78 206.84 117.904 206.612 118.047 206.449C118.34 206.111 118.607 205.896 118.848 205.805L119.004 205.746V205.678H112.158V203.402H122.227ZM127.002 203.207C127.77 203.207 128.454 203.318 129.053 203.539C129.652 203.76 130.137 204.053 130.508 204.418C130.885 204.783 131.195 205.219 131.436 205.727C131.872 206.645 132.09 207.729 132.09 208.979V210.424C132.09 211.042 132.051 211.609 131.973 212.123C131.895 212.637 131.742 213.155 131.514 213.676C131.292 214.197 130.999 214.636 130.635 214.994C130.27 215.346 129.779 215.635 129.16 215.863C128.542 216.085 127.822 216.195 127.002 216.195C125.518 216.195 124.297 216.104 123.34 215.922V213.598C124.395 213.728 125.488 213.793 126.621 213.793C127.715 213.793 128.438 213.376 128.789 212.543C128.997 212.061 129.102 211.456 129.102 210.727V208.676C129.102 207.146 128.678 206.169 127.832 205.746C127.5 205.583 127.096 205.502 126.621 205.502C125.794 205.502 124.701 205.574 123.34 205.717V203.422C124.499 203.279 125.719 203.207 127.002 203.207ZM138.623 203.412C139.84 203.275 140.918 203.207 141.855 203.207C142.799 203.207 143.545 203.253 144.092 203.344C144.639 203.435 145.098 203.575 145.469 203.764C145.84 203.952 146.143 204.171 146.377 204.418C146.618 204.659 146.803 204.962 146.934 205.326C147.064 205.691 147.152 206.062 147.197 206.439C147.243 206.811 147.266 207.253 147.266 207.768V216H144.277V207.758C144.277 206.254 143.451 205.502 141.797 205.502C140.964 205.502 139.906 205.57 138.623 205.707V203.412ZM150.205 211.742V203.402H153.184V209.223L151.201 211.742H150.205ZM162.314 216H156.611L155.547 203.402H158.398L158.926 209.711C159.004 209.717 159.102 209.721 159.219 209.721C159.733 209.721 160.114 209.584 160.361 209.311C160.615 209.037 160.768 208.581 160.82 207.943L161.191 203.402H164.023L163.662 207.914C163.46 210.473 162.126 211.752 159.658 211.752C159.521 211.752 159.336 211.745 159.102 211.732L159.268 213.725H162.451C163.538 213.725 164.375 213.301 164.961 212.455C165.547 211.609 165.902 210.443 166.025 208.959L166.494 203.402H169.346L168.877 208.881C168.773 210.066 168.607 211.016 168.379 211.732C167.487 214.577 165.465 216 162.314 216ZM174.541 203.207C175.309 203.207 175.993 203.318 176.592 203.539C177.191 203.76 177.676 204.053 178.047 204.418C178.424 204.783 178.734 205.219 178.975 205.727C179.411 206.645 179.629 207.729 179.629 208.979V210.424C179.629 211.042 179.59 211.609 179.512 212.123C179.434 212.637 179.281 213.155 179.053 213.676C178.831 214.197 178.538 214.636 178.174 214.994C177.809 215.346 177.318 215.635 176.699 215.863C176.081 216.085 175.361 216.195 174.541 216.195C173.057 216.195 171.836 216.104 170.879 215.922V213.598C171.934 213.728 173.027 213.793 174.16 213.793C175.254 213.793 175.977 213.376 176.328 212.543C176.536 212.061 176.641 211.456 176.641 210.727V208.676C176.641 207.146 176.217 206.169 175.371 205.746C175.039 205.583 174.635 205.502 174.16 205.502C173.333 205.502 172.24 205.574 170.879 205.717V203.422C172.038 203.279 173.258 203.207 174.541 203.207ZM182.314 207.113C182.314 205.948 182.077 204.708 181.602 203.393H184.453C184.551 203.646 184.648 203.943 184.746 204.281L185.01 205.326H185.195C185.221 205.268 185.26 205.193 185.312 205.102C185.365 205.004 185.495 204.835 185.703 204.594C185.918 204.346 186.156 204.132 186.416 203.949C186.676 203.76 187.031 203.591 187.48 203.441C187.936 203.285 188.444 203.207 189.004 203.207C189.57 203.207 190.085 203.314 190.547 203.529C191.009 203.744 191.38 204.027 191.66 204.379C191.947 204.73 192.181 205.157 192.363 205.658C192.682 206.537 192.842 207.608 192.842 208.871V216H187.451V213.725H189.795V209.213C189.795 208.054 189.688 207.237 189.473 206.762C189.375 206.547 189.251 206.345 189.102 206.156C188.802 205.766 188.327 205.57 187.676 205.57C187.376 205.57 187.083 205.642 186.797 205.785C186.517 205.922 186.283 206.091 186.094 206.293C185.71 206.703 185.443 207.068 185.293 207.387L185.195 207.602L184.453 216H181.543L182.275 208.002C182.301 207.702 182.314 207.406 182.314 207.113ZM198.096 203.344C199.079 203.253 199.974 203.207 200.781 203.207C201.589 203.207 202.266 203.253 202.812 203.344C203.359 203.435 203.818 203.575 204.189 203.764C204.561 203.952 204.863 204.171 205.098 204.418C205.339 204.659 205.524 204.962 205.654 205.326C205.785 205.691 205.872 206.062 205.918 206.439C205.964 206.811 205.986 207.253 205.986 207.768V216H202.998V207.758C202.998 206.254 202.171 205.502 200.518 205.502C199.932 205.502 199.255 205.535 198.486 205.6C197.718 205.658 197.096 205.72 196.621 205.785L195.918 205.883V203.627C196.393 203.523 197.119 203.428 198.096 203.344ZM198.906 216H195.918V207.963H198.906V216ZM217.422 215.453C217.142 215.681 216.777 215.863 216.328 216C215.885 216.13 215.391 216.195 214.844 216.195C214.297 216.195 213.809 216.107 213.379 215.932V213.666C213.815 213.783 214.157 213.842 214.404 213.842C214.652 213.842 214.854 213.796 215.01 213.705C215.173 213.614 215.293 213.487 215.371 213.324C215.501 213.031 215.566 212.68 215.566 212.27V205.746L214.15 205.883V203.627C216.149 203.347 218.138 203.207 220.117 203.207C221.582 203.207 222.679 203.393 223.408 203.764C223.779 203.952 224.082 204.171 224.316 204.418C224.557 204.659 224.743 204.962 224.873 205.326C225.003 205.691 225.091 206.062 225.137 206.439C225.182 206.811 225.205 207.253 225.205 207.768V216H222.207V207.758C222.207 206.254 221.383 205.502 219.736 205.502C219.372 205.502 218.975 205.512 218.545 205.531V212.27C218.545 213.78 218.171 214.841 217.422 215.453ZM238.516 203.402V207.914C238.516 209.014 238.298 209.848 237.861 210.414C237.686 210.642 237.438 210.863 237.119 211.078C236.8 211.286 236.423 211.456 235.986 211.586L238.799 216H235.41L231.66 209.76C231.354 209.89 231.139 210.092 231.016 210.365C230.898 210.639 230.837 211.007 230.83 211.469V216H227.861V211.498C227.861 211.173 227.874 210.886 227.9 210.639C227.933 210.385 227.998 210.105 228.096 209.799C228.2 209.493 228.34 209.226 228.516 208.998C228.698 208.764 228.949 208.542 229.268 208.334C229.593 208.119 229.977 207.947 230.42 207.816L227.617 203.402H230.996L233.535 207.719L234.756 209.643C235.042 209.512 235.244 209.311 235.361 209.037C235.479 208.764 235.54 208.399 235.547 207.943V203.402H238.516ZM249.453 203.207C251.569 203.207 252.969 203.614 253.652 204.428C254.017 204.864 254.251 205.342 254.355 205.863C254.473 206.417 254.531 207.051 254.531 207.768V213.725H255.977V216H245.898V213.725H251.553V207.758C251.553 206.254 250.726 205.502 249.072 205.502C248.232 205.502 247.334 205.561 246.377 205.678L245.898 205.736V203.383C246.855 203.266 248.04 203.207 249.453 203.207ZM260.996 203.207C263.112 203.207 264.512 203.614 265.195 204.428C265.56 204.864 265.794 205.342 265.898 205.863C266.016 206.417 266.074 207.051 266.074 207.768V213.725H267.52V216H257.441V213.725H263.096V207.758C263.096 206.254 262.269 205.502 260.615 205.502C259.775 205.502 258.877 205.561 257.92 205.678L257.441 205.736V203.383C258.398 203.266 259.583 203.207 260.996 203.207ZM272.529 216H269.551V203.402H272.529V216ZM280.293 203.207C281.966 203.207 283.265 203.777 284.189 204.916C285.12 206.055 285.586 207.647 285.586 209.691C285.586 211.736 285.114 213.331 284.17 214.477C283.232 215.622 281.943 216.195 280.303 216.195C278.662 216.195 277.367 215.626 276.416 214.486C275.472 213.34 275 211.745 275 209.701C275 208.913 275.153 208.142 275.459 207.387C275.765 206.632 276.107 206.078 276.484 205.727V205.648L275.195 205.736V203.48C276.706 203.298 278.405 203.207 280.293 203.207ZM278.027 209.701C278.027 212.449 278.783 213.822 280.293 213.822C281.803 213.822 282.559 212.436 282.559 209.662C282.559 206.889 281.803 205.502 280.293 205.502L279.189 205.521C278.415 206.596 278.027 207.989 278.027 209.701ZM290.146 203.402H296.777V205.336L295.068 211.322L294.014 216H291.113L292.168 211.322L293.779 205.678H287.168V200.805H290.146V203.402ZM310.342 216H304.639L303.574 203.402H306.426L306.953 209.711C307.031 209.717 307.129 209.721 307.246 209.721C307.76 209.721 308.141 209.584 308.389 209.311C308.643 209.037 308.796 208.581 308.848 207.943L309.219 203.402H312.051L311.689 207.914C311.488 210.473 310.153 211.752 307.686 211.752C307.549 211.752 307.363 211.745 307.129 211.732L307.295 213.725H310.479C311.566 213.725 312.402 213.301 312.988 212.455C313.574 211.609 313.929 210.443 314.053 208.959L314.521 203.402H317.373L316.904 208.881C316.8 210.066 316.634 211.016 316.406 211.732C315.514 214.577 313.493 216 310.342 216ZM319.697 211.742V203.402H322.676V209.223L320.693 211.742H319.697ZM138.066 243V230.627C138.542 230.523 139.268 230.428 140.244 230.344C141.227 230.253 142.161 230.207 143.047 230.207C144.857 230.207 146.156 230.5 146.943 231.086C147.738 231.672 148.135 232.613 148.135 233.908V243H138.066ZM145.146 240.725V233.908C145.146 233.316 144.915 232.928 144.453 232.746C144.049 232.583 143.454 232.502 142.666 232.502C142.217 232.502 141.68 232.525 141.055 232.57V240.725H145.146ZM151.084 238.742V230.402H154.062V236.223L152.08 238.742H151.084ZM156.904 230.383C157.458 230.266 158.05 230.207 158.682 230.207C159.313 230.207 159.85 230.275 160.293 230.412C160.742 230.542 161.107 230.721 161.387 230.949C161.667 231.177 161.891 231.464 162.061 231.809C162.36 232.408 162.51 233.182 162.51 234.133V239.26C162.51 239.872 162.467 240.49 162.383 241.115C162.305 241.734 162.227 242.202 162.148 242.521L162.021 243H156.328V240.725H159.355C159.473 240.223 159.531 239.475 159.531 238.479V234.133C159.531 233.384 159.349 232.906 158.984 232.697C158.822 232.606 158.62 232.561 158.379 232.561C157.884 232.561 157.393 232.616 156.904 232.727V230.383ZM168.33 230.207C169.098 230.207 169.782 230.318 170.381 230.539C170.98 230.76 171.465 231.053 171.836 231.418C172.214 231.783 172.523 232.219 172.764 232.727C173.2 233.645 173.418 234.729 173.418 235.979V237.424C173.418 238.042 173.379 238.609 173.301 239.123C173.223 239.637 173.07 240.155 172.842 240.676C172.62 241.197 172.327 241.636 171.963 241.994C171.598 242.346 171.107 242.635 170.488 242.863C169.87 243.085 169.15 243.195 168.33 243.195C166.846 243.195 165.625 243.104 164.668 242.922V240.598C165.723 240.728 166.816 240.793 167.949 240.793C169.043 240.793 169.766 240.376 170.117 239.543C170.326 239.061 170.43 238.456 170.43 237.727V235.676C170.43 234.146 170.007 233.169 169.16 232.746C168.828 232.583 168.424 232.502 167.949 232.502C167.122 232.502 166.029 232.574 164.668 232.717V230.422C165.827 230.279 167.048 230.207 168.33 230.207ZM179.062 242.453C178.783 242.681 178.418 242.863 177.969 243C177.526 243.13 177.031 243.195 176.484 243.195C175.938 243.195 175.449 243.107 175.02 242.932V240.666C175.456 240.783 175.798 240.842 176.045 240.842C176.292 240.842 176.494 240.796 176.65 240.705C176.813 240.614 176.934 240.487 177.012 240.324C177.142 240.031 177.207 239.68 177.207 239.27V232.746L175.791 232.883V230.627C177.79 230.347 179.779 230.207 181.758 230.207C183.223 230.207 184.32 230.393 185.049 230.764C185.42 230.952 185.723 231.171 185.957 231.418C186.198 231.659 186.383 231.962 186.514 232.326C186.644 232.691 186.732 233.062 186.777 233.439C186.823 233.811 186.846 234.253 186.846 234.768V243H183.848V234.758C183.848 233.254 183.024 232.502 181.377 232.502C181.012 232.502 180.615 232.512 180.186 232.531V239.27C180.186 240.78 179.811 241.841 179.062 242.453ZM192.1 230.344C193.083 230.253 193.978 230.207 194.785 230.207C195.592 230.207 196.27 230.253 196.816 230.344C197.363 230.435 197.822 230.575 198.193 230.764C198.564 230.952 198.867 231.171 199.102 231.418C199.342 231.659 199.528 231.962 199.658 232.326C199.788 232.691 199.876 233.062 199.922 233.439C199.967 233.811 199.99 234.253 199.99 234.768V243H197.002V234.758C197.002 233.254 196.175 232.502 194.521 232.502C193.936 232.502 193.258 232.535 192.49 232.6C191.722 232.658 191.1 232.72 190.625 232.785L189.922 232.883V230.627C190.397 230.523 191.123 230.428 192.1 230.344ZM192.91 243H189.922V234.963H192.91V243ZM211.426 242.453C211.146 242.681 210.781 242.863 210.332 243C209.889 243.13 209.395 243.195 208.848 243.195C208.301 243.195 207.812 243.107 207.383 242.932V240.666C207.819 240.783 208.161 240.842 208.408 240.842C208.656 240.842 208.857 240.796 209.014 240.705C209.176 240.614 209.297 240.487 209.375 240.324C209.505 240.031 209.57 239.68 209.57 239.27V232.746L208.154 232.883V230.627C210.153 230.347 212.142 230.207 214.121 230.207C215.586 230.207 216.683 230.393 217.412 230.764C217.783 230.952 218.086 231.171 218.32 231.418C218.561 231.659 218.747 231.962 218.877 232.326C219.007 232.691 219.095 233.062 219.141 233.439C219.186 233.811 219.209 234.253 219.209 234.768V243H216.211V234.758C216.211 233.254 215.387 232.502 213.74 232.502C213.376 232.502 212.979 232.512 212.549 232.531V239.27C212.549 240.78 212.174 241.841 211.426 242.453ZM232.52 230.402V234.914C232.52 236.014 232.301 236.848 231.865 237.414C231.689 237.642 231.442 237.863 231.123 238.078C230.804 238.286 230.426 238.456 229.99 238.586L232.803 243H229.414L225.664 236.76C225.358 236.89 225.143 237.092 225.02 237.365C224.902 237.639 224.84 238.007 224.834 238.469V243H221.865V238.498C221.865 238.173 221.878 237.886 221.904 237.639C221.937 237.385 222.002 237.105 222.1 236.799C222.204 236.493 222.344 236.226 222.52 235.998C222.702 235.764 222.952 235.542 223.271 235.334C223.597 235.119 223.981 234.947 224.424 234.816L221.621 230.402H225L227.539 234.719L228.76 236.643C229.046 236.512 229.248 236.311 229.365 236.037C229.482 235.764 229.544 235.399 229.551 234.943V230.402H232.52ZM243.633 242.453C243.353 242.681 242.988 242.863 242.539 243C242.096 243.13 241.602 243.195 241.055 243.195C240.508 243.195 240.02 243.107 239.59 242.932V240.666C240.026 240.783 240.368 240.842 240.615 240.842C240.863 240.842 241.064 240.796 241.221 240.705C241.383 240.614 241.504 240.487 241.582 240.324C241.712 240.031 241.777 239.68 241.777 239.27V232.746L240.361 232.883V230.627C242.36 230.347 244.349 230.207 246.328 230.207C247.793 230.207 248.89 230.393 249.619 230.764C249.99 230.952 250.293 231.171 250.527 231.418C250.768 231.659 250.954 231.962 251.084 232.326C251.214 232.691 251.302 233.062 251.348 233.439C251.393 233.811 251.416 234.253 251.416 234.768V243H248.418V234.758C248.418 233.254 247.594 232.502 245.947 232.502C245.583 232.502 245.186 232.512 244.756 232.531V239.27C244.756 240.78 244.382 241.841 243.633 242.453ZM257.471 243H254.492V230.402H257.471V243ZM270.84 230.402V234.914C270.84 236.014 270.622 236.848 270.186 237.414C270.01 237.642 269.762 237.863 269.443 238.078C269.124 238.286 268.747 238.456 268.311 238.586L271.123 243H267.734L263.984 236.76C263.678 236.89 263.464 237.092 263.34 237.365C263.223 237.639 263.161 238.007 263.154 238.469V243H260.186V238.498C260.186 238.173 260.199 237.886 260.225 237.639C260.257 237.385 260.322 237.105 260.42 236.799C260.524 236.493 260.664 236.226 260.84 235.998C261.022 235.764 261.273 235.542 261.592 235.334C261.917 235.119 262.301 234.947 262.744 234.816L259.941 230.402H263.32L265.859 234.719L267.08 236.643C267.367 236.512 267.568 236.311 267.686 236.037C267.803 235.764 267.865 235.399 267.871 234.943V230.402H270.84ZM272.451 230.412C273.669 230.275 274.746 230.207 275.684 230.207C276.628 230.207 277.373 230.253 277.92 230.344C278.467 230.435 278.926 230.575 279.297 230.764C279.668 230.952 279.971 231.171 280.205 231.418C280.446 231.659 280.632 231.962 280.762 232.326C280.892 232.691 280.98 233.062 281.025 233.439C281.071 233.811 281.094 234.253 281.094 234.768V243H278.105V234.758C278.105 233.254 277.279 232.502 275.625 232.502C274.792 232.502 273.734 232.57 272.451 232.707V230.412ZM286.26 230.402H292.891V232.336L291.182 238.322L290.127 243H287.227L288.281 238.322L289.893 232.678H283.281V227.805H286.26V230.402Z" fill="white"/>
<path d="M176.286 301.883C174.518 304.024 172.609 305.793 169.584 307.142C163.208 309.982 155.109 309.842 146.871 300.812C146.498 300.394 146.359 300.719 146.545 300.952C151.479 306.956 158.321 311.471 166.559 309.702C170.655 308.818 173.587 307.189 176.566 304.024C178.427 302.023 176.845 301.324 176.286 301.883Z" fill="white"/>
<path d="M149.246 293.878C149.711 293.133 148.967 292.528 148.455 293.32C146.081 297.462 140.961 295.228 141.473 295.507C143.102 296.438 146.686 297.648 149.246 293.878Z" fill="white"/>
<path d="M149.246 293.878C149.711 293.133 148.967 292.528 148.455 293.32C146.081 297.462 140.961 295.228 141.473 295.507C143.102 296.438 146.686 297.648 149.246 293.878Z" stroke="white" stroke-width="0.658" stroke-miterlimit="10"/>
<path d="M188.993 280.101C188.482 278.612 187.783 277.309 186.992 276.099C186.759 275.726 186.527 275.4 186.247 275.075C182.989 270.793 177.916 268 172.238 268C171.679 268 171.121 268.047 170.562 268.093C169.445 268.186 168.375 268.419 167.351 268.698C167.118 268.791 166.839 268.838 166.606 268.931C161.859 270.56 158.275 274.377 155.994 278.891C155.808 279.217 154.97 281.032 153.574 279.124C151.386 276.145 147.942 274.097 144.032 274.097C142.822 274.097 141.705 274.283 140.588 274.656C140.541 274.656 140.448 274.702 140.402 274.702C136.771 275.959 133.932 279.031 132.722 282.847C130.302 290.481 134.444 299.836 138.075 304.211C139.145 305.7 140.123 306.864 141.984 308.446C142.217 308.633 142.403 308.772 142.543 308.819C142.589 308.865 143.055 308.958 142.45 308.446C137.609 304.118 132.908 294.67 135.096 285.78C135.515 284.151 136.12 282.894 137.19 281.498C137.749 280.753 138.447 280.101 139.238 279.543C140.914 278.333 142.915 277.635 145.103 277.635C148.314 277.635 150.828 279.31 152.689 281.637C154.83 284.244 156.692 282.056 157.204 281.311C159.95 277.448 163.301 272.049 170.795 271.584C170.841 271.584 170.935 271.584 170.981 271.584C172.098 271.537 173.262 271.584 174.379 271.77C179.871 272.654 184.991 276.424 187.411 284.011C188.761 288.2 188.575 293.32 188.016 296.811C186.48 306.166 180.616 311.658 176.427 314.218C175.682 314.683 175.822 314.916 176.427 314.776C177.497 314.404 178.94 313.613 180.057 312.775C186.713 307.888 191.088 299.836 191.088 290.713C191.088 286.99 190.343 283.359 188.993 280.101Z" fill="white"/>
<path d="M229.859 296.764C230.557 295.787 231.348 295.833 231.767 297.509C231.906 297.928 231.813 299.138 230.743 299.045C229.719 298.998 229.114 297.788 229.859 296.764Z" fill="white"/>
<path d="M199.652 304.956C200.676 303.467 200.908 301.512 200.35 299.696C199.884 298.3 199.046 297.137 198.116 296.811C197.65 296.625 197.185 296.531 196.719 296.531C196.021 296.485 195.37 296.671 194.764 296.997C193.461 297.695 192.484 299.184 192.158 301.279C191.599 304.77 189.412 307.888 186.899 311.239C185.13 313.613 183.873 314.125 184.711 314.125C185.456 314.125 187.224 312.356 187.224 312.356C190.808 309.052 193.182 305.421 193.182 305.375L193.508 305.235C194.346 306.352 195.23 306.911 196.207 306.911C198.116 306.864 199.652 304.956 199.652 304.956ZM194.764 304.165C194.299 303.699 194.02 303.001 193.927 302.163C193.74 300.395 194.811 298.672 196.254 298.533C196.952 298.44 197.65 298.719 198.162 299.278C198.628 299.79 198.953 300.534 199.046 301.372C199.233 303.094 198.162 304.584 196.626 304.77C196.487 304.77 196.347 304.77 196.207 304.77C195.649 304.723 195.137 304.537 194.764 304.165Z" fill="white"/>
<path d="M209.192 300.486C209.192 300.44 208.96 297.042 206.493 296.577C206.307 296.53 206.074 296.53 205.888 296.53C205.05 296.53 204.259 296.856 203.607 297.415C202.304 298.532 201.652 300.533 201.792 302.814C201.932 305.141 203.281 306.398 204.538 306.63C205.702 306.816 207.238 306.258 208.075 304.07L208.215 303.745L208.401 304.07C208.82 304.722 210.03 306.444 210.868 306.584C211.287 306.63 211.659 306.491 211.799 306.165C211.939 305.792 211.799 305.094 210.868 304.396C210.589 304.21 210.356 304.024 210.17 303.884C209.192 303.233 209.192 303.186 209.192 301.976C209.192 301.604 209.192 301.138 209.192 300.486ZM207.331 302.767C206.772 304.117 206.074 304.815 205.236 304.862C205.19 304.862 205.19 304.862 205.143 304.862C204.305 304.862 203.607 304.21 203.235 303.605C202.769 302.767 202.676 301.231 203.235 300.021C203.607 299.23 204.212 298.764 205.004 298.625C205.655 298.532 206.167 298.625 206.633 298.951C207.47 299.602 207.563 300.812 207.563 300.859C207.657 301.883 207.331 302.721 207.331 302.767Z" fill="white"/>
<path d="M213.43 304.211C214.081 305.607 214.966 306.398 216.036 306.584C217.06 306.724 218.131 306.305 218.968 305.421C219.853 304.49 219.667 303.838 219.62 303.699C219.527 303.513 219.387 303.373 219.248 303.373C218.922 303.373 218.689 303.606 218.363 303.931C218.037 304.304 217.572 304.769 216.827 304.816C216.176 304.862 215.664 304.676 215.245 304.304C214.174 303.28 214.081 300.906 214.174 298.951V298.812L214.314 298.765C215.105 298.579 215.478 298.393 216.269 297.695C216.548 297.462 216.595 297.183 216.502 297.043C216.408 296.903 216.129 296.81 215.757 297.043C215.664 297.089 215.617 297.089 215.571 297.136C215.291 297.276 215.152 297.369 214.5 297.415H214.267V297.183C214.5 294.995 214.593 294.576 214.919 293.133C215.012 292.807 215.059 292.389 215.198 291.923C215.291 291.504 215.478 290.992 215.664 290.434C216.176 288.758 215.571 288.712 215.478 288.758C214.873 288.991 214.267 290.061 213.569 292.389C213.197 293.645 212.964 294.297 212.685 296.996L212.638 297.229L212.406 297.136C212.08 297.043 211.801 296.903 211.475 296.717C211.009 296.484 210.59 296.345 210.311 296.345C210.125 296.345 209.939 296.391 209.846 296.531C209.66 296.81 209.799 297.369 210.172 297.695C210.637 298.067 211.335 298.625 212.359 298.812L212.499 298.858V298.998C212.545 301.232 212.871 302.954 213.43 304.211Z" fill="white"/>
<path d="M226.041 306.632C226.274 306.725 226.46 306.632 226.507 306.585C227.763 303.793 227.484 299.929 226.507 297.835C226.181 297.09 225.762 296.625 225.343 296.485C224.971 296.392 224.645 296.392 224.319 296.625C223.062 297.37 222.457 299.976 222.457 300.023L222.225 301.093L222.085 300.023C221.759 297.183 220.689 289.597 219.572 288.712C219.479 288.619 219.432 288.666 219.386 288.666C218.78 288.759 218.874 291.133 219.106 292.762C219.246 295.136 220.735 303.793 221.433 305.515C221.852 306.632 222.132 306.632 222.178 306.632C222.318 306.632 222.55 306.166 222.69 305.422C222.737 305.236 222.737 305.003 222.783 304.724C223.156 302.164 223.574 299.65 224.598 298.952C224.738 298.859 224.831 298.859 224.924 298.859C225.017 298.859 225.11 298.906 225.157 298.952C226.134 299.557 225.809 304.584 225.669 305.561C225.622 306.12 225.715 306.539 226.041 306.632Z" fill="white"/>
<path d="M232 306.818C231.441 306.119 230.231 304.677 230.417 301.93C230.51 300.72 230.278 300.395 230.138 300.301C230.092 300.255 229.998 300.255 229.952 300.255C229.859 300.255 229.766 300.301 229.766 300.301C228.742 300.767 228.556 303.42 229.114 305.002C229.859 307.05 230.604 307.283 231.348 307.283C232.046 307.19 232.093 306.957 232 306.818Z" fill="white"/>
<path d="M238.98 297.415C238.933 297.415 238.84 297.415 238.794 297.415C237.398 297.415 235.443 297.88 233.86 300.021C233.022 301.185 232.743 302.907 233.209 304.397C233.488 305.327 234.186 306.538 235.862 307.096C239.352 308.306 242.936 307.515 244.938 306.445C245.636 306.072 245.124 305.56 244.379 305.653C243.076 305.839 240.888 306.212 238.933 305.746C236.792 305.234 235.675 303.978 235.303 302.488C235.07 301.557 235.396 300.627 236.094 300.068C237.723 298.765 239.12 298.951 240.33 299.137C240.842 299.23 241.354 299.277 241.866 299.23C242.098 299.184 242.285 299.091 242.378 298.951C242.471 298.811 242.471 298.672 242.424 298.532C242.238 298.346 240.842 297.462 238.98 297.415Z" fill="white"/>
<path d="M266.069 300.486C266.069 300.44 265.837 297.042 263.37 296.577C263.184 296.53 262.951 296.53 262.765 296.53C261.927 296.53 261.136 296.856 260.484 297.415C259.181 298.532 258.529 300.533 258.669 302.814C258.809 305.141 260.158 306.398 261.415 306.63C262.579 306.816 264.115 306.258 264.952 304.07L265.092 303.745L265.278 304.07C265.697 304.722 266.907 306.444 267.745 306.584C268.164 306.63 268.536 306.491 268.676 306.165C268.815 305.792 268.676 305.094 267.745 304.396C267.466 304.21 267.233 304.024 267.047 303.884C266.069 303.233 266.069 303.186 266.069 301.976C266.116 301.604 266.116 301.138 266.069 300.486ZM264.254 302.767C263.696 304.117 262.998 304.815 262.16 304.862C262.113 304.862 262.113 304.862 262.067 304.862C261.229 304.862 260.531 304.21 260.158 303.605C259.693 302.767 259.6 301.231 260.158 300.021C260.531 299.23 261.136 298.764 261.927 298.625C262.579 298.532 263.091 298.625 263.556 298.951C264.394 299.602 264.487 300.812 264.487 300.859C264.58 301.883 264.254 302.721 264.254 302.767Z" fill="white"/>
<path d="M252.852 287.503C253.643 285.781 254.76 284.803 256.063 284.57C257.32 284.384 258.67 284.943 259.74 286.06C260.811 287.223 260.625 288.015 260.532 288.201C260.439 288.434 260.252 288.573 260.066 288.573C259.647 288.573 259.368 288.294 258.996 287.875C258.577 287.41 258.018 286.851 257.087 286.758C256.296 286.711 255.645 286.898 255.133 287.41C253.783 288.713 253.736 291.645 253.783 294.019V294.205L253.969 294.252C254.946 294.484 255.412 294.67 256.389 295.555C256.715 295.834 256.808 296.16 256.669 296.393C256.529 296.579 256.203 296.672 255.738 296.439C255.645 296.393 255.598 296.346 255.505 296.299C255.179 296.113 254.993 296.02 254.202 295.974H253.922L253.969 296.253C254.248 298.952 254.388 299.511 254.76 301.28C254.853 301.699 254.946 302.164 255.086 302.769C255.179 303.281 255.458 303.933 255.645 304.584C256.296 306.679 255.551 306.725 255.412 306.679C254.667 306.353 253.922 305.05 253.038 302.211C252.573 300.675 252.293 299.837 251.921 296.486L251.874 296.206L251.595 296.299C251.223 296.439 250.851 296.579 250.432 296.811C249.873 297.137 249.361 297.277 248.989 297.277C248.756 297.277 248.57 297.184 248.43 297.044C248.198 296.672 248.384 295.974 248.849 295.648C249.408 295.229 250.339 294.484 251.549 294.252L251.735 294.205V294.019C251.735 291.226 252.107 289.039 252.852 287.503Z" fill="white"/>
<path d="M283.384 295.973C284.082 294.996 284.873 295.042 285.292 296.718C285.432 297.137 285.339 298.347 284.268 298.254C283.244 298.207 282.639 296.95 283.384 295.973Z" fill="white"/>
<path d="M285.525 305.981C284.967 305.282 283.757 303.84 283.943 301.094C284.036 299.883 283.803 299.558 283.663 299.465C283.617 299.418 283.524 299.418 283.477 299.418C283.384 299.418 283.291 299.465 283.291 299.465C282.267 299.93 282.081 302.583 282.64 304.165C283.384 306.213 284.129 306.446 284.874 306.446C285.572 306.4 285.665 306.12 285.525 305.981Z" fill="white"/>
<path d="M272.68 305.981C272.121 305.282 270.911 303.84 271.097 301.094C271.19 299.883 270.957 299.558 270.818 299.465C270.771 299.418 270.678 299.418 270.632 299.418C270.539 299.418 270.445 299.465 270.445 299.465C269.421 299.93 269.235 302.583 269.794 304.165C270.539 306.213 271.283 306.446 272.028 306.446C272.68 306.4 272.773 306.12 272.68 305.981Z" fill="white"/>
<path d="M272.959 300.023C273.517 299.744 273.657 299.93 273.75 300.023C273.703 299.93 274.262 301.698 274.402 302.536C274.588 303.467 275.193 306.167 275.798 306.167C276.356 306.12 276.682 302.722 276.403 301.559C276.31 301.047 276.17 300.488 275.984 299.976C275.798 299.371 275.612 298.72 275.053 298.301C274.076 297.556 272.68 297.835 271.749 298.44C270.771 299.092 270.12 300.069 269.701 301.14C269.468 301.652 270.213 302.955 270.445 302.49C271.33 300.814 272.866 300.069 272.959 300.023Z" fill="white"/>
<path d="M278.358 301.371C278.404 301.837 278.637 306.77 279.428 306.491C279.987 306.305 281.337 302.442 279.289 298.625C278.916 297.88 278.125 297.601 277.287 297.741C276.682 297.834 276.124 298.16 275.658 298.532C274.82 299.23 274.308 300.394 274.401 301.511C274.448 302.069 275.472 303.233 275.519 302.628C275.658 298.392 278.172 299.789 278.358 301.371Z" fill="white"/>
<path d="M286.83 290.248C286.737 292.157 286.923 294.065 287.062 295.973C287.249 298.44 287.528 300.954 288.04 303.374C288.226 304.398 288.645 307.097 289.483 307.377C290.274 307.656 288.924 296.392 288.831 294.019C288.785 293.134 288.738 292.25 288.785 291.366C288.831 290.807 288.692 289.271 287.947 289.178C287.295 289.085 286.83 289.597 286.83 290.248Z" fill="white"/>
<path d="M291.111 298.905C290.832 300.72 291.39 302.581 292.321 304.117C293.066 305.281 294.323 306.817 295.905 306.677C296.417 306.631 296.929 306.258 296.883 305.7C296.883 305.188 297.255 304.024 296.696 304.071C296.65 304.071 295.812 304.722 295.766 304.722C295.719 304.722 293.159 305.7 292.089 298.113C292.089 297.648 291.344 297.043 291.111 298.905Z" fill="white"/>
<path d="M296.183 299.046C296.277 299.93 296.277 300.814 296.277 301.699C296.277 302.071 296.23 302.397 296.183 302.769C296.183 302.862 296.183 302.955 296.137 303.048C296.09 303.328 296.183 302.862 296.137 303.141C296.09 303.328 296.09 303.56 296.044 303.747C295.904 304.398 295.765 305.003 295.532 305.608C295.485 305.748 295.439 305.888 295.392 306.027C295.299 306.26 295.485 305.841 295.392 306.074C295.346 306.12 295.346 306.213 295.299 306.26C295.206 306.493 295.066 306.772 294.927 307.005C294.787 307.237 294.648 307.47 294.508 307.703C294.415 307.796 294.368 307.935 294.275 308.029C294.229 308.075 293.949 308.447 294.136 308.215C293.856 308.587 293.53 308.913 293.205 309.239C292.925 309.518 292.227 310.123 292.181 310.123C292.088 310.17 292.041 310.216 291.948 310.309C291.808 310.402 291.669 310.495 291.529 310.635C291.017 310.961 290.505 311.287 289.947 311.566C288.364 312.497 289.109 313.102 289.574 312.916C294.834 310.588 297.021 307.237 297.533 304.91C297.952 303.048 298.185 301.373 297.812 299.511C297.533 298.161 297.207 297.556 296.602 297.556C296.137 297.51 296.137 298.534 296.183 299.046Z" fill="white"/>
<path d="M189.812 74.4997L189.812 63.4997C189.812 55.4147 192.827 52.958 202.75 52.958L225.25 52.958C235.172 52.958 238.187 55.4147 238.187 63.4997L238.187 74.4997C238.187 82.5847 235.172 85.0413 225.25 85.0413L202.75 85.0413C192.827 85.0413 189.812 82.5847 189.812 74.4997ZM234.812 63.4997C234.812 56.9363 233.282 55.708 225.25 55.708L202.75 55.708C194.717 55.708 193.187 56.9363 193.187 63.4997L193.187 74.4997C193.187 81.063 194.717 82.2913 202.75 82.2913L225.25 82.2913C233.282 82.2913 234.812 81.063 234.812 74.4997L234.812 63.4997Z" fill="white"/>
<path d="M226.937 72.6663L226.937 65.333C226.937 64.5813 227.703 63.958 228.625 63.958C229.547 63.958 230.312 64.5813 230.312 65.333L230.312 72.6663C230.312 73.418 229.547 74.0413 228.625 74.0413C227.702 74.0413 226.937 73.418 226.937 72.6663Z" fill="white"/>
<path d="M196 69C196 66.7913 197.791 65 200 65C202.209 65 204 66.7913 204 69C204 71.2087 202.209 73 200 73C197.791 73 196 71.2087 196 69ZM201.409 69C201.409 68.2348 200.783 67.6087 200.017 67.6087C199.252 67.6087 198.626 68.2348 198.626 69C198.626 69.7652 199.252 70.3913 200.017 70.3913C200.783 70.3913 201.409 69.7652 201.409 69Z" fill="white"/>
<path d="M180 75C180 88.2686 190.731 99 204 99L200.4 93" stroke="white" stroke-width="3" stroke-linecap="round" stroke-linejoin="round"/>
<path d="M249 64C249 50.7314 238.269 40 225 40L228.6 46" stroke="white" stroke-width="3" stroke-linecap="round" stroke-linejoin="round"/>
</svg>
