<svg width="21" height="22" viewBox="0 0 21 22" fill="none" xmlns="http://www.w3.org/2000/svg">
<path fill-rule="evenodd" clip-rule="evenodd" d="M16.4961 7.5C18.5672 7.5 20.2461 5.82107 20.2461 3.75C20.2461 1.67893 18.5672 0 16.4961 0C14.425 0 12.7461 1.67893 12.7461 3.75C12.7461 3.98674 12.768 4.21835 12.81 4.44292L6.42737 8.14484C5.77269 7.58682 4.92373 7.25 3.99609 7.25C1.92502 7.25 0.246094 8.92893 0.246094 11C0.246094 13.0711 1.92502 14.75 3.99609 14.75C4.92373 14.75 5.77269 14.4132 6.42737 13.8552L12.81 17.5571C12.768 17.7816 12.7461 18.0133 12.7461 18.25C12.7461 20.3211 14.425 22 16.4961 22C18.5672 22 20.2461 20.3211 20.2461 18.25C20.2461 16.1789 18.5672 14.5 16.4961 14.5C15.5685 14.5 14.7195 14.8368 14.0648 15.3948L7.68221 11.6929C7.72416 11.4683 7.74609 11.2367 7.74609 11C7.74609 10.7633 7.72416 10.5317 7.68221 10.3071L14.0648 6.60518C14.7195 7.16318 15.5685 7.5 16.4961 7.5ZM17.7461 3.75C17.7461 4.44036 17.1865 5 16.4961 5C15.8057 5 15.2461 4.44036 15.2461 3.75C15.2461 3.05964 15.8057 2.5 16.4961 2.5C17.1865 2.5 17.7461 3.05964 17.7461 3.75ZM3.99609 12.25C4.68645 12.25 5.24609 11.6904 5.24609 11C5.24609 10.3096 4.68645 9.75 3.99609 9.75C3.30573 9.75 2.74609 10.3096 2.74609 11C2.74609 11.6904 3.30573 12.25 3.99609 12.25ZM16.4961 19.5C17.1865 19.5 17.7461 18.9404 17.7461 18.25C17.7461 17.5596 17.1865 17 16.4961 17C15.8057 17 15.2461 17.5596 15.2461 18.25C15.2461 18.9404 15.8057 19.5 16.4961 19.5Z" fill="white"/>
</svg>
