<?xml version="1.0" encoding="UTF-8"?>
<svg xmlns="http://www.w3.org/2000/svg" xmlns:xlink="http://www.w3.org/1999/xlink" width="18px" height="29px" viewBox="0 0 18 28" version="1.1">
<g id="surface1">
<path style=" stroke:none;fill-rule:nonzero;fill:rgb(21.960784%,41.176471%,89.803922%);fill-opacity:1;" d="M 8.761719 16.035156 L 8.761719 13.242188 L 3.023438 18.820312 C 2.429688 19.402344 1.710938 19.402344 1.113281 18.820312 C 0.515625 18.242188 0.515625 17.542969 1.113281 16.960938 L 6.847656 11.382812 L 3.980469 11.382812 C 3.261719 11.382812 2.664062 10.804688 2.664062 10.109375 C 2.664062 9.410156 3.261719 8.832031 3.980469 8.832031 L 10.078125 8.832031 C 10.433594 8.832031 10.792969 8.945312 11.03125 9.179688 C 11.269531 9.410156 11.390625 9.757812 11.390625 10.109375 L 11.390625 16.035156 C 11.390625 16.730469 10.792969 17.3125 10.078125 17.3125 C 9.238281 17.3125 8.761719 16.617188 8.761719 16.035156 Z M 8.761719 16.035156 "/>
<path style=" stroke:none;fill-rule:nonzero;fill:rgb(21.960784%,41.176471%,89.803922%);fill-opacity:1;" d="M 13.660156 0.582031 L 4.21875 0.582031 C 2.308594 0.582031 0.871094 2.089844 0.871094 3.835938 L 0.871094 6.039062 C 0.871094 6.621094 1.46875 7.085938 1.949219 7.085938 L 2.066406 7.085938 C 2.785156 7.085938 3.144531 6.507812 3.144531 6.039062 L 3.144531 4.300781 L 14.617188 4.300781 L 14.617188 24.976562 L 3.144531 24.976562 L 3.144531 21.84375 C 3.144531 21.144531 2.546875 20.796875 2.066406 20.796875 L 1.949219 20.796875 C 1.234375 20.796875 0.871094 21.378906 0.871094 21.84375 L 0.871094 24.050781 C 0.871094 25.910156 2.429688 27.304688 4.21875 27.304688 L 13.660156 27.304688 C 15.570312 27.304688 17.007812 25.792969 17.007812 24.050781 L 17.007812 3.835938 C 17.007812 2.089844 15.570312 0.582031 13.660156 0.582031 Z M 13.660156 0.582031 "/>
<path style=" stroke:none;fill-rule:nonzero;fill:rgb(92.54902%,93.72549%,94.117647%);fill-opacity:1;" d="M 9.714844 2.671875 C 9.714844 3.183594 9.289062 3.601562 8.761719 3.601562 C 8.234375 3.601562 7.804688 3.183594 7.804688 2.671875 C 7.804688 2.160156 8.234375 1.742188 8.761719 1.742188 C 9.289062 1.742188 9.714844 2.160156 9.714844 2.671875 Z M 9.714844 2.671875 "/>
</g>
</svg>
