<svg width="100" height="100" viewBox="0 0 100 100" fill="none" xmlns="http://www.w3.org/2000/svg">
<g id="Sister_Large" clip-path="url(#clip0_4680_6737)">
<rect width="100" height="100" />
<g id="Group 37526">
<g id="Group 37393" filter="url(#filter0_d_4680_6737)">
<g id="Mask Group">
<mask id="mask0_4680_6737" style="mask-type:alpha" maskUnits="userSpaceOnUse" x="0" y="0" width="100" height="100">
<g id="Group 359">
<circle id="Ellipse 95" cx="50" cy="50" r="50" fill="#DDE1F0"/>
<mask id="mask1_4680_6737" style="mask-type:alpha" maskUnits="userSpaceOnUse" x="0" y="0" width="100" height="100">
<g id="Ellipse 94">
<circle cx="50" cy="50" r="50" fill="#DDE1F0"/>
<circle cx="50" cy="50" r="49.5" stroke="black" stroke-opacity="0.5"/>
</g>
</mask>
<g mask="url(#mask1_4680_6737)">
</g>
</g>
</mask>
<g mask="url(#mask0_4680_6737)">
<g id="Layer 2">
<g id="avatar">
<g id="Group">
<g id="Vector">
<path d="M65.1016 23.6486C51.133 25.6853 54.1712 37.0387 56.9649 50.9736C58.2159 57.1549 53.5995 64.8199 58.7247 68.4564C63.8498 72.0929 78.3279 71.4253 84.5275 70.5304C81.6943 63.697 80.0729 59.1892 77.3454 40.4832C74.6179 21.7771 64.1751 30.0788 65.1016 23.6486Z" fill="#3869E5"/>
<path d="M32.3054 23.6486C46.2741 25.6854 43.2359 37.0387 40.4421 50.9736C39.1912 57.1549 43.8075 64.8199 38.6824 68.4564C33.5573 72.0929 19.0792 71.4253 12.8796 70.5305C15.7127 63.697 17.3341 59.1892 20.0616 40.4832C22.7891 21.7771 33.2319 30.0789 32.3054 23.6486Z" fill="#3869E5"/>
</g>
<path id="Vector_2" d="M41.456 84.4248H56.5179C57.4477 84.4248 58.3394 84.7917 58.9969 85.4446C59.6543 86.0976 60.0237 86.9833 60.0237 87.9068V105.016H37.9502V87.9047C37.9507 86.9816 38.3204 86.0965 38.9778 85.4439C39.6352 84.7914 40.5266 84.4248 41.456 84.4248V84.4248Z" fill="#3869E5"/>
<path id="Vector_3" d="M41.922 91.5381H37.9365V106.152H41.922V91.5381Z" fill="#45CBF6"/>
<path id="Vector_4" d="M56.1442 106.15H60.0254V91.5369H56.1442V106.15Z" fill="#45CBF6"/>
<path id="Vector_5" d="M44.1758 77.2314H53.8632V86.5526C53.8637 87.1842 53.739 87.8097 53.4961 88.3935C53.2533 88.9772 52.897 89.5078 52.4477 89.9548C51.9985 90.4018 51.4649 90.7565 50.8776 90.9987C50.2903 91.241 49.6606 91.3659 49.0247 91.3664V91.3664C47.7403 91.3664 46.5086 90.8597 45.6004 89.9577C44.6922 89.0557 44.182 87.8323 44.182 86.5567V77.2356L44.1758 77.2314Z" fill="#45CBF6"/>
<path id="Vector_6" d="M69.0909 61.9138C80.1941 50.8677 80.1941 32.9585 69.0909 21.9124C57.9876 10.8663 39.9857 10.8663 28.8825 21.9124C17.7793 32.9585 17.7793 50.8677 28.8825 61.9138C39.9857 72.9599 57.9876 72.9599 69.0909 61.9138Z" fill="#3869E5"/>
<path id="Vector_7" d="M71.8183 47.9742C71.8183 35.4682 61.6107 25.3301 49.019 25.3301C36.4273 25.3301 26.2197 35.4682 26.2197 47.9742V59.286C26.2197 71.792 36.4273 81.9301 49.019 81.9301C61.6107 81.9301 71.8183 71.792 71.8183 59.286V47.9742Z" fill="#45CBF6"/>
<path id="Vector_8" d="M73.6786 48.4319C73.6786 34.3155 61.8786 22.7614 47.6864 23.5154C41.3893 23.8614 35.4641 26.5873 31.1262 31.1342C26.7883 35.681 24.3664 41.704 24.3574 47.9679C31.5281 46.1503 30.1152 45.5218 49.0191 45.5218C67.9229 45.5218 67.4494 46.5873 73.6786 48.4319Z" fill="#3869E5"/>
</g>
</g>
</g>
</g>
</g>
</g>
<path id="Vector_9" d="M55.557 52.9417C55.8037 52.9417 56.0403 53.039 56.2148 53.2122C56.3892 53.3855 56.4872 53.6205 56.4872 53.8655C56.5038 54.3712 56.7177 54.8506 57.0838 55.2025C57.4498 55.5544 57.9393 55.7511 58.4487 55.7511C58.9581 55.7511 59.4475 55.5544 59.8136 55.2025C60.1796 54.8506 60.3935 54.3712 60.4101 53.8655C60.4101 53.6205 60.5081 53.3855 60.6826 53.2122C60.857 53.039 61.0936 52.9417 61.3403 52.9417C61.587 52.9417 61.8236 53.039 61.998 53.2122C62.1724 53.3855 62.2704 53.6205 62.2704 53.8655C62.2823 54.3714 62.1923 54.8746 62.0056 55.3455C61.8189 55.8163 61.5393 56.2454 61.1832 56.6074C60.8271 56.9694 60.4018 57.257 59.9322 57.4534C59.4626 57.6498 58.9582 57.751 58.4487 57.751C57.9391 57.751 57.4347 57.6498 56.9651 57.4534C56.4955 57.257 56.0702 56.9694 55.7141 56.6074C55.3581 56.2454 55.0785 55.8163 54.8918 55.3455C54.705 54.8746 54.615 54.3714 54.6269 53.8655C54.6269 53.6205 54.7249 53.3855 54.8993 53.2122C55.0738 53.039 55.3104 52.9417 55.557 52.9417Z" fill="#3869E5"/>
<path id="Vector_10" d="M35.433 52.9417C35.6797 52.9417 35.9163 53.039 36.0907 53.2122C36.2652 53.3855 36.3632 53.6205 36.3632 53.8655C36.3798 54.3712 36.5937 54.8506 36.9597 55.2025C37.3258 55.5544 37.8152 55.7511 38.3246 55.7511C38.8341 55.7511 39.3235 55.5544 39.6895 55.2025C40.0556 54.8506 40.2695 54.3712 40.2861 53.8655C40.2861 53.6205 40.3841 53.3855 40.5585 53.2122C40.733 53.039 40.9696 52.9417 41.2163 52.9417C41.463 52.9417 41.6995 53.039 41.874 53.2122C42.0484 53.3855 42.1464 53.6205 42.1464 53.8655C42.1583 54.3714 42.0683 54.8746 41.8815 55.3455C41.6948 55.8163 41.4152 56.2454 41.0592 56.6074C40.7031 56.9694 40.2778 57.257 39.8082 57.4534C39.3386 57.6498 38.8342 57.751 38.3246 57.751C37.8151 57.751 37.3107 57.6498 36.8411 57.4534C36.3715 57.257 35.9462 56.9694 35.5901 56.6074C35.2341 56.2454 34.9544 55.8163 34.7677 55.3455C34.581 54.8746 34.491 54.3714 34.5029 53.8655C34.5026 53.7441 34.5265 53.6238 34.5731 53.5116C34.6198 53.3994 34.6883 53.2975 34.7747 53.2116C34.8611 53.1258 34.9638 53.0578 35.0767 53.0114C35.1897 52.9651 35.3108 52.9414 35.433 52.9417Z" fill="#3869E5"/>
<path id="Vector_11" d="M38.8232 63.5293C45.3114 78.0863 51.6917 78.5932 57.9619 63.5293H38.8232Z" fill="#3869E5"/>
</g>
</g>
<defs>
<filter id="filter0_d_4680_6737" x="7.87988" y="8.62793" width="91.6475" height="106.372" filterUnits="userSpaceOnUse" color-interpolation-filters="sRGB">
<feFlood flood-opacity="0" result="BackgroundImageFix"/>
<feColorMatrix in="SourceAlpha" type="matrix" values="0 0 0 0 0 0 0 0 0 0 0 0 0 0 0 0 0 0 127 0" result="hardAlpha"/>
<feOffset dx="5" dy="5"/>
<feGaussianBlur stdDeviation="5"/>
<feComposite in2="hardAlpha" operator="out"/>
<feColorMatrix type="matrix" values="0 0 0 0 0.176471 0 0 0 0 0.764706 0 0 0 0 0.952941 0 0 0 0.15 0"/>
<feBlend mode="normal" in2="BackgroundImageFix" result="effect1_dropShadow_4680_6737"/>
<feBlend mode="normal" in="SourceGraphic" in2="effect1_dropShadow_4680_6737" result="shape"/>
</filter>
<clipPath id="clip0_4680_6737">
<rect width="100" height="100" fill="white"/>
</clipPath>
</defs>
</svg>
