<svg width="48" height="48" viewBox="0 0 48 48" fill="none" xmlns="http://www.w3.org/2000/svg">
<path d="M15.7979 27.8735C15.7979 27.8735 18.7354 31.7902 23.6312 31.7902C28.527 31.7902 31.4645 27.8735 31.4645 27.8735M33.4229 18.5519C32.6493 19.5017 31.5918 20.0402 30.4854 20.0402C29.3789 20.0402 28.3508 19.5017 27.5479 18.5519M19.7145 18.5519C18.941 19.5017 17.8835 20.0402 16.777 20.0402C15.6706 20.0402 14.6424 19.5017 13.8395 18.5519M43.2145 23.9569C43.2145 34.7724 34.4468 43.5402 23.6312 43.5402C12.8156 43.5402 4.04785 34.7724 4.04785 23.9569C4.04785 13.1413 12.8156 4.37354 23.6312 4.37354C34.4468 4.37354 43.2145 13.1413 43.2145 23.9569Z" stroke="white" stroke-width="3" stroke-linecap="round" stroke-linejoin="round"/>
</svg>
