<svg xmlns="http://www.w3.org/2000/svg" width="49" height="49" fill="none" xmlns:v="https://vecta.io/nano"><path d="M19.188 31.144l.002.009.003.009c.712 2.377 3.213 3.34 5.307 3.34s4.598-.965 5.307-3.34h0l.002-.008c.132-.472.444-.873.868-1.118s.928-.314 1.402-.192.883.424 1.137.843.333.911.227 1.384c-1.161 3.891-4.888 6.182-8.945 6.182-3.926 0-7.973-2.286-8.944-6.172v-.002c-.122-.481-.049-.991.204-1.418s.665-.736 1.146-.86.991-.052 1.419.2.738.663.863 1.144zm-8.476-20.432a19.5 19.5 0 0 0 0 27.579 19.5 19.5 0 0 0 27.577 0 19.5 19.5 0 0 0 0-27.578 19.5 19.5 0 0 0-27.577 0zM1.25 24.501C1.25 11.66 11.659 1.25 24.5 1.25s23.25 10.41 23.25 23.251S37.341 47.752 24.5 47.752 1.25 37.343 1.25 24.501zm19.188-4.75c0 .812-.323 1.591-.897 2.166s-1.353.897-2.166.897-1.591-.323-2.165-.897-.897-1.353-.897-2.166.323-1.591.897-2.166a3.06 3.06 0 0 1 4.331 0c.574.574.897 1.353.897 2.166zm13.353 2.166c-.574.574-1.353.897-2.166.897s-1.591-.323-2.166-.897-.897-1.353-.897-2.166.323-1.591.897-2.166a3.06 3.06 0 0 1 4.331 0c.574.574.897 1.353.897 2.166s-.323 1.591-.897 2.166z" fill="#fff" stroke="#3869e5"/></svg>