<svg xmlns="http://www.w3.org/2000/svg" xmlns:xlink="http://www.w3.org/1999/xlink" width="181" height="51" fill="none" xmlns:v="https://vecta.io/nano"><g fill="#fff"><path d="M48.244 36.91c-1.927 2.332-4.005 4.259-7.301 5.729-6.946 3.093-15.768 2.941-24.743-6.895-.406-.456-.558-.101-.355.152 5.375 6.541 12.828 11.459 21.802 9.532 4.462-.963 7.656-2.738 10.901-6.186 2.028-2.18.304-2.941-.304-2.332z"/><use xlink:href="#B"/><use xlink:href="#B" stroke="#fff" stroke-width=".658" stroke-miterlimit="10"/><path d="M62.086 13.183c-.558-1.623-1.318-3.042-2.18-4.36-.254-.406-.507-.761-.811-1.115C55.546 3.042 50.019 0 43.833 0c-.608 0-1.217.051-1.825.101-1.217.101-2.383.355-3.498.659-.254.101-.558.152-.811.254-5.172 1.775-9.076 5.932-11.56 10.85-.203.355-1.116 2.332-2.637.254-2.383-3.245-6.135-5.476-10.394-5.476-1.318 0-2.535.203-3.752.608-.051 0-.152.051-.203.051C5.198 8.67 2.105 12.017.787 16.174c-2.637 8.315 1.876 18.507 5.83 23.273 1.166 1.623 2.231 2.89 4.259 4.614.254.203.456.355.608.406.051.051.558.152-.101-.406C6.11 39.345.989 29.053 3.373 19.368c.456-1.775 1.115-3.144 2.282-4.665.608-.811 1.369-1.521 2.231-2.13 1.825-1.318 4.005-2.079 6.389-2.079 3.498 0 6.236 1.825 8.265 4.36 2.332 2.839 4.36.456 4.918-.355 2.991-4.208 6.642-10.09 14.805-10.597h.203c1.217-.051 2.485 0 3.701.203 5.983.963 11.56 5.07 14.197 13.335 1.47 4.563 1.268 10.141.659 13.943-1.673 10.191-8.062 16.174-12.625 18.963-.811.507-.659.761 0 .608 1.166-.406 2.738-1.268 3.955-2.18 7.25-5.324 12.017-14.095 12.017-24.033a30.31 30.31 0 0 0-2.282-11.56zm44.516 18.15c.761-1.065 1.623-1.014 2.079.811.152.456.051 1.775-1.115 1.673-1.116-.051-1.775-1.369-.964-2.484zm-32.906 8.925c1.116-1.622 1.369-3.752.761-5.729-.507-1.521-1.42-2.789-2.434-3.143a4.07 4.07 0 0 0-1.521-.304c-.761-.051-1.47.152-2.129.507-1.42.761-2.485 2.383-2.839 4.665-.608 3.803-2.991 7.2-5.729 10.85-1.927 2.586-3.296 3.143-2.383 3.143.811 0 2.738-1.927 2.738-1.927 3.904-3.6 6.49-7.555 6.49-7.605l.355-.152c.913 1.217 1.876 1.825 2.941 1.825 2.079-.051 3.752-2.129 3.752-2.129zm-5.324-.862c-.507-.507-.811-1.268-.913-2.18-.203-1.927.963-3.803 2.535-3.955.761-.101 1.521.203 2.079.811.507.558.862 1.369.963 2.282.203 1.876-.963 3.499-2.636 3.701h-.456c-.608-.051-1.166-.254-1.572-.659zm15.719-4.006c0-.051-.254-3.752-2.941-4.259-.203-.051-.456-.051-.659-.051-.913 0-1.775.355-2.484.963-1.42 1.217-2.13 3.397-1.977 5.882.152 2.535 1.623 3.904 2.992 4.158 1.267.203 2.941-.406 3.853-2.789l.152-.355.203.355c.456.71 1.775 2.586 2.687 2.738.456.051.862-.101 1.014-.456.152-.406 0-1.166-1.014-1.927l-.76-.558c-1.065-.71-1.065-.761-1.065-2.079V35.39zm-2.028 2.484c-.608 1.47-1.369 2.231-2.282 2.282h-.101c-.913 0-1.673-.71-2.079-1.369-.507-.913-.608-2.586 0-3.904.406-.862 1.065-1.369 1.927-1.521.71-.101 1.268 0 1.775.355.913.71 1.014 2.028 1.014 2.079.101 1.115-.254 2.028-.254 2.079zm6.642 1.572c.71 1.521 1.673 2.383 2.839 2.586 1.115.152 2.282-.304 3.194-1.268.963-1.014.76-1.724.71-1.876-.101-.203-.254-.355-.406-.355-.355 0-.608.254-.963.608-.355.406-.862.913-1.673.963-.71.051-1.268-.152-1.724-.558-1.166-1.115-1.268-3.701-1.166-5.831v-.152l.152-.051c.862-.203 1.268-.406 2.129-1.166.304-.253.355-.558.254-.71s-.406-.254-.811 0c-.101.051-.152.051-.203.101-.304.152-.456.254-1.166.304h-.254v-.254c.254-2.383.355-2.839.71-4.411.101-.355.152-.811.304-1.318.101-.456.304-1.014.507-1.623.558-1.825-.101-1.876-.203-1.825-.659.253-1.318 1.42-2.079 3.955-.406 1.369-.659 2.079-.963 5.02l-.051.253-.254-.101c-.355-.101-.659-.254-1.014-.456-.507-.253-.963-.406-1.268-.406-.203 0-.406.051-.507.203-.203.304-.051.913.355 1.268.507.406 1.268 1.014 2.383 1.217l.152.051v.152c.051 2.434.406 4.31 1.014 5.679zm13.739 2.637c.254.101.457 0 .507-.051 1.369-3.042 1.065-7.251 0-9.532-.354-.811-.811-1.318-1.267-1.47-.406-.101-.761-.101-1.116.152-1.368.811-2.028 3.651-2.028 3.701l-.254 1.166-.152-1.166c-.355-3.093-1.521-11.357-2.738-12.321-.101-.101-.152-.051-.203-.051-.659.101-.558 2.687-.304 4.462.152 2.586 1.775 12.017 2.535 13.892.456 1.217.761 1.217.811 1.217.152 0 .406-.507.558-1.318.051-.203.051-.456.101-.761.406-2.789.862-5.527 1.978-6.287.152-.101.253-.101.355-.101a.39.39 0 0 1 .253.101c1.065.659.71 6.135.558 7.2-.051.608.051 1.065.405 1.166zm6.492.202c-.609-.761-1.927-2.332-1.724-5.324.101-1.318-.152-1.673-.304-1.775-.051-.051-.153-.051-.203-.051-.102 0-.203.051-.203.051-1.115.507-1.318 3.397-.71 5.121.811 2.231 1.623 2.484 2.434 2.484.76-.101.811-.355.71-.507zm7.605-10.24h-.203c-1.521 0-3.651.507-5.375 2.839-.912 1.267-1.217 3.143-.709 4.766.304 1.014 1.064 2.332 2.89 2.941 3.802 1.318 7.706.456 9.887-.71.76-.406.202-.963-.609-.862-1.42.203-3.803.608-5.932.101-2.332-.558-3.549-1.927-3.955-3.549-.253-1.014.102-2.028.862-2.636 1.775-1.42 3.296-1.217 4.614-1.014.558.101 1.115.152 1.673.101.254-.051.457-.152.558-.304s.101-.304.051-.456c-.203-.203-1.724-1.166-3.752-1.217zm29.508 3.345c0-.051-.253-3.752-2.941-4.259-.202-.051-.456-.051-.659-.051-.912 0-1.774.355-2.484.963-1.42 1.217-2.13 3.397-1.977 5.882.152 2.535 1.622 3.904 2.991 4.158 1.268.203 2.941-.406 3.853-2.789l.152-.355.203.355c.457.71 1.775 2.586 2.688 2.738.456.051.861-.101 1.014-.456.152-.406 0-1.166-1.014-1.927l-.761-.558c-1.065-.71-1.065-.761-1.065-2.079.051-.406.051-.913 0-1.623zm-1.977 2.484c-.609 1.47-1.369 2.231-2.282 2.282h-.101c-.913 0-1.673-.71-2.079-1.369-.507-.913-.608-2.586 0-3.904.406-.862 1.065-1.369 1.927-1.521.71-.101 1.267 0 1.774.355.913.71 1.014 2.028 1.014 2.079.102 1.115-.253 2.028-.253 2.079zm-12.421-16.629c.861-1.876 2.078-2.941 3.498-3.194 1.369-.203 2.839.406 4.005 1.622 1.167 1.268.964 2.13.862 2.332-.101.253-.304.406-.507.406-.456 0-.76-.304-1.166-.761-.456-.507-1.065-1.115-2.079-1.217-.861-.051-1.571.152-2.129.71-1.47 1.42-1.521 4.614-1.47 7.2v.203l.202.051c1.065.253 1.572.456 2.637 1.42.355.304.456.659.304.913-.152.203-.507.304-1.014.051-.101-.051-.152-.101-.253-.152-.355-.203-.558-.304-1.42-.355h-.304l.05.304c.305 2.941.457 3.549.862 5.476l.355 1.623c.102.558.406 1.267.609 1.977.709 2.282-.102 2.332-.254 2.282-.811-.355-1.622-1.775-2.586-4.867-.507-1.673-.811-2.586-1.217-6.236l-.05-.304-.304.101c-.406.152-.812.304-1.268.558-.608.355-1.166.507-1.572.507a.84.84 0 0 1-.608-.253c-.254-.406-.051-1.166.456-1.521.609-.456 1.623-1.268 2.941-1.521l.203-.051v-.203c0-3.042.405-5.425 1.217-7.098zm33.26 9.228c.76-1.065 1.622-1.014 2.078.811.152.456.051 1.775-1.115 1.673-1.116-.051-1.775-1.42-.963-2.485zm2.332 10.901c-.608-.761-1.926-2.332-1.724-5.324.102-1.318-.152-1.673-.304-1.775-.05-.051-.152-.051-.203-.051-.101 0-.202.051-.202.051-1.116.507-1.319 3.397-.71 5.121.811 2.231 1.622 2.484 2.433 2.484.761-.051.862-.355.71-.507zm-13.993 0c-.609-.761-1.927-2.332-1.724-5.324.101-1.318-.152-1.673-.304-1.775-.051-.051-.153-.051-.203-.051-.102 0-.203.051-.203.051-1.116.507-1.318 3.397-.71 5.121.811 2.231 1.623 2.484 2.434 2.484.71-.051.811-.355.71-.507z"/><path d="M153.554 34.883c.609-.304.761-.101.862 0-.051-.101.558 1.825.71 2.738.203 1.014.862 3.955 1.521 3.955.608-.051.963-3.752.659-5.02a10.77 10.77 0 0 0-.456-1.724c-.203-.659-.406-1.369-1.014-1.825-1.065-.811-2.586-.507-3.6.152-1.065.71-1.775 1.775-2.231 2.941-.254.558.558 1.977.811 1.47.964-1.825 2.637-2.637 2.738-2.687z"/><path d="M159.435 36.354c.051.507.305 5.881 1.167 5.577.608-.203 2.078-4.411-.153-8.569-.405-.811-1.267-1.115-2.18-.963-.659.101-1.267.456-1.774.862-.913.761-1.471 2.028-1.369 3.245.05.608 1.166 1.876 1.216 1.217.153-4.614 2.891-3.093 3.093-1.369zm9.228-12.117c-.101 2.079.101 4.158.254 6.236.202 2.687.507 5.425 1.064 8.062.203 1.116.659 4.056 1.572 4.361.862.304-.608-11.966-.71-14.552-.05-.963-.101-1.927-.05-2.89.05-.609-.102-2.282-.913-2.383-.71-.101-1.217.456-1.217 1.166zm4.664 9.429c-.304 1.977.304 4.005 1.318 5.679.812 1.267 2.181 2.941 3.904 2.789.558-.051 1.116-.456 1.065-1.065 0-.558.406-1.825-.203-1.775-.05 0-.963.71-1.014.71s-2.839 1.065-4.005-7.2c0-.507-.811-1.166-1.065.862z"/><path d="M178.854 33.82c.101.963.101 1.927.101 2.89 0 .406-.05.761-.101 1.166 0 .101 0 .203-.051.304-.051.304.051-.203 0 .101-.051.203-.051.456-.101.659-.152.71-.304 1.369-.558 2.028l-.152.456c-.101.254.101-.203 0 .051-.051.051-.051.152-.101.203a6.14 6.14 0 0 1-.406.811l-.456.761c-.102.101-.153.254-.254.355-.051.051-.355.456-.152.203-.304.406-.659.761-1.014 1.115-.304.304-1.065.963-1.116.963-.101.051-.152.101-.253.203-.152.101-.304.203-.456.355l-1.724 1.014c-1.724 1.014-.913 1.673-.406 1.47 5.73-2.535 8.113-6.186 8.67-8.721.457-2.028.71-3.853.304-5.881-.304-1.47-.659-2.129-1.318-2.129-.507-.051-.507 1.065-.456 1.622z"/></g><defs ><path id="B" d="M18.786 28.191c.507-.811-.304-1.47-.862-.608-2.586 4.513-8.163 2.079-7.605 2.383 1.775 1.014 5.679 2.332 8.467-1.775z"/></defs></svg>