<svg width="22" height="23" viewBox="0 0 22 23" fill="none" xmlns="http://www.w3.org/2000/svg">
<path fill-rule="evenodd" clip-rule="evenodd" d="M11 2.60146C9.8181 2.60146 8.64778 2.83424 7.55585 3.28651C6.46392 3.73878 5.47177 4.40169 4.63604 5.23737C3.80031 6.07306 3.13738 7.06516 2.68508 8.15704C2.23279 9.24891 2 10.4192 2 11.601C2 12.7829 2.23279 13.9531 2.68508 15.045C3.13738 16.1369 3.80031 17.129 4.63604 17.9647C5.47177 18.8003 6.46392 19.4633 7.55585 19.9155C8.64778 20.3678 9.8181 20.6006 11 20.6006C13.3869 20.6006 15.6761 19.6524 17.364 17.9647C19.0518 16.2769 20 13.9878 20 11.601C20 9.21419 19.0518 6.92512 17.364 5.23737C15.6761 3.54963 13.3869 2.60146 11 2.60146ZM0 11.601C0 5.52632 4.925 0.601562 11 0.601562C17.075 0.601562 22 5.52632 22 11.601C22 17.6757 17.075 22.6005 11 22.6005C4.925 22.6005 0 17.6757 0 11.601ZM15.95 6.65126C16.1375 6.83878 16.2428 7.09308 16.2428 7.35823C16.2428 7.62338 16.1375 7.87767 15.95 8.06519L12.932 11.083C13.023 11.4222 13.0231 11.7794 12.9323 12.1186C12.8414 12.4578 12.6629 12.7672 12.4145 13.0155C12.1662 13.2638 11.8569 13.4424 11.5176 13.5332C11.1784 13.624 10.8212 13.6239 10.482 13.5329L7.464 16.5508C7.2754 16.7329 7.0228 16.8337 6.7606 16.8314C6.4984 16.8292 6.24759 16.724 6.06218 16.5386C5.87677 16.3532 5.7716 16.1024 5.76933 15.8402C5.76705 15.578 5.86784 15.3254 6.05 15.1368L9.068 12.119C8.97698 11.7798 8.97688 11.4226 9.06772 11.0834C9.15855 10.7442 9.33712 10.4349 9.58545 10.1865C9.83378 9.93822 10.1431 9.75966 10.4824 9.66883C10.8216 9.578 11.1788 9.5781 11.518 9.66911L14.536 6.65126C14.7235 6.4638 14.9778 6.35849 15.243 6.35849C15.5082 6.35849 15.7625 6.4638 15.95 6.65126ZM6 11.601C6 11.8662 5.89464 12.1206 5.70711 12.3081C5.51957 12.4956 5.26522 12.601 5 12.601C4.73478 12.601 4.48043 12.4956 4.29289 12.3081C4.10536 12.1206 4 11.8662 4 11.601C4 11.3358 4.10536 11.0815 4.29289 10.8939C4.48043 10.7064 4.73478 10.6011 5 10.6011C5.26522 10.6011 5.51957 10.7064 5.70711 10.8939C5.89464 11.0815 6 11.3358 6 11.601ZM17 12.601C17.2652 12.601 17.5196 12.4956 17.7071 12.3081C17.8946 12.1206 18 11.8662 18 11.601C18 11.3358 17.8946 11.0815 17.7071 10.8939C17.5196 10.7064 17.2652 10.6011 17 10.6011C16.7348 10.6011 16.4804 10.7064 16.2929 10.8939C16.1054 11.0815 16 11.3358 16 11.601C16 11.8662 16.1054 12.1206 16.2929 12.3081C16.4804 12.4956 16.7348 12.601 17 12.601ZM12 17.6007C12 17.8659 11.8946 18.1203 11.7071 18.3078C11.5196 18.4953 11.2652 18.6007 11 18.6007C10.7348 18.6007 10.4804 18.4953 10.2929 18.3078C10.1054 18.1203 10 17.8659 10 17.6007C10 17.3355 10.1054 17.0812 10.2929 16.8936C10.4804 16.7061 10.7348 16.6008 11 16.6008C11.2652 16.6008 11.5196 16.7061 11.7071 16.8936C11.8946 17.0812 12 17.3355 12 17.6007ZM11 6.60126C11.2652 6.60126 11.5196 6.49591 11.7071 6.30839C11.8946 6.12086 12 5.86652 12 5.60131C12 5.33611 11.8946 5.08177 11.7071 4.89424C11.5196 4.70672 11.2652 4.60136 11 4.60136C10.7348 4.60136 10.4804 4.70672 10.2929 4.89424C10.1054 5.08177 10 5.33611 10 5.60131C10 5.86652 10.1054 6.12086 10.2929 6.30839C10.4804 6.49591 10.7348 6.60126 11 6.60126Z" fill="white"/>
</svg>
