<svg width="18" height="24" viewBox="0 0 18 24" fill="none" xmlns="http://www.w3.org/2000/svg">
<path fill-rule="evenodd" clip-rule="evenodd" d="M15 23.0898C14.7348 23.0898 14.4804 22.9845 14.2929 22.797C14.1054 22.6094 14 22.3551 14 22.0899L14 17.0901C14 16.8249 14.1054 16.5706 14.2929 16.3831C14.4804 16.1955 14.7348 16.0902 15 16.0902C15.2652 16.0902 15.5196 16.1955 15.7071 16.3831C15.8946 16.5706 16 16.8249 16 17.0901L16 22.0899C16 22.3551 15.8946 22.6094 15.7071 22.797C15.5196 22.9845 15.2652 23.0898 15 23.0898ZM11 23.0898C10.7348 23.0898 10.4804 22.9845 10.2929 22.797C10.1054 22.6094 10 22.3551 10 22.0899L10 17.0901C10 16.8249 10.1054 16.5706 10.2929 16.3831C10.4804 16.1955 10.7348 16.0902 11 16.0902C11.2652 16.0902 11.5196 16.1955 11.7071 16.3831C11.8946 16.5706 12 16.8249 12 17.0901L12 22.0899C12 22.3551 11.8946 22.6094 11.7071 22.797C11.5196 22.9845 11.2652 23.0898 11 23.0898ZM7 23.0898C6.73478 23.0898 6.48043 22.9845 6.29289 22.797C6.10536 22.6094 6 22.3551 6 22.0899L6 17.0901C6 16.8249 6.10536 16.5706 6.29289 16.3831C6.48043 16.1955 6.73478 16.0902 7 16.0902C7.26522 16.0902 7.51957 16.1955 7.70711 16.3831C7.89464 16.5706 8 16.8249 8 17.0901L8 22.0899C8 22.3551 7.89464 22.6094 7.70711 22.797C7.51957 22.9845 7.26522 23.0898 7 23.0898ZM3 23.0898C2.73478 23.0898 2.48043 22.9845 2.29289 22.797C2.10536 22.6094 2 22.3551 2 22.0899L2 17.0901C2 16.8249 2.10536 16.5706 2.29289 16.3831C2.48043 16.1955 2.73478 16.0902 3 16.0902C3.26522 16.0902 3.51957 16.1955 3.70711 16.3831C3.89464 16.5706 4 16.8249 4 17.0901L4 22.0899C4 22.3551 3.89464 22.6094 3.70711 22.797C3.51957 22.9845 3.26522 23.0898 3 23.0898ZM18 14.0903C18 14.3555 17.8946 14.6098 17.7071 14.7974C17.5196 14.9849 17.2652 15.0902 17 15.0902L1 15.0902C0.734784 15.0902 0.480429 14.9849 0.292893 14.7974C0.105357 14.6098 7.63582e-07 14.3555 7.86767e-07 14.0903C8.09952e-07 13.8251 0.105357 13.5707 0.292893 13.3832C0.48043 13.1957 0.734784 13.0903 1 13.0903L17 13.0903C17.2652 13.0903 17.5196 13.1957 17.7071 13.3832C17.8946 13.5707 18 13.8251 18 14.0903Z" fill="white"/>
<path d="M14.2929 22.797C14.4804 22.9845 14.7348 23.0898 15 23.0898C15.2652 23.0898 15.5196 22.9845 15.7071 22.797C15.8946 22.6094 16 22.3551 16 22.0899L16 17.0901C16 16.8249 15.8946 16.5706 15.7071 16.3831C15.5196 16.1955 15.2652 16.0902 15 16.0902C14.7348 16.0902 14.4804 16.1955 14.2929 16.3831C14.1054 16.5706 14 16.8249 14 17.0901L14 22.0899C14 22.3551 14.1054 22.6094 14.2929 22.797Z" fill="white"/>
<path d="M10.2929 22.797C10.4804 22.9845 10.7348 23.0898 11 23.0898C11.2652 23.0898 11.5196 22.9845 11.7071 22.797C11.8946 22.6094 12 22.3551 12 22.0899L12 17.0901C12 16.8249 11.8946 16.5706 11.7071 16.3831C11.5196 16.1955 11.2652 16.0902 11 16.0902C10.7348 16.0902 10.4804 16.1955 10.2929 16.3831C10.1054 16.5706 10 16.8249 10 17.0901L10 22.0899C10 22.3551 10.1054 22.6094 10.2929 22.797Z" fill="white"/>
<path d="M10.2929 11.5079C10.4804 11.6954 10.7348 11.8008 11 11.8008C11.2652 11.8008 11.5196 11.6954 11.7071 11.5079C11.8946 11.3204 12 11.066 12 10.8008L12 1.80107C12 1.53587 11.8946 1.28153 11.7071 1.094C11.5196 0.906471 11.2652 0.80112 11 0.80112C10.7348 0.80112 10.4804 0.906471 10.2929 1.094C10.1054 1.28153 10 1.53587 10 1.80107L10 10.8008C10 11.066 10.1054 11.3204 10.2929 11.5079Z" fill="white"/>
<path d="M6.29289 11.5079C6.48043 11.6954 6.73478 11.8008 7 11.8008C7.26522 11.8008 7.51957 11.6954 7.70711 11.5079C7.89464 11.3204 8 11.066 8 10.8008L8 1.80107C8 1.53587 7.89464 1.28153 7.70711 1.094C7.51957 0.906471 7.26522 0.801119 7 0.801119C6.73478 0.801119 6.48043 0.906471 6.29289 1.094C6.10536 1.28153 6 1.53587 6 1.80107L6 10.8008C6 11.066 6.10536 11.3204 6.29289 11.5079Z" fill="white"/>
<path d="M11.7071 2.50789C11.8946 2.32035 12 2.066 12 1.80078C12 1.53556 11.8946 1.28121 11.7071 1.09367C11.5196 0.906138 11.2653 0.800781 11 0.800781L7.17176 0.800781C6.90655 0.800781 6.65221 0.906139 6.46468 1.09368C6.27716 1.28121 6.1718 1.53557 6.1718 1.80078C6.1718 2.066 6.27716 2.32035 6.46468 2.50789C6.65221 2.69542 6.90655 2.80078 7.17176 2.80078L11 2.80078C11.2653 2.80078 11.5196 2.69542 11.7071 2.50789Z" fill="white"/>
<path d="M11.7071 11.5079C11.8946 11.3204 12 11.066 12 10.8008C12 10.5356 11.8946 10.2812 11.7071 10.0937C11.5196 9.90614 11.2653 9.80078 11 9.80078L7.17176 9.80078C6.90655 9.80078 6.65221 9.90614 6.46468 10.0937C6.27716 10.2812 6.1718 10.5356 6.1718 10.8008C6.1718 11.066 6.27716 11.3204 6.46468 11.5079C6.65221 11.6954 6.90655 11.8008 7.17176 11.8008L11 11.8008C11.2653 11.8008 11.5196 11.6954 11.7071 11.5079Z" fill="white"/>
</svg>
