<svg width="129" height="37" viewBox="0 0 129 37" fill="none" xmlns="http://www.w3.org/2000/svg">
<path d="M34.4164 26.3307C33.042 27.9945 31.559 29.369 29.208 30.4179C24.2528 32.6242 17.9593 32.5157 11.5572 25.4988C11.2679 25.1733 11.1594 25.4265 11.304 25.6073C15.138 30.2732 20.455 33.7817 26.857 32.4072C30.0399 31.72 32.3186 30.4541 34.6335 27.9946C36.0802 26.4393 34.8505 25.8967 34.4164 26.3307Z" fill="#3869E5"/>
<path d="M13.4021 20.1101C13.7638 19.5314 13.1851 19.0612 12.7872 19.6761C10.9426 22.8952 6.96389 21.159 7.36176 21.376C8.62769 22.0994 11.4128 23.0398 13.4021 20.1101Z" fill="#3869E5"/>
<path d="M13.4021 20.1101C13.7638 19.5314 13.1851 19.0612 12.7872 19.6761C10.9426 22.8952 6.96389 21.159 7.36176 21.376C8.62769 22.0994 11.4128 23.0398 13.4021 20.1101Z" stroke="#3869E5" stroke-width="0.658" stroke-miterlimit="10"/>
<path d="M44.2903 9.40411C43.8924 8.24668 43.3499 7.23394 42.735 6.29353C42.5541 6.00417 42.3733 5.75098 42.1563 5.49779C39.6244 2.17018 35.6819 0 31.2692 0C30.8352 0 30.4011 0.0361741 29.9671 0.0723437C29.099 0.144683 28.2671 0.325527 27.4714 0.542545C27.2905 0.614884 27.0735 0.651054 26.8927 0.723393C23.2034 1.98933 20.4183 4.95525 18.646 8.46371C18.5013 8.71689 17.8503 10.1275 16.7652 8.64455C15.0652 6.3297 12.3887 4.73821 9.3504 4.73821C8.40999 4.73821 7.54192 4.8829 6.67385 5.17226C6.63768 5.17226 6.56534 5.20844 6.52917 5.20844C3.70794 6.18502 1.50159 8.57222 0.561179 11.5381C-1.31964 17.4699 1.89946 24.7401 4.72069 28.14C5.55259 29.2974 6.31216 30.2017 7.75894 31.4314C7.93979 31.5761 8.08447 31.6846 8.19298 31.7208C8.22915 31.7569 8.59084 31.8293 8.12064 31.4314C4.359 28.0677 0.70586 20.7252 2.40583 13.8168C2.73136 12.5509 3.20157 11.5743 4.03347 10.4892C4.4675 9.91048 5.01005 9.4041 5.62493 8.97007C6.92704 8.02966 8.48233 7.48712 10.1823 7.48712C12.678 7.48712 14.6312 8.78922 16.078 10.5977C17.7418 12.6232 19.1885 10.9232 19.5864 10.3445C21.7204 7.34243 24.3246 3.14676 30.148 2.78507C30.1841 2.78507 30.2565 2.78507 30.2926 2.78507C31.1607 2.7489 32.0649 2.78505 32.933 2.92973C37.201 3.61696 41.1797 6.54671 43.0605 12.4424C44.1094 15.6976 43.9648 19.6763 43.5307 22.389C42.3371 29.6591 37.7797 33.9271 34.5245 35.9165C33.9458 36.2782 34.0543 36.459 34.5245 36.3505C35.3564 36.0611 36.4776 35.4462 37.3457 34.7952C42.518 30.9974 45.9179 24.74 45.9179 17.6508C45.9179 14.7572 45.3392 11.936 44.2903 9.40411Z" fill="#3869E5"/>
<path d="M76.0464 22.3527C76.589 21.5932 77.2038 21.6293 77.5294 22.9314C77.6379 23.257 77.5655 24.1974 76.7336 24.125C75.9379 24.0889 75.4677 23.1485 76.0464 22.3527Z" fill="#3869E5"/>
<path d="M52.5728 28.7202C53.3685 27.5628 53.5494 26.0436 53.1153 24.633C52.7536 23.5479 52.1026 22.6437 51.3792 22.3905C51.0175 22.2458 50.6558 22.1735 50.2941 22.1735C49.7516 22.1373 49.2452 22.282 48.775 22.5352C47.7622 23.0777 47.0027 24.2351 46.7495 25.8628C46.3154 28.5755 44.6155 30.9989 42.6623 33.6031C41.2879 35.4477 40.3113 35.8456 40.9623 35.8456C41.541 35.8456 42.9155 34.4712 42.9155 34.4712C45.7006 31.9031 47.5452 29.0819 47.5452 29.0457L47.7984 28.9372C48.4494 29.8053 49.1367 30.2393 49.8962 30.2393C51.3792 30.2031 52.5728 28.7202 52.5728 28.7202ZM48.775 28.1053C48.4133 27.7436 48.1963 27.2011 48.1239 26.55C47.9792 25.1756 48.8111 23.8373 49.9324 23.7288C50.4749 23.6564 51.0175 23.8735 51.4154 24.3075C51.7771 24.7054 52.0302 25.2841 52.1026 25.9351C52.2473 27.2734 51.4154 28.4308 50.2218 28.5755C50.1133 28.5755 50.0047 28.5755 49.8962 28.5755C49.4622 28.5393 49.0643 28.3946 48.775 28.1053Z" fill="#3869E5"/>
<path d="M59.9881 25.2463C59.9881 25.2101 59.8072 22.5698 57.8902 22.2081C57.7456 22.1719 57.5647 22.1719 57.42 22.1719C56.769 22.1719 56.1541 22.4251 55.6477 22.8591C54.635 23.7272 54.1286 25.2825 54.2371 27.0548C54.3456 28.8633 55.3945 29.8398 56.3711 30.0207C57.2754 30.1654 58.4689 29.7313 59.12 28.0314L59.2285 27.7782L59.3732 28.0314C59.6987 28.5377 60.6391 29.876 61.2902 29.9845C61.6157 30.0207 61.9051 29.9122 62.0136 29.659C62.1221 29.3696 62.0136 28.8271 61.2902 28.2845C61.0732 28.1399 60.8923 27.9952 60.7476 27.8867C59.9881 27.3803 59.9881 27.3441 59.9881 26.4037C59.9881 26.1144 59.9881 25.7527 59.9881 25.2463ZM58.5413 27.0186C58.1073 28.0675 57.5647 28.6101 56.9137 28.6462C56.8775 28.6462 56.8775 28.6462 56.8413 28.6462C56.1903 28.6462 55.6477 28.1399 55.3584 27.6697C54.9967 27.0186 54.9243 25.825 55.3584 24.8846C55.6477 24.2697 56.1179 23.908 56.7328 23.7995C57.2392 23.7272 57.637 23.7995 57.9987 24.0527C58.6498 24.5591 58.7221 25.4995 58.7221 25.5356C58.7945 26.3314 58.5413 26.9824 58.5413 27.0186Z" fill="#3869E5"/>
<path d="M63.2785 28.1392C63.7849 29.2243 64.4722 29.8392 65.3041 29.9839C66.0998 30.0924 66.9317 29.7669 67.5827 29.0796C68.27 28.3562 68.1253 27.8499 68.0891 27.7414C68.0168 27.5967 67.9083 27.4882 67.7998 27.4882C67.5466 27.4882 67.3657 27.669 67.1125 27.9222C66.8593 28.2115 66.4977 28.5732 65.9189 28.6094C65.4126 28.6456 65.0147 28.5009 64.6892 28.2116C63.8573 27.4158 63.7849 25.5712 63.8573 24.0521V23.9435L63.9658 23.9074C64.5807 23.7627 64.87 23.618 65.4849 23.0755C65.7019 22.8946 65.7381 22.6776 65.6657 22.5691C65.5934 22.4606 65.3764 22.3883 65.087 22.5691C65.0147 22.6053 64.9785 22.6053 64.9424 22.6414C64.7253 22.7499 64.6168 22.8223 64.1105 22.8585H63.9296V22.6776C64.1105 20.9776 64.1828 20.6521 64.436 19.5308C64.5083 19.2777 64.5445 18.9521 64.653 18.5904C64.7253 18.2649 64.87 17.867 65.0147 17.433C65.4126 16.1309 64.9424 16.0947 64.87 16.1309C64.3998 16.3117 63.9296 17.1437 63.3871 18.9521C63.0977 19.9287 62.9169 20.4351 62.6998 22.5329L62.6637 22.7138L62.4828 22.6414C62.2296 22.5691 62.0126 22.4606 61.7594 22.3159C61.3977 22.1351 61.0722 22.0266 60.8552 22.0266C60.7105 22.0266 60.5658 22.0627 60.4935 22.1712C60.3488 22.3882 60.4573 22.8223 60.7467 23.0755C61.1084 23.3648 61.6509 23.7989 62.4467 23.9435L62.5552 23.9797V24.0882C62.5913 25.8244 62.8445 27.1627 63.2785 28.1392Z" fill="#3869E5"/>
<path d="M73.0807 30.0213C73.2616 30.0936 73.4063 30.0213 73.4424 29.9851C74.419 27.815 74.202 24.8129 73.4424 23.1852C73.1892 22.6065 72.8637 22.2448 72.5382 22.1363C72.2488 22.064 71.9957 22.064 71.7425 22.2448C70.7659 22.8235 70.2957 24.849 70.2957 24.8852L70.1148 25.7171L70.0063 24.8852C69.7531 22.6789 68.9212 16.7832 68.0532 16.096C67.9808 16.0236 67.9447 16.0598 67.9085 16.0598C67.4383 16.1322 67.5106 17.9768 67.6915 19.2428C67.8 21.0874 68.9574 27.8149 69.4999 29.1532C69.8255 30.0213 70.0425 30.0213 70.0787 30.0213C70.1872 30.0213 70.368 29.6596 70.4765 29.0809C70.5127 28.9362 70.5127 28.7554 70.5489 28.5384C70.8382 26.549 71.1637 24.5959 71.9595 24.0533C72.068 23.981 72.1403 23.981 72.2127 23.981C72.285 23.981 72.3573 24.0171 72.3935 24.0533C73.1531 24.5235 72.8999 28.4298 72.7914 29.1894C72.7552 29.6234 72.8275 29.949 73.0807 30.0213Z" fill="#3869E5"/>
<path d="M77.7115 30.1663C77.2775 29.6238 76.337 28.5025 76.4817 26.3685C76.5541 25.4281 76.3732 25.1749 76.2647 25.1026C76.2285 25.0664 76.1562 25.0664 76.12 25.0664C76.0477 25.0664 75.9753 25.1026 75.9753 25.1026C75.1796 25.4643 75.0349 27.5259 75.469 28.7557C76.0477 30.3472 76.6264 30.528 77.2051 30.528C77.7477 30.4557 77.7838 30.2748 77.7115 30.1663Z" fill="#3869E5"/>
<path d="M83.1358 22.8594C83.0997 22.8594 83.0273 22.8594 82.9912 22.8594C81.9061 22.8594 80.387 23.2211 79.1572 24.8849C78.5061 25.7891 78.2891 27.1274 78.6508 28.2848C78.8678 29.0082 79.4104 29.9486 80.7125 30.3827C83.4252 31.3231 86.2103 30.7082 87.7656 29.8763C88.3081 29.5869 87.9102 29.1891 87.3315 29.2614C86.3188 29.4061 84.6188 29.6954 83.0997 29.3337C81.4359 28.9359 80.5678 27.9593 80.2784 26.8019C80.0976 26.0785 80.3508 25.3551 80.8933 24.921C82.1593 23.9083 83.2444 24.053 84.1848 24.1977C84.5826 24.27 84.9805 24.3061 85.3784 24.27C85.5592 24.2338 85.7039 24.1615 85.7762 24.053C85.8486 23.9445 85.8486 23.8359 85.8124 23.7274C85.6677 23.5828 84.5826 22.8955 83.1358 22.8594Z" fill="#3869E5"/>
<path d="M104.187 25.2463C104.187 25.2101 104.006 22.5698 102.089 22.2081C101.945 22.1719 101.764 22.1719 101.619 22.1719C100.968 22.1719 100.353 22.4251 99.8469 22.8591C98.8342 23.7272 98.3278 25.2825 98.4363 27.0548C98.5448 28.8633 99.5937 29.8398 100.57 30.0207C101.475 30.1654 102.668 29.7313 103.319 28.0314L103.428 27.7782L103.572 28.0314C103.898 28.5377 104.838 29.876 105.489 29.9845C105.815 30.0207 106.104 29.9122 106.213 29.659C106.321 29.3696 106.213 28.8271 105.489 28.2845C105.272 28.1399 105.092 27.9952 104.947 27.8867C104.187 27.3803 104.187 27.3441 104.187 26.4037C104.223 26.1144 104.223 25.7527 104.187 25.2463ZM102.777 27.0186C102.343 28.0675 101.8 28.6101 101.149 28.6462C101.113 28.6462 101.113 28.6462 101.077 28.6462C100.426 28.6462 99.8831 28.1399 99.5937 27.6697C99.232 27.0186 99.1597 25.825 99.5937 24.8846C99.8831 24.2697 100.353 23.908 100.968 23.7995C101.475 23.7272 101.872 23.7995 102.234 24.0527C102.885 24.5591 102.958 25.4995 102.958 25.5356C103.03 26.3314 102.777 26.9824 102.777 27.0186Z" fill="#3869E5"/>
<path d="M93.9144 15.1557C94.5292 13.8175 95.3973 13.0579 96.4101 12.877C97.3866 12.7323 98.4356 13.1664 99.2675 14.0345C100.099 14.9387 99.9547 15.5536 99.8824 15.6983C99.81 15.8791 99.6653 15.9876 99.5207 15.9876C99.1951 15.9876 98.9781 15.7706 98.6888 15.4451C98.3632 15.0834 97.9292 14.6493 97.2058 14.577C96.5909 14.5408 96.0845 14.6855 95.6867 15.0834C94.6378 16.0961 94.6016 18.3748 94.6378 20.2195V20.3641L94.7824 20.4003C95.542 20.5812 95.9037 20.7259 96.6633 21.4131C96.9164 21.6301 96.9888 21.8833 96.8803 22.0641C96.7718 22.2088 96.5186 22.2811 96.1569 22.1003C96.0845 22.0641 96.0484 22.028 95.976 21.9918C95.7229 21.8471 95.5782 21.7748 94.9633 21.7386H94.7463L94.7824 21.9556C94.9995 24.0535 95.108 24.4875 95.3973 25.8619C95.4697 26.1875 95.542 26.5492 95.6505 27.0194C95.7228 27.4172 95.9399 27.9236 96.0845 28.43C96.5909 30.0576 96.0122 30.0938 95.9037 30.0576C95.325 29.8044 94.7463 28.7917 94.059 26.5853C93.6973 25.3917 93.4803 24.7407 93.191 22.1365L93.1548 21.9194L92.9378 21.9918C92.6484 22.1003 92.3591 22.2088 92.0335 22.3897C91.5995 22.6428 91.2016 22.7514 90.9123 22.7514C90.7314 22.7514 90.5868 22.679 90.4782 22.5705C90.2974 22.2812 90.4421 21.7386 90.8038 21.4854C91.2378 21.1599 91.9612 20.5812 92.9016 20.4003L93.0463 20.3641V20.2195C93.0463 18.0493 93.3357 16.3493 93.9144 15.1557Z" fill="#3869E5"/>
<path d="M117.642 21.7375C118.185 20.9779 118.8 21.0141 119.125 22.3162C119.234 22.6417 119.161 23.5821 118.329 23.5098C117.534 23.4736 117.063 22.497 117.642 21.7375Z" fill="#3869E5"/>
<path d="M119.305 29.514C118.871 28.9714 117.931 27.8502 118.075 25.7162C118.148 24.7758 117.967 24.5226 117.858 24.4502C117.822 24.4141 117.75 24.4141 117.714 24.4141C117.641 24.4141 117.569 24.4502 117.569 24.4502C116.773 24.8119 116.629 26.8736 117.063 28.1033C117.641 29.6948 118.22 29.8757 118.799 29.8757C119.341 29.8395 119.414 29.6225 119.305 29.514Z" fill="#3869E5"/>
<path d="M109.323 29.514C108.889 28.9714 107.948 27.8502 108.093 25.7162C108.165 24.7758 107.985 24.5226 107.876 24.4502C107.84 24.4141 107.768 24.4141 107.731 24.4141C107.659 24.4141 107.587 24.4502 107.587 24.4502C106.791 24.8119 106.646 26.8736 107.08 28.1033C107.659 29.6948 108.238 29.8757 108.816 29.8757C109.323 29.8395 109.395 29.6225 109.323 29.514Z" fill="#3869E5"/>
<path d="M109.541 24.8839C109.975 24.6668 110.084 24.8115 110.156 24.8839C110.12 24.8115 110.554 26.186 110.662 26.837C110.807 27.5604 111.277 29.6583 111.747 29.6583C112.181 29.6221 112.435 26.9817 112.218 26.0775C112.145 25.6796 112.037 25.2456 111.892 24.8477C111.747 24.3775 111.603 23.8711 111.169 23.5456C110.409 22.9669 109.324 23.1839 108.601 23.6541C107.841 24.1605 107.335 24.92 107.009 25.7519C106.828 26.1498 107.407 27.1625 107.588 26.8008C108.275 25.4987 109.469 24.92 109.541 24.8839Z" fill="#3869E5"/>
<path d="M113.735 25.9341C113.771 26.2958 113.952 30.1298 114.567 29.9128C115.001 29.7681 116.05 26.766 114.459 23.8001C114.169 23.2214 113.554 23.0044 112.903 23.1129C112.433 23.1852 111.999 23.4384 111.637 23.7278C110.986 24.2703 110.588 25.1746 110.661 26.0426C110.697 26.4767 111.493 27.3809 111.529 26.9107C111.637 23.6193 113.591 24.7044 113.735 25.9341Z" fill="#3869E5"/>
<path d="M120.318 17.2896C120.246 18.7726 120.391 20.2555 120.499 21.7385C120.644 23.6555 120.861 25.6087 121.259 27.4895C121.403 28.2852 121.729 30.383 122.38 30.6001C122.995 30.8171 121.946 22.064 121.874 20.2194C121.837 19.5322 121.801 18.8449 121.837 18.1577C121.874 17.7237 121.765 16.5301 121.186 16.4577C120.68 16.3854 120.318 16.7833 120.318 17.2896Z" fill="#3869E5"/>
<path d="M123.646 24.016C123.429 25.4266 123.863 26.8734 124.586 28.067C125.165 28.9712 126.142 30.1648 127.371 30.0563C127.769 30.0202 128.167 29.7308 128.131 29.2968C128.131 28.8989 128.42 27.9947 127.986 28.0308C127.95 28.0308 127.299 28.5372 127.263 28.5372C127.227 28.5372 125.237 29.2968 124.405 23.4011C124.405 23.0394 123.827 22.5692 123.646 24.016Z" fill="#3869E5"/>
<path d="M127.589 24.1254C127.661 24.8126 127.661 25.4999 127.661 26.1871C127.661 26.4765 127.625 26.7296 127.589 27.019C127.589 27.0913 127.589 27.1637 127.553 27.236C127.517 27.453 127.589 27.0913 127.553 27.3083C127.517 27.453 127.517 27.6339 127.481 27.7785C127.372 28.2849 127.264 28.7551 127.083 29.2254C127.047 29.3339 127.01 29.4423 126.974 29.5508C126.902 29.7317 127.047 29.4062 126.974 29.5871C126.938 29.6232 126.938 29.6955 126.902 29.7317C126.829 29.9125 126.721 30.1296 126.612 30.3104C126.504 30.4913 126.395 30.6721 126.287 30.853C126.215 30.9253 126.178 31.0338 126.106 31.1062C126.07 31.1423 125.853 31.4317 125.998 31.2508C125.781 31.5402 125.527 31.7934 125.274 32.0466C125.057 32.2636 124.515 32.7338 124.478 32.7338C124.406 32.77 124.37 32.8061 124.298 32.8785C124.189 32.9508 124.081 33.0231 123.972 33.1317C123.574 33.3848 123.176 33.638 122.742 33.855C121.513 34.5784 122.091 35.0487 122.453 34.904C126.54 33.0955 128.24 30.4913 128.638 28.6828C128.964 27.236 129.144 25.9339 128.855 24.4871C128.638 23.4382 128.385 22.968 127.915 22.968C127.553 22.9318 127.553 23.7276 127.589 24.1254Z" fill="#3869E5"/>
</svg>
