<svg width="24" height="17" viewBox="0 0 24 17" fill="none" xmlns="http://www.w3.org/2000/svg">
<path fill-rule="evenodd" clip-rule="evenodd" d="M15.9771 2.60152C15.1815 2.60152 14.4184 2.91759 13.8558 3.4802C13.2932 4.04281 12.9771 4.80587 12.9771 5.60152C12.9771 6.39717 13.2932 7.16023 13.8558 7.72284C14.4184 8.28545 15.1815 8.60152 15.9771 8.60152C16.7728 8.60152 17.5358 8.28545 18.0984 7.72284C18.661 7.16023 18.9771 6.39717 18.9771 5.60152C18.9771 4.80587 18.661 4.04281 18.0984 3.4802C17.5358 2.91759 16.7728 2.60152 15.9771 2.60152ZM10.9771 5.60152C10.9771 4.78648 11.1764 3.98379 11.5575 3.26336C11.9387 2.54293 12.4901 1.9266 13.1639 1.46803C13.8378 1.00946 14.6134 0.722558 15.4235 0.63231C16.2335 0.542062 17.0533 0.651202 17.8115 0.950227C18.5697 1.24925 19.2433 1.7291 19.7737 2.34797C20.3041 2.96685 20.6751 3.706 20.8545 4.50106C21.0339 5.29611 21.0162 6.12297 20.803 6.90962C20.5898 7.69628 20.1875 8.41889 19.6311 9.01452C21.3276 9.5664 22.7942 10.6632 23.8031 12.1345C23.9438 12.3537 23.9935 12.6191 23.9415 12.8743C23.8896 13.1296 23.7401 13.3544 23.5248 13.5011C23.3096 13.6478 23.0457 13.7048 22.7891 13.6598C22.5326 13.6149 22.3037 13.4716 22.1511 13.2605C21.1751 11.8285 19.3951 10.6015 16.9771 10.6015C13.1431 10.6015 10.9771 13.6755 10.9771 15.6015C10.9771 15.8667 10.8718 16.1211 10.6842 16.3086C10.4967 16.4962 10.2423 16.6015 9.97711 16.6015C9.71189 16.6015 9.45754 16.4962 9.27 16.3086C9.08247 16.1211 8.97711 15.8667 8.97711 15.6015C8.97711 14.9095 9.13511 14.1715 9.43711 13.4445C9.35859 13.3937 9.28756 13.3321 9.22611 13.2615C8.40511 12.3275 7.13111 11.6015 5.47711 11.6015C3.82311 11.6015 2.54911 12.3275 1.72811 13.2615C1.55034 13.4504 1.30616 13.5627 1.0471 13.5749C0.788044 13.5872 0.534373 13.4983 0.339622 13.327C0.144872 13.1557 0.0242755 12.9155 0.00328342 12.657C-0.0177086 12.3985 0.0625457 12.142 0.22711 11.9415C0.817627 11.2695 1.53369 10.7192 2.33511 10.3215C1.69482 9.69664 1.25533 8.89507 1.07278 8.01921C0.890227 7.14335 0.972903 6.23295 1.31024 5.4043C1.64759 4.57565 2.22428 3.86637 2.96667 3.36705C3.70905 2.86773 4.58343 2.60103 5.47811 2.60103C6.37279 2.60103 7.24717 2.86773 7.98955 3.36705C8.73194 3.86637 9.30863 4.57565 9.64598 5.4043C9.98332 6.23295 10.066 7.14335 9.88344 8.01921C9.70089 8.89507 9.2614 9.69664 8.62111 10.3215C9.31487 10.6658 9.94542 11.125 10.4861 11.6795C11.1653 10.8249 12.0102 10.1164 12.9701 9.59652C12.3506 9.13099 11.848 8.52764 11.5021 7.83424C11.1562 7.14083 10.9764 6.37642 10.9771 5.60152ZM2.97711 7.10152C2.97711 6.43848 3.2405 5.8026 3.70934 5.33376C4.17818 4.86491 4.81407 4.60152 5.47711 4.60152C6.14015 4.60152 6.77604 4.86491 7.24488 5.33376C7.71372 5.8026 7.97711 6.43848 7.97711 7.10152C7.97711 7.76456 7.71372 8.40045 7.24488 8.86929C6.77604 9.33813 6.14015 9.60152 5.47711 9.60152C4.81407 9.60152 4.17818 9.33813 3.70934 8.86929C3.2405 8.40045 2.97711 7.76456 2.97711 7.10152Z" fill="white"/>
</svg>
