<svg width="85" height="85" viewBox="0 0 85 85" fill="none" xmlns="http://www.w3.org/2000/svg">
<ellipse cx="42.5" cy="42.4998" rx="42.5" ry="42.4998" fill="white"/>
<mask id="mask0_5001_7244" style="mask-type:alpha" maskUnits="userSpaceOnUse" x="0" y="0" width="85" height="85">
<path d="M84.5 42.4998C84.5 65.6956 65.696 84.4995 42.5 84.4995C19.304 84.4995 0.5 65.6956 0.5 42.4998C0.5 19.3039 19.304 0.5 42.5 0.5C65.696 0.5 84.5 19.3039 84.5 42.4998Z" fill="#C4C4C4" stroke="black"/>
</mask>
<g mask="url(#mask0_5001_7244)">
<path d="M46.8262 63.2363H37.8799V84.1541H46.8262V63.2363Z" fill="#45CBF6"/>
<path d="M38.7349 72.7012H45.8835C47.1642 72.7012 48.3924 73.2064 49.2979 74.1058C50.2035 75.0052 50.7122 76.225 50.7122 77.497V88.3781H33.9062V77.497C33.9062 76.225 34.415 75.0052 35.3205 74.1058C36.2261 73.2064 37.4543 72.7012 38.7349 72.7012Z" fill="#3869E5"/>
<path d="M58.1759 48.0337C66.995 39.26 66.995 25.035 58.1759 16.2613C49.3568 7.48757 35.0581 7.48757 26.239 16.2613C17.4198 25.035 17.4198 39.26 26.239 48.0337C35.0581 56.8074 49.3568 56.8074 58.1759 48.0337Z" fill="#3869E5"/>
<path d="M24.8059 41.7816C25.872 39.9023 25.2025 37.5205 23.3103 36.4616C21.4182 35.4027 19.02 36.0677 17.9539 37.9469C16.8877 39.8262 17.5573 42.208 19.4494 43.2669C21.3416 44.3258 23.7397 43.6608 24.8059 41.7816Z" fill="#3869E5"/>
<path d="M20.3262 35.9551C22.4899 35.7686 24.0917 33.8754 23.9039 31.7264C23.7162 29.5774 21.8099 27.9866 19.6462 28.1731C17.4825 28.3596 15.8807 30.2528 16.0685 32.4018C16.2563 34.5507 18.1625 36.1416 20.3262 35.9551Z" fill="#3869E5"/>
<path d="M24.1287 27.4157C25.7772 26.0114 25.9673 23.5457 24.5534 21.9084C23.1395 20.2711 20.6568 20.0822 19.0083 21.4865C17.3598 22.8909 17.1697 25.3566 18.5836 26.9939C19.9976 28.6312 22.4802 28.82 24.1287 27.4157Z" fill="#3869E5"/>
<path d="M25.4891 21.7234C27.6609 21.7234 29.4215 19.9748 29.4215 17.8178C29.4215 15.6607 27.6609 13.9121 25.4891 13.9121C23.3173 13.9121 21.5566 15.6607 21.5566 17.8178C21.5566 19.9748 23.3173 21.7234 25.4891 21.7234Z" fill="#3869E5"/>
<path d="M34.3433 15.219C35.7474 13.5734 35.5425 11.1089 33.8856 9.71433C32.2288 8.31975 29.7473 8.52324 28.3432 10.1688C26.9391 11.8144 27.1439 14.279 28.8008 15.6735C30.4577 17.0681 32.9391 16.8646 34.3433 15.219Z" fill="#3869E5"/>
<path d="M42.6663 9.65673C42.71 10.4278 42.5226 11.1945 42.1277 11.8598C41.7328 12.5251 41.1482 13.0592 40.4477 13.3946C39.7473 13.7299 38.9624 13.8515 38.1924 13.744C37.4224 13.6364 36.7018 13.3045 36.1216 12.7903C35.5415 12.2761 35.1278 11.6025 34.933 10.8549C34.7382 10.1072 34.771 9.31892 35.0271 8.58973C35.2833 7.86053 35.7514 7.22313 36.3722 6.7581C36.993 6.29307 37.7387 6.02129 38.5151 5.9771C39.031 5.94774 39.5476 6.01965 40.0355 6.18872C40.5234 6.35779 40.973 6.6207 41.3585 6.96244C41.744 7.30417 42.058 7.71802 42.2824 8.18032C42.5068 8.64263 42.6372 9.14432 42.6663 9.65673V9.65673Z" fill="#3869E5"/>
<path d="M50.5569 10.1357C50.6069 7.9792 48.8873 6.19075 46.7161 6.14106C44.5448 6.09137 42.7441 7.79925 42.6941 9.95572C42.6441 12.1122 44.3637 13.9006 46.5349 13.9503C48.7062 14 50.5069 12.2921 50.5569 10.1357Z" fill="#3869E5"/>
<path d="M57.3184 15.0413C58.4984 13.2304 57.9769 10.8124 56.1536 9.64039C54.3303 8.46842 51.8957 8.98638 50.7157 10.7973C49.5357 12.6082 50.0572 15.0262 51.8805 16.1982C53.7038 17.3702 56.1384 16.8522 57.3184 15.0413Z" fill="#3869E5"/>
<path d="M63.8222 19.151C64.5365 17.1139 63.4528 14.8875 61.4018 14.1781C59.3507 13.4687 57.1091 14.545 56.3948 16.5821C55.6806 18.6191 56.7642 20.8456 58.8153 21.555C60.8663 22.2643 63.108 21.188 63.8222 19.151Z" fill="#3869E5"/>
<path d="M67.3135 26.7931C68.5617 25.0279 68.1327 22.592 66.3554 21.3523C64.5781 20.1126 62.1254 20.5386 60.8772 22.3038C59.629 24.069 60.058 26.505 61.8353 27.7447C63.6126 28.9844 66.0653 28.5583 67.3135 26.7931Z" fill="#3869E5"/>
<path d="M65.7442 36.1862C67.915 36.1192 69.62 34.3171 69.5526 32.1611C69.4851 30.0051 67.6707 28.3117 65.4999 28.3787C63.3291 28.4457 61.624 30.2478 61.6915 32.4038C61.7589 34.5598 63.5734 36.2532 65.7442 36.1862Z" fill="#3869E5"/>
<path d="M67.2161 39.5864C67.2598 40.3574 67.0724 41.124 66.6776 41.7892C66.2827 42.4545 65.6982 42.9886 64.9979 43.324C64.2975 43.6594 63.5128 43.7811 62.7428 43.6736C61.9729 43.5662 61.2522 43.2345 60.672 42.7204C60.0918 42.2064 59.6781 41.533 59.4831 40.7855C59.2881 40.0379 59.3206 39.2497 59.5765 38.5205C59.8324 37.7913 60.3002 37.1538 60.9208 36.6886C61.5414 36.2234 62.2869 35.9513 63.0631 35.9068C63.5791 35.8774 64.0959 35.9493 64.5839 36.1184C65.0719 36.2874 65.5215 36.5503 65.9072 36.892C66.2929 37.2337 66.607 37.6476 66.8316 38.1099C67.0561 38.5722 67.1868 39.0739 67.2161 39.5864V39.5864Z" fill="#3869E5"/>
<path d="M17.8679 55.7502C22.7411 54.9645 26.0504 50.4041 25.2593 45.564C24.4683 40.724 19.8766 37.4373 15.0034 38.223C10.1302 39.0086 6.82094 43.5691 7.61197 48.4091C8.403 53.2491 12.9948 56.5358 17.8679 55.7502Z" fill="#3869E5"/>
<path d="M20.6186 42.5307C24.9676 41.8295 27.9209 37.7596 27.215 33.4402C26.509 29.1207 22.4112 26.1875 18.0621 26.8887C13.7131 27.5898 10.7598 31.6598 11.4657 35.9792C12.1717 40.2986 16.2696 43.2318 20.6186 42.5307Z" fill="#3869E5"/>
<path d="M74.373 53.2652C77.864 49.798 77.864 44.1766 74.373 40.7094C70.882 37.2422 65.2221 37.2422 61.7311 40.7094C58.2401 44.1766 58.2401 49.798 61.7311 53.2652C65.2221 56.7324 70.882 56.7324 74.373 53.2652Z" fill="#3869E5"/>
<path d="M71.0463 40.3126C74.1618 37.2184 74.1618 32.2016 71.0463 29.1073C67.9308 26.013 62.8796 26.013 59.7641 29.1073C56.6486 32.2016 56.6486 37.2184 59.7641 40.3126C62.8796 43.4069 67.9308 43.4069 71.0463 40.3126Z" fill="#3869E5"/>
<path d="M42.8969 19.8135H41.3867C30.4262 19.8135 21.541 27.5436 21.541 37.0791V47.9597C21.541 57.4953 30.4262 65.2254 41.3867 65.2254H42.8969C53.8573 65.2254 62.7426 57.4953 62.7426 47.9597V37.0791C62.7426 27.5436 53.8573 19.8135 42.8969 19.8135Z" fill="#45CBF6"/>
<path d="M46.825 72.6999L42.3516 68.2568L37.8781 72.6999L42.3516 77.1429L46.825 72.6999Z" fill="#45CBF6"/>
<path d="M38.2667 37.233C47.4979 34.6703 53.6938 27.8867 52.1056 22.0814C50.5174 16.2761 41.7466 13.6476 32.5154 16.2103C23.2842 18.7731 17.0883 25.5567 18.6764 31.3619C20.2646 37.1672 29.0355 39.7958 38.2667 37.233Z" fill="#3869E5"/>
<path d="M34.4232 42.2266C34.4235 42.6734 34.2904 43.1103 34.0406 43.482C33.7909 43.8537 33.4358 44.1435 33.0201 44.3147C32.6045 44.4858 32.3993 40.3496 31.7059 44.4436C31.2646 44.3565 30.8592 44.1414 30.5411 43.8254C30.2229 43.5094 30.0063 43.1068 29.9186 42.6685C29.8309 42.2302 29.8761 41.776 30.0484 41.3632C30.2208 40.9504 30.5125 40.5977 30.8868 40.3496C31.261 40.1016 31.7009 39.9694 32.1508 39.9697C32.7535 39.9697 33.3315 40.2075 33.7576 40.6307C34.1838 41.054 34.4232 41.628 34.4232 42.2266Z" fill="#3869E5"/>
<path d="M53.8919 42.2266C53.8923 42.6733 53.7592 43.1102 53.5095 43.4819C53.2598 43.8535 52.9048 44.1433 52.4893 44.3145C52.0738 44.4857 51.9199 40.3505 51.1753 44.4437C50.734 44.3568 50.3286 44.1418 50.0104 43.826C49.6922 43.5102 49.4755 43.1078 49.3876 42.6696C49.2997 42.2314 49.3446 41.7772 49.5167 41.3644C49.6888 40.9516 49.9802 40.5987 50.3542 40.3505C50.7282 40.1022 51.168 39.9697 51.6178 39.9697C51.9164 39.9695 52.2121 40.0277 52.4879 40.141C52.7638 40.2543 53.0145 40.4205 53.2257 40.6301C53.4369 40.8397 53.6045 41.0886 53.7188 41.3625C53.8331 41.6364 53.8919 41.93 53.8919 42.2266Z" fill="#3869E5"/>
<path d="M34.0068 51.1016C39.5218 63.5661 44.945 64.0002 50.2747 51.1016H34.0068Z" fill="#3869E5"/>
<path d="M31.5574 98.5173H27.2598V84.3858C27.2598 77.5662 31.5539 72.8037 37.7039 72.8037V77.0721C33.4575 77.0721 31.5574 80.7517 31.5574 84.3858V98.5173Z" fill="#3869E5"/>
<path d="M57.5408 98.5173H53.2432V84.3858C53.2432 80.7465 51.3431 77.0721 47.0967 77.0721V72.8037C53.2467 72.8037 57.5408 77.5662 57.5408 84.3858V98.5173Z" fill="#3869E5"/>
</g>
</svg>
