<svg width="86" height="85" viewBox="0 0 86 85" fill="none" xmlns="http://www.w3.org/2000/svg">
<ellipse cx="42.8996" cy="42.4999" rx="42.2981" ry="42.4999" fill="white"/>
<mask id="mask0_5001_7337" style="mask-type:alpha" maskUnits="userSpaceOnUse" x="1" y="0" width="85" height="85">
<path d="M85.101 42.4999C85.101 65.6981 66.3851 84.4999 43.3029 84.4999C20.2208 84.4999 1.50488 65.6981 1.50488 42.4999C1.50488 19.3018 20.2208 0.5 43.3029 0.5C66.3851 0.5 85.101 19.3018 85.101 42.4999Z" fill="#C4C4C4" stroke="black"/>
</mask>
<g mask="url(#mask0_5001_7337)">
<path d="M62.7368 17.8744C62.7368 8.95397 50.3729 10.2447 41.434 10.2447C32.4951 10.2447 19.8975 8.95397 19.8975 17.8744V47.634C19.8975 56.5545 37.6127 63.7859 46.5515 63.7859C55.4904 63.7859 62.7368 56.5545 62.7368 47.634V17.8744Z" fill="#3869E5"/>
<path d="M18.6625 48.7763C21.6415 48.7763 24.0564 46.3664 24.0564 43.3935C24.0564 40.4207 21.6415 38.0107 18.6625 38.0107C15.6835 38.0107 13.2686 40.4207 13.2686 43.3935C13.2686 46.3664 15.6835 48.7763 18.6625 48.7763Z" fill="#45CBF6"/>
<path d="M63.7513 48.7763C66.7303 48.7763 69.1453 46.3664 69.1453 43.3935C69.1453 40.4207 66.7303 38.0107 63.7513 38.0107C60.7724 38.0107 58.3574 40.4207 58.3574 43.3935C58.3574 46.3664 60.7724 48.7763 63.7513 48.7763Z" fill="#45CBF6"/>
<path d="M37.8174 75.042H44.9321C46.2066 75.042 47.429 75.5473 48.3302 76.4467C49.2315 77.346 49.7378 78.5659 49.7378 79.8378V90.7191H33.0117V79.8378C33.0117 78.5659 33.518 77.346 34.4193 76.4467C35.3205 75.5473 36.5429 75.042 37.8174 75.042Z" fill="#3869E5"/>
<path d="M41.2078 69.7588C53.1033 69.7588 62.7466 58.9485 62.7466 45.6133C62.7466 32.2781 53.1033 21.4678 41.2078 21.4678C29.3122 21.4678 19.6689 32.2781 19.6689 45.6133C19.6689 58.9485 29.3122 69.7588 41.2078 69.7588Z" fill="#45CBF6"/>
<path d="M37.2495 81.3955H33.0127V105.005H37.2495V81.3955Z" fill="#45CBF6"/>
<path d="M45.5024 105.003H49.7393V81.3936H45.5024V105.003Z" fill="#45CBF6"/>
<path d="M33.44 34.0634L30.4287 35.1691C30.0775 35.2971 29.6899 35.2813 29.3504 35.125C29.0108 34.9687 28.7471 34.6847 28.6167 34.335V34.335C28.4883 33.9832 28.5051 33.5949 28.6635 33.2555C28.8219 32.9161 29.1088 32.6533 29.4613 32.525L32.4708 31.4176C32.8222 31.2896 33.2101 31.3057 33.5496 31.4623C33.8892 31.619 34.1528 31.9034 34.2828 32.2534V32.2534C34.4113 32.605 34.3947 32.9931 34.2367 33.3324C34.0786 33.6718 33.7921 33.9347 33.44 34.0634Z" fill="#3869E5"/>
<path d="M48.3493 34.0631L51.3588 35.1687C51.7102 35.2968 52.0981 35.281 52.4379 35.1248C52.7777 34.9685 53.0418 34.6845 53.1726 34.3347V34.3347C53.3003 33.984 53.2839 33.5971 53.127 33.2584C52.9702 32.9196 52.6855 32.6565 52.335 32.5264L49.3255 31.419C48.9737 31.2898 48.5848 31.3051 48.2442 31.4614C47.9036 31.6177 47.639 31.9024 47.5082 32.253V32.253C47.3801 32.6044 47.3967 32.9921 47.5543 33.3313C47.7119 33.6705 47.9978 33.9336 48.3493 34.0631V34.0631Z" fill="#3869E5"/>
<path d="M34.5129 42.501C34.3002 42.501 34.0962 42.4183 33.9458 42.271C33.7954 42.1237 33.7109 41.924 33.7109 41.7158C33.6966 41.2859 33.5121 40.8784 33.1965 40.5793C32.8809 40.2802 32.4589 40.113 32.0197 40.113C31.5805 40.113 31.1585 40.2802 30.8429 40.5793C30.5273 40.8784 30.3428 41.2859 30.3285 41.7158C30.3285 41.924 30.244 42.1237 30.0936 42.271C29.9432 42.4183 29.7392 42.501 29.5265 42.501C29.3138 42.501 29.1098 42.4183 28.9594 42.271C28.809 42.1237 28.7245 41.924 28.7245 41.7158C28.7143 41.2857 28.7919 40.858 28.9529 40.4578C29.1139 40.0575 29.355 39.6928 29.662 39.3851C29.969 39.0774 30.3357 38.8329 30.7406 38.666C31.1455 38.4991 31.5804 38.4131 32.0197 38.4131C32.459 38.4131 32.8939 38.4991 33.2988 38.666C33.7037 38.8329 34.0704 39.0774 34.3774 39.3851C34.6844 39.6928 34.9255 40.0575 35.0865 40.4578C35.2475 40.858 35.3251 41.2857 35.3149 41.7158C35.3149 41.924 35.2304 42.1237 35.08 42.271C34.9296 42.4183 34.7256 42.501 34.5129 42.501Z" fill="#3869E5"/>
<path d="M51.8644 42.501C51.6517 42.501 51.4478 42.4183 51.2974 42.271C51.147 42.1237 51.0625 41.924 51.0625 41.7158C51.0481 41.2859 50.8637 40.8784 50.5481 40.5793C50.2325 40.2802 49.8105 40.113 49.3713 40.113C48.932 40.113 48.51 40.2802 48.1944 40.5793C47.8788 40.8784 47.6944 41.2859 47.6801 41.7158C47.6801 41.924 47.5956 42.1237 47.4452 42.271C47.2948 42.4183 47.0908 42.501 46.8781 42.501C46.6654 42.501 46.4614 42.4183 46.311 42.271C46.1606 42.1237 46.0761 41.924 46.0761 41.7158C46.0658 41.2857 46.1435 40.858 46.3045 40.4578C46.4655 40.0575 46.7065 39.6928 47.0135 39.3851C47.3205 39.0774 47.6873 38.8329 48.0922 38.666C48.4971 38.4991 48.9319 38.4131 49.3713 38.4131C49.8106 38.4131 50.2455 38.4991 50.6504 38.666C51.0553 38.8329 51.422 39.0774 51.729 39.3851C52.036 39.6928 52.2771 40.0575 52.4381 40.4578C52.5991 40.858 52.6767 41.2857 52.6664 41.7158C52.6667 41.8189 52.6461 41.9212 52.6059 42.0165C52.5657 42.1119 52.5066 42.1986 52.4321 42.2715C52.3575 42.3445 52.269 42.4023 52.1716 42.4417C52.0742 42.4811 51.9698 42.5012 51.8644 42.501Z" fill="#3869E5"/>
<path d="M37.0986 68.5596H45.4512V74.6568C45.4517 75.07 45.3441 75.4791 45.1347 75.861C44.9253 76.2428 44.6182 76.5899 44.2308 76.8823C43.8434 77.1747 43.3834 77.4067 42.877 77.5651C42.3706 77.7236 41.8277 77.8053 41.2794 77.8057V77.8057C40.172 77.8057 39.11 77.4742 38.327 76.8842C37.5439 76.2942 37.104 75.4939 37.104 74.6595V68.5623L37.0986 68.5596Z" fill="#45CBF6"/>
</g>
<path d="M32.5654 50.2334C38.0804 59.9741 43.5036 60.3132 48.8333 50.2334H32.5654Z" fill="#3869E5"/>
</svg>
