<svg width="85" height="85" viewBox="0 0 85 85" fill="none" xmlns="http://www.w3.org/2000/svg">
<circle cx="42.5" cy="42.5" r="42.5" fill="white"/>
<mask id="mask0_5001_7291" style="mask-type:alpha" maskUnits="userSpaceOnUse" x="0" y="0" width="85" height="85">
<circle cx="42.5" cy="42.5" r="42.5" fill="white"/>
<circle cx="42.5" cy="42.5" r="42" stroke="black" stroke-opacity="0.5"/>
</mask>
<g mask="url(#mask0_5001_7291)">
<path d="M68.2509 28.1638V59.9648C68.2509 72.5447 57.8858 82.8376 45.2198 82.8376H40.421C27.7549 82.8376 17.3916 72.5447 17.3916 59.9648V28.1638C17.4108 22.1034 19.8432 16.2967 24.1579 12.0113C28.4726 7.72597 34.3191 5.31005 40.421 5.29102H45.2198C57.8858 5.29102 68.2509 15.5838 68.2509 28.1638Z" fill="#3869E5"/>
<path d="M59.542 118.898V99.2644C59.542 90.5227 52.3394 83.3691 43.5379 83.3691H42.1055C33.3022 83.3691 26.0996 90.5227 26.0996 99.2644V118.898H59.542Z" fill="#3869E5"/>
<path d="M54.5973 85.8958V74.7209C54.588 71.6207 53.344 68.65 51.1369 66.4577C48.9299 64.2653 45.9391 63.0293 42.8176 63.0195V63.0195C39.6959 63.0288 36.7046 64.2646 34.4972 66.457C32.2897 68.6495 31.0455 71.6204 31.0361 74.7209V85.8958H54.5973Z" fill="#3869E5"/>
<path d="M42.8207 70.5782C41.4958 70.5782 40.2252 70.0555 39.2883 69.125C38.3515 68.1946 37.8252 66.9326 37.8252 65.6167V60.6287C37.8257 59.3131 38.3522 58.0516 39.289 57.1215C40.2258 56.1914 41.4961 55.6689 42.8207 55.6689V55.6689C43.4765 55.6689 44.1259 55.7972 44.7317 56.0465C45.3376 56.2957 45.8881 56.6611 46.3518 57.1216C46.8155 57.5822 47.1834 58.129 47.4343 58.7307C47.6853 59.3324 47.8145 59.9774 47.8145 60.6287V65.6096C47.8156 66.2617 47.6873 66.9076 47.4369 67.5104C47.1865 68.1131 46.8188 68.6609 46.355 69.1224C45.8911 69.5839 45.3402 69.95 44.7338 70.1998C44.1273 70.4496 43.4773 70.5782 42.8207 70.5782V70.5782Z" fill="#45CBF6"/>
<path d="M42.8211 8.9043H42.8194C29.8353 8.9043 19.3096 19.3584 19.3096 32.2542V37.1647C19.3096 50.0604 29.8353 60.5145 42.8194 60.5145H42.8211C55.8053 60.5145 66.331 50.0604 66.331 37.1647V32.2542C66.331 19.3584 55.8053 8.9043 42.8211 8.9043Z" fill="#45CBF6"/>
<path d="M21.8833 43.859C23.5371 42.2164 23.5371 39.5532 21.8833 37.9105C20.2294 36.2679 17.5479 36.2679 15.894 37.9105C14.2401 39.5532 14.2401 42.2164 15.894 43.859C17.5479 45.5016 20.2294 45.5016 21.8833 43.859Z" fill="#45CBF6"/>
<path d="M70.9088 41.6713C71.3491 39.3898 69.8438 37.1858 67.5467 36.7485C65.2496 36.3112 63.0304 37.8062 62.5902 40.0877C62.1499 42.3692 63.6552 44.5732 65.9523 45.0105C68.2494 45.4478 70.4685 43.9528 70.9088 41.6713Z" fill="#45CBF6"/>
<path d="M28.0372 45.5048C28.0372 45.797 27.6047 46.033 27.0693 46.033C26.5339 46.033 26.0996 45.797 26.0996 45.5048C26.0996 45.2125 26.5339 44.9766 27.0693 44.9766C27.6047 44.9766 28.0372 45.2125 28.0372 45.5048Z" fill="#56CCF2"/>
<path d="M31.0714 45.5048C31.0714 45.797 30.6371 46.033 30.1017 46.033C29.5663 46.033 29.1338 45.797 29.1338 45.5048C29.1338 45.2125 29.5663 44.9766 30.1017 44.9766C30.6371 44.9766 31.0714 45.2125 31.0714 45.5048Z" fill="#56CCF2"/>
<path d="M29.668 46.8934C29.668 47.1857 29.2337 47.4216 28.6984 47.4216C28.163 47.4216 27.7305 47.1857 27.7305 46.8934C27.7305 46.6012 28.1648 46.3652 28.6984 46.3652C29.232 46.3652 29.668 46.6012 29.668 46.8934Z" fill="#56CCF2"/>
<path d="M32.7323 46.8934C32.7323 47.1857 32.298 47.4216 31.7626 47.4216C31.2273 47.4216 30.793 47.1857 30.793 46.8934C30.793 46.6012 31.2273 46.3652 31.7626 46.3652C32.298 46.3652 32.7323 46.6012 32.7323 46.8934Z" fill="#56CCF2"/>
<path d="M34.1134 45.5048C34.1134 45.797 33.6808 46.033 33.1455 46.033C32.6101 46.033 32.1758 45.797 32.1758 45.5048C32.1758 45.2125 32.6101 44.9766 33.1455 44.9766C33.6808 44.9766 34.1134 45.2125 34.1134 45.5048Z" fill="#56CCF2"/>
<path d="M53.0019 45.5048C53.0019 45.797 52.5675 46.033 52.0322 46.033C51.4968 46.033 51.0625 45.797 51.0625 45.5048C51.0625 45.2125 51.4968 44.9766 52.0322 44.9766C52.5675 44.9766 53.0019 45.2125 53.0019 45.5048Z" fill="#56CCF2"/>
<path d="M56.0352 45.5048C56.0352 45.797 55.6009 46.033 55.0673 46.033C54.5337 46.033 54.0977 45.797 54.0977 45.5048C54.0977 45.2125 54.532 44.9766 55.0673 44.9766C55.6027 44.9766 56.0352 45.2125 56.0352 45.5048Z" fill="#56CCF2"/>
<path d="M54.6309 46.8934C54.6309 47.1857 54.1984 47.4216 53.663 47.4216C53.1277 47.4216 52.6934 47.1857 52.6934 46.8934C52.6934 46.6012 53.1277 46.3652 53.663 46.3652C54.1984 46.3652 54.6309 46.6012 54.6309 46.8934Z" fill="#56CCF2"/>
<path d="M57.6905 46.8934C57.6905 47.1857 57.2562 47.4216 56.7208 47.4216C56.1855 47.4216 55.7529 47.1857 55.7529 46.8934C55.7529 46.6012 56.1855 46.3652 56.7208 46.3652C57.2562 46.3652 57.6905 46.6012 57.6905 46.8934Z" fill="#56CCF2"/>
<path d="M59.0702 45.5048C59.0702 45.797 58.6359 46.033 58.1005 46.033C57.5652 46.033 57.1309 45.797 57.1309 45.5048C57.1309 45.2125 57.5652 44.9766 58.1005 44.9766C58.6359 44.9766 59.0702 45.2125 59.0702 45.5048Z" fill="#56CCF2"/>
<path d="M31.7629 42.1174C32.8428 42.1174 33.7182 41.2479 33.7182 40.1754C33.7182 39.1029 32.8428 38.2334 31.7629 38.2334C30.683 38.2334 29.8076 39.1029 29.8076 40.1754C29.8076 41.2479 30.683 42.1174 31.7629 42.1174Z" fill="#3869E5"/>
<path d="M53.8772 42.1174C54.9571 42.1174 55.8325 41.2479 55.8325 40.1754C55.8325 39.1029 54.9571 38.2334 53.8772 38.2334C52.7973 38.2334 51.9219 39.1029 51.9219 40.1754C51.9219 41.2479 52.7973 42.1174 53.8772 42.1174Z" fill="#3869E5"/>
<path d="M39.6592 43.4199V48.2177C39.6615 49.0501 39.9955 49.8476 40.588 50.4362C41.1806 51.0247 41.9837 51.3564 42.8217 51.3587C43.6608 51.3578 44.4654 51.0268 45.0594 50.4382C45.6535 49.8495 45.9885 49.0511 45.9913 48.2177V43.4199H39.6592Z" fill="#3869E5"/>
<path d="M68.2508 28.1638V29.4173C63.3109 33.2107 57.2411 35.2646 50.9969 35.2557C44.4974 35.2551 38.1969 33.029 33.1572 28.9527C28.1175 24.8764 24.6468 19.1991 23.3301 12.8777C25.4828 10.4921 28.1172 8.5836 31.0619 7.27644C34.0066 5.96928 37.1955 5.29279 40.4209 5.29102H45.2196C57.8857 5.29102 68.2508 15.5838 68.2508 28.1638Z" fill="#3869E5"/>
<path d="M35.8346 77.2646H31.0713V98.2517H35.8346V77.2646Z" fill="#45CBF6"/>
<path d="M54.6002 77.2646H49.8369V98.2517H54.6002V77.2646Z" fill="#45CBF6"/>
</g>
</svg>
