<svg width="85" height="85" viewBox="0 0 85 85" fill="none" xmlns="http://www.w3.org/2000/svg">
<ellipse cx="42.5" cy="42.4998" rx="42.5" ry="42.4998" fill="white"/>
<mask id="mask0_5001_7292" style="mask-type:alpha" maskUnits="userSpaceOnUse" x="0" y="0" width="85" height="85">
<path d="M84.5 42.4998C84.5 65.6956 65.696 84.4995 42.5 84.4995C19.304 84.4995 0.5 65.6956 0.5 42.4998C0.5 19.3039 19.304 0.5 42.5 0.5C65.696 0.5 84.5 19.3039 84.5 42.4998Z" fill="#C4C4C4" stroke="black"/>
</mask>
<g mask="url(#mask0_5001_7292)">
<path d="M46.8252 67.8232H37.8789V84.1538H46.8252V67.8232Z" fill="#3869E5"/>
<path d="M38.7339 76.9365H45.8825C47.1632 76.9365 48.3914 77.4418 49.2969 78.3412C50.2025 79.2406 50.7112 80.4604 50.7112 81.7323V92.6135H33.9053V81.7323C33.9053 80.4604 34.414 79.2406 35.3196 78.3412C36.2251 77.4418 37.4533 76.9365 38.7339 76.9365Z" fill="#3869E5"/>
<path d="M58.1749 48.0337C66.994 39.26 66.994 25.035 58.1749 16.2613C49.3558 7.48757 35.0571 7.48757 26.238 16.2613C17.4189 25.035 17.4189 39.26 26.238 48.0337C35.0571 56.8074 49.3558 56.8074 58.1749 48.0337Z" fill="#3869E5"/>
<path d="M24.8039 41.7816C25.8701 39.9023 25.2005 37.5205 23.3084 36.4616C21.4162 35.4027 19.0181 36.0677 17.9519 37.9469C16.8858 39.8262 17.5554 42.208 19.4475 43.2669C21.3396 44.3258 23.7378 43.6608 24.8039 41.7816Z" fill="#3869E5"/>
<path d="M20.3253 35.9551C22.4889 35.7686 24.0907 33.8754 23.903 31.7264C23.7152 29.5774 21.8089 27.9866 19.6453 28.1731C17.4816 28.3596 15.8798 30.2528 16.0675 32.4018C16.2553 34.5507 18.1616 36.1416 20.3253 35.9551Z" fill="#3869E5"/>
<path d="M24.1287 27.4157C25.7772 26.0114 25.9673 23.5457 24.5534 21.9084C23.1395 20.2711 20.6568 20.0822 19.0083 21.4865C17.3598 22.8909 17.1697 25.3566 18.5836 26.9939C19.9976 28.6312 22.4802 28.82 24.1287 27.4157Z" fill="#3869E5"/>
<path d="M25.4871 21.7234C27.659 21.7234 29.4196 19.9748 29.4196 17.8178C29.4196 15.6607 27.659 13.9121 25.4871 13.9121C23.3153 13.9121 21.5547 15.6607 21.5547 17.8178C21.5547 19.9748 23.3153 21.7234 25.4871 21.7234Z" fill="#3869E5"/>
<path d="M34.3433 15.219C35.7474 13.5734 35.5425 11.1089 33.8856 9.71433C32.2288 8.31975 29.7473 8.52324 28.3432 10.1688C26.9391 11.8144 27.1439 14.279 28.8008 15.6735C30.4577 17.0681 32.9391 16.8646 34.3433 15.219Z" fill="#3869E5"/>
<path d="M42.6653 9.65673C42.709 10.4278 42.5216 11.1945 42.1267 11.8598C41.7318 12.5251 41.1472 13.0592 40.4468 13.3946C39.7463 13.7299 38.9615 13.8515 38.1914 13.744C37.4214 13.6364 36.7008 13.3045 36.1206 12.7903C35.5405 12.2761 35.1269 11.6025 34.932 10.8549C34.7372 10.1072 34.77 9.31892 35.0262 8.58973C35.2823 7.86053 35.7504 7.22313 36.3712 6.7581C36.9921 6.29307 37.7378 6.02129 38.5141 5.9771C39.03 5.94774 39.5467 6.01965 40.0345 6.18872C40.5224 6.35779 40.972 6.6207 41.3575 6.96244C41.7431 7.30417 42.057 7.71802 42.2814 8.18032C42.5058 8.64263 42.6362 9.14432 42.6653 9.65673V9.65673Z" fill="#3869E5"/>
<path d="M50.555 10.1357C50.605 7.9792 48.8854 6.19075 46.7141 6.14106C44.5429 6.09137 42.7422 7.79925 42.6922 9.95572C42.6421 12.1122 44.3617 13.9006 46.533 13.9503C48.7042 14 50.5049 12.2921 50.555 10.1357Z" fill="#3869E5"/>
<path d="M57.3175 15.0413C58.4975 13.2304 57.976 10.8124 56.1527 9.64039C54.3294 8.46842 51.8947 8.98638 50.7147 10.7973C49.5347 12.6082 50.0562 15.0262 51.8795 16.1982C53.7028 17.3702 56.1375 16.8522 57.3175 15.0413Z" fill="#3869E5"/>
<path d="M63.8222 19.151C64.5365 17.1139 63.4528 14.8875 61.4018 14.1781C59.3507 13.4687 57.1091 14.545 56.3948 16.5821C55.6806 18.6191 56.7642 20.8456 58.8153 21.555C60.8663 22.2643 63.108 21.188 63.8222 19.151Z" fill="#3869E5"/>
<path d="M67.3125 26.7931C68.5607 25.0279 68.1317 22.592 66.3544 21.3523C64.5771 20.1126 62.1244 20.5386 60.8763 22.3038C59.6281 24.069 60.057 26.505 61.8343 27.7447C63.6116 28.9844 66.0643 28.5583 67.3125 26.7931Z" fill="#3869E5"/>
<path d="M65.7432 36.1862C67.914 36.1192 69.6191 34.3171 69.5516 32.1611C69.4841 30.0051 67.6697 28.3117 65.4989 28.3787C63.3281 28.4457 61.623 30.2478 61.6905 32.4038C61.758 34.5598 63.5724 36.2532 65.7432 36.1862Z" fill="#3869E5"/>
<path d="M67.2161 39.5864C67.2598 40.3574 67.0724 41.124 66.6776 41.7892C66.2827 42.4545 65.6982 42.9886 64.9979 43.324C64.2975 43.6594 63.5128 43.7811 62.7428 43.6736C61.9729 43.5662 61.2522 43.2345 60.672 42.7204C60.0918 42.2064 59.6781 41.533 59.4831 40.7855C59.2881 40.0379 59.3206 39.2497 59.5765 38.5205C59.8324 37.7913 60.3002 37.1538 60.9208 36.6886C61.5414 36.2234 62.2869 35.9513 63.0631 35.9068C63.5791 35.8774 64.0959 35.9493 64.5839 36.1184C65.0719 36.2874 65.5215 36.5503 65.9072 36.892C66.2929 37.2337 66.607 37.6476 66.8316 38.1099C67.0561 38.5722 67.1868 39.0739 67.2161 39.5864V39.5864Z" fill="#3869E5"/>
<path d="M22.3178 49.5697C25.2724 49.0933 27.2787 46.3284 26.7991 43.394C26.3195 40.4596 23.5356 38.4669 20.5811 38.9432C17.6266 39.4195 15.6202 42.1845 16.0998 45.1189C16.5794 48.0533 19.3633 50.046 22.3178 49.5697Z" fill="#3869E5"/>
<path d="M66.8152 48.064C68.9317 45.9619 68.9317 42.5537 66.8152 40.4516C64.6987 38.3495 61.2672 38.3495 59.1506 40.4516C57.0341 42.5537 57.0341 45.9619 59.1506 48.064C61.2672 50.1661 64.6987 50.1661 66.8152 48.064Z" fill="#3869E5"/>
<path d="M42.8969 19.8135H41.3867C30.4262 19.8135 21.541 28.6382 21.541 39.524V51.9454C21.541 62.8312 30.4262 71.656 41.3867 71.656H42.8969C53.8573 71.656 62.7426 62.8312 62.7426 51.9454V39.524C62.7426 28.6382 53.8573 19.8135 42.8969 19.8135Z" fill="#45CBF6"/>
<path d="M46.8241 76.9352L42.3506 72.4922L37.8771 76.9352L42.3506 81.3783L46.8241 76.9352Z" fill="#3869E5"/>
<path d="M42.1391 26.6843C48.2415 26.6843 53.1884 24.7105 53.1884 22.2757C53.1884 19.841 48.2415 17.8672 42.1391 17.8672C36.0368 17.8672 31.0898 19.841 31.0898 22.2757C31.0898 24.7105 36.0368 26.6843 42.1391 26.6843Z" fill="#3869E5"/>
<path d="M34.4212 42.2266C34.4216 42.6734 34.2884 43.1103 34.0387 43.482C33.7889 43.8537 33.4338 44.1435 33.0182 44.3147C32.6026 44.4858 32.1452 44.5307 31.7039 44.4436C31.2626 44.3565 30.8573 44.1414 30.5391 43.8254C30.221 43.5094 30.0043 43.1068 29.9167 42.6685C29.829 42.2302 29.8742 41.776 30.0465 41.3632C30.2188 40.9504 30.5106 40.5977 30.8848 40.3496C31.2591 40.1016 31.699 39.9694 32.1489 39.9697C32.7515 39.9697 33.3295 40.2075 33.7557 40.6307C34.1818 41.054 34.4212 41.628 34.4212 42.2266V42.2266Z" fill="#3869E5"/>
<path d="M53.89 42.2266C53.8903 42.6733 53.7572 43.1102 53.5076 43.4819C53.2579 43.8535 52.9028 44.1433 52.4873 44.3145C52.0718 44.4857 51.6145 44.5307 51.1733 44.4437C50.7321 44.3568 50.3267 44.1418 50.0085 43.826C49.6903 43.5102 49.4735 43.1078 49.3856 42.6696C49.2977 42.2314 49.3427 41.7772 49.5147 41.3644C49.6868 40.9516 49.9783 40.5987 50.3523 40.3505C50.7263 40.1022 51.166 39.9697 51.6159 39.9697C51.9144 39.9695 52.2101 40.0277 52.486 40.141C52.7619 40.2543 53.0126 40.4205 53.2238 40.6301C53.435 40.8397 53.6025 41.0886 53.7168 41.3625C53.8311 41.6364 53.89 41.93 53.89 42.2266Z" fill="#3869E5"/>
<path d="M34.0059 49.6406C39.5208 59.453 44.944 59.7947 50.2737 49.6406H34.0059Z" fill="#3869E5"/>
<path d="M31.5554 102.753H27.2578V88.6211C27.2578 81.8016 31.5519 77.0391 37.702 77.0391V81.3074C33.4555 81.3074 31.5554 84.9871 31.5554 88.6211V102.753Z" fill="#3869E5"/>
<path d="M57.5399 102.753H53.2422V88.6211C53.2422 84.9818 51.3422 81.3074 47.0957 81.3074V77.0391C53.2458 77.0391 57.5399 81.8016 57.5399 88.6211V102.753Z" fill="#3869E5"/>
</g>
</svg>
