<?xml version="1.0" encoding="UTF-8"?>
<svg version="1.1" xmlns="http://www.w3.org/2000/svg" width="512" height="512">
<path d="M0 0 C0.94488785 -0.00705963 1.8897757 -0.01411926 2.86329651 -0.02139282 C41.96677384 -0.24733053 41.96677384 -0.24733053 58.76953125 3.203125 C60.28836914 3.50114014 60.28836914 3.50114014 61.83789062 3.80517578 C107.81931389 13.00008292 151.82359037 34.02945703 185.93359375 66.51953125 C188.28465405 68.74429492 190.67326977 70.86533513 193.14453125 72.953125 C196.38848595 75.76364943 199.18154857 78.80160067 201.94921875 82.078125 C203.17045588 83.50377521 204.42682225 84.90001185 205.71484375 86.265625 C244.08377378 127.04146208 268.69274516 187.36138198 268.97265625 243.43359375 C268.97971588 244.3784816 268.98677551 245.32336945 268.99404907 246.29689026 C269.21998678 285.40036759 269.21998678 285.40036759 265.76953125 302.203125 C265.47151611 303.72196289 265.47151611 303.72196289 265.16748047 305.27148438 C255.97257333 351.25290764 234.94319922 395.25718412 202.453125 429.3671875 C200.22836133 431.7182478 198.10732112 434.10686352 196.01953125 436.578125 C193.20900682 439.8220797 190.17105558 442.61514232 186.89453125 445.3828125 C185.46888104 446.60404963 184.0726444 447.860416 182.70703125 449.1484375 C141.93119417 487.51736753 81.61127427 512.12633891 25.5390625 512.40625 C24.59417465 512.41330963 23.6492868 512.42036926 22.67576599 512.42764282 C-16.42771134 512.65358053 -16.42771134 512.65358053 -33.23046875 509.203125 C-34.24302734 509.00444824 -35.25558594 508.80577148 -36.29882812 508.60107422 C-82.28025139 499.40616708 -126.28452787 478.37679297 -160.39453125 445.88671875 C-162.74559155 443.66195508 -165.13420727 441.54091487 -167.60546875 439.453125 C-170.84942345 436.64260057 -173.64248607 433.60464933 -176.41015625 430.328125 C-177.63139338 428.90247479 -178.88775975 427.50623815 -180.17578125 426.140625 C-218.54471128 385.36478792 -243.15368266 325.04486802 -243.43359375 268.97265625 C-243.4441832 267.55532448 -243.4441832 267.55532448 -243.45498657 266.10935974 C-243.68092428 227.00588241 -243.68092428 227.00588241 -240.23046875 210.203125 C-240.03179199 209.19056641 -239.83311523 208.17800781 -239.62841797 207.13476562 C-230.43351083 161.15334236 -209.40413672 117.14906588 -176.9140625 83.0390625 C-174.68929883 80.6880022 -172.56825862 78.29938648 -170.48046875 75.828125 C-167.66994432 72.5841703 -164.63199308 69.79110768 -161.35546875 67.0234375 C-159.92981854 65.80220037 -158.5335819 64.545834 -157.16796875 63.2578125 C-116.39213167 24.88888247 -56.07221177 0.27991109 0 0 Z " fill="#3869E5" transform="translate(243.23046875,-0.203125)"/>
<path d="M0 0 C28.04995635 22.95392391 41.6125345 53.01277178 48.515625 88.05859375 C48.74378906 89.13753906 48.97195313 90.21648437 49.20703125 91.328125 C56.66415832 132.78557969 44.337714 177.76092856 20.69140625 212.10546875 C5.47284222 232.76118581 -13.4042642 251.29789843 -37.484375 261.05859375 C-38.804375 261.05859375 -40.124375 261.05859375 -41.484375 261.05859375 C-40.21963963 257.26438763 -39.00444256 256.92446906 -35.609375 254.93359375 C-29.43631044 251.1323276 -23.9771948 246.77586257 -18.484375 242.05859375 C-17.65035156 241.35992187 -16.81632812 240.66125 -15.95703125 239.94140625 C12.34413093 215.52997726 28.35637335 178.7048063 32.515625 142.05859375 C33.0218496 135.12903098 33.00189346 128.1901891 32.953125 121.24609375 C32.95008362 120.3251593 32.94704224 119.40422485 32.94390869 118.4553833 C32.87836621 105.03315707 32.52690494 91.9777652 28.515625 79.05859375 C28.29600098 78.34751465 28.07637695 77.63643555 27.85009766 76.90380859 C18.77822146 48.68661407 1.89619028 25.08366738 -24.484375 11.18359375 C-31.28684728 7.93886792 -38.18353153 5.85892566 -45.484375 4.05859375 C-46.22558594 3.83300781 -46.96679688 3.60742188 -47.73046875 3.375 C-67.70268996 -2.27016974 -91.85788812 3.34002044 -109.37890625 13.13671875 C-114.10110248 16.05913453 -118.28442794 19.43995424 -122.484375 23.05859375 C-123.14695312 23.57679688 -123.80953125 24.095 -124.4921875 24.62890625 C-132.70635644 31.24679944 -138.77516721 40.21134927 -144.83203125 48.7578125 C-145.39833252 49.55469482 -145.96463379 50.35157715 -146.5480957 51.17260742 C-147.64324369 52.72217761 -148.7295715 54.27803308 -149.80541992 55.84106445 C-153.69421787 61.3678357 -157.88954471 66.86031699 -164.484375 69.05859375 C-169.41986282 69.6441601 -172.3215094 69.59485333 -176.421875 66.68359375 C-179.52046465 64.1314608 -182.067002 61.29303462 -184.671875 58.24609375 C-193.80464177 47.80639657 -206.39067365 39.93138179 -220.43969727 38.91748047 C-230.78899401 38.44112796 -239.77683517 39.05982396 -249.484375 43.05859375 C-250.35320312 43.40921875 -251.22203125 43.75984375 -252.1171875 44.12109375 C-263.01177701 49.03902757 -271.46437939 56.8028422 -277.484375 67.05859375 C-278.09152344 68.06277344 -278.69867188 69.06695312 -279.32421875 70.1015625 C-292.27712844 93.46061527 -291.32856568 123.90250634 -284.484375 149.05859375 C-277.05054172 174.31903487 -263.51255955 207.70647072 -240.484375 223.05859375 C-240.484375 223.71859375 -240.484375 224.37859375 -240.484375 225.05859375 C-245.85191318 223.5947197 -248.79352206 219.96057599 -252.484375 216.05859375 C-253.28746094 215.25550781 -254.09054688 214.45242188 -254.91796875 213.625 C-274.12247301 194.42049574 -287.0936842 172.39745205 -296.484375 147.05859375 C-296.86335938 146.07125244 -296.86335938 146.07125244 -297.25 145.06396484 C-307.48197334 118.32582897 -309.83814463 87.33481931 -298.6875 60.51171875 C-294.85102641 52.04979964 -289.79263801 44.89541796 -283.484375 38.05859375 C-282.91074219 37.40503906 -282.33710938 36.75148437 -281.74609375 36.078125 C-269.99544902 23.37396733 -253.04829752 17.22349533 -236.1640625 15.7734375 C-223.56486816 15.41744061 -211.57144885 18.08993896 -200.484375 24.05859375 C-199.64390625 24.50074219 -198.8034375 24.94289062 -197.9375 25.3984375 C-187.85755127 31.04884354 -180.39766377 38.63342674 -173.6875 47.96875 C-171.60228235 50.27613202 -171.60228235 50.27613202 -168.53125 50.8671875 C-165.03665512 49.93977578 -164.7537056 49.48106203 -162.91015625 46.55078125 C-162.08835613 45.06059244 -161.27988404 43.56298183 -160.484375 42.05859375 C-159.69598278 40.74278546 -158.89801327 39.43266075 -158.08984375 38.12890625 C-157.69595459 37.4838916 -157.30206543 36.83887695 -156.89624023 36.17431641 C-152.52167537 29.06161414 -147.95190848 22.39227114 -142.484375 16.05859375 C-141.49244141 14.85009766 -141.49244141 14.85009766 -140.48046875 13.6171875 C-127.23374499 -1.97149847 -109.33783178 -13.05212212 -89.484375 -17.94140625 C-88.44796875 -18.23789063 -87.4115625 -18.534375 -86.34375 -18.83984375 C-56.88865128 -26.44791427 -23.89758947 -18.35249012 0 0 Z " fill="#FBFCFE" transform="translate(380.484375,135.94140625)"/>
<path d="M0 0 C4.3533481 1.63382314 7.0706416 5.02159933 10.1875 8.3125 C21.5909488 19.99800219 34.47951092 29.54353264 49 37 C50.06605469 37.55300781 51.13210937 38.10601562 52.23046875 38.67578125 C76.19241902 50.43785915 104.07506725 51.15667931 129.17260742 42.59082031 C148.27339909 35.71461669 165.92531736 24.79514702 178.33203125 8.43359375 C180 7 180 7 182.63671875 6.72265625 C185 7 185 7 186 8 C186.55643894 11.4081885 186.70115946 13.90528652 184.7890625 16.890625 C182.94281682 19.02290875 180.99801298 21.00917411 179 23 C178.26265625 23.79664063 177.5253125 24.59328125 176.765625 25.4140625 C158.6108493 44.57743685 132.08606858 56.24002163 105.7421875 57.35546875 C80.3998175 57.91391506 57.945269 51.41802836 37 37 C36.44747559 36.62101562 35.89495117 36.24203125 35.32568359 35.8515625 C22.5995824 26.91517804 8.65732612 14.93566581 0 2 C0 1.34 0 0.68 0 0 Z " fill="#F8FAFE" transform="translate(162,311)"/>
<path d="M0 0 C1.32 0.33 2.64 0.66 4 1 C4.90830601 3.97026506 5.29306936 5.41078712 3.8828125 8.24609375 C-1.88258941 15.43362813 -7.99662217 20.52519092 -17 23 C-26.96181487 24.02600728 -35.09927731 22.45036135 -44 18 C-44 17.34 -44 16.68 -44 16 C-43.39414063 16.0721875 -42.78828125 16.144375 -42.1640625 16.21875 C-29.76826204 17.59182328 -19.41047621 17.8641909 -9 10 C-8.34 10 -7.68 10 -7 10 C-6.773125 9.46375 -6.54625 8.9275 -6.3125 8.375 C-4.56617944 5.21499137 -2.3597151 2.7323017 0 0 Z " fill="#F3F5FD" transform="translate(176,264)"/>
</svg>
