<svg width="24" height="25" viewBox="0 0 24 25" fill="none" xmlns="http://www.w3.org/2000/svg">
<path fill-rule="evenodd" clip-rule="evenodd" d="M8 9.60168C8 8.54081 8.42143 7.5234 9.17157 6.77325C9.92172 6.02311 10.9391 5.60168 12 5.60168C13.0609 5.60168 14.0783 6.02311 14.8284 6.77325C15.5786 7.5234 16 8.54081 16 9.60168C16 10.6625 15.5786 11.68 14.8284 12.4301C14.0783 13.1803 13.0609 13.6017 12 13.6017C10.9391 13.6017 9.92172 13.1803 9.17157 12.4301C8.42143 11.68 8 10.6625 8 9.60168ZM15.824 14.2247C16.7755 13.4375 17.461 12.376 17.7868 11.1848C18.1127 9.99372 18.0631 8.73105 17.6448 7.56916C17.2265 6.40727 16.4599 5.40275 15.4495 4.69267C14.4392 3.9826 13.2344 3.60156 11.9995 3.60156C10.7646 3.60156 9.55978 3.9826 8.54946 4.69267C7.53913 5.40275 6.77251 6.40727 6.35421 7.56916C5.9359 8.73105 5.8863 9.99372 6.21217 11.1848C6.53803 12.376 7.22349 13.4375 8.175 14.2247C4.986 15.3477 3 17.8487 3 20.6017C3 20.8669 3.10536 21.1213 3.29289 21.3088C3.48043 21.4963 3.73478 21.6017 4 21.6017C4.26522 21.6017 4.51957 21.4963 4.70711 21.3088C4.89464 21.1213 5 20.8669 5 20.6017C5 18.3317 7.355 15.6017 12 15.6017C16.645 15.6017 19 18.3317 19 20.6017C19 20.8669 19.1054 21.1213 19.2929 21.3088C19.4804 21.4963 19.7348 21.6017 20 21.6017C20.2652 21.6017 20.5196 21.4963 20.7071 21.3088C20.8946 21.1213 21 20.8669 21 20.6017C21 17.8487 19.016 15.3477 15.824 14.2247Z" fill="white"/>
</svg>
