<svg width="24" height="25" viewBox="0 0 24 25" fill="none" xmlns="http://www.w3.org/2000/svg">
<path d="M16.75 23.6016H6.75C5.64543 23.6016 4.75 22.7061 4.75 21.6016V3.60156C4.75 2.49699 5.64543 1.60156 6.75 1.60156H16.75C17.8546 1.60156 18.75 2.49699 18.75 3.60156V21.6016C18.75 22.7061 17.8546 23.6016 16.75 23.6016ZM6.75 3.60156V21.6016H16.75V3.60156H6.75ZM11.75 20.6016C11.1977 20.6016 10.75 20.1538 10.75 19.6016C10.75 19.0493 11.1977 18.6016 11.75 18.6016C12.3023 18.6016 12.75 19.0493 12.75 19.6016C12.75 20.1538 12.3023 20.6016 11.75 20.6016Z" fill="white"/>
</svg>
