<svg width="85" height="85" viewBox="0 0 85 85" fill="none" xmlns="http://www.w3.org/2000/svg">
<circle cx="42.5" cy="42.5" r="42.5" fill="white"/>
<mask id="mask0_5001_7412" style="mask-type:alpha" maskUnits="userSpaceOnUse" x="0" y="0" width="85" height="85">
<circle cx="42.5" cy="42.5" r="42" fill="#C4C4C4" stroke="black"/>
</mask>
<g mask="url(#mask0_5001_7412)">
<path d="M46.8252 67.8242H37.8789V84.1549H46.8252V67.8242Z" fill="#45CBF6"/>
<path d="M38.7349 76.9375H45.8835C47.1642 76.9375 48.3924 77.4428 49.2979 78.3422C50.2035 79.2416 50.7122 80.4614 50.7122 81.7333V92.6146H33.9062V81.7333C33.9062 80.4614 34.415 79.2416 35.3205 78.3422C36.2261 77.4428 37.4543 76.9375 38.7349 76.9375Z" fill="#3869E5"/>
<path d="M42.8969 19.8135H41.3867C30.4262 19.8135 21.541 29.16 21.541 40.6895V53.8453C21.541 65.3748 30.4262 71.7893 41.3867 71.7893H42.8969C53.8573 71.7893 62.7426 65.3748 62.7426 53.8453V40.6895C62.7426 29.16 53.8573 19.8135 42.8969 19.8135Z" fill="#45CBF6"/>
<path d="M54 43.3167C54 46.1094 51.7545 48.3609 49 48.3609C46.2455 48.3609 44 46.1094 44 43.3167C44 40.5239 46.2455 38.2725 49 38.2725C51.7545 38.2725 54 40.5239 54 43.3167Z" stroke="#3869E5" stroke-width="2"/>
<path d="M39 43.3167C39 46.1094 36.7545 48.3609 34 48.3609C31.2455 48.3609 29 46.1094 29 43.3167C29 40.5239 31.2455 38.2725 34 38.2725C36.7545 38.2725 39 40.5239 39 43.3167Z" stroke="#3869E5" stroke-width="2"/>
<path d="M39.5 44.3242H43.5" stroke="#3869E5" stroke-width="2"/>
<path d="M34 57.4199C40 60.9457 42 63.9678 50.2678 57.4199H34Z" fill="#3869E5"/>
<path d="M44.5 62.457H39L42 65.9828L44.5 62.457Z" fill="#3869E5"/>
<path d="M31.5564 102.754H27.2588V88.6222C27.2588 81.8026 31.5529 77.04 37.703 77.04V81.3084C33.4565 81.3084 31.5564 84.9881 31.5564 88.6222V102.754Z" fill="#3869E5"/>
<path d="M57.5399 102.754H53.2422V88.6222C53.2422 84.9828 51.3422 81.3084 47.0957 81.3084V77.04C53.2458 77.04 57.5399 81.8026 57.5399 88.6222V102.754Z" fill="#3869E5"/>
<path d="M19.5116 28.7387C20.1151 34.1424 21.3633 43.7761 21.4298 44.1118L25.0993 30.335L35.5233 23.6985L33.8555 29.2429L40.0265 26.1347L36.7742 30.335L53.0358 24.1185L59.7906 30.335L62.662 43.6415L63.4164 28.7387L64.2104 14.7938L40.0265 6.39355L45.1135 11.0973L31.3537 7.48501L36.7742 11.0973L25.0993 10.5094L35.5233 11.518L17.7607 16.39L19.5116 28.7387Z" fill="#3869E5"/>
<path d="M36.2053 44.9413C35.9956 44.9413 35.7945 44.8579 35.6463 44.7096C35.498 44.5612 35.4147 44.36 35.4147 44.1502C35.4006 43.7172 35.2187 43.3067 34.9076 43.0054C34.5965 42.7041 34.1804 42.5356 33.7474 42.5356C33.3144 42.5356 32.8984 42.7041 32.5873 43.0054C32.2762 43.3067 32.0943 43.7172 32.0802 44.1502C32.0802 44.36 31.9969 44.5612 31.8486 44.7096C31.7004 44.8579 31.4993 44.9413 31.2896 44.9413C31.0799 44.9413 30.8788 44.8579 30.7305 44.7096C30.5822 44.5612 30.4989 44.36 30.4989 44.1502C30.4888 43.717 30.5654 43.2862 30.7241 42.883C30.8828 42.4798 31.1204 42.1124 31.4231 41.8025C31.7258 41.4925 32.0873 41.2462 32.4864 41.078C32.8856 40.9099 33.3143 40.8232 33.7474 40.8232C34.1805 40.8232 34.6093 40.9099 35.0084 41.078C35.4076 41.2462 35.7691 41.4925 36.0718 41.8025C36.3744 42.1124 36.6121 42.4798 36.7708 42.883C36.9295 43.2862 37.0061 43.717 36.996 44.1502C36.996 44.36 36.9127 44.5612 36.7644 44.7096C36.6161 44.8579 36.415 44.9413 36.2053 44.9413Z" fill="#3869E5"/>
<path d="M51.3 44.9413C51.0904 44.9413 50.8893 44.8579 50.741 44.7096C50.5927 44.5612 50.5094 44.36 50.5094 44.1502C50.4953 43.7172 50.3135 43.3067 50.0023 43.0054C49.6912 42.7041 49.2752 42.5356 48.8422 42.5356C48.4092 42.5356 47.9931 42.7041 47.682 43.0054C47.3709 43.3067 47.189 43.7172 47.1749 44.1502C47.1749 44.36 47.0916 44.5612 46.9434 44.7096C46.7951 44.8579 46.594 44.9413 46.3843 44.9413C46.1746 44.9413 45.9735 44.8579 45.8252 44.7096C45.677 44.5612 45.5937 44.36 45.5937 44.1502C45.5835 43.717 45.6601 43.2862 45.8188 42.883C45.9775 42.4798 46.2152 42.1124 46.5178 41.8025C46.8205 41.4925 47.182 41.2462 47.5812 41.078C47.9803 40.9099 48.4091 40.8232 48.8422 40.8232C49.2753 40.8232 49.704 40.9099 50.1032 41.078C50.5023 41.2462 50.8639 41.4925 51.1665 41.8025C51.4692 42.1124 51.7068 42.4798 51.8655 42.883C52.0242 43.2862 52.1008 43.717 52.0907 44.1502C52.0907 44.36 52.0074 44.5612 51.8591 44.7096C51.7108 44.8579 51.5097 44.9413 51.3 44.9413Z" fill="#3869E5"/>
</g>
</svg>
