<svg width="85" height="85" viewBox="0 0 85 85" fill="none" xmlns="http://www.w3.org/2000/svg">
<ellipse cx="42.8049" cy="42.4999" rx="42.1955" ry="42.4999" fill="white"/>
<mask id="mask0_5001_7202" style="mask-type:alpha" maskUnits="userSpaceOnUse" x="0" y="0" width="85" height="85">
<ellipse cx="42.1955" cy="42.4999" rx="42.1955" ry="42.4999" fill="#C4C4C4"/>
</mask>
<g mask="url(#mask0_5001_7202)">
<path d="M27.3064 14.6729H27.3047C23.1237 14.6729 19.7344 18.0634 19.7344 22.2459V51.5955C19.7344 55.778 23.1237 59.1686 27.3047 59.1686H27.3064C31.4874 59.1686 34.8768 55.778 34.8768 51.5955V22.2459C34.8768 18.0634 31.4874 14.6729 27.3064 14.6729Z" fill="#3869E5"/>
<path d="M62.5948 17.8736C62.5948 8.95313 55.366 1.72168 46.4488 1.72168C37.5316 1.72168 30.3027 8.95313 30.3027 17.8736V47.6332C30.3027 56.5536 37.5316 63.7851 46.4488 63.7851C55.366 63.7851 62.5948 56.5536 62.5948 47.6332V17.8736Z" fill="#3869E5"/>
<path d="M18.6269 58.0674C21.5987 58.0674 24.0078 55.6574 24.0078 52.6846C24.0078 49.7117 21.5987 47.3018 18.6269 47.3018C15.6552 47.3018 13.2461 49.7117 13.2461 52.6846C13.2461 55.6574 15.6552 58.0674 18.6269 58.0674Z" fill="#45CBF6"/>
<path d="M63.6064 58.0674C66.5782 58.0674 68.9873 55.6574 68.9873 52.6846C68.9873 49.7117 66.5782 47.3018 63.6064 47.3018C60.6347 47.3018 58.2256 49.7117 58.2256 52.6846C58.2256 55.6574 60.6347 58.0674 63.6064 58.0674Z" fill="#45CBF6"/>
<path d="M45.769 65.9277H36.8867V82.2584H45.769V65.9277Z" fill="#45CBF6"/>
<path d="M37.7355 75.041H44.8329C46.1043 75.041 47.3237 75.5463 48.2228 76.4457C49.1218 77.3451 49.6269 78.5649 49.6269 79.8368V90.7181H32.9414V79.8368C32.9414 78.5649 33.4465 77.3451 34.3456 76.4457C35.2446 75.5463 36.464 75.041 37.7355 75.041V75.041Z" fill="#3869E5"/>
<path d="M41.1175 69.7578C52.9842 69.7578 62.6041 58.9475 62.6041 45.6123C62.6041 32.2771 52.9842 21.4668 41.1175 21.4668C29.2507 21.4668 19.6309 32.2771 19.6309 45.6123C19.6309 58.9475 29.2507 69.7578 41.1175 69.7578Z" fill="#45CBF6"/>
<path d="M40.9113 55.9647C38.9135 55.9651 36.951 55.438 35.2221 54.4368C34.8885 54.2472 34.5958 53.9932 34.3611 53.6895C34.1264 53.3858 33.9543 53.0386 33.8548 52.6678C33.7554 52.2971 33.7306 51.9102 33.7818 51.5298C33.833 51.1494 33.9593 50.7829 34.1532 50.4517C34.3472 50.1205 34.605 49.8312 34.9117 49.6005C35.2184 49.3697 35.5678 49.2023 35.9397 49.1078C36.3116 49.0133 36.6986 48.9936 37.0782 49.0499C37.4577 49.1063 37.8223 49.2375 38.1508 49.4359C40.0057 50.5223 42.1233 50.2542 42.9396 49.6427C43.244 49.4144 43.5904 49.2484 43.959 49.154C44.3276 49.0597 44.7111 49.0389 45.0877 49.0928C45.4643 49.1468 45.8266 49.2744 46.154 49.4684C46.4813 49.6624 46.7672 49.919 46.9954 50.2236C47.2235 50.5281 47.3895 50.8746 47.4838 51.2433C47.5781 51.612 47.5989 51.9957 47.545 52.3725C47.4911 52.7492 47.3635 53.1117 47.1696 53.4391C46.9757 53.7665 46.7191 54.0526 46.4147 54.2808C44.9206 55.3987 42.9536 55.9647 40.9113 55.9647Z" fill="#3869E5"/>
<path d="M37.1689 81.3945H32.9424V105.004H37.1689V81.3945Z" fill="#45CBF6"/>
<path d="M45.4014 105.003H49.6279V81.3936H45.4014V105.003Z" fill="#45CBF6"/>
<path d="M34.3812 34.0624L31.3773 35.1681C31.0269 35.2961 30.6402 35.2803 30.3015 35.124C29.9628 34.9677 29.6997 34.6837 29.5696 34.334V34.334C29.4415 33.9822 29.4583 33.594 29.6163 33.2545C29.7743 32.9151 30.0606 32.6524 30.4121 32.524L33.4143 31.4166C33.7649 31.2887 34.1518 31.3048 34.4906 31.4614C34.8293 31.618 35.0923 31.9024 35.222 32.2524V32.2524C35.3501 32.604 35.3336 32.9921 35.176 33.3315C35.0183 33.6708 34.7325 33.9337 34.3812 34.0624Z" fill="#3869E5"/>
<path d="M48.2425 34.0621L51.2447 35.1677C51.5953 35.2958 51.9823 35.2801 52.3213 35.1238C52.6603 34.9675 52.9237 34.6835 53.0541 34.3337V34.3337C53.1815 33.983 53.1652 33.5961 53.0087 33.2574C52.8522 32.9187 52.5682 32.6556 52.2186 32.5254L49.2164 31.418C48.8654 31.2888 48.4775 31.3041 48.1377 31.4604C47.7979 31.6167 47.5339 31.9014 47.4035 32.2521V32.2521C47.2758 32.6034 47.2923 32.9911 47.4495 33.3304C47.6068 33.6696 47.8919 33.9327 48.2425 34.0621V34.0621Z" fill="#3869E5"/>
<path d="M37.8137 44.4899C37.7297 44.4901 37.6465 44.4737 37.5688 44.4417C37.4911 44.4096 37.4206 44.3625 37.3611 44.3031C37.3017 44.2436 37.2546 44.173 37.2226 44.0953C37.1905 44.0176 37.1742 43.9344 37.1744 43.8503C37.1744 42.5821 36.6708 41.3658 35.7744 40.4691C34.8779 39.5723 33.6621 39.0685 32.3943 39.0685C31.1266 39.0685 29.9108 39.5723 29.0143 40.4691C28.1179 41.3658 27.6143 42.5821 27.6143 43.8503C27.6057 44.0144 27.5345 44.1689 27.4154 44.282C27.2963 44.3951 27.1383 44.4581 26.9741 44.4581C26.8099 44.4581 26.6519 44.3951 26.5328 44.282C26.4137 44.1689 26.3425 44.0144 26.3339 43.8503C26.3202 43.0456 26.4668 42.2462 26.7652 41.4988C27.0636 40.7513 27.5078 40.0708 28.0718 39.4969C28.6358 38.923 29.3085 38.4671 30.0505 38.156C30.7924 37.8448 31.5889 37.6846 32.3935 37.6846C33.198 37.6846 33.9945 37.8448 34.7365 38.156C35.4785 38.4671 36.1511 38.923 36.7151 39.4969C37.2792 40.0708 37.7233 40.7513 38.0217 41.4988C38.3201 42.2462 38.4667 43.0456 38.453 43.8503C38.4533 43.9344 38.4369 44.0176 38.4049 44.0953C38.3728 44.173 38.3257 44.2436 38.2663 44.3031C38.2069 44.3625 38.1363 44.4096 38.0587 44.4417C37.981 44.4737 37.8977 44.4901 37.8137 44.4899V44.4899Z" fill="#3869E5"/>
<path d="M54.5833 44.4899C54.4992 44.4901 54.416 44.4737 54.3383 44.4417C54.2607 44.4096 54.1901 44.3625 54.1307 44.3031C54.0713 44.2436 54.0242 44.173 53.9921 44.0953C53.9601 44.0176 53.9437 43.9344 53.9439 43.8503C53.9439 43.2223 53.8203 42.6005 53.5801 42.0204C53.3398 41.4402 52.9877 40.9131 52.5439 40.4691C52.1 40.025 51.5731 39.6728 50.9931 39.4325C50.4132 39.1922 49.7916 39.0685 49.1639 39.0685C48.5361 39.0685 47.9146 39.1922 47.3346 39.4325C46.7547 39.6728 46.2277 40.025 45.7839 40.4691C45.34 40.9131 44.9879 41.4402 44.7477 42.0204C44.5075 42.6005 44.3838 43.2223 44.3838 43.8503C44.3752 44.0144 44.304 44.1689 44.1849 44.282C44.0658 44.3951 43.9078 44.4581 43.7436 44.4581C43.5794 44.4581 43.4214 44.3951 43.3023 44.282C43.1832 44.1689 43.112 44.0144 43.1034 43.8503C43.0897 43.0456 43.2364 42.2462 43.5348 41.4988C43.8331 40.7513 44.2773 40.0708 44.8413 39.4969C45.4054 38.923 46.078 38.4671 46.82 38.156C47.562 37.8448 48.3585 37.6846 49.163 37.6846C49.9675 37.6846 50.764 37.8448 51.506 38.156C52.248 38.4671 52.9206 38.923 53.4847 39.4969C54.0487 40.0708 54.4929 40.7513 54.7912 41.4988C55.0896 42.2462 55.2363 43.0456 55.2226 43.8503C55.2228 43.9344 55.2064 44.0176 55.1744 44.0953C55.1423 44.173 55.0953 44.2436 55.0358 44.3031C54.9764 44.3625 54.9059 44.4096 54.8282 44.4417C54.7505 44.4737 54.6673 44.4901 54.5833 44.4899V44.4899Z" fill="#3869E5"/>
</g>
</svg>
