<svg width="85" height="85" viewBox="0 0 85 85" fill="none" xmlns="http://www.w3.org/2000/svg">
<circle cx="42.5" cy="42.5" r="42.5" fill="white"/>
<mask id="mask0_5001_7379" style="mask-type:alpha" maskUnits="userSpaceOnUse" x="0" y="0" width="85" height="85">
<circle cx="42.5" cy="42.5" r="42.5" fill="#DDE1F0"/>
<mask id="mask1_5001_7379" style="mask-type:alpha" maskUnits="userSpaceOnUse" x="0" y="0" width="85" height="85">
<circle cx="42.5" cy="42.5" r="42.5" fill="#DDE1F0"/>
</mask>
<g mask="url(#mask1_5001_7379)">
</g>
</mask>
<g mask="url(#mask0_5001_7379)">
<path d="M55.3368 20.102C43.4634 21.8332 46.0459 31.4836 48.4206 43.3282C49.4839 48.5824 45.56 55.0976 49.9164 58.1886C54.2727 61.2796 66.5791 60.7122 71.8487 59.9515C69.4406 54.1431 68.0624 50.3115 65.744 34.4114C63.4256 18.5112 54.5492 25.5677 55.3368 20.102Z" fill="#3869E5"/>
<path d="M27.46 20.102C39.3334 21.8333 36.7509 31.4836 34.3762 43.3283C33.3129 48.5824 37.2368 55.0976 32.8804 58.1886C28.5241 61.2796 16.2177 60.7122 10.948 59.9516C13.3562 54.1431 14.7344 50.3115 17.0528 34.4114C19.3711 18.5113 28.2475 25.5677 27.46 20.102Z" fill="#3869E5"/>
<path d="M35.2378 71.7607H48.0403C48.8307 71.7607 49.5886 72.0726 50.1475 72.6276C50.7063 73.1827 51.0203 73.9355 51.0203 74.7204V89.2635H32.2578V74.7186C32.2583 73.934 32.5724 73.1817 33.1312 72.627C33.69 72.0723 34.4477 71.7607 35.2378 71.7607V71.7607Z" fill="#3869E5"/>
<path d="M35.6338 77.8086H32.2461V90.2301H35.6338V77.8086Z" fill="#45CBF6"/>
<path d="M47.7225 90.2285H51.0215V77.8071H47.7225V90.2285Z" fill="#45CBF6"/>
<path d="M37.5498 65.6475H45.7841V73.5704C45.7846 74.1073 45.6785 74.639 45.4721 75.1352C45.2657 75.6314 44.9629 76.0823 44.581 76.4623C44.1991 76.8423 43.7456 77.1438 43.2463 77.3497C42.7471 77.5555 42.2119 77.6617 41.6714 77.6622V77.6622C40.5797 77.6622 39.5327 77.2315 38.7607 76.4648C37.9888 75.6981 37.5551 74.6582 37.5551 73.574V65.651L37.5498 65.6475Z" fill="#45CBF6"/>
<path d="M58.7276 52.6276C68.1653 43.2384 68.1653 28.0155 58.7276 18.6263C49.2898 9.23717 33.9882 9.23717 24.5505 18.6263C15.1127 28.0155 15.1127 43.2384 24.5505 52.6276C33.9882 62.0167 49.2898 62.0167 58.7276 52.6276Z" fill="#3869E5"/>
<path d="M61.0459 40.7778C61.0459 30.1477 52.3694 21.5303 41.6665 21.5303C30.9635 21.5303 22.2871 30.1477 22.2871 40.7778V50.3928C22.2871 61.0229 30.9635 69.6403 41.6665 69.6403C52.3694 69.6403 61.0459 61.0229 61.0459 50.3928V40.7778Z" fill="#45CBF6"/>
<path d="M62.6271 41.1677C62.6271 29.1688 52.5971 19.3478 40.5337 19.9887C35.1812 20.2828 30.1448 22.5998 26.4576 26.4646C22.7703 30.3294 20.7118 35.449 20.7041 40.7733C26.7992 39.2284 25.5982 38.6941 41.6665 38.6941C57.7348 38.6941 57.3323 39.5998 62.6271 41.1677Z" fill="#3869E5"/>
</g>
<path d="M47.2234 45C47.4331 45 47.6342 45.0827 47.7825 45.23C47.9307 45.3772 48.014 45.577 48.014 45.7852C48.0281 46.215 48.21 46.6226 48.5211 46.9217C48.8322 47.2208 49.2483 47.388 49.6813 47.388C50.1143 47.388 50.5303 47.2208 50.8414 46.9217C51.1526 46.6226 51.3344 46.215 51.3485 45.7852C51.3485 45.577 51.4318 45.3772 51.5801 45.23C51.7284 45.0827 51.9295 45 52.1391 45C52.3488 45 52.5499 45.0827 52.6982 45.23C52.8465 45.3772 52.9298 45.577 52.9298 45.7852C52.9399 46.2153 52.8633 46.643 52.7046 47.0432C52.5459 47.4434 52.3083 47.8081 52.0056 48.1158C51.703 48.4235 51.3414 48.668 50.9423 48.835C50.5431 49.0019 50.1144 49.0879 49.6813 49.0879C49.2482 49.0879 48.8194 49.0019 48.4203 48.835C48.0211 48.668 47.6596 48.4235 47.3569 48.1158C47.0543 47.8081 46.8166 47.4434 46.6579 47.0432C46.4992 46.643 46.4226 46.2153 46.4328 45.7852C46.4328 45.577 46.5161 45.3772 46.6643 45.23C46.8126 45.0827 47.0137 45 47.2234 45Z" fill="#3869E5"/>
<path d="M30.1179 45C30.3276 45 30.5287 45.0827 30.677 45.23C30.8253 45.3772 30.9086 45.577 30.9086 45.7852C30.9227 46.215 31.1045 46.6226 31.4156 46.9217C31.7268 47.2208 32.1428 47.388 32.5758 47.388C33.0088 47.388 33.4248 47.2208 33.736 46.9217C34.0471 46.6226 34.2289 46.215 34.243 45.7852C34.243 45.577 34.3263 45.3772 34.4746 45.23C34.6229 45.0827 34.824 45 35.0337 45C35.2434 45 35.4445 45.0827 35.5927 45.23C35.741 45.3772 35.8243 45.577 35.8243 45.7852C35.8344 46.2153 35.7579 46.643 35.5992 47.0432C35.4405 47.4434 35.2028 47.8081 34.9001 48.1158C34.5975 48.4235 34.236 48.668 33.8368 48.835C33.4376 49.0019 33.0089 49.0879 32.5758 49.0879C32.1427 49.0879 31.714 49.0019 31.3148 48.835C30.9156 48.668 30.5541 48.4235 30.2515 48.1158C29.9488 47.8081 29.7111 47.4434 29.5524 47.0432C29.3937 46.643 29.3172 46.2153 29.3273 45.7852C29.3271 45.682 29.3473 45.5798 29.387 45.4844C29.4266 45.3891 29.4849 45.3024 29.5583 45.2294C29.6318 45.1565 29.7191 45.0987 29.8151 45.0593C29.9111 45.0199 30.014 44.9997 30.1179 45Z" fill="#3869E5"/>
<path d="M33 54C38.5149 66.3735 43.9381 66.8044 49.2678 54H33Z" fill="#3869E5"/>
</svg>
